<?xml version="1.0" encoding="utf-8"?>
<!-- Generator: Adobe Illustrator 23.0.1, SVG Export Plug-In . SVG Version: 6.00 Build 0)  -->
<svg version="1.1" id="Layer_1" xmlns="http://www.w3.org/2000/svg" xmlns:xlink="http://www.w3.org/1999/xlink" x="0px" y="0px"
	 viewBox="0 0 234.2 264.3" style="enable-background:new 0 0 234.2 264.3;" xml:space="preserve">
<style type="text/css">
	.st0{fill:#808080;}
	.st1{opacity:0.3;}
	.st2{fill:#478C0C;}
	.st3{fill:#79BA08;}
	.st4{fill:#C97BC3;}
	.st5{fill:#F8F1F1;}
	.st6{fill:none;stroke:#F8ADE2;stroke-width:0.3871;stroke-miterlimit:10;}
	.st7{fill:#DB491D;}
	.st8{fill:#F35220;}
	.st9{fill:#D32D01;}
	.st10{fill:#F58444;}
	.st11{opacity:0.3;fill:#8AB242;}
	.st12{fill:#FFFFFF;}
	.st13{opacity:0.2;fill:#63B7AB;}
	.st14{fill:#3E72CE;}
	.st15{fill:#3BBAEA;}
	.st16{fill:#3164AD;}
	.st17{opacity:0.4;fill:#3164AD;}
	.st18{opacity:0.4;fill:#3FA9F5;}
	.st19{fill:#4C85D8;}
	.st20{fill:#A6D32E;}
	.st21{fill:#9ABF28;}
	.st22{fill:#B8CE5D;}
	.st23{opacity:0.4;fill:#71AE26;}
	.st24{fill:#4C7B2B;}
	.st25{fill:#416B25;}
	.st26{fill:#5F9229;}
	.st27{fill:#527E23;}
	.st28{fill:#588526;}
	.st29{fill:#71A735;}
	.st30{fill:#5F872D;}
	.st31{fill:#496D1F;}
	.st32{fill:#6A9E30;}
	.st33{fill:#598229;}
	.st34{fill:#7CB33B;}
	.st35{fill:#4B8241;}
	.st36{fill:#053041;}
	.st37{fill:#AF2323;}
	.st38{opacity:0.5;fill:#931B1B;}
	.st39{opacity:0.1;fill:#FFFFFF;}
	.st40{fill:#71AE26;}
	.st41{opacity:0.6;fill:#4B8241;}
	.st42{fill:#FFDC2B;}
	.st43{fill:#EDA526;}
	.st44{opacity:0.3;fill:#FFFFFF;}
	.st45{opacity:0.3;fill:#AF7923;}
	.st46{fill:#FF8345;}
	.st47{fill:#FFB048;}
	.st48{opacity:0.3;fill:#D86430;}
	.st49{opacity:0.16;fill:#FFFFFF;}
	.st50{fill:#FF8500;}
	.st51{opacity:0.4;fill:#7F4A62;}
	.st52{fill:#69AA2B;}
	.st53{fill:#C62A27;}
	.st54{fill:#E9694A;}
	.st55{opacity:0.4;fill:#AF2323;}
	.st56{fill:#FD933D;}
	.st57{opacity:0.5;fill:#EDA526;}
	.st58{fill:#E1D0B2;}
	.st59{opacity:0.1;fill:#4F3F0D;}
	.st60{opacity:0.2;fill:#4F3F0D;}
	.st61{fill:#DB944F;}
	.st62{fill:#CEB997;}
	.st63{fill:#FFE2EE;}
	.st64{fill:#955771;}
	.st65{fill:#3FA9F5;}
</style>
<title>catgoria</title>
<rect x="-0.2" y="-0.1" class="st0" width="234.2" height="264.3"/>
<g class="st1">
	<path class="st2" d="M29.7,24c0-1.3-0.4-2.6-1.1-3.9c-1.8-3-5.5-4.5-8.9-3.5c-4.5,1.4-6.8,6.3-5,10.5c0.4,1,1,1.8,1.7,2.5
		c0.9,0.9,1.3,2.2,0.9,3.5c-0.7,2.3-0.6,4.8,0.6,7.1c2.2,4.6,7.7,6.9,12.5,5.1c5.4-2,8-8.1,5.7-13.3c-0.9-2.1-2.5-3.8-4.4-4.8
		C30.6,26.5,29.8,25.3,29.7,24z"/>
	<path class="st3" d="M29.8,39.7c3.2,7.5,5.4,13.8,4.9,14s-3.6-5.7-6.8-13.2c-3.2-7.5-5.4-13.8-4.9-14
		C23.6,26.2,26.6,32.2,29.8,39.7z"/>
	<path class="st3" d="M23.8,34.5c1.7,0.6,3.1,0.9,3.2,0.6c0.1-0.3-1.2-1-2.9-1.7c-1.7-0.6-3.1-0.9-3.2-0.6
		C20.9,33.1,22.2,33.9,23.8,34.5z"/>
	<path class="st3" d="M28.4,32.6c-0.7,1.7-1.5,2.9-1.8,2.8c-0.3-0.1,0.1-1.6,0.8-3.2c0.7-1.7,1.5-2.9,1.8-2.8
		C29.4,29.5,29.1,30.9,28.4,32.6z"/>
	<path class="st3" d="M25.8,39.1c1.7,0.6,3.1,0.9,3.2,0.6c0.1-0.3-1.2-1-2.9-1.7c-1.7-0.6-3.1-0.9-3.2-0.6
		C22.9,37.8,24.1,38.5,25.8,39.1z"/>
	<path class="st3" d="M30.3,37.2c-0.7,1.7-1.5,2.9-1.8,2.8c-0.3-0.1,0.1-1.6,0.8-3.2c0.7-1.7,1.5-2.9,1.8-2.8
		C31.4,34.1,31,35.6,30.3,37.2z"/>
	<path class="st3" d="M27.8,43.8c1.7,0.6,3.1,0.9,3.2,0.6c0.1-0.3-1.2-1-2.9-1.7c-1.7-0.6-3.1-0.9-3.2-0.6
		C24.8,42.4,26.1,43.2,27.8,43.8z"/>
	<path class="st3" d="M32.3,41.9c-0.7,1.7-1.5,2.9-1.8,2.8c-0.3-0.1,0.1-1.6,0.8-3.2c0.7-1.7,1.5-2.9,1.8-2.8
		C33.4,38.8,33,40.2,32.3,41.9z"/>
</g>
<g class="st1">
	<path class="st2" d="M185.4,28.4c0.8-1,1.4-2.3,1.6-3.7c0.5-3.5-1.5-7-4.7-8.3c-4.4-1.8-9.2,0.6-10.5,5.1c-0.3,1-0.4,2-0.3,3
		c0.1,1.3-0.4,2.6-1.5,3.3c-2,1.3-3.5,3.4-4.1,5.9c-1.2,5,1.7,10.2,6.5,11.8c5.5,1.8,11.3-1.3,12.9-6.7c0.6-2.2,0.5-4.5-0.4-6.5
		C184.4,31,184.5,29.5,185.4,28.4z"/>
	<path class="st3" d="M175.5,40.7c-2.2,7.9-4.5,14.1-5.1,14c-0.5-0.2,0.8-6.7,3.1-14.5c2.2-7.9,4.5-14.1,5.1-14
		C179.1,26.3,177.8,32.8,175.5,40.7z"/>
	<path class="st3" d="M174.1,32.9c0.9,1.6,1.9,2.7,2.1,2.5c0.3-0.2-0.3-1.5-1.2-3.1c-0.9-1.6-1.9-2.7-2.1-2.5
		C172.7,29.9,173.2,31.3,174.1,32.9z"/>
	<path class="st3" d="M178.9,34.2c-1.6,0.8-3,1.3-3.1,1c-0.1-0.3,1-1.2,2.6-2c1.6-0.8,3-1.3,3.1-1C181.6,32.5,180.5,33.4,178.9,34.2
		z"/>
	<path class="st3" d="M172.8,37.7c0.9,1.6,1.9,2.7,2.1,2.5c0.3-0.2-0.3-1.5-1.2-3.1c-0.9-1.6-1.9-2.7-2.1-2.5
		C171.3,34.8,171.9,36.2,172.8,37.7z"/>
	<path class="st3" d="M177.5,39.1c-1.6,0.8-3,1.3-3.1,1c-0.1-0.3,1-1.2,2.6-2c1.6-0.8,3-1.3,3.1-1C180.2,37.3,179.1,38.2,177.5,39.1
		z"/>
	<path class="st3" d="M171.4,42.6c0.9,1.6,1.9,2.7,2.1,2.5c0.3-0.2-0.3-1.5-1.2-3.1c-0.9-1.6-1.9-2.7-2.1-2.5
		C170,39.7,170.5,41,171.4,42.6z"/>
	<path class="st3" d="M176.1,43.9c-1.6,0.8-3,1.3-3.1,1c-0.1-0.3,1-1.2,2.6-2s3-1.3,3.1-1C178.9,42.2,177.7,43.1,176.1,43.9z"/>
</g>
<g class="st1">
	<path class="st2" d="M209.3,241.4c0.4,1.2,1.2,2.4,2.3,3.3c2.7,2.3,6.7,2.5,9.5,0.5c3.9-2.7,4.4-8.1,1.4-11.6
		c-0.7-0.8-1.5-1.4-2.4-1.8c-1.2-0.6-2-1.7-2-3c-0.1-2.4-1-4.7-2.8-6.6c-3.6-3.7-9.5-4.1-13.5-0.9c-4.5,3.6-5,10.2-1.2,14.5
		c1.5,1.7,3.6,2.8,5.7,3.2C207.6,239.2,208.8,240.1,209.3,241.4z"/>
	<path class="st3" d="M204.3,226.5c-5.4-6.1-9.5-11.4-9.1-11.8c0.4-0.4,5.2,4.3,10.6,10.4c5.4,6.1,9.5,11.4,9.1,11.8
		C214.4,237.3,209.7,232.6,204.3,226.5z"/>
	<path class="st3" d="M211.6,229.5c-1.8-0.1-3.3,0.1-3.3,0.4c0,0.3,1.4,0.6,3.2,0.7c1.8,0.1,3.3-0.1,3.3-0.4
		C214.8,229.9,213.4,229.6,211.6,229.5z"/>
	<path class="st3" d="M207.9,232.8c0.1-1.8,0.5-3.2,0.8-3.2c0.3,0,0.4,1.5,0.3,3.3s-0.5,3.2-0.8,3.2
		C207.9,236.1,207.7,234.6,207.9,232.8z"/>
	<path class="st3" d="M208.2,225.8c-1.8-0.1-3.3,0.1-3.3,0.4c0,0.3,1.4,0.6,3.2,0.7c1.8,0.1,3.3-0.1,3.3-0.4
		C211.4,226.1,210,225.8,208.2,225.8z"/>
	<path class="st3" d="M204.5,229c0.1-1.8,0.5-3.2,0.8-3.2c0.3,0,0.4,1.5,0.3,3.3c-0.1,1.8-0.5,3.2-0.8,3.2
		C204.5,232.3,204.4,230.8,204.5,229z"/>
	<path class="st3" d="M204.9,222c-1.8-0.1-3.3,0.1-3.3,0.4s1.4,0.6,3.2,0.7c1.8,0.1,3.3-0.1,3.3-0.4
		C208.1,222.4,206.6,222,204.9,222z"/>
	<path class="st3" d="M201.2,225.2c0.1-1.8,0.5-3.2,0.8-3.2c0.3,0,0.4,1.5,0.3,3.3s-0.5,3.2-0.8,3.2
		C201.2,228.5,201,227,201.2,225.2z"/>
</g>
<g class="st1">
	<path class="st2" d="M11.9,248c-0.6,0.4-1.2,1-1.6,1.7c-1,1.8-0.6,4.2,0.9,5.6c2,1.9,5.1,1.6,6.7-0.6c0.4-0.5,0.6-1,0.7-1.6
		c0.2-0.8,0.7-1.4,1.5-1.5c1.3-0.3,2.6-1.2,3.4-2.5c1.7-2.5,1.2-6.1-1.1-8c-2.6-2.2-6.4-1.7-8.3,1.1c-0.8,1.1-1.2,2.4-1.1,3.7
		C12.9,246.8,12.5,247.6,11.9,248z"/>
	<path class="st3" d="M19.7,243.2c2.8-3.9,5.3-7,5.6-6.8s-1.8,3.6-4.6,7.5c-2.8,3.9-5.3,7-5.6,6.8C14.8,250.5,16.9,247.1,19.7,243.2
		z"/>
	<path class="st3" d="M18.9,247.8c-0.2-1.1-0.5-1.9-0.6-1.9c-0.2,0-0.2,0.9,0,2c0.2,1.1,0.5,1.9,0.6,1.9
		C19,249.8,19,248.9,18.9,247.8z"/>
	<path class="st3" d="M16.6,246.1c1-0.1,1.9-0.1,1.9,0.1c0,0.2-0.8,0.4-1.8,0.6s-1.9,0.1-1.9-0.1C14.7,246.5,15.5,246.2,16.6,246.1z
		"/>
	<path class="st3" d="M20.6,245.4c-0.2-1.1-0.5-1.9-0.6-1.9c-0.2,0-0.2,0.9,0,2c0.2,1.1,0.5,1.9,0.6,1.9
		C20.8,247.4,20.8,246.5,20.6,245.4z"/>
	<path class="st3" d="M18.3,243.7c1-0.1,1.9-0.1,1.9,0.1c0,0.2-0.8,0.4-1.8,0.6c-1,0.1-1.9,0.1-1.9-0.1
		C16.5,244.1,17.3,243.8,18.3,243.7z"/>
	<path class="st3" d="M22.3,243c-0.2-1.1-0.5-1.9-0.6-1.9s-0.2,0.9,0,2c0.2,1.1,0.5,1.9,0.6,1.9C22.5,244.9,22.5,244,22.3,243z"/>
	<path class="st3" d="M20,241.2c1-0.1,1.9-0.1,1.9,0.1c0,0.2-0.8,0.4-1.8,0.6c-1,0.1-1.9,0.1-1.9-0.1C18.2,241.6,19,241.4,20,241.2z
		"/>
</g>
<g class="st1">
	<path class="st4" d="M14.1,65.1c-1.7,4.8,0.8,10.8,6,12.7c5.2,1.9,10.9-1.1,12.7-6L14.1,65.1z"/>
	<path class="st5" d="M15.9,65.9c-1.3,3.6,0.7,8.7,4.8,10.1c4.1,1.5,8.8-1.1,10.1-4.8L15.9,65.9z"/>
	<path class="st6" d="M28.8,70.4c-1.1,3-4.5,4.8-7.5,3.7c-3-1.1-4.5-4.6-3.4-7.6"/>
	<path class="st6" d="M26.9,69.7c-0.7,2-2.9,3.2-4.9,2.5c-2-0.7-2.9-3.1-2.2-5"/>
	<path class="st6" d="M25.5,69.2c-0.4,1.2-1.8,2-3,1.6c-1.2-0.4-1.7-1.9-1.3-3.1"/>
</g>
<g class="st1">
	<path class="st4" d="M120.9,252c2.1,4.7,8.1,7.2,13.1,5c5-2.2,7.1-8.4,5-13.1L120.9,252z"/>
	<path class="st5" d="M122.8,251.4c1.6,3.5,6.5,5.8,10.5,4c4-1.8,5.6-6.9,4-10.5L122.8,251.4z"/>
	<path class="st6" d="M135.1,245.6c1.3,2.9,0.1,6.6-2.8,7.9c-2.9,1.3-6.5-0.2-7.8-3.1"/>
	<path class="st6" d="M133.2,246.4c0.9,1.9,0.1,4.3-1.8,5.2c-1.9,0.9-4.2-0.2-5.1-2.1"/>
	<path class="st6" d="M131.9,247c0.5,1.2,0.1,2.7-1.1,3.2c-1.2,0.5-2.6-0.2-3.1-1.3"/>
</g>
<g class="st1">
	<path class="st4" d="M51.5,166.3c-3.3,3.9-2.9,10.5,1.3,14c4.2,3.5,10.7,2.7,14-1.3L51.5,166.3z"/>
	<path class="st5" d="M52.9,167.8c-2.5,3-2.4,8.4,1,11.2c3.4,2.8,8.7,2,11.2-1L52.9,167.8z"/>
	<path class="st6" d="M63.5,176.3c-2.1,2.5-5.9,3-8.3,0.9c-2.5-2.1-2.7-5.9-0.6-8.4"/>
	<path class="st6" d="M62,175c-1.3,1.6-3.8,2-5.4,0.6c-1.6-1.3-1.7-3.9-0.3-5.5"/>
	<path class="st6" d="M60.8,174.1c-0.8,1-2.4,1.3-3.4,0.5c-1-0.8-1-2.4-0.2-3.4"/>
</g>
<g class="st1">
	<path class="st4" d="M207.4,154c-0.4-5.1-5.3-9.5-10.7-9c-5.5,0.5-9.5,5.6-9,10.7L207.4,154z"/>
	<path class="st5" d="M205.4,154c-0.3-3.9-4.2-7.6-8.6-7.2c-4.4,0.4-7.5,4.7-7.2,8.6L205.4,154z"/>
	<path class="st6" d="M191.9,155.4c-0.3-3.2,2.1-6.2,5.3-6.5c3.2-0.3,6,2.3,6.3,5.5"/>
	<path class="st6" d="M193.9,155.2c-0.2-2.1,1.3-4.1,3.4-4.3s3.9,1.6,4.1,3.6"/>
	<path class="st6" d="M195.4,155.1c-0.1-1.3,0.8-2.6,2.1-2.7c1.3-0.1,2.4,1,2.5,2.3"/>
</g>
<g class="st1">
	<circle class="st7" cx="166.2" cy="177.4" r="10.6"/>
	<circle class="st8" cx="166.2" cy="177.4" r="9.7"/>
	<path class="st9" d="M158.9,175.9c0.5-3,2.9-5.4,5.9-5.9c0.6-0.1,1.2,0.4,1.2,1.1v5c0,0.6-0.5,1.1-1.1,1.1h-5
		C159.3,177.1,158.8,176.5,158.9,175.9z"/>
	<path class="st9" d="M169.3,184.4c-2.8,1.2-6.1,0.6-8.2-1.6c-0.5-0.5-0.4-1.3,0.2-1.6l4.2-2.8c0.5-0.3,1.2-0.2,1.5,0.3l2.8,4.2
		C170.1,183.4,169.9,184.1,169.3,184.4z"/>
	<path class="st9" d="M173.4,180.3c1.2-2.8,0.6-6.1-1.6-8.2c-0.5-0.5-1.3-0.4-1.6,0.2l-2.8,4.2c-0.3,0.5-0.2,1.2,0.3,1.5l4.2,2.8
		C172.4,181.1,173.1,180.9,173.4,180.3z"/>
	
		<ellipse transform="matrix(0.7071 -0.7071 0.7071 0.7071 -75.3302 166.3694)" class="st10" cx="163.2" cy="174.1" rx="0.5" ry="0.9"/>
	<path class="st10" d="M162.2,175.4c0.5,0.2,0.8,0.5,0.7,0.8c-0.1,0.3-0.6,0.3-1.1,0.2c-0.5-0.2-0.8-0.5-0.7-0.8
		C161.2,175.3,161.7,175.2,162.2,175.4z"/>
	<path class="st10" d="M164.4,173.2c0.2,0.5,0.5,0.8,0.8,0.7c0.3-0.1,0.3-0.6,0.2-1.1c-0.2-0.5-0.5-0.8-0.8-0.7
		C164.3,172.2,164.2,172.7,164.4,173.2z"/>
	<path class="st10" d="M165.1,181.7c0.1-0.5,0.3-0.9,0.6-0.9c0.3,0,0.4,0.5,0.4,1c-0.1,0.5-0.3,0.9-0.6,0.9
		C165.2,182.7,165,182.2,165.1,181.7z"/>
	<path class="st10" d="M167.2,181.8c-0.2-0.5-0.1-1,0.1-1.1c0.3-0.1,0.6,0.2,0.8,0.7c0.2,0.5,0.1,1-0.1,1.1
		C167.7,182.6,167.3,182.2,167.2,181.8z"/>
	<path class="st10" d="M164.1,181.4c0.3-0.4,0.3-0.9,0.1-1.1c-0.2-0.1-0.6,0.1-0.9,0.5c-0.3,0.4-0.3,0.9-0.1,1.1
		C163.4,182.1,163.8,181.8,164.1,181.4z"/>
	<path class="st10" d="M170.7,176.9c-0.5,0.1-1,0-1-0.3c-0.1-0.3,0.3-0.6,0.8-0.7c0.5-0.1,1,0,1,0.3
		C171.6,176.5,171.2,176.8,170.7,176.9z"/>
	<path class="st10" d="M170.1,175c-0.4,0.3-0.9,0.4-1,0.2c-0.2-0.2,0-0.7,0.4-1c0.4-0.3,0.9-0.4,1-0.2
		C170.7,174.2,170.5,174.7,170.1,175z"/>
	<path class="st10" d="M170.8,178c-0.5-0.1-1,0-1,0.3c-0.1,0.3,0.3,0.6,0.8,0.7c0.5,0.1,1,0,1-0.3
		C171.6,178.4,171.3,178.1,170.8,178z"/>
</g>
<g class="st1">
	<circle class="st7" cx="77.5" cy="231.7" r="10.6"/>
	<circle class="st8" cx="77.5" cy="231.7" r="9.7"/>
	<path class="st9" d="M70.2,230.1c0.5-3,2.9-5.4,5.9-5.9c0.6-0.1,1.2,0.4,1.2,1.1v5c0,0.6-0.5,1.1-1.1,1.1h-5
		C70.6,231.4,70,230.8,70.2,230.1z"/>
	<path class="st9" d="M80.6,238.7c-2.8,1.2-6.1,0.6-8.2-1.6c-0.5-0.5-0.4-1.3,0.2-1.6l4.2-2.8c0.5-0.3,1.2-0.2,1.5,0.3l2.8,4.2
		C81.4,237.7,81.2,238.4,80.6,238.7z"/>
	<path class="st9" d="M84.7,234.6c1.2-2.8,0.6-6.1-1.6-8.2c-0.5-0.5-1.3-0.4-1.6,0.2l-2.8,4.2c-0.3,0.5-0.2,1.2,0.3,1.5l4.2,2.8
		C83.7,235.4,84.4,235.2,84.7,234.6z"/>
	
		<ellipse transform="matrix(0.7071 -0.7071 0.7071 0.7071 -139.685 119.5429)" class="st10" cx="74.5" cy="228.4" rx="0.5" ry="0.9"/>
	<path class="st10" d="M73.5,229.6c0.5,0.2,0.8,0.5,0.7,0.8c-0.1,0.3-0.6,0.3-1.1,0.2s-0.8-0.5-0.7-0.8
		C72.5,229.5,73,229.5,73.5,229.6z"/>
	<path class="st10" d="M75.7,227.5c0.2,0.5,0.5,0.8,0.8,0.7c0.3-0.1,0.3-0.6,0.2-1.1c-0.2-0.5-0.5-0.8-0.8-0.7
		C75.6,226.5,75.5,227,75.7,227.5z"/>
	<path class="st10" d="M76.4,236c0.1-0.5,0.3-0.9,0.6-0.9c0.3,0,0.4,0.5,0.4,1c-0.1,0.5-0.3,0.9-0.6,0.9
		C76.5,236.9,76.3,236.5,76.4,236z"/>
	<path class="st10" d="M78.5,236c-0.2-0.5-0.1-1,0.1-1.1c0.3-0.1,0.6,0.2,0.8,0.7c0.2,0.5,0.1,1-0.1,1.1
		C79,236.8,78.6,236.5,78.5,236z"/>
	<path class="st10" d="M75.4,235.7c0.3-0.4,0.3-0.9,0.1-1.1c-0.2-0.1-0.6,0.1-0.9,0.5c-0.3,0.4-0.3,0.9-0.1,1.1
		C74.7,236.3,75.1,236.1,75.4,235.7z"/>
	<path class="st10" d="M82,231.2c-0.5,0.1-1,0-1-0.3c-0.1-0.3,0.3-0.6,0.8-0.7c0.5-0.1,1,0,1,0.3C82.9,230.8,82.5,231.1,82,231.2z"
		/>
	<path class="st10" d="M81.4,229.3c-0.4,0.3-0.9,0.4-1,0.2c-0.2-0.2,0-0.7,0.4-1c0.4-0.3,0.9-0.4,1-0.2
		C82,228.5,81.8,228.9,81.4,229.3z"/>
	<path class="st10" d="M82.1,232.3c-0.5-0.1-1,0-1,0.3c-0.1,0.3,0.3,0.6,0.8,0.7c0.5,0.1,1,0,1-0.3
		C82.9,232.7,82.6,232.4,82.1,232.3z"/>
</g>
<g class="st1">
	<circle class="st7" cx="29.2" cy="140.1" r="10.6"/>
	<circle class="st8" cx="29.2" cy="140.1" r="9.7"/>
	<path class="st9" d="M21.9,138.6c0.5-3,2.9-5.4,5.9-5.9c0.6-0.1,1.2,0.4,1.2,1.1v5c0,0.6-0.5,1.1-1.1,1.1h-5
		C22.3,139.8,21.7,139.2,21.9,138.6z"/>
	<path class="st9" d="M32.3,147.1c-2.8,1.2-6.1,0.6-8.2-1.6c-0.5-0.5-0.4-1.3,0.2-1.6l4.2-2.8c0.5-0.3,1.2-0.2,1.5,0.3l2.8,4.2
		C33.1,146.1,32.9,146.9,32.3,147.1z"/>
	<path class="st9" d="M36.4,143c1.2-2.8,0.6-6.1-1.6-8.2c-0.5-0.5-1.3-0.4-1.6,0.2l-2.8,4.2c-0.3,0.5-0.2,1.2,0.3,1.5l4.2,2.8
		C35.4,143.8,36.1,143.6,36.4,143z"/>
	
		<ellipse transform="matrix(0.7071 -0.7071 0.7071 0.7071 -89.0973 58.5696)" class="st10" cx="26.2" cy="136.8" rx="0.5" ry="0.9"/>
	<path class="st10" d="M25.2,138.1c0.5,0.2,0.8,0.5,0.7,0.8c-0.1,0.3-0.6,0.3-1.1,0.2c-0.5-0.2-0.8-0.5-0.7-0.8
		C24.2,138,24.7,137.9,25.2,138.1z"/>
	<path class="st10" d="M27.4,135.9c0.2,0.5,0.5,0.8,0.8,0.7c0.3-0.1,0.3-0.6,0.2-1.1c-0.2-0.5-0.5-0.8-0.8-0.7
		C27.3,134.9,27.2,135.4,27.4,135.9z"/>
	<path class="st10" d="M28.1,144.4c0.1-0.5,0.3-0.9,0.6-0.9c0.3,0,0.4,0.5,0.4,1c-0.1,0.5-0.3,0.9-0.6,0.9
		C28.2,145.4,28,144.9,28.1,144.4z"/>
	<path class="st10" d="M30.2,144.5c-0.2-0.5-0.1-1,0.1-1.1c0.3-0.1,0.6,0.2,0.8,0.7c0.2,0.5,0.1,1-0.1,1.1
		C30.7,145.3,30.3,145,30.2,144.5z"/>
	<path class="st10" d="M27.1,144.1c0.3-0.4,0.3-0.9,0.1-1.1c-0.2-0.1-0.6,0.1-0.9,0.5c-0.3,0.4-0.3,0.9-0.1,1.1
		C26.4,144.8,26.8,144.5,27.1,144.1z"/>
	<path class="st10" d="M33.7,139.7c-0.5,0.1-1,0-1-0.3c-0.1-0.3,0.3-0.6,0.8-0.7c0.5-0.1,1,0,1,0.3
		C34.6,139.2,34.2,139.5,33.7,139.7z"/>
	<path class="st10" d="M33.1,137.7c-0.4,0.3-0.9,0.4-1,0.2c-0.2-0.2,0-0.7,0.4-1c0.4-0.3,0.9-0.4,1-0.2
		C33.7,136.9,33.5,137.4,33.1,137.7z"/>
	<path class="st10" d="M33.7,140.7c-0.5-0.1-1,0-1,0.3c-0.1,0.3,0.3,0.6,0.8,0.7c0.5,0.1,1,0,1-0.3S34.3,140.8,33.7,140.7z"/>
</g>
<g class="st1">
	<circle class="st7" cx="199.2" cy="87.5" r="10.6"/>
	<circle class="st8" cx="199.2" cy="87.5" r="9.7"/>
	<path class="st9" d="M191.9,85.9c0.5-3,2.9-5.4,5.9-5.9c0.6-0.1,1.2,0.4,1.2,1.1v5c0,0.6-0.5,1.1-1.1,1.1h-5
		C192.3,87.1,191.7,86.5,191.9,85.9z"/>
	<path class="st9" d="M202.3,94.4c-2.8,1.2-6.1,0.6-8.2-1.6c-0.5-0.5-0.4-1.3,0.2-1.6l4.2-2.8c0.5-0.3,1.2-0.2,1.5,0.3l2.8,4.2
		C203.1,93.4,202.9,94.2,202.3,94.4z"/>
	<path class="st9" d="M206.4,90.3c1.2-2.8,0.6-6.1-1.6-8.2c-0.5-0.5-1.3-0.4-1.6,0.2l-2.8,4.2c-0.3,0.5-0.2,1.2,0.3,1.5l4.2,2.8
		C205.4,91.2,206.1,90.9,206.4,90.3z"/>
	
		<ellipse transform="matrix(0.7071 -0.7071 0.7071 0.7071 -2.0473 163.3441)" class="st10" cx="196.2" cy="84.1" rx="0.5" ry="0.9"/>
	<path class="st10" d="M195.2,85.4c0.5,0.2,0.8,0.5,0.7,0.8c-0.1,0.3-0.6,0.3-1.1,0.2c-0.5-0.2-0.8-0.5-0.7-0.8
		C194.2,85.3,194.7,85.2,195.2,85.4z"/>
	<path class="st10" d="M197.4,83.2c0.2,0.5,0.5,0.8,0.8,0.7c0.3-0.1,0.3-0.6,0.2-1.1c-0.2-0.5-0.5-0.8-0.8-0.7
		C197.3,82.2,197.2,82.7,197.4,83.2z"/>
	<path class="st10" d="M198.1,91.7c0.1-0.5,0.3-0.9,0.6-0.9c0.3,0,0.4,0.5,0.4,1c-0.1,0.5-0.3,0.9-0.6,0.9
		C198.2,92.7,198,92.3,198.1,91.7z"/>
	<path class="st10" d="M200.2,91.8c-0.2-0.5-0.1-1,0.1-1.1c0.3-0.1,0.6,0.2,0.8,0.7c0.2,0.5,0.1,1-0.1,1.1
		C200.7,92.6,200.3,92.3,200.2,91.8z"/>
	<path class="st10" d="M197.1,91.4c0.3-0.4,0.3-0.9,0.1-1.1c-0.2-0.1-0.6,0.1-0.9,0.5c-0.3,0.4-0.3,0.9-0.1,1.1
		S196.8,91.9,197.1,91.4z"/>
	<path class="st10" d="M203.7,87c-0.5,0.1-1,0-1-0.3c-0.1-0.3,0.3-0.6,0.8-0.7c0.5-0.1,1,0,1,0.3C204.6,86.5,204.2,86.9,203.7,87z"
		/>
	<path class="st10" d="M203.1,85c-0.4,0.3-0.9,0.4-1,0.2c-0.2-0.2,0-0.7,0.4-1c0.4-0.3,0.9-0.4,1-0.2
		C203.7,84.3,203.5,84.7,203.1,85z"/>
	<path class="st10" d="M203.7,88c-0.5-0.1-1,0-1,0.3c-0.1,0.3,0.3,0.6,0.8,0.7c0.5,0.1,1,0,1-0.3C204.6,88.4,204.3,88.1,203.7,88z"
		/>
</g>
<path class="st11" d="M30.8,102.6c-3.9,0-4,6.1,0,6.1C34.8,108.8,34.8,102.6,30.8,102.6z"/>
<path class="st11" d="M213.1,127.6c-1.7,0.1-3.1,1.3-3.1,3.1v1c0,1.6,1.4,3.1,3.1,3.1c1.7-0.1,3.1-1.3,3.1-3.1v-1
	C216.1,129.1,214.7,127.5,213.1,127.6z"/>
<path class="st11" d="M21.4,189.3c-3.9,0-4,6.1,0,6.1C25.4,195.4,25.4,189.3,21.4,189.3z"/>
<path class="st11" d="M204.6,186.7c-3.9,0-4,6.1,0,6.1C208.5,192.8,208.6,186.7,204.6,186.7z"/>
<path class="st11" d="M116.5,226.8c-3.9,0-4,6.1,0,6.1C120.5,232.9,120.5,226.8,116.5,226.8z"/>
<g>
	<g>
		<path class="st12" d="M40.5,210.1l6-17.6H52l6,17.6h-5.4l-0.6-2.3h-5.4l-0.7,2.3H40.5z M47.5,204h3.4l-1.7-6.1L47.5,204z"/>
		<path class="st12" d="M59.5,210.1v-17.6h5.4v12.9h7.4v4.7H59.5z"/>
		<path class="st12" d="M74.6,210.1v-17.6h5.5v17.6H74.6z"/>
		<path class="st12" d="M88.4,210.1h-4.9v-17.6h6.6l2.3,8.8c0,0.1,0.1,0.4,0.2,0.8c0.1,0.4,0.2,1,0.4,1.8c0.1-0.6,0.2-1.1,0.3-1.5
			c0.1-0.4,0.2-0.8,0.2-1l2.4-8.8h6.6v17.6h-4.9l0-8.7c0-0.5,0-1,0-1.5s0-1,0-1.5c-0.2,0.9-0.4,1.9-0.7,3l0,0.2l-2.1,8.6h-3.8
			l-2.1-8.4c-0.1-0.4-0.2-0.8-0.3-1.3c-0.1-0.5-0.2-1.2-0.4-2c0,0.8,0,1.4,0.1,1.9c0,0.5,0,1,0,1.3V210.1z"/>
		<path class="st12" d="M105.8,210.1v-17.6h13.6v4.2h-8.1v2.3h6.9v4h-6.9v2.7h8.4v4.3H105.8z"/>
		<path class="st12" d="M122.3,210.1v-17.6h5.2l4.8,8.2c0.1,0.2,0.3,0.6,0.5,1c0.2,0.4,0.3,0.9,0.5,1.5c0-0.3-0.1-0.7-0.1-1
			c0-0.4,0-0.8,0-1.4v-8.3h5.2v17.6H133l-4.8-8.1c-0.1-0.2-0.3-0.6-0.5-1s-0.3-0.9-0.5-1.5c0.1,0.3,0.1,0.6,0.1,1c0,0.3,0,0.8,0,1.4
			v8.3H122.3z"/>
		<path class="st12" d="M145,210.1v-13h-4.9v-4.6h15.2v4.6h-4.9v13H145z"/>
		<path class="st12" d="M156.4,201.3c0-2.9,0.8-5.1,2.4-6.8s3.7-2.5,6.5-2.5c2.7,0,4.9,0.8,6.4,2.5s2.4,3.9,2.4,6.8
			c0,2.9-0.8,5.1-2.4,6.8s-3.7,2.5-6.4,2.5c-2.7,0-4.9-0.8-6.5-2.5S156.4,204.1,156.4,201.3z M161.9,201.3c0,1.7,0.3,2.9,0.8,3.7
			s1.4,1.2,2.5,1.2c1.1,0,2-0.4,2.5-1.2s0.8-2,0.8-3.7c0-1.7-0.3-2.9-0.8-3.7s-1.4-1.2-2.5-1.2c-1.1,0-2,0.4-2.5,1.2
			S161.9,199.6,161.9,201.3z"/>
		<path class="st12" d="M175.7,204.6h5.3c0.1,0.6,0.4,1.1,0.8,1.4c0.4,0.3,1,0.4,1.7,0.4c0.6,0,1.1-0.1,1.5-0.3
			c0.4-0.2,0.5-0.5,0.5-0.9c0-0.6-0.8-1.2-2.3-1.6c-0.3-0.1-0.5-0.1-0.7-0.2c-1.3-0.3-2.2-0.6-3-0.9c-0.7-0.3-1.3-0.5-1.6-0.8
			c-0.7-0.5-1.1-1.1-1.5-1.7s-0.5-1.5-0.5-2.3c0-1.7,0.6-3.1,1.9-4.1c1.3-1,3-1.5,5.2-1.5c2.2,0,3.9,0.5,5.1,1.4
			c1.3,1,2,2.3,2.1,4.1h-5.2c-0.1-0.5-0.3-0.9-0.7-1.2c-0.4-0.3-0.9-0.4-1.5-0.4c-0.6,0-1,0.1-1.3,0.3c-0.3,0.2-0.4,0.5-0.4,0.9
			c0,0.6,0.7,1.1,2.2,1.5c0.1,0,0.2,0.1,0.3,0.1c0.2,0.1,0.5,0.1,1,0.3c2,0.5,3.3,1,3.9,1.4c0.8,0.5,1.3,1.1,1.6,1.8
			c0.3,0.7,0.5,1.4,0.5,2.3c0,1.9-0.7,3.4-2,4.5c-1.3,1-3.2,1.6-5.6,1.6c-2.2,0-4-0.5-5.3-1.6C176.6,207.9,175.9,206.5,175.7,204.6z
			"/>
		<path class="st12" d="M30.1,239.5v-17.6h7c1.5,0,2.8,0.1,3.7,0.3c0.9,0.2,1.7,0.5,2.3,0.9c0.8,0.5,1.4,1.2,1.8,2s0.6,1.8,0.6,2.9
			c0,2-0.6,3.5-1.7,4.5c-1.1,1-2.7,1.6-4.8,1.6h-3.3v5.4H30.1z M35.5,229.8h1.8c1.1,0,1.9-0.1,2.3-0.4c0.4-0.3,0.6-0.7,0.6-1.4
			c0-0.7-0.2-1.1-0.6-1.4c-0.4-0.3-1.1-0.4-2.3-0.4h-1.8V229.8z"/>
		<path class="st12" d="M47.5,239.5v-17.6h8.1c2.5,0,4.4,0.4,5.4,1.2c1.1,0.8,1.6,2.1,1.6,3.9c0,1.1-0.2,2-0.7,2.7s-1.1,1.3-2.1,1.7
			c0.9,0.2,1.6,0.6,2.1,1.2c0.4,0.6,0.7,1.5,0.7,2.7l0.1,2.5c0,0,0,0,0,0.1c0,0.7,0.2,1.1,0.5,1.1v0.7h-5.5
			c-0.1-0.4-0.2-0.8-0.2-1.1c0-0.3-0.1-0.6-0.1-0.7v-1.8c0-0.9-0.2-1.5-0.5-1.9c-0.3-0.4-0.9-0.6-1.8-0.6h-2.3v6.1H47.5z
			 M52.9,229.4h2.5c0.9,0,1.5-0.1,1.8-0.4s0.5-0.7,0.5-1.3c0-0.6-0.2-1.1-0.5-1.3s-1-0.4-1.9-0.4h-2.3V229.4z"/>
		<path class="st12" d="M65.5,239.5v-17.6H79v4.2h-8.1v2.3h6.9v4h-6.9v2.7h8.4v4.3H65.5z"/>
		<path class="st12" d="M81.9,239.5v-17.6h7c1.5,0,2.8,0.1,3.7,0.3c0.9,0.2,1.7,0.5,2.3,0.9c0.8,0.5,1.4,1.2,1.8,2s0.6,1.8,0.6,2.9
			c0,2-0.6,3.5-1.7,4.5c-1.1,1-2.7,1.6-4.8,1.6h-3.3v5.4H81.9z M87.4,229.8h1.8c1.1,0,1.9-0.1,2.3-0.4c0.4-0.3,0.6-0.7,0.6-1.4
			c0-0.7-0.2-1.1-0.6-1.4c-0.4-0.3-1.1-0.4-2.3-0.4h-1.8V229.8z"/>
		<path class="st12" d="M96.4,239.5l6-17.6h5.5l6,17.6h-5.4l-0.6-2.3h-5.4l-0.7,2.3H96.4z M103.4,233.4h3.4l-1.7-6.1L103.4,233.4z"
			/>
		<path class="st12" d="M115.4,239.5v-17.6h8.1c2.5,0,4.4,0.4,5.4,1.2c1.1,0.8,1.6,2.1,1.6,3.9c0,1.1-0.2,2-0.7,2.7
			s-1.1,1.3-2.1,1.7c0.9,0.2,1.6,0.6,2.1,1.2c0.4,0.6,0.7,1.5,0.7,2.7l0.1,2.5c0,0,0,0,0,0.1c0,0.7,0.2,1.1,0.5,1.1v0.7h-5.5
			c-0.1-0.4-0.2-0.8-0.2-1.1c0-0.3-0.1-0.6-0.1-0.7v-1.8c0-0.9-0.2-1.5-0.5-1.9c-0.3-0.4-0.9-0.6-1.8-0.6h-2.3v6.1H115.4z
			 M120.7,229.4h2.5c0.9,0,1.5-0.1,1.8-0.4s0.5-0.7,0.5-1.3c0-0.6-0.2-1.1-0.5-1.3s-1-0.4-1.9-0.4h-2.3V229.4z"/>
		<path class="st12" d="M131.7,239.5l6-17.6h5.5l6,17.6h-5.4l-0.6-2.3h-5.4l-0.7,2.3H131.7z M138.7,233.4h3.4l-1.7-6.1L138.7,233.4z
			"/>
		<path class="st12" d="M150.7,239.5v-17.6h6.6c1.7,0,2.9,0.1,3.7,0.2s1.5,0.4,2.1,0.8c1.2,0.7,2.1,1.7,2.6,3
			c0.6,1.3,0.9,2.9,0.9,4.8c0,2-0.4,3.7-1.1,5c-0.7,1.4-1.8,2.4-3.2,3c-0.6,0.3-1.2,0.5-2.1,0.6c-0.8,0.1-2.2,0.2-4,0.2H150.7z
			 M156.1,235h1.5c1.4,0,2.3-0.3,2.8-0.9c0.5-0.6,0.8-1.8,0.8-3.4c0-1.6-0.3-2.7-0.8-3.4c-0.5-0.7-1.5-1-2.7-1h-1.5V235z"/>
		<path class="st12" d="M168.4,230.7c0-2.9,0.8-5.1,2.4-6.8s3.7-2.5,6.5-2.5c2.7,0,4.9,0.8,6.4,2.5s2.4,3.9,2.4,6.8
			c0,2.9-0.8,5.1-2.4,6.8s-3.7,2.5-6.4,2.5c-2.7,0-4.9-0.8-6.5-2.5S168.4,233.5,168.4,230.7z M173.9,230.7c0,1.7,0.3,2.9,0.8,3.7
			s1.4,1.2,2.5,1.2c1.1,0,2-0.4,2.5-1.2s0.8-2,0.8-3.7c0-1.7-0.3-2.9-0.8-3.7s-1.4-1.2-2.5-1.2c-1.1,0-2,0.4-2.5,1.2
			S173.9,229,173.9,230.7z"/>
		<path class="st12" d="M187.8,234h5.3c0.1,0.6,0.4,1.1,0.8,1.4c0.4,0.3,1,0.4,1.7,0.4c0.6,0,1.1-0.1,1.5-0.3
			c0.4-0.2,0.5-0.5,0.5-0.9c0-0.6-0.8-1.2-2.3-1.6c-0.3-0.1-0.5-0.1-0.7-0.2c-1.3-0.3-2.2-0.6-3-0.9c-0.7-0.3-1.3-0.5-1.6-0.8
			c-0.7-0.5-1.1-1.1-1.5-1.7s-0.5-1.5-0.5-2.3c0-1.7,0.6-3.1,1.9-4.1c1.3-1,3-1.5,5.2-1.5c2.2,0,3.9,0.5,5.1,1.4
			c1.3,1,2,2.3,2.1,4.1h-5.2c-0.1-0.5-0.3-0.9-0.7-1.2c-0.4-0.3-0.9-0.4-1.5-0.4c-0.6,0-1,0.1-1.3,0.3c-0.3,0.2-0.4,0.5-0.4,0.9
			c0,0.6,0.7,1.1,2.2,1.5c0.1,0,0.2,0.1,0.3,0.1c0.2,0.1,0.5,0.1,1,0.3c2,0.5,3.3,1,3.9,1.4c0.8,0.5,1.3,1.1,1.6,1.8
			c0.3,0.7,0.5,1.4,0.5,2.3c0,1.9-0.7,3.4-2,4.5c-1.3,1-3.2,1.6-5.6,1.6c-2.2,0-4-0.5-5.3-1.6C188.7,237.3,187.9,235.9,187.8,234z"
			/>
	</g>
</g>
<g>
	<ellipse class="st13" cx="119.8" cy="159.1" rx="43.5" ry="7.1"/>
	<path class="st14" d="M171.2,114.9c0,5.9-18.9,10.7-43.9,11.7c-3.1,0.1-6.4,0.2-9.7,0.2c-29.6,0-53.5-5.3-53.5-11.9
		c0-6.4,22.8-11.7,51.4-11.9c0.7,0,1.4,0,2.1,0C147.3,103,171.2,108.3,171.2,114.9z"/>
	<path class="st15" d="M171.2,115.1c0,1.1-0.4,6.8-2.7,13.9c-0.8,2.3-1.7,4.8-3,7.3c-1.5,3-3.3,6-5.6,8.8
		c-4.4,5.6-10.6,10.6-19.2,13.9h0c-4.6,1.8-9.8,3-15.8,3.6c-2.3,0.2-4.7,0.3-7.3,0.3c-28.2,0-41.5-13.9-47.9-26.7
		c-1.2-2.5-2.2-5-3-7.3c-2.3-7.1-2.7-12.8-2.7-13.9c0.1,1.9,2.3,3.7,5.9,5.3c0,0,0,0,0,0c6.3,2.7,17,4.8,30,5.8
		c4.5,0.4,9.3,0.6,14.2,0.6c1.1,0,2.2,0,3.4,0C147,126.9,170.8,121.6,171.2,115.1z"/>
	<path class="st16" d="M127.4,126.7c-3.1,0.1-6.4,0.2-9.7,0.2c-29.6,0-53.5-5.3-53.5-11.9c0-6.4,22.8-11.7,51.4-11.9
		C107.5,112,116.6,120.5,127.4,126.7z"/>
	<path class="st17" d="M125,162.6c-2.3,0.2-4.7,0.3-7.3,0.3c-50.6,0-53.4-44.6-53.5-47.8c0.4,6.3,22.4,11.3,50.1,11.7
		C107.3,138.5,115.9,152.4,125,162.6z"/>
	<path class="st18" d="M140.8,159.1c-4.6,1.8-9.8,3-15.8,3.6c-2.3,0.2-4.7,0.3-7.3,0.3c-50.6,0-53.4-44.6-53.5-47.8
		c0.1,1.9,2.3,3.7,5.9,5.3c0,0,0,0,0,0c6.3,2.7,17,4.8,30,5.8C81,139.9,101,160.9,140.8,159.1z"/>
	<g>
		<path class="st12" d="M168.5,129c-0.8,2.3-1.7,4.8-3,7.3c-31.5,7.1-64.2,7.1-95.7,0c-1.2-2.5-2.2-5-3-7.3
			C100.3,137.2,135.1,137.2,168.5,129z"/>
	</g>
	<g>
		<g>
			<path class="st19" d="M117.7,130.2c-14.5,0-28.2-1.3-38.6-3.6c-12.3-2.7-18.3-6.6-18.3-11.7c0-5,5.7-8.8,17.6-11.5
				c9.9-2.3,23-3.6,37.1-3.7c0.7,0,1.4,0,2.2,0c14.5,0,28.2,1.3,38.6,3.6c12.3,2.7,18.3,6.6,18.3,11.7c0,4.7-4.9,8.2-15.1,10.9
				c-8.2,2.2-19.6,3.7-32,4.2C124.3,130.1,121,130.2,117.7,130.2z M67.6,114.9c0.5,0.7,3.2,3.2,14.6,5.5c9.7,2,22.3,3.1,35.5,3.1
				c3.2,0,6.4-0.1,9.5-0.2c11.1-0.5,21.5-1.7,29.1-3.6c8.8-2.1,11-4.2,11.5-4.8c-0.5-0.7-3.2-3.2-14.6-5.5c-9.7-2-22.3-3.1-35.5-3.1
				c-0.7,0-1.4,0-2.1,0c-12.8,0.1-24.9,1.3-34.1,3.2C70.7,111.8,68.1,114.3,67.6,114.9z"/>
		</g>
	</g>
	<g>
		<path class="st20" d="M90,105.9c-0.4,3,6.2,6,12.5,8.2c2.3,0.8,4.5,1.5,6.4,2h0c2.6,0.8,4.5,1.2,4.7,1.3c0,0,0,0,0,0h22.3
			c-2.2-6.5-3-12.5-3.2-17.6c-0.4-8.5,0.4-14.4-2.4-15.4c-1.1-0.4-2-0.5-2.8-0.5c-2.7,0.1-3.9,1.8-3.9,1.8c0,0,0-0.1,0-0.1
			c0-0.8,0.3-8.2-1.6-12.4c-0.9-1.9-2.2-3.1-4.2-2.9c-0.9,0.1-1.7,0.3-2.5,0.6c-1.1,0.4-2,1-2.8,1.6c-2.6,2.1-3.6,5-3.6,5
			s-2.6-1.9-4.8-1c-1,0.4-1.9,1.4-2.4,3.5c0,0,0,0,0,0c-0.1-0.1-3.4-2.9-7.1-2.9c-1,0-2,0.2-3,0.7h0c-1.4,0.7-2.7,2-3.9,4.1
			c-5.3,9.6,9.1,19.1,9.1,19.1s-3.2-0.4-5.2,1.6C90.8,103.3,90.2,104.4,90,105.9z"/>
		<path class="st21" d="M108.9,77.4c3.8,18.7,13,39.9,13,39.9h1.9c-5.7-14.4-10-37.7-11.3-45C109.8,74.5,108.9,77.4,108.9,77.4z"/>
		<path class="st21" d="M126.5,117.4h2.8c-4-21.4-1.7-33.5-1.7-33.5s0,0,0,0c-2.7,0.1-3.9,1.8-3.9,1.8
			C120.9,99,126.5,117.4,126.5,117.4z"/>
		<path class="st22" d="M115.3,70.8c0.8,6,4,29.9,9.4,46.6h1.8c0,0-4.2-13.9-2.9-31.8c0,0,0-0.1,0-0.1c0.1-1.2,0.6-16-5.8-15.4
			C116.8,70.3,116,70.5,115.3,70.8z"/>
		<path class="st22" d="M132.6,117.4h3.3c-6-17.2-1.1-31.4-5.6-33C130.3,84.3,125.7,94.6,132.6,117.4z"/>
		<path class="st21" d="M96.7,101l19.6,16.3c-18-19-24.8-39.5-24.8-39.5h0c-1.4,0.7-2.7,2-3.9,4.1C82.4,91.6,96.7,101,96.7,101z"/>
		<path class="st21" d="M113.6,117.4c-0.6-0.2-16.4-6.3-22-14.8c-0.7,0.7-1.3,1.8-1.5,3.3C89.3,111.5,112.9,117.2,113.6,117.4z"/>
		<path class="st22" d="M94.5,77.1c0.1,0.2,10.9,28.3,21.8,40.3h1.5c0,0-14-33-16.2-37.4c0,0,0,0,0,0
			C101.5,79.9,98.2,77.1,94.5,77.1z"/>
		<path class="st21" d="M101.6,80c0,0,7.1,22,16.2,37.4h1.5c0,0-11.6-19.4-15.2-40.9C103,76.9,102.1,77.9,101.6,80z"/>
		<path class="st23" d="M102.5,114.1c2.3,0.8,4.5,1.5,6.4,2h0c2.6,0.8,4.5,1.2,4.7,1.3c0,0,0,0,0,0h22.3c-2.2-6.5-3-12.5-3.2-17.6
			c-0.4-8.5,0.4-14.4-2.4-15.4c-1.1-0.4-2-0.5-2.8-0.5c-2.7,0.1-3.9,1.8-3.9,1.8c0,0,0-0.1,0-0.1c0-0.8,0.3-8.2-1.6-12.4h0
			C121.9,73.1,122.3,105.2,102.5,114.1z"/>
		<g>
			<g>
				<g>
					<path class="st24" d="M116.7,110.5c-0.8-1.2-0.3-6-0.2-7.5c0.3-2.5,0.3-3.9-0.5-6.2c-0.7-2.2,0.8-3.9,1-6
						c0.3-3.1-1.1-5.6-2.8-8.1c-1.5-2.2-2.4-4.5-3.4-6.9c-0.5-1.3-1.1-3-2.7-3.1c-3.4,0.1-3.2,7.7-3.8,9.9c-0.9,3.5-0.9,6.3,0.3,9.7
						c1,3,1.6,6.2,3.1,8.9c1.9,3.5,6.2,4.2,8.6,7.4L116.7,110.5z"/>
				</g>
				<g>
					<path class="st25" d="M105.5,78.7c0.4,0.4,0.6,0.8,0.9,1.3c0.2,0.4,0.4,0.8,0.6,1.3c0.1,0.2,0.1,0.4,0.2,0.6
						c0,0.1,0.1,0.2,0.1,0.3l0.1,0.3c0.2,0.4,0.5,1,0.3,1.6c-0.4-0.4-0.8-0.5-1.2-0.9c-0.1-0.1-0.2-0.2-0.3-0.3
						c-0.1-0.2-0.2-0.3-0.2-0.4c-0.1-0.2-0.2-0.5-0.3-0.7c-0.2-0.5-0.3-1-0.3-1.5C105.2,79.8,105.3,79.2,105.5,78.7z"/>
				</g>
				<g>
					<path class="st25" d="M109.9,76.1c0.2,0.6,0.3,1.2,0.2,1.7c-0.1,0.6-0.2,1.1-0.5,1.6c-0.2,0.5-0.6,1-0.9,1.4
						c-0.4,0.4-0.8,0.8-1.3,1.1c0-0.6,0.1-1.2,0.3-1.7c0.2-0.5,0.4-1,0.6-1.4c0.2-0.5,0.5-0.9,0.7-1.3
						C109.2,77,109.5,76.5,109.9,76.1z"/>
				</g>
				<g>
					<path class="st25" d="M106.4,82c-0.3,0.2-0.6,0.1-0.8,0.1c-0.2-0.1-0.4-0.2-0.5-0.3c-0.1-0.1-0.2-0.3-0.2-0.5
						c0-0.2,0-0.4,0.2-0.7c0.4,0,0.6,0,0.8,0c0.2,0.1,0.3,0.2,0.4,0.3c0.1,0.1,0.1,0.3,0.1,0.4C106.5,81.4,106.5,81.6,106.4,82z"/>
				</g>
				<g>
					<path class="st25" d="M113,84.8c0.2,0.8,0.3,1.7,0.2,2.5c0,0.8-0.2,1.7-0.4,2.5c-0.2,0.8-0.6,1.6-1.1,2.3
						c-0.5,0.7-1.1,1.3-1.9,1.7c0.3-0.8,0.6-1.5,0.9-2.3c0.2-0.7,0.5-1.5,0.7-2.2c0.2-0.7,0.4-1.5,0.7-2.3
						C112.3,86.4,112.6,85.6,113,84.8z"/>
				</g>
				<g>
					<path class="st25" d="M115.2,86.4c0.1,0.4,0,0.7-0.2,1c-0.2,0.3-0.4,0.5-0.7,0.6c-0.3,0.1-0.5,0.2-0.8,0.2
						c-0.3,0-0.6-0.1-0.9-0.3c0.1-0.4,0.3-0.6,0.5-0.8c0.2-0.2,0.4-0.3,0.6-0.4c0.2-0.1,0.4-0.1,0.6-0.2
						C114.5,86.4,114.8,86.4,115.2,86.4z"/>
				</g>
			</g>
			<g>
				<g>
					<path class="st24" d="M121.9,117.9c-0.9-3.3,3.3-5.1,4.1-7.8c0.4-1.5,0.2-2.8,1.3-4.1c1-1,2.1-1.5,2.5-2.9
						c0.4-1.3,0.2-2.6,0.6-3.8c0.4-1.4,1.7-2.4,2-3.8c0.3-1.2-0.1-2.2-0.3-3.3c-0.4-1.4,0.2-2.1,0.8-3.3c0.4-0.9,1.4-3,0.8-4
						c-0.6-1-1.8-0.1-2.6,0.4c-1.5,1-2.3,2.3-3.2,3.9c-0.9,1.8-2.4,3.1-3.5,4.6c-1.5,2.1-2.9,4.2-3.2,6.8c-0.2,2.2,0.1,4.5,0.1,6.8
						c-0.1,2.4-0.6,5.3,0,7.7c0.2,0.7,0.4,1.7,0.5,2.4L121.9,117.9z"/>
				</g>
				<g>
					<path class="st25" d="M131.9,94.2c-0.3,0.6-0.7,1.1-1.1,1.6c-0.4,0.5-0.8,0.9-1.4,1.3c-0.5,0.4-1.2,0.6-1.8,0.8
						c-0.6,0.1-1.1,0.2-1.8,0.3c0.3-0.6,0.8-1.1,1.4-1.4l1.4-0.9c0.5-0.3,0.9-0.6,1.5-0.9C130.6,94.6,131.2,94.3,131.9,94.2z"/>
				</g>
				<g>
					<path class="st25" d="M125.7,98.1c-0.5-0.3-0.9-0.8-1.1-1.4c-0.2-0.6-0.2-1.3-0.1-1.8c0.1-0.6,0.3-1.1,0.6-1.6
						c0.3-0.5,0.6-0.9,1-1.4c0.2,0.6,0.2,1.2,0.1,1.7c0,0.6-0.2,1.1-0.2,1.5c-0.1,0.5-0.2,0.9-0.2,1.4
						C125.7,96.9,125.7,97.4,125.7,98.1z"/>
				</g>
				<g>
					<path class="st25" d="M128.8,88.4c0.2,0.4,0.3,0.6,0.4,0.9c0.1,0.3,0.1,0.5,0.1,0.8c0,0.3-0.1,0.5-0.2,0.8
						c-0.1,0.3-0.3,0.6-0.6,0.8c-0.3-0.3-0.4-0.6-0.6-0.8c-0.1-0.3-0.2-0.6-0.1-0.8c0-0.3,0.1-0.6,0.3-0.9
						C128.2,88.8,128.4,88.5,128.8,88.4z"/>
				</g>
				<g>
					<path class="st25" d="M132.3,89.5c-0.3,0.4-0.5,0.8-0.8,1.1c-0.3,0.3-0.6,0.6-0.9,0.8c-0.3,0.2-0.7,0.4-1,0.6
						c-0.4,0.2-0.7,0.3-1.2,0.4c0-0.5,0.2-1,0.5-1.3c0.3-0.4,0.6-0.7,0.9-0.9c0.3-0.2,0.7-0.4,1.2-0.5
						C131.3,89.5,131.8,89.4,132.3,89.5z"/>
				</g>
				<g>
					<path class="st25" d="M129.6,99.1c0,0.8-0.5,1.5-1,2c-0.5,0.5-1.2,0.9-1.8,1.2c-0.6,0.3-1.2,0.6-1.8,0.8
						c-0.6,0.3-1.2,0.5-1.8,0.9c0.1-0.7,0.6-1.4,1.2-1.9c0.5-0.5,1.2-0.9,1.8-1.2c0.6-0.3,1.2-0.6,1.8-0.8
						C128.5,99.8,129,99.5,129.6,99.1z"/>
				</g>
				<g>
					<path class="st25" d="M123.1,104c-0.2-0.6-0.1-1.2-0.1-1.7l-0.1-1.5c0-0.5,0-1.1,0.2-1.7c0.1-0.6,0.5-1.2,1-1.5
						c0.1,0.6,0.1,1.1,0.2,1.6c0.1,0.5,0.2,1,0.2,1.6c0,0.6,0,1.2-0.3,1.8C123.9,103.1,123.5,103.5,123.1,104z"/>
				</g>
				<g>
					<path class="st25" d="M127.1,104.1c0.1,0.7-0.5,1.4-0.9,1.8c-0.4,0.5-0.9,0.9-1.3,1.2c-0.4,0.4-0.8,0.8-1.2,1.2
						c-0.4,0.4-0.9,0.8-1.5,1.2c0-0.7,0.2-1.3,0.5-1.9c0.3-0.6,0.6-1.1,1.2-1.6c0.5-0.5,1.1-0.8,1.6-1
						C126,104.7,126.6,104.5,127.1,104.1z"/>
				</g>
				<g>
					<path class="st25" d="M122,110.2c-0.3-0.5-0.5-1.1-0.6-1.6c-0.1-0.5-0.2-1.1-0.2-1.7c0-0.6,0.1-1.1,0.3-1.7
						c0.2-0.5,0.5-1.1,1-1.5c0.1,0.6,0.1,1.1,0.2,1.7c0,0.5,0,1,0,1.5c0,0.5-0.1,1-0.2,1.6C122.4,109.1,122.3,109.7,122,110.2z"/>
				</g>
			</g>
			<g>
				<g>
					<path class="st26" d="M120.1,105.3c1.2-0.9,2.9-1.5,3.4-2.8c0.6-1.5-0.1-3.4,0.4-5c0.4-1.3,1.5-2.1,2.1-3.2
						c0.6-1,0.5-2,0.4-3.2c-0.3-2.2-0.4-3.4,0.3-5.6c0.7-2,0.7-3.5-0.3-5.3c-0.9-1.7-0.2-4.1-1.3-5.7c-0.9-1.4-2.1-2.5-3-3.9
						c-0.6-1.2-1.6-2.5-2.5-3.4c-2.1-1.9-3.9,2.3-4.7,4c-1.3,2.6-2.7,4.9-4.6,7c-2.1,2.2-2.5,5.6-3,8.5c-0.2,1.3-0.7,2.7-0.6,4
						c0.2,1.8,1.3,3.3,1.7,5.2c0.2,1.1,0.5,2.2,1.2,3.2c0.6,0.8,1.4,1.3,1.9,2.2c1.2,1.9,2,4.2,3.3,6c0.6,0.9,1.8,2.8,1.8,2.8
						c0.8-0.5,2.1-3.5,2.8-4.2C119.7,105.6,119.9,105.4,120.1,105.3z"/>
				</g>
				<g>
					<path class="st27" d="M121.9,73.8c0.5,0.8,0.6,1.7,0.5,2.6c-0.1,0.9-0.3,1.7-0.6,2.6c-0.6,1.6-1.5,3-2.2,4.6
						c-0.1-0.9,0.1-1.8,0.3-2.6c0.2-0.8,0.5-1.6,0.8-2.4c0.3-0.8,0.6-1.5,0.8-2.3C121.8,75.5,121.9,74.7,121.9,73.8z"/>
				</g>
				<g>
					<path class="st27" d="M114.3,76c0.3,1.1,0.6,2.1,1,3.1c0.4,1,0.8,1.9,1.4,2.7c0.3,0.4,0.6,0.8,1,1.2c0.2,0.2,0.4,0.4,0.5,0.6
						c0.2,0.2,0.4,0.4,0.6,0.6c0.8,0.9,1.1,2,1.4,3.1c-0.7-0.8-1.3-1.8-2-2.4c-0.2-0.2-0.4-0.3-0.6-0.5c-0.2-0.2-0.4-0.3-0.7-0.5
						c-0.4-0.4-0.8-0.8-1.1-1.3c-0.6-1-1.1-2-1.3-3.1C114.2,78.2,114.2,77.1,114.3,76z"/>
				</g>
				<g>
					<path class="st27" d="M111.2,82.7c0.7,1.3,1.1,2.6,1.8,3.8c0.6,1.2,1.6,2.1,2.5,3.2c0.9,1,1.9,2.2,2.5,3.6
						c0.5,1.3,1,2.7,0.9,4.2c-0.4-1.4-1-2.6-1.7-3.8c-0.7-1.2-1.6-2.2-2.5-3.2c-0.5-0.5-0.9-1-1.4-1.6c-0.4-0.6-0.8-1.2-1.1-1.9
						C111.7,85.5,111.4,84.1,111.2,82.7z"/>
				</g>
				<g>
					<path class="st27" d="M109,85.3c0.5,0.6,0.9,1.1,1.3,1.5c0.4,0.4,0.9,0.8,1.5,1.1l0.4,0.3c0.1,0.1,0.2,0.1,0.4,0.2
						c0.3,0.1,0.6,0.3,0.9,0.4c0.6,0.3,1.3,0.6,1.7,1.3c-0.6-0.3-1.3-0.3-2-0.5c-0.3-0.1-0.7-0.1-1-0.3c-0.2-0.1-0.4-0.1-0.5-0.2
						c-0.2-0.1-0.3-0.2-0.5-0.3c-0.6-0.4-1.2-0.9-1.5-1.6C109.2,86.7,109,86,109,85.3z"/>
				</g>
				<g>
					<path class="st27" d="M112.7,86.3c0-0.5-0.1-1-0.1-1.5c-0.1-0.5-0.1-0.9-0.1-1.4c0-0.5-0.1-0.9,0-1.4c0-0.5,0.1-1,0.2-1.5
						c0.6,0.9,0.9,1.9,1,2.9c0,0.5,0,1-0.1,1.5C113.4,85.4,113.1,85.9,112.7,86.3z"/>
				</g>
				<g>
					<path class="st27" d="M112.3,77.5l0.7,0.8c0.2,0.2,0.4,0.5,0.6,0.7c0.2,0.2,0.4,0.3,0.7,0.5c0.3,0.2,0.7,0.5,0.8,1
						c-0.4-0.1-0.7-0.1-1.1-0.1c-0.4,0-0.8-0.2-1.2-0.5c-0.3-0.3-0.5-0.7-0.6-1.1C112.1,78.3,112.1,77.9,112.3,77.5z"/>
				</g>
				<g>
					<path class="st27" d="M120,72c0.4,0.8,0.3,1.6,0,2.4c-0.3,0.7-0.7,1.3-1.4,1.8c-0.1-0.9,0.1-1.6,0.3-2.2
						C119.2,73.3,119.5,72.7,120,72z"/>
				</g>
				<g>
					<path class="st27" d="M124.8,77.4c-0.1,1.2-0.4,2.2-1.2,3.2c-0.2,0.2-0.4,0.5-0.7,0.7c-0.3,0.2-0.7,0.3-1,0.3
						c-0.6,0-1.1-0.1-1.7-0.1c0.4-0.5,1.1-0.6,1.5-0.8c0.2-0.1,0.4-0.2,0.5-0.3c0.2-0.1,0.3-0.3,0.5-0.5c0.3-0.4,0.6-0.8,0.9-1.3
						C123.9,78.2,124.3,77.8,124.8,77.4z"/>
				</g>
				<g>
					<path class="st27" d="M124.9,87.9c0.1,0.7-0.1,1.5-0.4,2.2c-0.3,0.7-0.7,1.3-1.2,1.9c-0.5,0.5-1,1-1.6,1.4
						c-0.6,0.4-1.1,0.8-1.8,1.2c0.6-1.4,1.6-2.5,2.5-3.4c0.5-0.5,0.9-1,1.3-1.5C124.1,89.1,124.5,88.5,124.9,87.9z"/>
				</g>
				<g>
					<path class="st27" d="M125.6,91c-0.2,0.7-0.7,1.1-1.3,1.3c-0.6,0.2-1.3,0.2-1.9-0.3c0.6-0.5,1-0.6,1.5-0.8
						C124.4,91.1,124.9,90.9,125.6,91z"/>
				</g>
				<g>
					<path class="st27" d="M116.1,105.1c0.3-0.9,0.8-1.6,1.3-2.3c0.5-0.7,1.2-1.3,1.8-1.9c1.2-1.2,2.4-2.3,3.4-3.8
						c-0.1,0.9-0.4,1.8-0.9,2.5c-0.5,0.8-1.1,1.4-1.7,2.1C118.7,102.8,117.4,103.8,116.1,105.1z"/>
				</g>
				<g>
					<path class="st27" d="M122.4,100.2c0,0.3-0.1,0.6-0.3,0.8c-0.2,0.2-0.5,0.3-0.7,0.4c-0.3,0-0.5,0-0.8,0
						c-0.2-0.1-0.5-0.2-0.7-0.5c0.5-0.4,0.9-0.5,1.2-0.6C121.5,100.2,121.8,100.2,122.4,100.2z"/>
				</g>
				<g>
					<path class="st27" d="M116.6,102.3c-0.6-0.9-1.1-1.7-1.7-2.5c-0.3-0.4-0.6-0.8-0.9-1.2c-0.3-0.4-0.5-0.9-0.8-1.4
						c-0.9-1.9-1.3-4-1.1-6.1c0.4,1,0.7,1.9,1,2.9c0.3,0.9,0.7,1.9,1.1,2.7c0.4,0.9,0.9,1.7,1.4,2.7
						C116.1,100.3,116.5,101.3,116.6,102.3z"/>
				</g>
				<g>
					<path class="st27" d="M113.2,95.5c-0.3,0.2-0.5,0.2-0.7,0.1c-0.2,0-0.4-0.1-0.6-0.2c-0.2-0.1-0.3-0.3-0.4-0.5
						c-0.1-0.2-0.1-0.4-0.1-0.7c0.6,0,0.9,0.1,1.2,0.3c0.1,0.1,0.3,0.2,0.3,0.4C113,95,113.1,95.2,113.2,95.5z"/>
				</g>
			</g>
			<g>
				<g>
					<path class="st28" d="M120,122.9c-0.1-1.4,0.2-2.4,0.9-3.4c1.4-2,0.9-2.6,1-4.7c0.2-1.6,1.5-2.8,1.6-4.6
						c0.2-1.4,0.3-4.4-0.2-5.6c-0.5-1-0.8-0.8-1.6-1.2c-0.7-0.4-0.6-0.8-1-1.3c-0.5-0.5-0.1-1.1-1.2-0.6c-0.6,0.3-0.7,1.6-0.8,2.2
						c-0.4,2.2,0.6,4.4,0.6,6.6c0.1,1.8-0.5,3.6-0.4,5.4c0.1,2.1,0.4,4.9,1,6.9L120,122.9z"/>
				</g>
				<g>
					<path class="st25" d="M119.9,117.3c0.1-0.6,0.2-1.1,0.4-1.5c0.1-0.5,0.3-0.9,0.5-1.4c0.2-0.4,0.4-0.9,0.6-1.3
						c0.2-0.4,0.5-0.9,0.8-1.4c0.3,0.5,0.4,1.1,0.4,1.7c0,0.6-0.2,1.1-0.4,1.6c-0.2,0.5-0.5,1-0.9,1.4
						C121,116.7,120.5,117.1,119.9,117.3z"/>
				</g>
				<g>
					<path class="st25" d="M122.8,108.5c0.1,0.4,0.1,0.6,0,0.8c0,0.2-0.1,0.4-0.3,0.5c-0.1,0.1-0.3,0.2-0.5,0.3
						c-0.2,0.1-0.5,0.1-0.8,0c-0.1-0.4-0.1-0.6,0-0.8c0-0.2,0.2-0.4,0.3-0.5c0.1-0.1,0.3-0.2,0.5-0.3
						C122.2,108.4,122.4,108.4,122.8,108.5z"/>
				</g>
				<g>
					<path class="st25" d="M121.4,109.1c-0.5-0.2-0.8-0.6-1.1-1c-0.3-0.4-0.4-0.8-0.5-1.3c-0.1-0.4-0.1-0.9,0-1.4
						c0.1-0.5,0.2-0.9,0.6-1.3c0.3,0.4,0.5,0.8,0.6,1.2c0.2,0.4,0.3,0.8,0.3,1.1c0.1,0.4,0.1,0.8,0.2,1.2
						C121.5,108.1,121.5,108.6,121.4,109.1z"/>
				</g>
				<g>
					<path class="st25" d="M120.4,105.9c-0.4,0-0.6,0-0.7-0.1c-0.2-0.1-0.3-0.1-0.3-0.2c-0.1-0.1-0.1-0.2,0-0.4
						c0-0.2,0.1-0.3,0.4-0.6c0.3-0.1,0.5,0,0.7,0c0.2,0.1,0.3,0.2,0.3,0.3c0.1,0.1,0.1,0.3,0,0.4
						C120.8,105.5,120.7,105.7,120.4,105.9z"/>
				</g>
				<g>
					<path class="st25" d="M120.4,114c-0.3-0.4-0.5-0.7-0.6-1c-0.1-0.3-0.2-0.6-0.3-0.9c0-0.3-0.1-0.6,0-1c0-0.3,0.1-0.7,0.3-1.1
						c0.4,0.2,0.7,0.5,0.8,0.9c0.2,0.3,0.3,0.7,0.4,1c0,0.4,0,0.7-0.1,1.1C120.9,113.3,120.7,113.7,120.4,114z"/>
				</g>
			</g>
			<g>
				<g>
					<path class="st29" d="M121.1,116.5c-0.9-1.1,0.3-4,0.5-5.4c0.8-4.4-1.6-8.1-2.7-12.2c-0.8-2.8-0.5-5.5-1.9-8.3
						c-0.7-1.3-2.2-3.6-4-3.2c-1.5,0.3-1.5,1.3-1.7,2.5c-0.3,1.4-0.5,2.5-0.6,4c-0.2,4.4,0.8,9.8,2.3,13.7c0.8,2.1,4.1,3,5.2,5
						C119,114.2,120,115.3,121.1,116.5L121.1,116.5z"/>
				</g>
				<g>
					<path class="st30" d="M119.3,113.1c-0.1-0.7-0.2-1.4-0.3-2.1c-0.1-0.7-0.2-1.4-0.2-2.2c0.1-0.8,0.3-1.5,0.5-2.2
						c0.2-0.7,0.4-1.3,0.4-2c0.4,0.6,0.5,1.5,0.4,2.2c-0.1,0.7-0.2,1.4-0.3,2.1c-0.1,0.6,0,1.3,0,2.1
						C119.8,111.6,119.7,112.4,119.3,113.1z"/>
				</g>
				<g>
					<path class="st30" d="M120.5,107.1c0.2,0.4,0.1,0.7,0,0.8c-0.2,0.1-0.5,0.2-0.9-0.2c0-0.5,0-0.6,0.1-0.7
						C119.8,106.9,120,106.9,120.5,107.1z"/>
				</g>
				<g>
					<path class="st30" d="M119.5,106.8c-0.7-0.7-1.1-1.6-1.3-2.5c-0.2-0.9-0.1-1.9,0.3-2.8c0.5,0.9,0.6,1.8,0.8,2.6
						C119.5,104.9,119.6,105.8,119.5,106.8z"/>
				</g>
				<g>
					<path class="st30" d="M116.2,106.8c-0.3-1.4,0-2.8,0.2-4.1c0.1-0.6,0.2-1.3,0.3-1.9c0.1-0.6,0.1-1.3,0.2-2
						c0.4,0.6,0.6,1.3,0.7,2c0.1,0.7,0,1.4-0.1,2.1c-0.1,0.7-0.3,1.3-0.5,2C116.8,105.6,116.5,106.2,116.2,106.8z"/>
				</g>
				<g>
					<path class="st30" d="M117.8,103.2c0.3,0.4,0.1,0.7,0,0.9c-0.2,0.2-0.4,0.2-0.9,0.1c-0.1-0.5-0.1-0.7,0.1-0.9
						C117.1,103.2,117.3,103.1,117.8,103.2z"/>
				</g>
				<g>
					<path class="st30" d="M117.4,109.6c-0.5-0.4-1-0.7-1.5-1.1c-0.5-0.4-1-0.8-1.4-1.3c-0.4-0.5-0.7-1.2-0.9-1.8
						c-0.2-0.6-0.2-1.3-0.2-1.9c0.4,0.5,0.7,1.1,1,1.6c0.3,0.5,0.6,1,1,1.4c0.3,0.4,0.8,0.9,1.2,1.4
						C116.9,108.4,117.3,109,117.4,109.6z"/>
				</g>
				<g>
					<path class="st30" d="M114.1,105.5c-0.3,0.2-0.6,0.1-0.8,0.1c-0.3-0.1-0.5-0.2-0.6-0.4c-0.2-0.2-0.3-0.4-0.4-0.7
						c-0.1-0.2-0.1-0.5,0.1-0.8c0.6,0.2,0.9,0.4,1.1,0.7c0.1,0.1,0.2,0.3,0.3,0.5C113.9,105.1,114,105.3,114.1,105.5z"/>
				</g>
				<g>
					<path class="st30" d="M114.8,101.5c-1.1-0.8-1.8-1.9-2.3-3.1c-0.5-1.2-0.7-2.6-0.3-3.9c0.5,1.2,0.9,2.3,1.4,3.5
						C114,99.1,114.5,100.2,114.8,101.5z"/>
				</g>
				<g>
					<path class="st30" d="M112.7,97.2c-0.3,0.2-0.6,0-0.8-0.1c-0.2-0.1-0.3-0.3-0.4-0.5c-0.2-0.4-0.2-0.8,0-1.3
						c0.3,0.1,0.5,0.2,0.7,0.3c0.2,0.1,0.3,0.3,0.4,0.4c0.1,0.2,0.1,0.3,0.1,0.5C112.7,96.7,112.6,96.9,112.7,97.2z"/>
				</g>
				<g>
					<path class="st30" d="M114.6,97.6c0.3-0.5,0.5-0.9,0.7-1.3c0.2-0.4,0.3-0.9,0.5-1.3c0.3-0.9,0.5-1.8,0.7-2.9
						c0.3,0.4,0.5,1,0.6,1.5c0.1,0.6,0,1.1-0.2,1.6c-0.2,0.5-0.4,1-0.8,1.5C115.7,97.2,115.2,97.6,114.6,97.6z"/>
				</g>
				<g>
					<path class="st30" d="M117.4,95.6c0.1,0.2,0,0.4-0.1,0.6c-0.1,0.1-0.3,0.2-0.4,0.2c-0.3,0-0.7-0.2-0.7-0.7
						c0.4-0.3,0.4-0.5,0.6-0.5c0.1,0,0.1,0,0.2,0.1C117,95.5,117.1,95.6,117.4,95.6z"/>
				</g>
				<g>
					<path class="st30" d="M114.1,94.4c-0.7-0.6-1.1-1.3-1.4-2.1c-0.3-0.8-0.5-1.7-0.2-2.6c0.6,0.7,0.9,1.4,1.3,2.2
						c0.1,0.4,0.3,0.8,0.4,1.2C114.1,93.5,114.2,94,114.1,94.4z"/>
				</g>
				<g>
					<path class="st30" d="M114.5,89.5c0.3,0.4,0.3,0.7,0.2,1c-0.1,0.3-0.3,0.5-0.9,0.6c-0.3-0.5-0.3-0.7-0.2-1
						C113.7,89.8,113.9,89.6,114.5,89.5z"/>
				</g>
			</g>
			<g>
				<path class="st24" d="M104,102.7c-0.6-0.3-1-1-1.5-1.6c-1.1-1.5-2.5-2.9-4-4.2c-2.2-2-4.6-3.4-7.2-4.8c-0.8-0.5-3.5-2.8-4.2-2
					c-0.6,0.6,0.2,2.3,0.6,2.9c0.9,1.4,2.8,2,3.4,3.6c0.6,1.6,0.2,3,1.9,4.2c1.9,1.6,4.6,1.3,6.4,3.2c0.8,0.9,1.3,2.1,2.2,3
					c1.2,1.1,2.9,1.3,4.5,1.6c1.5,0.3,2.8,0.8,4,1.5c0.5,0.3,2,1.8,2.5,1.7c1.1,0,0.5-0.9,0.1-1.4c-1.1-1.5-3.8-2.5-5.4-3.4
					L104,102.7z"/>
			</g>
			<g>
				<g>
					<path class="st24" d="M117,120.4c-1.3-0.8-3.5-1.2-4.9-1.2c-2.2-0.1-2.3-0.5-3.9-1.9c-1.2-1-3.2-1.1-4.7-1.7
						c-1.8-0.8-2.5-2-4-3.1c-2.7-2-5.4-4.1-4.9-7.9c0-0.7,0.6-2.2,1.7-2c1.1,0.2,2,2.4,3.2,2.9c2.3,0.8,3.4,1.1,5,3.1
						c1.5,2,3.4,2.2,5.6,3.2c2.2,1.1,2.3,3.2,3.8,4.7c1.1,1.2,1.9,1.4,2.5,3.1L117,120.4z"/>
				</g>
				<g>
					<path class="st25" d="M116.1,119.5c-1.8-0.6-3.6-1.3-5.3-2c-1.7-0.8-3.4-1.7-5-2.8c-0.4-0.3-0.8-0.6-1.1-0.8
						c-0.4-0.3-0.8-0.5-1.2-0.7c-0.8-0.5-1.7-1-2.4-1.8c-1.4-1.5-2.2-3.2-3.1-4.9c1.5,1.3,2.5,2.9,3.9,4c0.7,0.6,1.4,1,2.3,1.4
						c0.4,0.2,0.8,0.5,1.3,0.7c0.4,0.3,0.8,0.6,1.2,0.8c1.5,1.1,3.1,2,4.7,3C112.9,117.4,114.6,118.4,116.1,119.5z"/>
				</g>
				<g>
					<path class="st25" d="M105.4,113.6c-0.8,0.5-1.8,0.5-2.7,0.2c-0.9-0.3-1.6-0.8-2.3-1.3c-0.7-0.5-1.3-1.2-1.8-1.8
						c-0.5-0.7-1-1.3-1.4-2.1c0.8,0.3,1.6,0.8,2.2,1.2c0.7,0.5,1.3,1,1.9,1.5c0.6,0.5,1.2,1,1.8,1.4
						C103.9,113.1,104.6,113.5,105.4,113.6z"/>
				</g>
				<g>
					<path class="st25" d="M99.8,110.9c-0.2,0.3-0.5,0.4-0.8,0.5c-0.3,0.1-0.5,0-0.7-0.1c-0.2-0.1-0.4-0.2-0.5-0.5
						c-0.1-0.2-0.2-0.5-0.2-0.9c0.4-0.1,0.6-0.1,0.8-0.2c0.2,0,0.4,0,0.5,0.1c0.2,0.1,0.3,0.2,0.4,0.3
						C99.5,110.3,99.6,110.5,99.8,110.9z"/>
				</g>
				<g>
					<path class="st25" d="M101.7,111.3c-0.4-0.2-0.6-0.5-0.8-0.8c-0.2-0.3-0.3-0.6-0.5-0.8l0-0.1c-0.2-0.5-0.5-0.9-0.7-1.5
						c-0.3-0.5-0.6-1.2-0.5-2c0.3,0.2,0.6,0.4,0.9,0.6c0.3,0.2,0.5,0.4,0.8,0.6c0.5,0.5,0.9,1.2,1,1.9l0-0.1
						c0.1,0.4,0.1,0.8,0.1,1.1C101.8,110.6,101.7,110.9,101.7,111.3z"/>
				</g>
				<g>
					<path class="st25" d="M108.3,115.4c-0.1,0.4-0.4,0.6-0.7,0.8c-0.3,0.2-0.6,0.2-0.9,0.2c-0.3,0-0.6-0.1-0.8-0.3
						c-0.2-0.2-0.4-0.4-0.5-0.8c0.3-0.2,0.6-0.3,0.9-0.3c0.2-0.1,0.5-0.1,0.7,0c0.2,0,0.4,0.1,0.6,0.2
						C107.8,115,108,115.2,108.3,115.4z"/>
				</g>
			</g>
			<g>
				<path class="st25" d="M108,84.2c0.2,0.5,0.2,1,0.1,1.5c-0.1,0.5-0.4,0.9-0.7,1.2c-0.3,0.3-0.6,0.6-1,0.8
					c-0.4,0.2-0.7,0.4-1.2,0.6c0-0.5,0.1-1,0.3-1.4c0.2-0.4,0.5-0.8,0.7-1.1c0.3-0.3,0.5-0.6,0.8-0.8L108,84.2z"/>
			</g>
			<g>
				<path class="st25" d="M105.5,85.9c-0.4-0.1-0.6-0.3-0.8-0.5c-0.2-0.2-0.3-0.5-0.3-0.8c0-0.3,0-0.5,0.2-0.8
					c0.1-0.2,0.3-0.5,0.7-0.6c0.3,0.3,0.4,0.5,0.5,0.7c0.1,0.2,0.1,0.4,0.2,0.6c0,0.2,0,0.4-0.1,0.6
					C105.9,85.3,105.8,85.6,105.5,85.9z"/>
			</g>
			<g>
				<g>
					<path class="st28" d="M112.3,114.1c0.5-1.5,1-3.2,0.8-4.9c-0.2-2.2-1.5-4.2-1.5-6.6c0-2.6,0.4-4.5-0.6-7
						c-1.2-2.9-2.8-4.6-2.7-7.8c0.1-4,0.7-7.5-2.7-10.4c-2.4-2.1-3.8-5-7.3-3.2c-3.6,1.8-3.7,6.6-4.2,10.1
						c-0.6,4.2-2.4,8.3-0.8,12.6c0.4,1,1,1.7,1.4,2.7c0.4,1,0.4,2,0.7,3.1c0.8,3,2.6,4.2,5.2,5.5c3.3,1.7,6.4,3.6,9.8,5
						c0.7,0.4,1.3,0.8,1.9,1.3L112.3,114.1z"/>
				</g>
				<g>
					<path class="st31" d="M102.5,75.7c0.4,0.6,0.3,1.5,0.1,2.2c-0.2,0.7-0.6,1.4-1.1,1.9c-0.4,0.6-0.9,1.1-1.4,1.6
						c-0.5,0.5-0.9,1-1.4,1.6c0-0.8,0.3-1.5,0.6-2.1c0.3-0.6,0.8-1.2,1.2-1.8c0.4-0.5,0.8-1.1,1.2-1.6
						C102.2,77,102.5,76.4,102.5,75.7z"/>
				</g>
				<g>
					<path class="st31" d="M97.2,75.8c0.5,0.6,0.8,0.9,1.1,1.5c0.3,0.5,0.6,1.2,0.3,1.9c-0.3-0.2-0.5-0.4-0.8-0.6
						c-0.2-0.2-0.4-0.5-0.6-0.7c-0.1-0.3-0.3-0.6-0.3-1C96.9,76.5,97,76.1,97.2,75.8z"/>
				</g>
				<g>
					<path class="st31" d="M100.4,89.6c-0.5-0.8-1.2-1.3-1.9-1.9c-0.7-0.6-1.4-1.3-1.8-2.2c-0.8-1.8-0.9-3.8-0.3-5.5
						c0.2,0.9,0.3,1.8,0.5,2.6c0.2,0.8,0.5,1.6,0.8,2.4c0.3,0.8,0.8,1.4,1.4,2.1C99.7,87.8,100.4,88.7,100.4,89.6z"/>
				</g>
				<g>
					<path class="st31" d="M97.3,85.5c-0.7,0-1.1-0.2-1.5-0.5c-0.4-0.3-0.7-0.7-0.8-1.4c0.7,0,1.1,0.2,1.5,0.5
						C96.8,84.5,97.2,84.9,97.3,85.5z"/>
				</g>
				<g>
					<path class="st31" d="M100.4,89.4c-0.3-0.4-0.1-1,0-1.5c0.2-0.5,0.4-0.9,0.6-1.3c0.2-0.4,0.4-0.8,0.5-1.2
						c0.2-0.4,0.3-0.9,0.4-1.3c0.3-0.9,0.5-1.8,0.8-2.6c0.2-0.9,0.4-1.8,0.6-2.7c0.3,0.9,0.3,1.9,0.3,2.9c-0.1,1-0.3,1.9-0.5,2.8
						c-0.2,0.5-0.3,0.9-0.5,1.4c-0.2,0.5-0.5,0.9-0.8,1.3c-0.3,0.4-0.6,0.7-0.9,1.1C100.7,88.5,100.5,88.9,100.4,89.4z"/>
				</g>
				<g>
					<path class="st31" d="M106.3,80.3c-0.1,1-0.7,1.8-1.3,2.4c-0.6,0.6-1.3,1.1-2.2,1.5c0.2-1,0.8-1.7,1.4-2.3
						C104.8,81.2,105.4,80.7,106.3,80.3z"/>
				</g>
				<g>
					<path class="st31" d="M100.3,80.6c0.2-0.2,0.3-0.4,0.4-0.5c0.1-0.1,0.3-0.1,0.4-0.2c0.3,0,0.6,0,1,0.4
						c-0.1,0.3-0.2,0.4-0.3,0.6c-0.1,0.1-0.3,0.2-0.5,0.2c-0.2,0-0.3,0-0.5-0.1C100.6,81,100.5,80.9,100.3,80.6z"/>
				</g>
				<g>
					<path class="st31" d="M102.7,96.5c-1.6-1.5-3.4-2.5-5-4.1c-0.8-0.8-1.4-1.8-1.8-2.9c-0.4-1.1-0.5-2.2-0.5-3.3
						c0.5,1,0.9,2,1.3,2.9c0.5,0.9,1.1,1.7,1.8,2.5c0.7,0.8,1.5,1.4,2.3,2.2C101.5,94.5,102.3,95.4,102.7,96.5z"/>
				</g>
				<g>
					<path class="st31" d="M96.6,90.1c-0.3,0-0.6,0-0.9-0.1c-0.3-0.1-0.5-0.2-0.7-0.3c-0.2-0.1-0.4-0.3-0.6-0.6
						c-0.2-0.2-0.3-0.5-0.3-0.9c0.7,0.1,1,0.2,1.5,0.5c0.2,0.1,0.4,0.3,0.6,0.5C96.4,89.5,96.6,89.7,96.6,90.1z"/>
				</g>
				<g>
					<path class="st31" d="M98.9,87.7c-0.4,0-0.7,0-1.1-0.1c-0.3-0.1-0.7-0.2-1-0.4c-0.6-0.4-1.1-1.1-1.1-1.9
						c0.8,0.3,1.2,0.6,1.7,0.9c0.2,0.2,0.5,0.3,0.7,0.6C98.5,87,98.8,87.3,98.9,87.7z"/>
				</g>
				<g>
					<path class="st31" d="M98,91.6c-0.5-0.2-0.8-0.7-1-1.1c-0.2-0.4-0.3-0.9-0.4-1.3c-0.2-0.9-0.2-1.8,0-2.7
						c0.4,0.3,0.6,0.8,0.8,1.2c0.2,0.4,0.3,0.9,0.4,1.3c0.1,0.4,0.1,0.9,0.2,1.3C97.9,90.7,97.9,91.1,98,91.6z"/>
				</g>
				<g>
					<path class="st31" d="M104.9,101.1c-1.1-0.1-2,0.6-3.3,0.6c-1.2,0-2.3-0.6-3.2-1.2c-0.9-0.7-1.7-1.3-2.5-2.1
						c-0.8-0.8-1.3-1.9-1.4-3c0.6,0.9,1.2,1.7,2,2.4c0.8,0.6,1.7,1.2,2.5,1.8c0.8,0.6,1.7,1.1,2.7,1.3
						C102.6,101,103.9,100.6,104.9,101.1z"/>
				</g>
				<g>
					<path class="st31" d="M98.1,99.7c-0.3,0.1-0.5,0.2-0.6,0.2c-0.2,0.1-0.4,0.1-0.6,0.1c-0.2,0-0.5-0.1-0.7-0.2
						c-0.2-0.2-0.4-0.4-0.4-0.8c0.3,0,0.5-0.1,0.7-0.1c0.2,0,0.3-0.1,0.5-0.1c0.2,0,0.4,0,0.6,0.2C97.8,99.2,98.1,99.4,98.1,99.7z"
						/>
				</g>
				<g>
					<path class="st31" d="M105.3,100.8c0.3-0.3,0.3-0.7,0.4-1.1c0.1-0.4,0.1-0.8,0.1-1.2c0-0.8,0.2-1.7,0.4-2.5
						c0.2-0.8,0.4-1.6,0.4-2.4c0.1-0.8,0-1.6,0-2.5c0.5,0.7,0.8,1.6,0.9,2.5c0.1,0.9,0,1.8-0.2,2.6c-0.2,0.8-0.4,1.6-0.6,2.4
						c-0.1,0.4-0.2,0.8-0.4,1.2C106,100.2,105.8,100.7,105.3,100.8z"/>
				</g>
				<g>
					<path class="st31" d="M108.8,93.4c0.2,0.4,0.2,1,0.1,1.4c-0.1,0.5-0.3,0.9-0.5,1.3c-0.2,0.4-0.5,0.7-0.9,1
						c-0.3,0.3-0.7,0.6-1.2,0.7c0.3-0.9,0.7-1.6,1.1-2.3c0.2-0.3,0.4-0.7,0.7-1C108.3,94.1,108.6,93.8,108.8,93.4z"/>
				</g>
				<g>
					<path class="st31" d="M102.2,94l1.2-2.6c0.4-0.9,0.8-1.7,1.1-2.6c0.2-0.8,0.4-1.8,0.6-2.8c0.2-0.9,0.5-1.9,0.9-2.8
						c0.1,1,0.1,2,0,2.9c-0.1,1-0.2,1.9-0.4,3c-0.4,1-0.9,1.9-1.4,2.7C103.6,92.6,103,93.4,102.2,94z"/>
				</g>
				<g>
					<path class="st31" d="M97.2,102.2c1.1,0.3,1.9,1.1,2.7,1.6c0.8,0.5,1.8,0.7,2.8,1c1,0.3,2.1,0.6,3,1.4c0.8,0.7,1.6,1.1,2.6,1.5
						l0,0c0.4,0.3,0.9,0.5,1.2,0.9c-0.5-0.2-0.9-0.3-1.4-0.5l0,0c-0.5-0.1-1.1-0.2-1.6-0.4c-0.5-0.2-1-0.5-1.5-0.8
						c-0.8-0.5-1.7-0.8-2.7-1.1c-1-0.3-2.1-0.7-3-1.4C98.6,103.8,98.1,102.9,97.2,102.2z"/>
				</g>
				<g>
					<path class="st31" d="M109.5,108.5c-0.4-0.9-0.1-1.9-0.1-2.8c0-0.5,0-0.8-0.1-1.2c-0.1-0.4-0.1-0.9-0.2-1.3
						c-0.1-0.5-0.1-0.9-0.2-1.4c0-0.5,0-1.1,0.2-1.5c0.3-0.9,0.8-1.6,0.9-2.6c0.4,0.9,0.1,1.9,0,2.8c-0.1,0.4-0.1,0.8,0,1.2
						c0,0.4,0.1,0.9,0.2,1.3c0.1,0.4,0.1,0.9,0.2,1.4c0,0.5,0,1-0.1,1.5C110.1,106.8,109.7,107.6,109.5,108.5z"/>
				</g>
				<g>
					<path class="st31" d="M107.7,99.6c0.4,0.4,0.6,1,0.9,1.5c0.2,0.5,0.4,1,0.6,1.4c0.1,0.2,0.2,0.5,0.3,0.8
						c0.1,0.3,0.2,0.5,0.2,0.8c0.1,0.6,0.2,1.1,0.1,1.7c-0.4-0.4-0.7-0.9-1-1.4l-0.8-1.4c-0.2-0.5-0.4-1.1-0.5-1.7
						C107.6,100.7,107.6,100.1,107.7,99.6z"/>
				</g>
				<g>
					<path class="st31" d="M106.3,107.3c-0.6,0.1-1,0.2-1.6,0.3c-0.5,0.1-1,0.2-1.6,0.2c-0.6,0-1.2,0-1.7-0.3
						c-0.6-0.2-1-0.8-1.1-1.4c0.5,0.4,0.9,0.5,1.3,0.6c0.4,0,0.9,0,1.4,0c0.5,0,1,0,1.6,0C105.2,106.8,105.9,106.9,106.3,107.3z"/>
				</g>
			</g>
			<g>
				<g>
					<path class="st32" d="M119.9,116.9c-2.9-4.7-10.1-4.3-14-7.9c-1.2-1.1-1.9-2.6-3.1-3.7c-1.3-1.4-2.6-2.8-3.8-4.3
						c-1.9-2.2-3.2-5.4-3.2-8.3c-0.1-2.4-0.8-4.7,2.1-5.7c1.4-0.4,2.6,0.2,3.8,0.7c1.7,0.7,3.4,1.1,5.1,1.8c2,0.8,3,1.3,4.3,3
						c1.3,1.7,2.8,2.9,4,4.7c1.2,1.9,2.4,3.3,2.9,5.4c0.4,1.7,0.8,3.3,1,5c0.2,1.9,0.6,3.7,0.8,5.5c0.2,1.6,0,3.4,0.6,4.8
						L119.9,116.9z"/>
				</g>
				<g>
					<path class="st33" d="M117.6,112.3c-0.7-0.8-0.9-1.9-1.2-2.9c-0.2-1-0.3-2-0.4-3.1l-0.2-3.1l-0.3-3.1c1.1,1.8,1.5,4,1.7,6
						c0.1,1,0.2,2.1,0.2,3.1C117.3,110.2,117.3,111.3,117.6,112.3z"/>
				</g>
				<g>
					<path class="st33" d="M117.5,103.6c0.4,0.6,0.4,1.1,0.4,1.6c-0.1,0.5-0.4,1.1-1,1.4c-0.2-0.7-0.2-1.1-0.1-1.6
						C116.8,104.6,116.9,104,117.5,103.6z"/>
				</g>
				<g>
					<path class="st33" d="M114.9,108.1c-0.9,0.2-1.9-0.1-2.7-0.4l-1.2-0.4c-0.4-0.1-0.8-0.2-1.2-0.3c-0.9-0.2-1.7-0.5-2.6-1
						c-0.8-0.4-1.5-1.1-2.1-1.8c0.8,0.4,1.6,0.7,2.4,1c0.8,0.3,1.6,0.5,2.5,0.7c0.4,0.1,0.9,0.2,1.3,0.4c0.4,0.2,0.8,0.4,1.2,0.6
						C113.4,107.3,114.1,107.8,114.9,108.1z"/>
				</g>
				<g>
					<path class="st33" d="M109.3,106.5c-0.4,0.6-1,1-1.7,1.1c-0.7,0.1-1.5,0-2-0.6c0.7-0.3,1.2-0.4,1.8-0.5
						C107.9,106.4,108.5,106.3,109.3,106.5z"/>
				</g>
				<g>
					<path class="st33" d="M110.1,102.5c-1-0.4-2-0.7-3-0.9c-1-0.2-2.1-0.5-3-0.9c-2-0.8-3.8-2-5.2-3.7c1.9,1,3.7,1.9,5.6,2.6
						c0.9,0.4,1.9,0.7,2.9,1.1C108.4,101.1,109.4,101.7,110.1,102.5z"/>
				</g>
				<g>
					<path class="st33" d="M102,99.3c-0.1,0.3-0.3,0.5-0.5,0.6c-0.2,0.2-0.4,0.2-0.6,0.3c-0.2,0-0.5,0.1-0.8,0
						c-0.3-0.1-0.5-0.3-0.6-0.6c0.3-0.1,0.5-0.2,0.6-0.3c0.2-0.1,0.3-0.1,0.5-0.2c0.2,0,0.4-0.1,0.6,0
						C101.4,99.1,101.7,99.1,102,99.3z"/>
				</g>
				<g>
					<path class="st33" d="M105.2,97c-1.3,0.2-2.7,0-4-0.4c-1.2-0.5-2.4-1.3-3.1-2.6c1.2,0.6,2.3,1.1,3.5,1.5
						C102.8,95.9,104,96.3,105.2,97z"/>
				</g>
				<g>
					<path class="st33" d="M105,97c-0.5-1.4-1.2-2.6-1.8-3.9c-0.3-0.7-0.6-1.3-0.8-2c-0.2-0.7-0.4-1.4-0.4-2.2
						c0.9,1.2,1.7,2.4,2.3,3.7c0.3,0.7,0.6,1.4,0.7,2.1C105.2,95.5,105.2,96.3,105,97z"/>
				</g>
				<g>
					<path class="st33" d="M104.3,90.1c0.5,0.5,0.6,1.2,0.5,1.8c-0.1,0.6-0.3,1-0.8,1.6c-0.4-0.6-0.4-1.3-0.3-1.8
						C103.8,91.1,103.9,90.7,104.3,90.1z"/>
				</g>
				<g>
					<path class="st33" d="M102.3,94.3c-0.9-0.9-1.7-1.7-2.5-2.5c-0.8-0.8-1.7-1.7-2.2-2.8c1.2,0.5,2.2,1.2,3.1,2
						C101.4,91.9,102.2,93,102.3,94.3z"/>
				</g>
				<g>
					<path class="st33" d="M110,102.3c-0.2-0.3-0.2-0.8-0.1-1.1c0.1-0.4,0.3-0.7,0.4-1c0.1-0.3,0.2-0.6,0.2-0.9c0-0.3,0-0.5-0.1-0.8
						c-0.1-0.6-0.3-1.4-0.2-2.1c0-0.7,0.2-1.4,0.2-2.1c0.4,0.6,0.5,1.4,0.7,2c0.1,0.7,0.3,1.2,0.4,2c0.1,0.4,0.1,0.8,0,1.2
						c-0.1,0.4-0.3,0.7-0.5,1.1C110.6,101.2,110.1,101.6,110,102.3z"/>
				</g>
				<g>
					<path class="st33" d="M111.9,96.1c0.4,0.4,0.4,0.9,0.2,1.2c-0.2,0.4-0.5,0.7-1.1,0.7c-0.1-0.6-0.1-0.8,0-1.1
						C111.2,96.6,111.4,96.3,111.9,96.1z"/>
				</g>
				<g>
					<path class="st33" d="M108,100c-0.3-0.7-0.1-1.6,0-2.2c0-0.3,0-0.6,0-0.9c-0.1-0.4-0.1-0.7-0.2-1c-0.1-0.7-0.3-1.4-0.3-2.1
						c-0.1-0.7-0.1-1.5,0-2.2c0.7,1.3,1.2,2.7,1.5,4.2c0.1,0.4,0.1,0.8,0.1,1.1c0,0.4,0,0.9-0.2,1.2C108.7,98.7,108.2,99.2,108,100z
						"/>
				</g>
				<g>
					<path class="st33" d="M108.5,95.6c-1-0.1-1.8-0.8-2.3-1.6c-0.2-0.4-0.4-0.8-0.5-1.3c-0.1-0.4-0.2-0.9-0.2-1.4
						c0.8,0.6,1.2,1.4,1.7,2.1C107.5,94.1,108,94.7,108.5,95.6z"/>
				</g>
				<g>
					<path class="st33" d="M108.6,106.3c-0.5,0.1-1,0.1-1.4,0c-0.5,0-0.9-0.1-1.4-0.2c-0.5-0.1-1-0.3-1.4-0.6
						c-0.4-0.3-0.8-0.7-0.9-1.2c1,0.3,1.7,0.5,2.6,0.7c0.4,0.1,0.9,0.2,1.3,0.4C107.8,105.7,108.3,105.9,108.6,106.3z"/>
				</g>
				<g>
					<path class="st33" d="M105.8,100.9c-0.6,0.8-1.5,1.1-2.4,1.2c-0.9,0.1-2-0.1-2.6-0.9c1-0.1,1.7-0.2,2.5-0.3
						C104.1,100.9,104.9,100.8,105.8,100.9z"/>
				</g>
				<g>
					<path class="st33" d="M103.7,101.7c0.1,0.5,0,0.8-0.2,1c-0.2,0.2-0.5,0.4-1,0.2c0-0.5,0-0.8,0.2-1
						C102.9,101.7,103.2,101.5,103.7,101.7z"/>
				</g>
			</g>
			<g>
				<g>
					<path class="st34" d="M120.2,125.3c0.5-1.9-0.3-3.7-0.5-5.6c-0.2-3.2,0-7.1-1.5-10.1c-0.8-1.6-2.5-3-3.6-4.4
						c-1-1.2-2.2-2.4-3.5-3.3c-1.3-1-3.7-2.8-5.2-0.9c-1.1,1.5-0.4,5.6-0.1,7.2c0.3,2.4,1.7,5.1,3.3,7c1.8,2,3.7,3.4,6.1,4.5
						c1.7,0.8,3,2.2,3.9,3.8C119.5,124.4,119.5,124.7,120.2,125.3L120.2,125.3z"/>
				</g>
				<g>
					<path class="st30" d="M118.3,120.9c-0.4-1.8-0.7-3.5-0.9-5.2c-0.2-1.7-0.5-3.5-0.3-5.3c0.8,1.7,1.2,3.4,1.5,5.2
						c0.1,0.9,0.2,1.8,0.2,2.7C118.6,119.1,118.6,120,118.3,120.9z"/>
				</g>
				<g>
					<path class="st30" d="M114.9,113.8c-0.3-1-0.4-1.9-0.4-2.8c-0.1-0.9-0.1-1.8,0.1-2.9c0.7,0.8,1,1.8,1.1,2.8
						C115.7,111.9,115.6,112.9,114.9,113.8z"/>
				</g>
				<g>
					<path class="st30" d="M115.7,107.8c0.3,0.1,0.5,0.4,0.6,0.7c0.1,0.3,0,0.6,0,0.9c-0.1,0.3-0.2,0.5-0.3,0.7
						c-0.2,0.2-0.3,0.4-0.6,0.6c-0.2-0.3-0.2-0.6-0.2-0.9c0-0.3,0-0.5,0.1-0.7c0.1-0.2,0.1-0.4,0.2-0.6
						C115.5,108.4,115.6,108.2,115.7,107.8z"/>
				</g>
				<g>
					<path class="st30" d="M107.5,107.9c0.5,0.6,1.2,1,1.9,1.4c0.7,0.4,1.4,0.8,2.1,1.4c0.2,0.1,0.3,0.3,0.5,0.5l0.4,0.4
						c0.3,0.3,0.6,0.6,0.8,0.8c0.6,0.5,1.2,1.1,1.8,1.7c-0.8-0.2-1.6-0.5-2.3-1c-0.4-0.2-0.7-0.5-1-0.7c-0.2-0.1-0.3-0.3-0.5-0.4
						c-0.1-0.1-0.3-0.3-0.4-0.4c-0.6-0.5-1.3-1-1.9-1.5C108.2,109.4,107.6,108.7,107.5,107.9z"/>
				</g>
				<g>
					<path class="st30" d="M116.8,117.7c-0.8-0.1-1.5-0.3-2.1-0.6c-0.7-0.3-1.3-0.6-1.9-1c-0.6-0.4-1.2-0.9-1.7-1.4
						c-0.5-0.5-1-1.1-1.3-1.8c1.3,0.7,2.5,1.5,3.6,2.3C114.5,116,115.7,116.8,116.8,117.7z"/>
				</g>
				<g>
					<path class="st30" d="M106.4,103.5c0.8,0.6,1.5,1,2.3,1.4c0.4,0.2,0.8,0.5,1.2,0.8c0.4,0.3,0.7,0.7,1,1.2
						c-0.5-0.1-1-0.3-1.4-0.4c-0.4-0.2-0.9-0.3-1.3-0.6c-0.4-0.3-0.8-0.6-1.2-1C106.6,104.5,106.4,104,106.4,103.5z"/>
				</g>
				<g>
					<path class="st30" d="M109.4,110.1c-0.3,0.5-0.8,0.5-1.1,0.4c-0.3-0.1-0.6-0.4-0.6-0.9c0.5-0.2,0.8-0.2,1-0.1
						C108.9,109.5,109.1,109.6,109.4,110.1z"/>
				</g>
				<g>
					<path class="st30" d="M111.9,111.7c-0.6-0.3-0.9-0.7-1.2-1.1c-0.2-0.4-0.4-0.9-0.5-1.5c0.7,0.1,1.1,0.5,1.4,1
						C112,110.5,112.2,111.1,111.9,111.7z"/>
				</g>
			</g>
		</g>
	</g>
	<g>
		<path class="st35" d="M124.5,90.4c0,0-0.9,3.7-2.2,4.6c-0.4,0.3-0.8,0.4-1.1,0.5c-0.6,0.1-1-0.2-1-0.2c-0.1,0-0.1,0-0.2,0
			c-0.1,0-0.2-0.1-0.4-0.1c-2.6-1.1-5.3-6.3-4.2-9.8c0,0,3.8,2.3,4.1,7.2c0-0.2,0-0.6,0-1.1c0-2.5,0.5-7.7,4-9.6c0,0,1,5.7-1.6,10.8
			C122.5,91.7,123.5,90.6,124.5,90.4z"/>
		<path class="st36" d="M119.7,95c-2.6-1.1-5.3-6.3-4.2-9.8C115.5,85.3,116.8,90.1,119.7,95z"/>
		<path class="st36" d="M123.7,103c-1-0.5-1.9-1-2.9-1.6l-0.8-6.2l-0.4-3.1l-0.1-0.7c0-2.5,0.5-7.7,4-9.6c0,0-1.7,5.2-2.2,10.5
			c-0.1,0.5-0.1,1-0.1,1.5c0,0,0,0,0,0c0,0.6,0,1.1,0,1.7c0,2.6,0.5,4.9,1.7,6.4C123.2,102.3,123.5,102.7,123.7,103z"/>
		<path class="st37" d="M125.5,103.7c-0.8,2.1-2,4.1-3.2,5.7c-1.4,1.8-2.9,3.1-4,3.1l0,0c0,0-0.1,0-0.1,0c0,0-0.1,0-0.1,0l0,0
			c-3.2-0.9-7.8-13.8-3.4-18.7c0.9-1,2.1-1.6,3.7-1.8l0,0c0.6-0.1,1.3-0.1,2,0l0,0c0,0,0.1,0,0.1,0c0,0,0.1,0,0.1,0l0,0
			C127.4,93,127.5,98.6,125.5,103.7z"/>
		<path class="st38" d="M122.3,109.5c-1.4,1.8-2.9,3.1-4,3.1l0,0c0,0-0.1,0-0.1,0c0,0-0.1,0-0.1,0l0,0c-3.8-1-9.7-19.4,0.3-20.4
			C113.4,92.9,116.6,104.2,122.3,109.5z"/>
		<path class="st39" d="M125.4,103.7c-0.6-0.2-1.2-0.5-1.8-0.7c-1-0.5-1.9-1-2.9-1.6c-4.1-2.5-7.7-5.8-6.2-7.6
			c0.9-1,2.1-1.6,3.7-1.8l0,0c0.4,0,0.8-0.1,1.3,0c0.2,0,0.5,0,0.7,0.1l0,0c0,0,0.1,0,0.1,0c0,0,0.1,0,0.1,0l0,0
			c0.3,0,0.5,0.1,0.8,0.1C127.3,93.5,127.3,98.8,125.4,103.7z"/>
	</g>
	<g>
		<path class="st35" d="M87.1,107.2C84.5,96.9,82.2,91,80,91.5c-2.2,0.5-0.6,5.6-0.6,5.6L87.1,107.2z"/>
		<path class="st40" d="M88.4,117.1h-2.2c0,0-0.3-12.9-11.8-18.6c-3.2-1.6-5.3-4.2-6.2-6.5c-0.5-1.4-0.6-2.7-0.2-3.5
			c0.8-1.8,3.7-1.9,8.9,2.3c4.4,3.5,7.2,8,8.8,12.3c0,0,0,0,0,0c0.1,0.1,0.1,0.3,0.2,0.4c0,0,0,0,0,0.1c0.1,0.2,0.2,0.4,0.2,0.6
			c0,0,0,0,0,0C88.6,111.1,88.4,117.1,88.4,117.1z"/>
		<path class="st40" d="M86.2,113.9c-0.2-0.4-0.6-1.2-1.1-2.7c-2.5-7.6-15.1-0.8-16.3-5.7c-0.1-0.2-0.1-0.5-0.1-0.7
			c-0.1-1.2,0.2-2.1,1-2.7c1.9-1.3,6.1-0.8,11.2,2.3c0,0,0.1,0.1,0.1,0.1c0.5,0.3,0.9,0.6,1.4,0.9l3.9,3.6
			C86.2,109.1,87.1,115.4,86.2,113.9z"/>
		<path class="st35" d="M87.5,117.1h-1.3c0,0-0.3-12.9-11.8-18.6C69.4,96,67,90.8,68,88.4c0.3,2.6,13.1,8.1,17.1,18
			C87.1,111.2,87.6,114.7,87.5,117.1z"/>
		<path class="st41" d="M86.2,113.9c-0.2-0.4-0.6-1.2-1.1-2.7c-2.5-7.6-15.1-0.8-16.3-5.7c-0.4-1.5,0-2.7,0.9-3.3
			c-3.4,2.7,11.1,0.9,15.4,7.9C86.4,112.3,86.6,113.4,86.2,113.9z"/>
		<path class="st39" d="M85.7,103c-2.9-6.8-15.3-6.7-17.5-11c-0.5-1.4-0.6-2.7-0.2-3.5c0.8-1.8,3.7-1.9,8.9,2.3
			C81.3,94.2,84.1,98.7,85.7,103z"/>
		<path class="st39" d="M80.8,104.5c-4.7-2.8-11.6,4.6-12.2,0.3h0c-0.1-1.2,0.2-2.1,1-2.7C71.5,100.9,75.8,101.5,80.8,104.5z"/>
	</g>
	<g>
		<path class="st42" d="M85.3,123.3l-2,1l-1.5,0.8l-2.3,1.2l-0.5,0.3c-0.4-0.1-0.9-0.2-1.3-0.3c0,0,0,0,0,0.1l0-0.1
			c-0.8-0.2-1.6-0.4-2.4-0.6c-0.7-0.2-1.3-0.4-1.9-0.6h0l-1.2-1.7l-8.8-13.1l0.8-0.7l0.5-0.4l3.3-2.8l1.6-1.4l5.2-4.4l1.6-1.3
			l6.1,16.3l0.8,2.1l1.2,3.2l0.5,1.4l0,0L85.3,123.3z"/>
		<polygon class="st43" points="87.8,104.4 89.2,119.7 87.2,121.6 86.3,122.4 85.3,123.3 82.4,115.6 76.4,99.3 78.9,100.4 
			83.3,102.4 		"/>
		<path class="st44" d="M77.7,126.3c-0.8-0.2-1.6-0.4-2.4-0.6l-1.9-3l-4.1-6.4l-4.6-7.1l3.3-2.8l2.3,4.7l3.5,7.2l0.3,0.6l1.2,2.6
			L77.7,126.3z"/>
		<polygon class="st44" points="74.8,100.6 83.4,124.4 79.6,126.3 69.6,105 		"/>
		<polygon class="st44" points="83.3,102.4 87.2,121.6 86.3,122.4 78.9,100.4 		"/>
		<path class="st45" d="M89.2,119.7l-0.6,0.6l-0.2,0.2l-0.4,0.4l-0.6,0.6l-0.2,0.2l-0.8,0.7v0h0l-0.1,0.1l-1,0.9l-2,1l-1.5,0.8
			l-2.3,1.2l-0.5,0.3c-0.4-0.1-0.9-0.2-1.3-0.3c0,0,0,0,0,0.1l0-0.1c-0.8-0.2-1.6-0.4-2.4-0.6c-0.7-0.2-1.3-0.4-1.9-0.6h0l-1.2-1.7
			c0.3-0.2,0.7-0.4,1.2-0.7c0.6-0.4,1.2-0.8,1.9-1.3c0.5-0.3,1-0.7,1.5-1c0.4-0.3,0.8-0.6,1.2-0.9c0.9-0.7,1.9-1.5,2.8-2.3
			c0.6-0.5,1.1-1,1.7-1.6c0.4-0.4,0.8-0.8,1.2-1.2c0.6-0.7,1.2-1.4,1.7-2.1c1.7-2.4,2.8-5.1,2.5-7.8l0.9,9.6l0.1,1.5l0.1,1.6L89,118
			L89.2,119.7z"/>
		<path class="st45" d="M75.3,113.4c1.2,2.2,1,4.6-0.3,5.3c-1.3,0.7-3.3-0.6-4.5-2.8c-1.2-2.2-1-4.6,0.3-5.3
			C72.1,109.9,74.1,111.2,75.3,113.4z"/>
		<path class="st45" d="M75.8,108c0.6,1.1,0.5,2.2-0.1,2.6c-0.6,0.3-1.6-0.3-2.2-1.4c-0.6-1.1-0.5-2.2,0.1-2.6
			C74.3,106.3,75.2,106.9,75.8,108z"/>
		<path class="st45" d="M82.9,121.2c0,1.3-0.6,2.3-1.4,2.3s-1.4-1.1-1.4-2.4c0-1.3,0.6-2.3,1.4-2.3
			C82.3,118.9,82.9,119.9,82.9,121.2z"/>
	</g>
	<g>
		<path class="st46" d="M112.5,113.1c0.7-1.5,1.5-2.8,2.2-4c0.9-1.3,1.8-2.4,2.7-3.4c1.8-1.8,3.7-3,5.6-3.6c0.1,0,0.1,0,0.2-0.1
			c0.5-0.1,1-0.3,1.5-0.3c0.8-0.1,1.7-0.2,2.5-0.1c0.5,0,0.9,0.1,1.4,0.2c0.1,0,0.1,0,0.2,0c2.6,0.5,5,2,7.1,3.9
			c0,0,0.1,0.1,0.1,0.1c0.3,0.3,0.6,0.6,0.9,0.9c0.6,0.6,1.1,1.3,1.6,2c0.3,0.5,0.7,1,1,1.5c0,0,0.1,0.1,0.1,0.2
			c0.9,1.6,1.6,3.3,2,5c0.3,1.6-0.2,3.2-1.4,4.2c-0.2,0.2-0.4,0.3-0.6,0.4c-0.3,0.1-0.5,0.3-0.8,0.3c-1,0.3-2.2,0.2-3.5-0.7
			c-1.3-0.9-1.8-2.6-1.8-4.1c0-0.1,0-0.1,0-0.2c0-0.6,0-1.2,0.1-1.7c0.1-1,0.3-1.6,0.3-1.6c-1,0.3-1.9,0.3-2.7,0.2
			c-0.5-0.1-0.9-0.1-1.3-0.3c-0.1,0-0.1,0-0.2-0.1c-0.8-0.3-1.5-0.7-2.1-1.2c0,0-0.1-0.1-0.1-0.1c-0.4-0.3-0.7-0.7-1-1
			c-0.7-0.8-1-1.4-1-1.4c-0.5,0.5-1,0.9-1.6,1.3c-0.5,0.3-1.1,0.5-1.7,0.7c-0.1,0-0.1,0-0.2,0.1c-1,0.3-2,0.3-2.8,0.2
			c-1.7-0.1-2.9-0.6-2.9-0.6s0,0,0,0.1c0,0.2,0.2,1.2,0,2.6c-0.1,0.7-0.4,1.6-0.8,2.6c-0.2,0.5-0.6,1.2-1.1,1.9
			C111.4,121.1,105.8,127,112.5,113.1z"/>
		<g>
			<path class="st47" d="M130.8,112.4c2.1-1.1,4-3.1,6-5.6c0.6,0.6,1.1,1.3,1.6,2c-1.8,2.3-3.5,3.9-5.2,5c0.1-1,0.3-1.6,0.3-1.6
				C132.5,112.5,131.6,112.5,130.8,112.4z"/>
		</g>
		<g>
			<path class="st47" d="M123.6,109.6c1-3.2,1.1-6.1,1.1-7.8c0.8-0.1,1.7-0.2,2.5-0.1c0.1,1.9,0,4.8-1,8.1c-0.7-0.8-1-1.4-1-1.4
				C124.7,108.9,124.2,109.3,123.6,109.6z"/>
		</g>
		<path class="st48" d="M117.4,105.8c2.3-2.4,4.8-3.6,7.3-4c0.8-0.1,1.7-0.2,2.5-0.1c3.6,0.3,7.1,2.3,9.7,5.1c0.6,0.6,1.1,1.3,1.6,2
			c1.5,2.1,2.5,4.4,3,6.7c0.4,1.8-0.4,3.7-2.1,4.6c-0.3,0.1-0.5,0.3-0.8,0.3C143.6,114.5,128,98.3,117.4,105.8
			C117.4,105.8,117.4,105.8,117.4,105.8z"/>
		<path class="st47" d="M112.5,113.1c0.7-1.5,1.5-2.8,2.2-4l0,0c0.5,0.3,0.9,0.6,1.3,0.9c0.1,0.4,0.4,2.3-0.8,5.1
			C113.9,118.2,104.5,129.5,112.5,113.1z"/>
		<path class="st49" d="M118.9,110.6C118.9,110.6,118.9,110.6,118.9,110.6c17.1-9.7,21.1,9.1,21.1,9.1c-0.2,0.2-0.4,0.3-0.6,0.4
			c-0.3,0.1-0.5,0.3-0.8,0.3c-1,0.3-2.2,0.2-3.5-0.7c-1.9-1.3-2-4.1-1.8-5.9c0.1-1,0.3-1.6,0.3-1.6c-1,0.3-1.9,0.3-2.7,0.2
			c-2.2-0.2-3.7-1.6-4.6-2.6c-0.7-0.8-1-1.4-1-1.4c-0.5,0.5-1,0.9-1.6,1.3C122,110.6,120.3,110.7,118.9,110.6z"/>
		<g>
			<path class="st12" d="M133.2,115.7c0-0.1,0-0.1,0-0.2c2.9-1.5,5-3.7,6.2-5.2c0,0,0.1,0.1,0.1,0.2
				C138.3,112,136.1,114.2,133.2,115.7z"/>
		</g>
		<g>
			<path class="st12" d="M129.4,112.1c3.2-2,5.4-4.8,6.4-6.3c0,0,0.1,0.1,0.1,0.1c-1,1.5-3.2,4.3-6.4,6.2
				C129.5,112.1,129.4,112.1,129.4,112.1z"/>
		</g>
		<g>
			<path class="st12" d="M127.2,110.8c1.8-3.1,1.6-7,1.4-8.9c0.1,0,0.1,0,0.2,0c0.2,1.9,0.5,5.9-1.4,8.9
				C127.3,110.8,127.2,110.8,127.2,110.8z"/>
		</g>
		<g>
			<path class="st12" d="M121.7,110.4c1.4-2.9,1.4-6.5,1.3-8.2c0.1,0,0.1,0,0.2-0.1c0.1,1.7,0.1,5.2-1.2,8.2
				C121.9,110.4,121.8,110.4,121.7,110.4z"/>
		</g>
	</g>
	<g>
		<g>
			<g>
				<path class="st42" d="M134.5,85.5c0.6,0.7,2.4,2.8,4.2,5.8c0.2,0.5,0.3,0.9,0.5,1.4c0.6,1.9,0.2,3.5,0.4,5.4
					c0.2,2.9-0.1,5.8-1,8.6c-0.2,0.7-0.5,1.5-0.8,2.2c-2.4,5.8-6.4,9.1-6.7,9.4c0,0,0,0,0,0l0,0c0,0,0,0,0,0
					c-0.1-0.2-0.3-0.4-0.3-0.6c-0.2-0.6,0-1.3,0.4-1.8c1.3-1.3,3.4-3.9,4.9-7.3c0.1-0.1,0.1-0.3,0.2-0.4c1.3-3.2,1.9-6.6,1.7-10
					c-0.3-3.8-0.9-7.4-3.2-11.3C134.5,86.5,134.4,86,134.5,85.5C134.5,85.6,134.5,85.6,134.5,85.5z"/>
			</g>
		</g>
		<path class="st50" d="M134.3,85.3c0,0,0.1,0.1,0.2,0.2c0.6,0.7,2.4,2.8,4.2,5.8c1.5,2.6,2.9,5.8,3.3,9.3c0.8,6-1.4,12.6-11,17.6
			c0,0,0,0,0,0c0,0,0,0,0,0c0,0,0,0,0,0c0.2-0.2,5.2-4.4,7.3-11.4c1.7-5.5,1.6-12.8-3.8-21.3C134.5,85.5,134.4,85.4,134.3,85.3z"/>
		<path class="st51" d="M142,100.7c0.8,6-1.4,12.6-11,17.6c0,0,0,0,0,0l0,0c0,0,0,0,0,0c0,0,0,0,0,0c-0.1-0.2-0.3-0.4-0.3-0.6
			c-0.2-0.6,0-1.3,0.4-1.8c1.3-1.3,3.4-3.9,4.9-7.3c0.7-0.4,1.5-1,2.3-1.7c0.1-0.1,0.2-0.1,0.2-0.2
			C139.9,105.3,141.2,103.4,142,100.7z"/>
	</g>
	<g>
		<path class="st52" d="M179,96.6c-0.1,0.3-0.3,0.6-0.4,0.8c-0.9,1.7-1.7,3.3-2.6,4.8c-0.1,0.1-0.1,0.2-0.2,0.3
			c-0.5,0.9-1,1.8-1.6,2.6c-0.1,0.1-0.1,0.2-0.2,0.3c-0.7,1.2-1.4,2.2-2.1,3.3h-12c0,0,4.6,1.6,10.3,2.5c-0.5,0.7-1,1.3-1.4,1.9
			c-0.1,0.1-0.1,0.2-0.2,0.3c-0.6,0.7-1.2,1.5-1.8,2.1c-0.1,0.1-0.1,0.2-0.2,0.2c-1.9,2.1-3.7,3.9-5.5,5.5c-0.1,0.1-0.2,0.2-0.3,0.3
			c-1.7,1.4-3.4,2.6-5,3.5c-0.1,0.1-0.2,0.1-0.3,0.2c-10.7,6-19,2.3-21.9,0.6c-0.7-0.4-1.1-0.7-1.1-0.7s-0.1-0.1-0.2-0.3
			c-1.5-2.1-9-13.7,3.7-22.1c0.1-0.1,0.2-0.1,0.3-0.2c1-0.7,2.1-1.3,3.4-1.9c0.1-0.1,0.3-0.1,0.4-0.2c0.2-0.1,0.5-0.2,0.7-0.3
			c2-0.9,4-1.6,5.9-2.3c0.1,0,0.2-0.1,0.3-0.1c3.7-1.2,7.2-1.9,10.5-2.3c0.1,0,0.2,0,0.3,0c8.3-1.1,15-0.1,18.5,0.6
			C178,96.3,179,96.6,179,96.6z"/>
		<g>
			<path class="st21" d="M179,96.6c-0.1,0.3-0.3,0.6-0.4,0.8c-7.3,0.2-13.9,1.6-19.9,4.1c-0.2,0.1-0.3,0.1-0.5,0.2
				c-1.2,0.5-2.4,1.1-3.6,1.8c-1.3,0.7-2.6,1.5-3.8,2.3c-0.8,0.5-1.6,1.1-2.4,1.7h0c-0.1,0.1-0.2,0.2-0.3,0.2
				c-0.4,0.3-0.8,0.6-1.1,0.9c-0.9,0.7-1.7,1.4-2.5,2.2c-0.1,0.1-0.3,0.3-0.4,0.4c-0.1,0.1-0.2,0.1-0.2,0.2c-0.5,0.5-1,1-1.4,1.4
				c-0.3,0.3-0.5,0.6-0.8,0.8c0,0,0,0,0,0c0,0,0,0,0,0c-0.2,0.2-0.3,0.3-0.4,0.5c-0.5,0.6-1.1,1.3-1.6,1.9c-0.1,0.1-0.1,0.2-0.2,0.3
				c0,0,0,0,0,0c-0.6,0.7-1.1,1.4-1.6,2.2c-0.8,1.2-1.6,2.4-2.3,3.5c-0.2,0.3-0.3,0.5-0.4,0.8c-0.1,0.2-0.3,0.5-0.4,0.7
				c-0.1,0.1-0.1,0.2-0.2,0.3c-0.2,0.4-0.4,0.7-0.6,1c-0.1,0.3-0.3,0.5-0.4,0.8c0,0.1-0.1,0.1-0.1,0.2c-0.4,0.9-0.8,1.7-1.1,2.5
				c-0.2,0.4-0.3,0.8-0.5,1.1c0,0.1-0.1,0.2-0.1,0.2c-0.6,0-1.2,0.1-1.8,0.1c0.3-0.7,0.6-1.5,0.9-2.3c0.2-0.5,0.5-1,0.7-1.6
				c0.2-0.4,0.4-0.8,0.6-1.3c0.1-0.2,0.2-0.4,0.3-0.5c0.1-0.3,0.3-0.6,0.5-0.9c0.1-0.1,0.1-0.2,0.2-0.3c0.1-0.2,0.3-0.5,0.4-0.7
				c0.1-0.2,0.2-0.4,0.3-0.6c0.4-0.7,0.9-1.5,1.3-2.2c0.7-1.1,1.4-2.2,2.3-3.3c0.2-0.3,0.4-0.6,0.6-0.8c0,0,0.1-0.1,0.1-0.1
				c0.1-0.1,0.2-0.2,0.3-0.3c0.1-0.2,0.3-0.3,0.4-0.5c0.2-0.2,0.4-0.5,0.6-0.7c0,0,0,0,0,0c0.3-0.3,0.6-0.7,0.8-1
				c0.6-0.7,1.2-1.3,1.8-1.9c0.7-0.7,1.5-1.4,2.2-2.1c0.8-0.7,1.6-1.4,2.5-2.1c0,0,0,0,0,0c0,0,0.1-0.1,0.1-0.1
				c0.5-0.4,1-0.8,1.6-1.2c1.7-1.2,3.4-2.3,5.2-3.2c1-0.6,2.1-1.1,3.2-1.6c0.1-0.1,0.2-0.1,0.3-0.2c5.7-2.5,12.1-4,19-4.4
				C178,96.3,179,96.6,179,96.6z"/>
		</g>
		<g>
			<path class="st21" d="M138.6,116.2l-0.3,0.1l-2.4-13.7c0.1-0.1,0.2-0.1,0.3-0.2l1.1,6.5l0.1,0.8L138.6,116.2z"/>
		</g>
		<g>
			<path class="st21" d="M161,121.2c-0.1,0.1-0.2,0.2-0.3,0.3l-10.9-2.5l-0.6-0.1l-9.9-2.3l0.1-0.3L161,121.2z"/>
		</g>
		<g>
			<path class="st21" d="M147,97.7v8.9h-0.3v-8.8C146.7,97.7,146.9,97.7,147,97.7z"/>
		</g>
		<g>
			<path class="st21" d="M168.7,113.1c-0.1,0.1-0.1,0.2-0.2,0.3l-5.1-1.4l-0.6-0.2l-15.4-4.2l0.1-0.3L168.7,113.1z"/>
		</g>
		<g>
			<path class="st21" d="M174.2,105.1c-0.1,0.1-0.1,0.2-0.2,0.3l-17.2-4l0.6-6.1c0.1,0,0.2,0,0.3,0l-0.6,5.9l8.2,1.9l1,0.2
				L174.2,105.1z"/>
		</g>
		<g>
			<path class="st21" d="M155.7,125c-0.1,0.1-0.2,0.1-0.3,0.2l-6.1-6.4l0,0l0.2-0.2l0.4,0.4L155.7,125z"/>
		</g>
		<g>
			<path class="st21" d="M140,100.3l-2.5,9.3l0,0l-0.3-0.1l0.2-0.7l2.3-8.3C139.7,100.5,139.8,100.4,140,100.3z"/>
		</g>
		<g>
			<path class="st21" d="M176,102.2c-0.1,0.1-0.1,0.2-0.2,0.3l-9.3,0.8l-1,0.1l0-0.3l0,0L176,102.2z"/>
		</g>
		<g>
			<path class="st21" d="M166.7,115.5c-0.1,0.1-0.1,0.2-0.2,0.2l-3.7-4l0,0l0.2-0.2l0.4,0.4L166.7,115.5z"/>
		</g>
	</g>
	<g>
		<path class="st42" d="M154.5,106.6l-0.3,2.5l0,0.3l0,0.4l-0.1,0.6l-0.2,2l0,0.3l-0.1,1.4l-0.5,5.2l0,0.3l-0.1,0.8l-0.2,1.6l0,0.4
			l-0.4,4.1l-0.1,0.6l0,0.3c-0.6,0.1-1.2,0.2-1.8,0.3c-0.9,0.2-1.9,0.3-2.9,0.5c-0.7,0.1-1.5,0.2-2.3,0.3c-1.2,0.2-2.5,0.3-3.8,0.5
			c-0.8,0.1-1.5,0.2-2.3,0.2c-0.4,0-0.7,0.1-1.1,0.1c-0.6,0.1-1.1,0.1-1.7,0.1l-0.3-2.4l-0.4-2.6l-0.2-1.5l-0.1-0.7l-0.3-2.6
			l-2-14.8l-0.4-2.9l2.6,0.6l0.6,0.1l0.3,0.1l2.6,0.6l0.3,0.1l4.9,1.1l2.5,0.6l0.1,0l0.2,0l1.6,0.3l2.2,0.5l1.5,0.3L154.5,106.6z"/>
		<path class="st43" d="M136.5,129.5c-0.4,0-0.8,0.1-1.2,0.1c-0.2,0-0.4,0-0.5,0c-0.1,0-0.2,0-0.3,0c-0.6,0-1.1,0.1-1.7,0.1
			c-0.3,0-0.5,0-0.8,0.1c-0.1,0-0.1,0-0.2,0c-0.6,0-1.2,0.1-1.8,0.1c-0.1,0-0.3,0-0.4,0c-0.1,0-0.2,0-0.3,0l-0.3-0.8l-0.4-0.8
			l-2-4.8l0,0l0-0.1l-1.7-4.1l-0.9-2.2l-1-2.3l4-5.1l3.8-4.9l2.2-2.9l0.4,2.9l2,14.8l0.3,2.6l0.1,0.7l0.2,1.5l0.4,2.6L136.5,129.5z"
			/>
		<path class="st44" d="M152.3,106.1l-0.2,2.4l0,0.3l-0.1,0.9l-0.2,2.3l0,0.3l-0.1,1.3l-0.4,5.2l0,0.3l-0.1,1l0,0.4l0,0.2l-0.5,6.1
			l0,0.2l0,0.5c-0.9,0.2-1.9,0.3-2.9,0.5l0-0.2l0-1.3l-0.1-3.7l-0.1-1.5l-0.1-3.2l0-0.3l-0.2-4.7l0-1.1l0-0.4l0-0.4l0-1l-0.1-1.7
			l-0.1-2l0,0l-0.1-1.7l0.2,0l1.6,0.3l2.2,0.5L152.3,106.1z"/>
		<path class="st44" d="M145.4,128.5c-1.2,0.2-2.5,0.3-3.8,0.5c-0.8,0.1-1.5,0.2-2.3,0.2l-0.2-1.3l-0.1-0.4l-0.3-2.4l-0.4-2.6
			l-0.6-4l-0.3-2.3l-0.2-1.4l0-0.3l0-0.1l-1.7-11.6l-0.1-0.5l0.6,0.1l0.3,0.1l2.6,0.6l0.3,0.1l4.9,1.1l0.2,4.4l0.1,2.1l0,0.2l0,0.3
			l0,0.9v0l0,0.2l0,0.9l0.2,4.1l0,0.3l0.2,4.1l0.1,1.3l0.2,3.3l0.1,1.9L145.4,128.5z"/>
		<path class="st44" d="M134.7,129.6c-0.1,0-0.2,0-0.3,0c-0.6,0-1.1,0.1-1.7,0.1l-0.4-1.3l-0.7-2.4l-0.8-2.8l-0.3-1l-0.1-0.4
			l-0.3-0.9l-1-3.3l-0.3-0.9v0l-2.1-7l3.8-4.9l0.4,2.5l2.3,13.7l0.2,1.4l0.1,0.7l0.1,0.7l0.2,1.3l0.2,1.1L134.7,129.6z"/>
		<path class="st45" d="M152.4,127.1l0,0.3c-0.6,0.1-1.2,0.2-1.8,0.3c-0.9,0.2-1.9,0.3-2.9,0.5c-0.7,0.1-1.5,0.2-2.3,0.3
			c-1.2,0.2-2.5,0.3-3.8,0.5c-0.8,0.1-1.5,0.2-2.3,0.2c-0.4,0-0.7,0.1-1.1,0.1c-0.6,0.1-1.1,0.1-1.7,0.1c-0.4,0-0.8,0.1-1.2,0.1
			c-0.2,0-0.4,0-0.5,0c-0.1,0-0.2,0-0.3,0c-0.6,0-1.1,0.1-1.7,0.1c-0.3,0-0.5,0-0.8,0.1c-0.1,0-0.1,0-0.2,0c-0.6,0-1.2,0.1-1.8,0.1
			c-0.1,0-0.3,0-0.4,0c-0.1,0-0.2,0-0.3,0l-0.3-0.8l-0.4-0.8l-2-4.8l0,0l0-0.1l-1.7-4.1l-0.9-2.2l-1-2.3c0.3,0.8,0.8,1.5,1.3,2.2
			c0.7,1,1.6,1.9,2.6,2.7c1.1,0.9,2.4,1.8,3.8,2.5c0.1,0.1,0.2,0.1,0.3,0.2h0c0.1,0.1,0.2,0.1,0.4,0.2c0.4,0.2,0.8,0.4,1.2,0.5
			c0.2,0.1,0.4,0.2,0.6,0.3c0.3,0.1,0.5,0.2,0.8,0.3c0.3,0.1,0.5,0.2,0.8,0.3c0.1,0,0.2,0.1,0.3,0.1c0.3,0.1,0.7,0.2,1,0.3
			c1,0.3,1.9,0.6,2.9,0.8c2.3,0.6,4.5,1,6.6,1.3c0.8,0.1,1.6,0.2,2.3,0.3c1.1,0.1,2.1,0.2,3,0.3c0.2,0,0.4,0,0.5,0h0
			C151.6,127.1,152,127.1,152.4,127.1z"/>
		<path class="st45" d="M142.7,117.5c0,3.3,1.6,5.9,3.5,5.9c1.9,0,3.4-2.7,3.4-6c0-3.3-1.6-5.9-3.5-5.9
			C144.2,111.5,142.7,114.2,142.7,117.5z"/>
		<path class="st45" d="M138.8,111.6c0,1.6,0.8,2.9,1.7,2.9c0.9,0,1.7-1.3,1.7-2.9c0-1.6-0.8-2.9-1.7-2.9
			C139.5,108.7,138.8,110,138.8,111.6z"/>
		<path class="st45" d="M141.6,129c-0.8,0.1-1.5,0.2-2.3,0.2c-0.4,0-0.7,0.1-1.1,0.1c0-0.6,0.1-1.2,0.4-1.5c0.1-0.1,0.2-0.1,0.3-0.2
			c0.1,0,0.1-0.1,0.2-0.1c0.6-0.2,1.3,0.1,2,0.7C141.2,128.5,141.4,128.7,141.6,129z"/>
	</g>
	<g>
		<path class="st53" d="M121.6,109.8l3.9,17c-0.2,0-0.4,0.1-0.5,0.1c-24.5,5.3-27.4-11.7-27.4-11.7L121.6,109.8z"/>
		<path class="st54" d="M138.6,105.9c0.8,3.7,0.5,7.3-0.9,10.5c-1.5,3.6-4.1,6.6-7.6,8.6c-1.4,0.8-3,1.4-4.7,1.8
			c-9.4,2.1-18.8-3.7-20.9-13.2L138.6,105.9z"/>
		<line class="st12" x1="98.4" y1="115.1" x2="132.5" y2="107.3"/>
		<path class="st53" d="M133.8,107c1.5,6.7-2.7,13.5-9.4,15c-6.7,1.5-13.5-2.7-15-9.4L133.8,107z"/>
		
			<rect x="104.8" y="109.9" transform="matrix(0.975 -0.222 0.222 0.975 -21.5185 29.6619)" class="st54" width="32.8" height="1.3"/>
		<path class="st37" d="M124.9,126.9c-24.5,5.3-27.4-11.7-27.4-11.7l2.6-0.6C100.1,114.7,104.4,131.3,124.9,126.9z"/>
		<path class="st39" d="M138.6,105.9c0.8,3.7,0.5,7.3-0.9,10.5c-7.4,0.6-15.5-1.6-21.4-5.5L138.6,105.9z"/>
		<path class="st55" d="M130.1,125c-1.4,0.8-3,1.4-4.7,1.8c-9.4,2.1-18.8-3.7-20.9-13.2l11-2.5C115.5,111.2,119.5,123.2,130.1,125z"
			/>
		<path class="st56" d="M124.3,120.6c1.7-0.4,0.3-3.8-0.8-3.6C122.4,117.3,122.6,121,124.3,120.6z"/>
		<path class="st56" d="M115.9,119.2c1.5,0.9,2.9-2.5,1.9-3.1C116.8,115.5,114.4,118.2,115.9,119.2z"/>
		<path class="st56" d="M131.3,115.7c0.9-1.5-2.5-2.9-3.1-1.9C127.6,114.7,130.3,117.2,131.3,115.7z"/>
		<path class="st56" d="M112.8,116.3c1,1.4,3.6-1.2,3-2.1C115,113.2,111.7,114.8,112.8,116.3z"/>
		<path class="st56" d="M128.3,118.8c1.4-1-1.2-3.6-2.1-3C125.3,116.5,126.9,119.8,128.3,118.8z"/>
		<path class="st56" d="M132.8,111.5c0.3-1.7-3.4-1.7-3.6-0.6C129,112.1,132.5,113.3,132.8,111.5z"/>
		<path class="st56" d="M120,120.8c1.7,0.3,1.7-3.4,0.6-3.6C119.5,117,118.3,120.5,120,120.8z"/>
	</g>
	<g>
		<path class="st12" d="M169.9,95.8c3.2,5.9,3.2,12.7,0.6,18.4c-1.8,4.1-5,7.6-9.2,9.8c-6.6,3.6-14.4,3.2-20.4-0.4l6.5-7.1l2.1-2.4
			l14.5-16l4.4-4.8C169,94.2,169.5,95,169.9,95.8z"/>
		<path class="st42" d="M166.2,101c1,1.8,1.4,3.7,1.3,5.6c-0.2,3.6-2.2,7.1-5.7,9c-4.1,2.2-8.9,1.5-12.1-1.4l5.5-6l9-9.9
			C164.9,99,165.6,99.9,166.2,101z"/>
		<path class="st57" d="M167.4,106.6c-0.2,3.6-2.2,7.1-5.7,9c-4.1,2.2-8.9,1.5-12.1-1.4l5.5-6C161.4,111.9,167.3,106.7,167.4,106.6z
			"/>
	</g>
	<g>
		<path class="st58" d="M129.7,124.8l-0.3,0.9l-0.9,2.6l-0.1,0.3l-0.4,1.1l0,0l-0.1,0.2c-0.1,0-0.2,0-0.4,0c-2,0.1-4.1,0.1-6.1,0.2
			c-0.5,0-1,0-1.6,0c-0.7,0-1.4,0-2.1,0h-0.2c0-0.3,0.1-0.5,0.1-0.8c0.1-0.5,0.4-0.9,0.7-1.3l2.3-2.6v0l0.7-0.9l1-1.2l0.9-1.1
			l0.4-0.4l0.1-0.1l0.1,0.1l2.1,1.3l0.3,0.2l0.1,0.1l0.5,0.3c0.1,0,0.1,0.1,0.2,0.1L129.7,124.8z"/>
		<path class="st59" d="M129.7,124.8l-0.3,0.9l-0.9,2.6l-0.1,0.3l-0.4,1.1l0,0l-0.1,0.2c-0.1,0-0.2,0-0.4,0c-2,0.1-4.1,0.1-6.1,0.2
			c-0.5,0-1,0-1.6,0c-0.5-0.2-1-0.3-1.5-0.5c-0.2-0.1-0.4-0.2-0.6-0.3c0.1-0.5,0.4-0.9,0.7-1.3l2.3-2.6v0l0.7-0.9l1-1.2l0.9-1.1
			l0.4-0.4c0.1,0,0.1-0.1,0.2-0.1l2.1,1.3l0.3,0.2l0.1,0.1l0.5,0.3c0.1,0,0.1,0.1,0.2,0.1L129.7,124.8z"/>
		<path class="st60" d="M126,123.2C126,123.2,126,123.2,126,123.2c-0.1,0.1-0.2,0.1-0.2,0.2c-0.6,0.5-1.3,1.3-2,2.2
			c-0.2,0.3-0.5,0.6-0.7,1v0c-0.7,1.1-1.4,2.3-1.8,3.7c-0.5,0-1,0-1.6,0c-0.7,0-1.4,0-2.1,0h-0.2c0-0.3,0.1-0.5,0.1-0.8
			c0.1-0.5,0.4-0.9,0.7-1.3l2.3-2.6v0l0.7-0.9l1-1.2l0.9-1.1l0.4-0.4l0.1-0.1l0.1,0.1L126,123.2z"/>
		<path class="st61" d="M135.2,129.6c-0.2,0-0.4,0-0.5,0c-0.1,0-0.2,0-0.3,0c-0.6,0-1.1,0.1-1.7,0.1c-0.3,0-0.5,0-0.8,0.1
			c-0.1,0-0.1,0-0.2,0c-0.6,0-1.2,0.1-1.8,0.1c-0.1,0-0.3,0-0.4,0c-0.2-0.3-0.4-0.5-0.7-0.8c-0.2-0.2-0.3-0.3-0.5-0.5
			c-0.8-0.8-1.8-1.5-2.8-2.2c-0.6-0.3-1.1-0.7-1.7-0.9c-0.8-0.4-1.6-0.7-2.5-0.9c-3.5-1-6.9-0.4-8.8,1.5c0,0,0,0,0,0c0,0,0,0,0,0
			c0.3-0.6,0.5-1.1,0.9-1.7c0,0,0,0,0,0c0-0.1,0.1-0.1,0.1-0.2c0.2-0.3,0.3-0.5,0.5-0.7c2.5-3.6,6.1-5.9,9.7-6.4c0.1,0,0.2,0,0.3,0
			c1.7-0.2,3.4,0,4.9,0.6c0,0,0.1,0,0.1,0c0.5,0.2,1,0.4,1.4,0.7c1.1,0.7,2,1.5,2.7,2.5c0.2,0.3,0.4,0.6,0.6,0.9
			c0.2,0.4,0.4,0.8,0.6,1.2c0.1,0.2,0.2,0.4,0.3,0.7c0.1,0.1,0.1,0.3,0.1,0.4c0.3,0.8,0.4,1.7,0.5,2.6
			C135.4,127.6,135.3,128.6,135.2,129.6z"/>
		<path class="st58" d="M134.3,129.6c-0.6,0-1.1,0.1-1.7,0.1c-0.3,0-0.5,0-0.8,0.1c-0.1,0-0.1,0-0.2,0c-0.6,0-1.2,0.1-1.8,0.1
			c-0.1,0-0.3,0-0.4,0c-0.1,0-0.2,0-0.3,0c-0.3,0-0.7,0-1,0c-0.1-0.1-0.1-0.1-0.2-0.2c0,0,0,0,0,0c0,0,0,0,0,0c0,0-0.1-0.1-0.1-0.1
			c0,0-0.1-0.1-0.1-0.1c-0.3-0.3-0.7-0.6-1-0.8c-0.1-0.1-0.2-0.1-0.3-0.2c-0.1-0.1-0.2-0.1-0.3-0.2c-0.1-0.1-0.2-0.1-0.3-0.2
			c-0.1,0-0.1-0.1-0.2-0.1c-0.3-0.2-0.6-0.4-0.9-0.6c-0.1-0.1-0.2-0.1-0.3-0.2c-0.1-0.1-0.2-0.1-0.3-0.2c-0.2-0.1-0.3-0.2-0.5-0.3
			c-0.2-0.1-0.4-0.2-0.6-0.3c-0.1,0-0.1-0.1-0.2-0.1v0c0,0-0.1,0-0.1,0c-0.1,0-0.2-0.1-0.3-0.1c-0.1,0-0.1,0-0.2-0.1
			c-0.1,0-0.1-0.1-0.2-0.1c-0.6-0.3-1.2-0.5-1.8-0.7v0c0,0-0.1,0-0.1,0c-0.1,0-0.1,0-0.2,0c-0.2-0.1-0.3-0.1-0.5-0.1
			c-0.1,0-0.3-0.1-0.4-0.1c-0.1,0-0.1,0-0.2,0c-0.1,0-0.3-0.1-0.4-0.1c-0.1,0-0.2,0-0.2,0c-0.1,0-0.1,0-0.2,0c-0.1,0-0.1,0-0.2,0
			c-0.1,0-0.3,0-0.4,0c-0.2,0-0.4,0-0.6,0c-0.1,0-0.2,0-0.3,0c-0.7,0-1.4,0-2,0.2c-0.1,0-0.1,0-0.2,0c-0.1,0-0.3,0.1-0.4,0.1
			c-0.1,0-0.1,0-0.2,0.1c-0.1,0-0.2,0.1-0.2,0.1c-0.2,0.1-0.3,0.1-0.5,0.2c-0.3,0.2-0.6,0.4-0.8,0.6c0,0,0,0,0,0
			c0.2-0.5,0.5-1.1,0.8-1.6c0,0,0-0.1,0.1-0.1c0,0,0,0,0,0c0.2-0.3,0.4-0.7,0.7-1c2.5-3.3,6.6-4.8,10.5-4.2c0.7,0.1,1.3,0.2,2,0.5
			c0.8,0.3,1.6,0.6,2.4,1.1c0.5,0.3,0.9,0.6,1.3,1c0.1,0.1,0.2,0.1,0.3,0.2l0,0c0.2,0.2,0.4,0.3,0.5,0.5c0.2,0.2,0.4,0.4,0.5,0.6
			c0.3,0.3,0.6,0.7,0.8,1.1c0.3,0.5,0.6,0.9,0.8,1.4c0.1,0.1,0.1,0.2,0.2,0.3C133.9,127.1,134.2,128.4,134.3,129.6z"/>
		<path class="st62" d="M131.9,129.8c-0.1,0-0.1,0-0.2,0c-0.6,0-1.2,0.1-1.8,0.1c-0.1,0-0.3,0-0.4,0c-0.1,0-0.2,0-0.3,0
			c-0.3,0-0.7,0-1,0c-0.1-0.1-0.1-0.1-0.2-0.2c0,0,0,0,0,0c0,0,0,0,0,0c0,0-0.1-0.1-0.1-0.1c0,0-0.1-0.1-0.1-0.1
			c-0.3-0.3-0.7-0.6-1-0.8c-0.1-0.1-0.2-0.1-0.3-0.2c-0.1-0.1-0.2-0.1-0.3-0.2c-0.1-0.1-0.2-0.1-0.3-0.2c-0.1,0-0.1-0.1-0.2-0.1
			c-0.3-0.2-0.6-0.4-0.9-0.6c-0.1-0.1-0.2-0.1-0.3-0.2c-0.1-0.1-0.2-0.1-0.3-0.2c-0.2-0.1-0.3-0.2-0.5-0.3c-0.2-0.1-0.4-0.2-0.6-0.3
			c-0.1,0-0.1-0.1-0.2-0.1c0,0-0.1,0-0.1,0c-0.1,0-0.2-0.1-0.3-0.1c-0.1,0-0.1,0-0.2-0.1c-0.1,0-0.1-0.1-0.2-0.1
			c-0.6-0.3-1.2-0.5-1.8-0.7v0c0,0-0.1,0-0.1,0c-0.1,0-0.1,0-0.2,0c-0.2-0.1-0.3-0.1-0.5-0.1c-0.1,0-0.3-0.1-0.4-0.1
			c-0.1,0-0.1,0-0.2,0c-0.1,0-0.3-0.1-0.4-0.1c-0.1,0-0.2,0-0.2,0c-0.1,0-0.1,0-0.2,0c-0.1,0-0.1,0-0.2,0c-0.1,0-0.3,0-0.4,0
			c-0.2,0-0.4,0-0.6,0c-0.1,0-0.2,0-0.3,0c-0.7,0-1.4,0-2,0.2c-0.1,0-0.1,0-0.2,0c-0.1,0-0.3,0.1-0.4,0.1c-0.1,0-0.1,0-0.2,0.1
			c-0.1,0-0.2,0.1-0.2,0.1c-0.2,0.1-0.3,0.1-0.5,0.2c-0.3,0.2-0.6,0.4-0.8,0.6c0,0,0,0,0,0c0.9-1.1,2-2,3.3-2.6
			c2.3-1.2,4.9-1.6,7.5-1.1c0.9,0.2,1.8,0.5,2.6,0.9c0.1,0,0.2,0.1,0.3,0.1c0.1,0,0.1,0.1,0.2,0.1c0.2,0.1,0.3,0.2,0.5,0.3
			c0.1,0,0.1,0.1,0.2,0.1c0.9,0.5,1.6,1.2,2.3,1.9c0.5,0.6,1,1.2,1.4,1.9c0.4,0.6,0.7,1.3,1,2C131.8,129.6,131.8,129.7,131.9,129.8z
			"/>
	</g>
	<g>
		<g>
			<path class="st63" d="M168.2,122.7C168.2,122.7,168.2,122.7,168.2,122.7c-0.4,0.2-0.8,0.4-1.3,0.6c-0.3-0.1-0.6-0.3-0.8-0.6
				c-0.7-0.9-1.7-2.1-3.1-3.4c-0.4-0.4-0.9-0.8-1.3-1.1c-0.6-0.5-1.3-1-2-1.5c-0.1-0.1-0.2-0.2-0.4-0.2c-1.8-1.1-3.6-1.9-5.6-2.4
				c-0.7-0.2-1.4-0.3-2.1-0.5c-0.7-0.1-1.3-0.2-2-0.3c-0.3,0-0.7-0.1-1-0.1c-0.5,0-1-0.1-1.5-0.1c-0.8,0-1.7,0-2.5,0.1
				c-0.3,0-0.6,0.1-1,0.1c-0.7,0.1-1.3,0.2-2,0.3c0,0,0,0,0,0c-0.6,0.1-1.2,0.3-1.8,0.5c-0.3,0.1-0.7,0.2-1,0.3
				c-0.1,0.1-0.3,0.1-0.4,0.2c-0.1,0-0.2,0.1-0.3,0.1c0,0,0,0,0,0c-0.3,0.1-0.5,0.1-0.8,0.1c-0.2,0-0.3-0.1-0.5-0.1c0,0,0,0-0.1,0
				c0.1-0.1,0.3-0.2,0.5-0.3c0.2-0.1,0.5-0.3,0.8-0.5c0.1-0.1,0.2-0.1,0.3-0.2c0.3-0.2,0.6-0.3,1-0.5c0.4-0.2,0.7-0.4,1.1-0.6
				c0.6-0.3,1.2-0.6,1.9-0.8c0.3-0.1,0.6-0.2,0.9-0.4c0.3-0.1,0.5-0.1,0.8-0.1c0.2,0,0.4-0.1,0.6-0.1c0,0,0,0,0,0
				c0.9-0.1,1.8-0.1,2.6,0c0.9,0.1,1.8,0.3,2.8,0.4c0.7,0.1,1.3,0.1,2,0.2c0.7,0.1,1.4,0.3,2.1,0.4c1.5,0.4,2.9,0.9,4.3,1.6
				c0.7,0.3,1.4,0.7,2.1,1.1c1.2,0.8,2.3,1.6,3.3,2.4c0.3,0.2,0.5,0.4,0.7,0.6C166.3,120.1,167.6,121.9,168.2,122.7z"/>
			<polygon class="st63" points="168.5,123.2 168.5,123.2 168.5,123.2 			"/>
		</g>
		<path class="st64" d="M165.4,116.9c1.1,1.6,2,3.5,2.8,5.8c0,0-0.1,0-0.1,0.1c0,0,0,0,0,0c-0.6-0.8-1.9-2.6-4-4.5
			c-0.2-0.2-0.5-0.4-0.8-0.6c-1.4-1.2-3.1-2.3-5.1-3.3c-1.4-0.6-2.8-1.2-4.5-1.6c-0.7-0.2-1.4-0.3-2.1-0.4c-1.3-0.2-2.7-0.3-4.1-0.2
			c-0.2,0-0.4,0-0.6,0c-0.8,0.1-1.7,0.1-2.5,0.3c-0.1,0-0.2,0-0.3,0c-0.6,0.1-1.2,0.2-1.9,0.4c-0.1,0-0.3,0.1-0.4,0.1
			c-0.8,0.2-1.7,0.5-2.5,0.8c0,0,0,0,0,0c-0.4,0.1-0.8,0.3-1.1,0.4c-0.1,0-0.2,0.1-0.3,0.1c-0.3,0.1-0.5,0.2-0.8,0.3
			c-0.1,0.1-0.3,0.1-0.4,0.2c-0.1,0-0.2,0.1-0.3,0.1c0,0,0.1-0.1,0.2-0.2c0.1-0.1,0.3-0.2,0.5-0.3c0.2-0.1,0.5-0.3,0.8-0.5
			c0.1-0.1,0.2-0.1,0.3-0.2c0.3-0.2,0.6-0.3,1-0.5c0.4-0.2,0.7-0.4,1.1-0.6c0.6-0.3,1.2-0.6,1.9-0.8c0.3-0.1,0.6-0.2,0.9-0.4
			c0.3-0.1,0.7-0.2,1-0.4c0.1,0,0.3-0.1,0.4-0.1c0.8-0.3,1.7-0.5,2.5-0.7c1.6-0.4,3.3-0.6,5-0.7c0.2,0,0.5,0,0.7,0
			c0.5,0,1,0,1.4,0.1c4,0.4,8,2.3,11.2,7C165.4,116.8,165.4,116.8,165.4,116.9z"/>
		<path class="st64" d="M168.5,123.2C168.5,123.2,168.5,123.2,168.5,123.2C168.5,123.2,168.5,123.2,168.5,123.2
			C168.5,123.2,168.5,123.2,168.5,123.2z"/>
		<path class="st51" d="M165.4,116.9c1.1,1.6,2,3.5,2.8,5.8c0,0-0.1,0-0.1,0.1c0,0,0,0,0,0c-0.4,0.2-0.8,0.4-1.3,0.6
			c-0.3-0.1-0.6-0.3-0.8-0.6c-0.7-0.9-1.7-2.1-3.1-3.4c-0.4-0.4-0.9-0.8-1.3-1.1c-0.6-0.5-1.3-1-2-1.5c-0.3-0.8-0.7-1.6-1.3-2.5
			c-0.1-0.1-0.1-0.2-0.2-0.3c-0.9-1.3-2.2-2.6-4.1-3.6c-0.4-0.3-0.9-0.5-1.4-0.7c0.5,0,1,0,1.4,0.1c4,0.4,8,2.3,11.2,7
			C165.4,116.8,165.4,116.8,165.4,116.9z"/>
		<polygon class="st51" points="168.5,123.2 168.5,123.2 168.5,123.2 		"/>
		<path class="st51" d="M168.5,123.2C168.5,123.2,168.5,123.2,168.5,123.2C168.5,123.2,168.5,123.2,168.5,123.2
			C168.5,123.2,168.5,123.2,168.5,123.2z"/>
	</g>
	<g>
		<path class="st58" d="M106.8,111.3l-2.5,0.5l-1.6,0.3c-1.8,0.3-3.4-0.8-3.9-2.4c-0.1-0.5-0.2-1-0.1-1.5l1.4-8l0-0.2h3.9l2.7-0.6
			l1.2,6.1l0.6,3.1C108.9,109.9,108.1,111.1,106.8,111.3z"/>
		<path class="st59" d="M108,105.5c-1.9,1.6-4.6,3.3-8.5,4c-0.2,0-0.5,0.1-0.7,0.1c-0.1-0.5-0.2-1-0.1-1.5l1.4-8
			c0-0.1,0.1-0.1,0.1-0.2h3.8l2.7-0.6L108,105.5z"/>
		<path class="st60" d="M104.3,111.8l-1.6,0.3c-1.8,0.3-3.4-0.8-3.9-2.4c-0.1-0.5-0.2-1-0.1-1.5l1.4-8l0-0.2h2.6
			C102,102.4,100.8,108.2,104.3,111.8z"/>
		<path class="st61" d="M115.3,107.4c0,0.7,0,1.5-0.1,2.2c-0.9-3.7-5.5-6.5-11.2-6.5c-5.7,0-10.4,2.8-11.2,6.5
			c-0.1-0.7-0.1-1.4-0.1-2.2c0-7.7,5.1-13.9,11.3-13.9C110.3,93.5,115.3,99.7,115.3,107.4z"/>
		<path class="st58" d="M115.3,107.8c0,0.6,0,1.2-0.1,1.8c0,0,0,0,0,0c-0.9-3-5.6-5.3-11.2-5.3c-5.7,0-10.3,2.3-11.2,5.3
			c0,0,0,0,0,0c-0.1-0.6-0.1-1.2-0.1-1.8c0-6.3,5.1-11.3,11.3-11.3C110.3,96.4,115.3,101.5,115.3,107.8z"/>
		<path class="st62" d="M115.2,109.5c-0.4-1.5-1.8-2.8-3.8-3.8c-2-1-4.6-1.5-7.4-1.5c-2.9,0-5.5,0.6-7.4,1.6c-2,0.9-3.3,2.3-3.8,3.8
			c0.9-5.4,5.6-9.5,11.2-9.5C109.7,100,114.3,104.1,115.2,109.5z"/>
	</g>
	<g>
		<path class="st12" d="M120.9,111.4c-3.7,5.6-9.7,8.8-15.9,9.3c-4.4,0.3-9-0.8-13-3.4c-6.3-4.2-9.6-11.2-9.3-18.2l9.4,2.3l3.1,0.8
			l20.9,5.2l6.3,1.6C121.9,109.8,121.4,110.6,120.9,111.4z"/>
		<path class="st42" d="M114.6,110.5c-1.1,1.7-2.6,3-4.4,3.8c-3.3,1.6-7.3,1.4-10.6-0.8c-3.8-2.5-5.5-7.1-4.5-11.3l7.9,2l13,3.3
			C115.7,108.5,115.2,109.5,114.6,110.5z"/>
		<path class="st57" d="M110.2,114.3c-3.3,1.6-7.3,1.4-10.6-0.8c-3.8-2.5-5.5-7.1-4.5-11.3l7.9,2
			C102.7,111.5,110.1,114.2,110.2,114.3z"/>
	</g>
	<g>
		<path class="st46" d="M107.6,128.1c0,0.1,0,0.1,0,0.2c0,0,0,0,0,0.1c0,0.1,0,0.1,0,0.2c0,0.1,0,0.2,0,0.3c0,0.1,0,0.1,0,0.2
			c0,0,0,0,0,0.1c0,0.1,0,0.1,0,0.2c0,0.1,0,0.1-0.1,0.2c0,0.1,0,0.1-0.1,0.2c0,0,0,0.1,0,0.1c0,0,0,0,0,0c0,0,0,0.1-0.1,0.1
			c0,0,0,0,0,0c-0.5,0-1,0-1.5-0.1c0,0-0.1,0-0.1,0c-2-0.1-4-0.2-5.9-0.4c0,0,0,0,0-0.1c0,0,0,0,0,0c0-0.1-0.1-0.2-0.1-0.3
			c0,0,0-0.1,0-0.1c0,0,0-0.1,0-0.1c0-0.1,0-0.2-0.1-0.3c0-0.1,0-0.2-0.1-0.3c0,0,0,0,0,0c0-0.1,0-0.3-0.1-0.4c0,0,0-0.1,0-0.1
			c0,0,0-0.1,0-0.1c0,0,0-0.1,0-0.1c0-0.1,0-0.1,0-0.2c0-0.1,0-0.2,0-0.2c0-0.3,0-0.7,0-1c0,0,0,0,0,0c0-0.1,0-0.2,0-0.3
			c0,0,0-0.1,0-0.1c0.1-1,0.3-1.6,0.3-1.6c-1,0.3-1.9,0.3-2.7,0.2c-0.3,0-0.5-0.1-0.8-0.1c-0.1,0-0.1,0-0.2,0c0,0,0,0,0,0
			c-0.1,0-0.1,0-0.2-0.1c0,0-0.1,0-0.1,0h0c-0.1,0-0.1,0-0.2-0.1h0c0,0,0,0,0,0c-0.1,0-0.1-0.1-0.2-0.1c0,0-0.1,0-0.1,0c0,0,0,0,0,0
			c-0.1,0-0.1-0.1-0.2-0.1c-0.1,0-0.2-0.1-0.3-0.1c0,0,0,0,0,0c-0.1,0-0.2-0.1-0.2-0.1c-0.1,0-0.2-0.1-0.3-0.2
			c-0.1-0.1-0.2-0.1-0.2-0.2c-0.1,0-0.1-0.1-0.2-0.1c0,0-0.1-0.1-0.1-0.1c-0.1,0-0.1-0.1-0.2-0.1c0,0,0,0-0.1-0.1c0,0,0,0-0.1,0
			c-0.1-0.1-0.3-0.2-0.4-0.3c-0.2-0.2-0.4-0.4-0.6-0.6c-0.7-0.8-1-1.4-1-1.4c-0.5,0.5-1,0.9-1.6,1.3c-0.1,0-0.1,0.1-0.2,0.1
			c0,0-0.1,0-0.1,0.1c-0.1,0-0.1,0.1-0.1,0.1c0,0-0.1,0-0.1,0h0c0,0,0,0,0,0c-0.1,0-0.1,0-0.2,0.1c0,0,0,0,0,0
			c-0.1,0-0.2,0.1-0.2,0.1c0,0-0.1,0-0.1,0c-0.1,0-0.2,0.1-0.2,0.1c0,0-0.1,0-0.1,0c0,0,0,0,0,0c0,0-0.1,0-0.1,0c0,0,0,0,0,0
			c0,0-0.1,0-0.1,0c0,0,0,0,0,0c0,0,0,0-0.1,0c0,0,0,0-0.1,0c0,0,0,0-0.1,0c0,0,0,0,0,0c-0.1,0-0.1,0-0.2,0c0,0,0,0,0,0
			c-0.1,0-0.2,0-0.2,0c-0.1,0-0.2,0-0.2,0c0,0,0,0,0,0c-0.1,0-0.1,0-0.2,0c-0.1,0-0.1,0-0.2,0c0,0-0.1,0-0.1,0c0,0,0,0,0,0
			c-0.5,0-0.9,0-1.3,0c0,0,0,0,0,0c-0.9-0.1-1.6-0.2-2.1-0.4c-0.1,0-0.3-0.1-0.4-0.1h0c-0.3-0.1-0.4-0.1-0.4-0.1c0,0,0,0,0,0.1
			c0,0,0,0.1,0,0.1c0,0,0,0.1,0,0.1c0,0,0,0,0,0.1c0,0,0,0.1,0,0.1c0,0.1,0,0.1,0,0.2v0c0,0.1,0,0.1,0,0.2c0,0,0,0.1,0,0.1
			c0,0,0,0.1,0,0.1c0,0.1,0,0.1,0,0.2c0,0,0,0.1,0,0.1c0,0.1,0,0.2,0,0.2c0,0.2,0,0.3,0,0.5c0,0.1,0,0.2,0,0.2c0,0.1,0,0.3-0.1,0.4
			c0,0,0,0.1,0,0.1c0,0.1,0,0.2-0.1,0.3c0,0,0,0.1,0,0.1c0,0,0,0.1,0,0.1c0,0,0,0,0,0c0,0,0,0.1,0,0.1c0,0.1,0,0.2-0.1,0.2
			c0,0.1,0,0.1-0.1,0.2c0,0.1-0.1,0.2-0.1,0.3c0,0.1-0.1,0.2-0.1,0.3c0,0,0,0.1,0,0.1c0,0.1-0.1,0.1-0.1,0.2c0,0.1-0.1,0.2-0.1,0.3
			c0,0.1-0.1,0.1-0.1,0.2c-0.7-0.1-1.4-0.3-2-0.4c0,0,0,0-0.1,0c-0.4-0.1-0.9-0.2-1.3-0.3c0.1-0.1,0.1-0.3,0.2-0.4
			c0.1-0.1,0.1-0.2,0.1-0.3c0,0,0-0.1,0.1-0.1c0-0.1,0.1-0.2,0.1-0.3c0.1-0.1,0.1-0.3,0.2-0.4c0.1-0.1,0.1-0.3,0.2-0.4
			c0.1-0.1,0.1-0.2,0.2-0.4c0.1-0.2,0.2-0.4,0.3-0.6c0-0.1,0.1-0.2,0.1-0.2c0,0,0,0,0,0c0.1-0.2,0.2-0.3,0.3-0.5
			c0.1-0.2,0.3-0.5,0.4-0.7c0.1-0.1,0.1-0.2,0.2-0.3c0,0,0,0,0,0c0.2-0.3,0.3-0.5,0.5-0.8v0c0.1-0.2,0.3-0.4,0.4-0.6
			c0.2-0.2,0.3-0.5,0.5-0.7c0.1-0.2,0.3-0.3,0.4-0.5c0.4-0.5,0.8-0.9,1.2-1.4c0.1-0.1,0.1-0.1,0.2-0.2c0,0,0,0,0,0
			c0.3-0.3,0.6-0.6,0.9-0.8c0,0,0.1-0.1,0.1-0.1c0,0,0,0,0.1-0.1c0.1,0,0.1-0.1,0.2-0.1c0.4-0.3,0.8-0.6,1.2-0.9
			c0,0,0.1-0.1,0.1-0.1c0.5-0.3,1-0.6,1.5-0.8c0,0,0.1,0,0.1-0.1c0.2-0.1,0.4-0.2,0.6-0.3c0.1,0,0.1-0.1,0.2-0.1
			c0.1,0,0.2-0.1,0.2-0.1c0,0,0.1,0,0.1,0c0,0,0.1,0,0.1-0.1c0.1,0,0.1,0,0.2-0.1c0,0,0,0,0,0c0,0,0.1,0,0.1,0c0.1,0,0.1,0,0.2-0.1
			c0.1,0,0.1,0,0.2,0c0.3-0.1,0.6-0.1,0.9-0.2c0.1,0,0.2,0,0.2,0c0.8-0.1,1.7-0.2,2.5-0.1c0.2,0,0.5,0,0.7,0.1
			c0.2,0,0.4,0.1,0.7,0.1c0.1,0,0.1,0,0.2,0c0.1,0,0.1,0,0.2,0c0.1,0,0.2,0,0.3,0.1c0.1,0,0.2,0.1,0.3,0.1c0,0,0.1,0,0.1,0
			c0.1,0,0.2,0,0.2,0.1c0.2,0.1,0.4,0.1,0.6,0.2c0.1,0,0.1,0,0.1,0.1c0.1,0,0.2,0.1,0.3,0.1c0.1,0.1,0.3,0.1,0.4,0.2
			c0.1,0,0.2,0.1,0.2,0.1c0.1,0,0.2,0.1,0.3,0.1c0,0,0,0,0,0c0.1,0,0.2,0.1,0.3,0.2c0.1,0.1,0.2,0.1,0.4,0.2c0.1,0,0.2,0.1,0.2,0.1
			c0.5,0.3,1,0.6,1.5,1c0.2,0.1,0.4,0.3,0.6,0.4c0.1,0.1,0.2,0.1,0.3,0.2c0,0,0,0,0,0c0.1,0.1,0.2,0.2,0.3,0.2
			c0.1,0.1,0.2,0.2,0.3,0.2c0.1,0.1,0.2,0.1,0.2,0.2c0,0,0.1,0.1,0.1,0.1c0.3,0.3,0.6,0.6,0.9,0.9c0.6,0.6,1.1,1.3,1.6,2
			c0.2,0.3,0.4,0.6,0.6,0.9c0.1,0.1,0.1,0.2,0.2,0.3c0.1,0.1,0.1,0.2,0.2,0.3c0,0,0,0,0,0c0,0,0,0.1,0,0.1c0,0,0,0,0,0c0,0,0,0,0,0
			c0,0.1,0.1,0.1,0.1,0.2c0,0.1,0.1,0.1,0.1,0.2c0.1,0.1,0.1,0.2,0.2,0.4c0.1,0.1,0.1,0.2,0.2,0.4c0,0.1,0.1,0.1,0.1,0.2
			c0.1,0.1,0.1,0.2,0.2,0.4c0.1,0.2,0.2,0.4,0.2,0.6c0.2,0.4,0.4,0.9,0.5,1.4c0.1,0.2,0.1,0.4,0.2,0.5c0,0.1,0.1,0.2,0.1,0.3
			c0,0.1,0,0.2,0.1,0.3c0,0.1,0,0.1,0,0.2c0,0.1,0,0.1,0,0.2c0,0.1,0,0.2,0,0.3c0,0.1,0,0.3,0,0.4
			C107.6,128,107.6,128.1,107.6,128.1z"/>
		<g>
			<path class="st47" d="M96.8,124.1c2.1-1.1,4-3.1,6-5.6c0.6,0.6,1.1,1.3,1.6,2c-1.8,2.3-3.5,3.9-5.2,5c0.1-1,0.3-1.6,0.3-1.6
				C98.5,124.2,97.6,124.2,96.8,124.1z"/>
		</g>
		<g>
			<path class="st47" d="M89.6,121.3c1-3.2,1.1-6.1,1.1-7.8c0.8-0.1,1.7-0.2,2.5-0.1c0.1,1.9,0,4.8-1,8.1c-0.7-0.8-1-1.4-1-1.4
				C90.7,120.6,90.1,121,89.6,121.3z"/>
		</g>
		<path class="st48" d="M107.6,128.1c0,0.1,0,0.1,0,0.2c0,0,0,0,0,0.1c0,0.1,0,0.1,0,0.2c0,0.1,0,0.2,0,0.3c0,0.1,0,0.1,0,0.2
			c0,0,0,0,0,0.1c0,0.1,0,0.1,0,0.2c0,0.1,0,0.1-0.1,0.2c0,0.1,0,0.1-0.1,0.2c0,0,0,0.1,0,0.1c0,0,0,0,0,0c0,0,0,0.1-0.1,0.1
			c0,0,0,0,0,0c-0.5,0-1,0-1.5-0.1c0,0-0.1,0-0.1,0c0-0.1,0-0.1,0-0.2c0.1-1.7-0.6-3.7-1.8-5.6c0,0-0.1-0.1-0.1-0.1
			c-0.2-0.3-0.4-0.6-0.6-0.9c-0.1-0.2-0.2-0.3-0.4-0.5c-0.5-0.6-1.1-1.3-1.7-1.8c-0.3-0.3-0.6-0.5-0.9-0.8c0,0-0.1-0.1-0.1-0.1
			c-1.5-1.3-3.3-2.4-5.1-3.2c-0.1,0-0.1,0-0.2-0.1c-0.5-0.2-1-0.4-1.5-0.5c-0.8-0.2-1.7-0.4-2.5-0.5c-0.5,0-1-0.1-1.4,0
			c-0.1,0-0.1,0-0.2,0c-0.1,0-0.2,0-0.2,0c-0.9,0.1-1.8,0.2-2.7,0.5c-0.6,0.2-1.1,0.4-1.6,0.7c-0.4,0.2-0.7,0.4-1,0.7
			c0.3-0.3,0.6-0.6,0.9-0.8c0,0,0.1-0.1,0.1-0.1c0,0,0,0,0.1-0.1c0.1,0,0.1-0.1,0.2-0.1c0.4-0.3,0.8-0.6,1.2-0.9
			c0,0,0.1-0.1,0.1-0.1c0.5-0.3,1-0.6,1.5-0.8c0,0,0.1,0,0.1-0.1c0.2-0.1,0.4-0.2,0.6-0.3c0.1,0,0.1-0.1,0.2-0.1
			c0.1,0,0.2-0.1,0.2-0.1c0,0,0.1,0,0.1,0c0,0,0.1,0,0.1-0.1c0.1,0,0.1,0,0.2-0.1c0,0,0,0,0,0c0,0,0.1,0,0.1,0v0
			c0.1,0,0.1,0,0.2-0.1c0.1,0,0.1,0,0.2,0c0.3-0.1,0.6-0.1,0.9-0.2c0.1,0,0.2,0,0.2,0c0.8-0.1,1.7-0.2,2.5-0.1c0.2,0,0.5,0,0.7,0.1
			c0.2,0,0.4,0.1,0.7,0.1c0.1,0,0.1,0,0.2,0c0.1,0,0.1,0,0.2,0c0.1,0,0.2,0,0.3,0.1c0.1,0,0.2,0.1,0.3,0.1c0,0,0.1,0,0.1,0
			c0.1,0,0.2,0,0.2,0.1c0.2,0.1,0.4,0.1,0.6,0.2c0.1,0,0.1,0,0.1,0.1c0.1,0,0.2,0.1,0.3,0.1c0.1,0.1,0.3,0.1,0.4,0.2
			c0.1,0,0.2,0.1,0.2,0.1c0.1,0,0.2,0.1,0.3,0.1c0,0,0,0,0,0c0.1,0,0.2,0.1,0.3,0.2c0.1,0.1,0.2,0.1,0.4,0.2c0.1,0,0.2,0.1,0.2,0.1
			c0.5,0.3,1,0.6,1.5,1c0.2,0.1,0.4,0.3,0.6,0.4c0.1,0.1,0.2,0.1,0.3,0.2c0,0,0,0,0,0c0.1,0.1,0.2,0.2,0.3,0.2
			c0.1,0.1,0.2,0.2,0.3,0.2c0.1,0.1,0.2,0.1,0.2,0.2c0,0,0.1,0.1,0.1,0.1c0.3,0.3,0.6,0.6,0.9,0.9c0.6,0.6,1.1,1.3,1.6,2
			c0.2,0.3,0.4,0.6,0.6,0.9c0.1,0.1,0.1,0.2,0.2,0.3c0.1,0.1,0.1,0.2,0.2,0.3c0,0,0,0,0,0c0,0,0,0.1,0,0.1c0,0,0,0,0,0c0,0,0,0,0,0
			c0,0.1,0.1,0.1,0.1,0.2c0,0.1,0.1,0.1,0.1,0.2c0.1,0.1,0.1,0.2,0.2,0.4c0.1,0.1,0.1,0.2,0.2,0.4c0,0.1,0.1,0.1,0.1,0.2
			c0.1,0.1,0.1,0.2,0.2,0.4c0.1,0.2,0.2,0.4,0.2,0.6c0.2,0.4,0.4,0.9,0.5,1.4c0.1,0.2,0.1,0.4,0.2,0.5c0,0.1,0.1,0.2,0.1,0.3
			c0,0.1,0,0.2,0.1,0.3c0,0.1,0,0.1,0,0.2c0,0.1,0,0.1,0,0.2c0,0.1,0,0.2,0,0.3c0,0.1,0,0.3,0,0.4
			C107.6,128,107.6,128.1,107.6,128.1z"/>
		<path class="st47" d="M82.1,122.8c0,0.1,0,0.1,0,0.2c0,0,0,0.1,0,0.1c0,0.1,0,0.2,0,0.2c0,0.2,0,0.3,0,0.5c0,0.1,0,0.2,0,0.2
			c0,0.1,0,0.3-0.1,0.4c0,0,0,0.1,0,0.1c0,0.1,0,0.2-0.1,0.3c0,0,0,0.1,0,0.1c0,0,0,0.1,0,0.1c0,0,0,0,0,0c0,0,0,0.1,0,0.1
			c0,0.1,0,0.2-0.1,0.2c0,0.1,0,0.1-0.1,0.2c0,0.1-0.1,0.2-0.1,0.3c0,0.1-0.1,0.2-0.1,0.3c0,0,0,0.1,0,0.1c0,0.1-0.1,0.1-0.1,0.2
			c0,0.1-0.1,0.2-0.1,0.3c0,0.1-0.1,0.1-0.1,0.2c-0.7-0.1-1.4-0.3-2-0.4c0,0,0,0-0.1,0c-0.4-0.1-0.9-0.2-1.3-0.3
			c0.1-0.1,0.1-0.3,0.2-0.4c0.1-0.1,0.1-0.2,0.1-0.3c0,0,0-0.1,0.1-0.1c0-0.1,0.1-0.2,0.1-0.3c0.1-0.1,0.1-0.3,0.2-0.4
			c0.1-0.1,0.1-0.3,0.2-0.4c0.1-0.1,0.1-0.2,0.2-0.4c0.1-0.2,0.2-0.4,0.3-0.6c0-0.1,0.1-0.2,0.1-0.2c0,0,0,0,0,0
			c0.1-0.2,0.2-0.3,0.3-0.5c0.1-0.2,0.3-0.5,0.4-0.7c0.1-0.1,0.1-0.2,0.2-0.3c0,0,0,0,0,0c0.2-0.3,0.3-0.5,0.5-0.8
			c0.5,0.3,0.9,0.6,1.3,0.9c0,0,0,0.1,0,0.1c0,0,0,0.1,0,0.1c0,0,0,0,0,0.1c0,0,0,0.1,0,0.1c0,0.1,0,0.1,0,0.2v0c0,0.1,0,0.1,0,0.2
			c0,0,0,0.1,0,0.1C82.1,122.7,82.1,122.7,82.1,122.8z"/>
		<path class="st49" d="M105.5,129.7c0,0.1,0,0.1,0.1,0.2c0,0-0.1,0-0.1,0c-2-0.1-4-0.2-5.9-0.4c0,0.1,0,0.1,0.1,0.2
			c0-0.1,0-0.1-0.1-0.2c0,0,0-0.1,0-0.1c0-0.1-0.1-0.2-0.1-0.3c0,0,0-0.1,0-0.1c0,0,0-0.1,0-0.1c0-0.1,0-0.2-0.1-0.3
			c0-0.1,0-0.2-0.1-0.3c0,0,0,0,0,0c0-0.1,0-0.3-0.1-0.4c0,0,0-0.1,0-0.1c0,0,0-0.1,0-0.1c0,0,0-0.1,0-0.1v0c0-0.1,0-0.3,0-0.4
			c0-0.3,0-0.7,0-1c0,0,0,0,0,0c0-0.1,0-0.2,0-0.3c0,0,0-0.1,0-0.1c0.1-1,0.3-1.6,0.3-1.6c-1,0.3-1.9,0.3-2.7,0.2
			c-0.3,0-0.5-0.1-0.8-0.1c-0.1,0-0.1,0-0.2,0c0,0,0,0,0,0c-0.1,0-0.1,0-0.2-0.1c0,0-0.1,0-0.1,0c0,0,0,0-0.1,0c0,0-0.1,0-0.1,0
			c0,0,0,0,0,0c-0.1,0-0.1-0.1-0.2-0.1c0,0-0.1,0-0.1,0c0,0,0,0,0,0c-0.1,0-0.1-0.1-0.2-0.1c-0.1,0-0.2-0.1-0.3-0.1c0,0,0,0,0,0
			c-0.1,0-0.2-0.1-0.2-0.1c-0.1,0-0.2-0.1-0.3-0.2c-0.1-0.1-0.2-0.1-0.2-0.2c-0.1,0-0.1-0.1-0.2-0.1c0,0-0.1-0.1-0.1-0.1
			c-0.1,0-0.1-0.1-0.2-0.1v0c0,0,0,0-0.1-0.1c0,0,0,0-0.1,0c-0.1-0.1-0.3-0.2-0.4-0.3c-0.2-0.2-0.4-0.4-0.6-0.6
			c-0.7-0.8-1-1.4-1-1.4c-0.5,0.5-1,0.9-1.6,1.3c-0.1,0-0.1,0.1-0.2,0.1c0,0-0.1,0-0.1,0.1c-0.1,0-0.1,0.1-0.1,0.1c0,0-0.1,0-0.1,0
			c0,0,0,0,0,0c-0.1,0-0.1,0-0.2,0.1c0,0,0,0,0,0c-0.1,0-0.2,0.1-0.2,0.1c0,0-0.1,0-0.1,0c-0.1,0-0.2,0.1-0.2,0.1c0,0-0.1,0-0.1,0
			c0,0,0,0,0,0c0,0-0.1,0-0.1,0c0,0-0.1,0-0.1,0c0,0-0.1,0-0.1,0c0,0-0.1,0-0.1,0c0,0,0,0,0,0c-0.1,0-0.1,0-0.2,0c0,0,0,0,0,0
			c-0.1,0-0.2,0-0.2,0c-0.1,0-0.2,0-0.2,0c0,0,0,0,0,0c-0.1,0-0.1,0-0.2,0c-0.1,0-0.1,0-0.2,0v0c0,0-0.1,0-0.1,0c0,0,0,0,0,0
			c-0.5,0-0.9,0-1.3,0c0,0,0,0,0,0c0,0,0,0,0,0c0,0,0,0,0,0c0.4-0.2,0.8-0.4,1.1-0.6c0.3-0.1,0.5-0.3,0.8-0.4c0.1,0,0.2-0.1,0.3-0.1
			c0.3-0.1,0.6-0.3,0.8-0.4c0.1,0,0.2-0.1,0.3-0.1c0.1,0,0.1,0,0.2-0.1c0.5-0.2,1-0.4,1.5-0.5c1-0.3,1.9-0.4,2.7-0.5
			c0.6-0.1,1.1-0.1,1.6-0.1c0.1,0,0.1,0,0.2,0c1.7,0.1,3.2,0.6,4.5,1.3c0.1,0,0.1,0.1,0.1,0.1c0.3,0.2,0.7,0.4,1,0.7
			c0.6,0.4,1.1,0.9,1.5,1.4c0.1,0.1,0.2,0.2,0.3,0.3c0.4,0.4,0.7,0.8,1,1.3c0,0,0.1,0.1,0.1,0.1
			C104.3,126.5,105.1,128.4,105.5,129.7z"/>
		<g>
			<path class="st12" d="M99.2,127.4c0-0.1,0-0.1,0-0.2c2.9-1.5,5-3.7,6.2-5.2c0,0,0.1,0.1,0.1,0.2
				C104.3,123.7,102.1,125.9,99.2,127.4z"/>
		</g>
		<g>
			<path class="st12" d="M95.3,123.8c3.2-2,5.4-4.8,6.4-6.3c0,0,0.1,0.1,0.1,0.1c-1,1.5-3.2,4.3-6.4,6.2
				C95.5,123.8,95.4,123.8,95.3,123.8z"/>
		</g>
		<g>
			<path class="st12" d="M93.2,122.5c1.8-3.1,1.6-7,1.4-8.9c0.1,0,0.1,0,0.2,0c0.2,1.9,0.5,5.9-1.4,8.9
				C93.2,122.6,93.2,122.5,93.2,122.5z"/>
		</g>
		<g>
			<path class="st12" d="M87.7,122.1c1.4-2.9,1.4-6.5,1.3-8.2c0.1,0,0.1,0,0.2-0.1c0.1,1.7,0.1,5.2-1.2,8.2
				C87.9,122.1,87.8,122.1,87.7,122.1z"/>
		</g>
	</g>
	<g>
		<path class="st65" d="M172.2,109.9c-1,1.7-2.5,3.5-4.4,5.1c-0.2,0.3-0.7,0.8-1.9,1.5c-0.2,0.1-0.4,0.2-0.6,0.3
			c-0.5,0.3-1.1,0.5-1.8,0.8c0,0,0,0-0.1,0c-0.5,0.2-1.1,0.4-1.7,0.7c-1.4,0.5-3.2,1-5.4,1.5c-0.2,0.1-0.4,0.1-0.7,0.2h0
			c-0.2,0.1-0.5,0.1-0.7,0.2h0c-0.6,0.1-1.2,0.3-1.9,0.4c-0.5,0.1-0.9,0.2-1.4,0.3c-0.1,0-0.3,0-0.4,0.1c-0.1,0-0.1,0-0.2,0
			c-0.7,0.1-1.5,0.3-2.2,0.4c-0.5,0.1-1,0.2-1.5,0.2c-0.8,0.1-1.6,0.2-2.4,0.3c-0.4,0.1-0.7,0.1-1.1,0.1c-1.8,0.2-3.7,0.4-5.6,0.6
			c-0.9,0.1-1.8,0.2-2.7,0.2c-0.2,0-0.4,0-0.5,0c-0.2,0-0.4,0-0.7,0.1c-0.3,0-0.5,0-0.8,0.1c-0.2,0-0.3,0-0.5,0
			c-0.3,0-0.5,0-0.8,0.1c-0.2,0-0.4,0-0.6,0c-0.2,0-0.3,0-0.5,0c-0.2,0-0.3,0-0.5,0c-1.2,0.1-2.3,0.1-3.5,0.2c-0.3,0-0.6,0-0.8,0
			c0,0-0.1,0-0.1,0c0,0-0.1,0-0.1,0c-0.1,0-0.3,0-0.4,0c-1.1,0-2.3,0.1-3.4,0.1c-1.6,0-3.1,0-4.7,0c-0.6,0-1.2,0-1.8,0
			c-0.6,0-1.2,0-1.7,0c0,0,0,0-0.1,0c-2.7,0-5.4-0.1-8-0.3c-0.5,0-0.9,0-1.4-0.1c-0.1,0-0.1,0-0.2,0c-0.5,0-1-0.1-1.4-0.1
			c-0.2,0-0.5,0-0.7,0h0c-0.2,0-0.4,0-0.6,0c-0.9-0.1-1.9-0.1-2.8-0.2h0c-0.5,0-1-0.1-1.6-0.1c-0.1,0-0.2,0-0.2,0
			c-1.2-0.1-2.4-0.2-3.6-0.4c-0.1,0-0.1,0-0.2,0c-0.2,0-0.4,0-0.5-0.1c-1.3-0.2-2.6-0.3-3.8-0.5h0c0,0,0,0,0,0
			c-0.3,0-0.6-0.1-0.8-0.1c-0.1,0-0.1,0-0.2,0c-0.2,0-0.4-0.1-0.6-0.1c-0.1,0-0.1,0-0.2,0c-0.1,0-0.2,0-0.3,0
			c-0.3-0.1-0.6-0.1-1-0.2c-0.5-0.1-1-0.2-1.5-0.3c-0.5-0.1-1.1-0.2-1.6-0.3c-0.2,0-0.4-0.1-0.7-0.1c-0.1,0-0.2,0-0.2,0h0
			c-0.3-0.1-0.6-0.1-0.8-0.2c-0.3-0.1-0.5-0.1-0.8-0.2c-0.8-0.2-1.6-0.4-2.4-0.6c-0.6-0.2-1.3-0.3-1.8-0.5h0
			c-0.4-0.1-0.7-0.2-1.1-0.3h0c-0.5-0.1-0.9-0.3-1.3-0.4c-0.8-0.3-1.5-0.5-2.1-0.8h0c-1-0.4-1.8-0.8-2.4-1.2c-1-0.6-1.5-1.1-1.7-1.3
			c-1.9-1.8-2.9-3.6-3.4-5.3c0-0.2-0.1-0.3-0.1-0.5c-2.2,1.7-3.3,3.7-3.3,5.8c0,4.3,4.1,7.6,12.5,10.2h0c0.6,0.2,1.3,0.4,1.9,0.6
			c0.8,0.2,1.6,0.4,2.4,0.6c0,0,0,0,0.1,0c0.4,0.1,0.9,0.2,1.3,0.3c0,0,0,0,0.1,0c0.7,0.1,1.3,0.3,2,0.4c5.4,1.1,11.7,1.9,18.5,2.5
			h0c1.9,0.2,3.9,0.3,5.9,0.4c0,0,0.1,0,0.1,0c0.5,0,1,0,1.5,0.1c3.4,0.1,6.8,0.2,10.4,0.2h0.2c0.7,0,1.4,0,2.1,0c0.5,0,1,0,1.6,0
			c2.1,0,4.1-0.1,6.1-0.2c0.1,0,0.3,0,0.4,0c0.1,0,0.2,0,0.3,0c0.3,0,0.7,0,1,0c0.1,0,0.2,0,0.3,0c0.1,0,0.3,0,0.4,0
			c0.6,0,1.2-0.1,1.8-0.1c0.1,0,0.1,0,0.2,0c0.3,0,0.5,0,0.8-0.1c0.6,0,1.1-0.1,1.7-0.1c0.1,0,0.2,0,0.3,0c0.2,0,0.4,0,0.5,0
			c0.4,0,0.8-0.1,1.2-0.1c0.6,0,1.2-0.1,1.7-0.1c0.4,0,0.7-0.1,1.1-0.1c0.8-0.1,1.6-0.2,2.3-0.2c1.3-0.1,2.6-0.3,3.8-0.5
			c0.8-0.1,1.5-0.2,2.3-0.3c1-0.1,2-0.3,2.9-0.5c0.6-0.1,1.2-0.2,1.8-0.3c2.6-0.5,5-1,7.1-1.6c2.9-0.8,5.4-1.6,7.4-2.5
			c0.4-0.2,0.9-0.4,1.3-0.6c0,0,0,0,0,0c0,0,0.1,0,0.1-0.1c4.2-2.2,6.3-4.7,6.3-7.7C174.6,113.1,173.8,111.4,172.2,109.9z"/>
	</g>
</g>
</svg>
