<?xml version="1.0" encoding="utf-8"?>
<!-- Generator: Adobe Illustrator 23.0.1, SVG Export Plug-In . SVG Version: 6.00 Build 0)  -->
<svg version="1.1" id="icons" xmlns="http://www.w3.org/2000/svg" xmlns:xlink="http://www.w3.org/1999/xlink" x="0px" y="0px"
	 viewBox="0 0 512 512" style="enable-background:new 0 0 512 512;" xml:space="preserve">
<style type="text/css">
	.st0{fill:#FFFFFF;}
</style>
<path class="st0" d="M308,189.2c-8.2,152.1-237.5,153.5-237.5,0C70.5,35.7,299.8,37.1,308,189.2c2.3,42.6,68.8,42.8,66.5,0
	C369.1,88.8,294.1,4,189.2,4C88.5,4,4,88.6,4,189.2C4,286.9,83.5,369.8,181,374c108,4.7,187.9-81,193.5-184.8
	C376.8,146.5,310.3,146.6,308,189.2z"/>
<path class="st0" d="M337.6,400.2c32.2,32.2,64.5,64.5,96.7,96.7c40.4,40.4,103.1-22.3,62.7-62.7c-32.2-32.2-64.5-64.5-96.7-96.7
	C359.8,297.2,297.1,359.8,337.6,400.2L337.6,400.2z"/>
</svg>
