<svg id="Layer_1" data-name="Layer 1" xmlns="http://www.w3.org/2000/svg" viewBox="0 0 32 32"><defs><style>.cls-1,.cls-2{fill:#fff;}.cls-2{stroke:#fff;stroke-miterlimit:10;}.cls-3{fill:#083141;}.cls-4{fill:#e53b4e;}.cls-5{fill:#6eb234;}</style></defs><title>escudo</title><path class="cls-1" d="M8.44,24.11a1.31,1.31,0,1,1-1.31-1.27A1.29,1.29,0,0,1,8.44,24.11Zm-2.33,0a1,1,0,1,0,1-1A1,1,0,0,0,6.11,24.11Z"/><path class="cls-1" d="M10,22.85c.62,0,1,.31,1,.85s-.35.87-1,.87H9.38v.79H9.09V22.85Zm-.66,1.44H10c.46,0,.72-.2.72-.59s-.26-.57-.72-.57H9.38Z"/><path class="cls-1" d="M11.9,23.13V24h1.27v.28H11.9v.86h1.47v.27H11.62V22.85h1.7v.28Z"/><path class="cls-1" d="M15.2,24.56h-.84v.79h-.28V22.85H15c.63,0,1,.31,1,.85a.79.79,0,0,1-.56.81l.58.85h-.32ZM15,24.29c.45,0,.71-.2.71-.59s-.26-.57-.71-.57h-.67v1.16Z"/><path class="cls-1" d="M17,24.73l-.28.63h-.3l1.12-2.51h.3L19,25.36h-.31l-.28-.63Zm.68-1.55-.56,1.27h1.13Z"/><path class="cls-1" d="M20,23.13v2.23h-.28V23.13h-.82v-.28h1.92v.28Z"/><path class="cls-1" d="M21.39,25.36V22.85h.28v2.51Z"/><path class="cls-1" d="M23.22,25.36l-1-2.51h.31L23.37,25l.87-2.18h.3l-1,2.51Z"/><path class="cls-1" d="M27.44,24.11a1.31,1.31,0,1,1-1.31-1.27A1.29,1.29,0,0,1,27.44,24.11Zm-2.33,0a1,1,0,1,0,1-1A1,1,0,0,0,25.11,24.11Z"/><path class="cls-1" d="M5.94,29.74V26.3H8.69v.83H7v.45H8.43v.79H7v.53H8.75v.84Z"/><path class="cls-1" d="M9.11,28.67h1.07a.46.46,0,0,0,.16.27.65.65,0,0,0,.35.08A.51.51,0,0,0,11,29a.18.18,0,0,0,.11-.18c0-.13-.15-.23-.46-.3l-.14,0a4.27,4.27,0,0,1-.61-.18,1.3,1.3,0,0,1-.33-.15.85.85,0,0,1-.29-.34.93.93,0,0,1-.1-.45,1,1,0,0,1,.38-.8,1.69,1.69,0,0,1,1.06-.29,1.69,1.69,0,0,1,1,.28,1,1,0,0,1,.43.79H11a.34.34,0,0,0-.14-.22.52.52,0,0,0-.31-.08.45.45,0,0,0-.26.06.2.2,0,0,0-.09.18c0,.11.15.21.45.28l.07,0,.19,0a3.22,3.22,0,0,1,.79.27,1,1,0,0,1,.33.35.93.93,0,0,1,.1.45,1.05,1.05,0,0,1-.39.88,1.89,1.89,0,0,1-1.14.3,1.73,1.73,0,0,1-1.08-.3A1.13,1.13,0,0,1,9.11,28.67Z"/><path class="cls-1" d="M14.9,28.41h1a1.45,1.45,0,0,1-.48,1.05,1.68,1.68,0,0,1-1.16.37,1.74,1.74,0,0,1-1.3-.48A1.78,1.78,0,0,1,12.52,28,1.84,1.84,0,0,1,13,26.7a1.72,1.72,0,0,1,1.28-.48,1.74,1.74,0,0,1,1.17.36,1.38,1.38,0,0,1,.48,1H14.87a.65.65,0,0,0-.17-.4.61.61,0,0,0-.42-.14.55.55,0,0,0-.48.24,1.28,1.28,0,0,0-.16.72,1.15,1.15,0,0,0,.17.7.57.57,0,0,0,.5.24.58.58,0,0,0,.41-.14A.68.68,0,0,0,14.9,28.41Z"/><path class="cls-1" d="M16.4,26.3h1.1v2.12a.59.59,0,0,0,.12.42A.57.57,0,0,0,18,29a.55.55,0,0,0,.4-.12.59.59,0,0,0,.12-.42V26.3h1.1v2.21a1.2,1.2,0,0,1-.41,1,1.86,1.86,0,0,1-1.21.34,1.86,1.86,0,0,1-1.21-.34,1.19,1.19,0,0,1-.42-1Z"/><path class="cls-1" d="M20.3,29.74V26.3h1.33a4.36,4.36,0,0,1,.75.05,1.43,1.43,0,0,1,.44.15,1.32,1.32,0,0,1,.53.59,2.19,2.19,0,0,1,.18.94,1.93,1.93,0,0,1-.22,1,1.38,1.38,0,0,1-.66.6,1.81,1.81,0,0,1-.42.11,7.73,7.73,0,0,1-.81,0Zm1.1-.87h.29a.72.72,0,0,0,.58-.19,1,1,0,0,0,.16-.65,1,1,0,0,0-.17-.66.68.68,0,0,0-.55-.2H21.4Z"/><path class="cls-1" d="M23.89,28a1.81,1.81,0,0,1,.48-1.33,1.78,1.78,0,0,1,1.31-.48,1.75,1.75,0,0,1,1.3.48,2.07,2.07,0,0,1,0,2.65,1.75,1.75,0,0,1-1.3.48,1.78,1.78,0,0,1-1.31-.48A1.82,1.82,0,0,1,23.89,28ZM25,28a1.22,1.22,0,0,0,.17.71.59.59,0,0,0,.51.23.56.56,0,0,0,.5-.23,1.22,1.22,0,0,0,.16-.71,1.24,1.24,0,0,0-.16-.72.54.54,0,0,0-.5-.23.59.59,0,0,0-.51.23A1.23,1.23,0,0,0,25,28Z"/><path class="cls-2" d="M16.37,22.26a32.24,32.24,0,0,0,5.5-3c2.59-2,3.32-6.32,3.32-6.32L25.31,2.3A25.75,25.75,0,0,0,16.65.48,29,29,0,0,0,7.4,2.3L7.51,13s.73,4.37,3.32,6.32,5.16,2.63,5.54,3Z"/><g id="mgcM5p.tif"><path class="cls-3" d="M24.94,2.26A19.75,19.75,0,0,0,19.89.8c-.7-.1-1.4-.18-2.1-.27H15.44c-.88.12-1.76.22-2.64.35A22.88,22.88,0,0,0,7.68,2.29a1.29,1.29,0,0,1-.21,0V5.42a4,4,0,0,1,.07.48c0,2.06,0,4.13,0,6.2A11.33,11.33,0,0,0,8,14.68a8.71,8.71,0,0,0,4.19,5.54c1.29.72,2.65,1.29,4,1.9a.72.72,0,0,0,.54,0Q18.85,21,21,19.84a6,6,0,0,0,1.4-1,9.14,9.14,0,0,0,2.8-6.38c.08-3.21.06-6.43.09-9.64A.51.51,0,0,0,24.94,2.26Zm-.53,10.08a8.6,8.6,0,0,1-4.76,7.5c-1,.52-2,1-3,1.42a.75.75,0,0,1-.55,0c-1-.47-2.1-.92-3.09-1.48a8.59,8.59,0,0,1-4.66-7.7c-.07-2.89,0-5.79,0-8.69a.58.58,0,0,1,.46-.64,21.27,21.27,0,0,1,15.25,0,.48.48,0,0,1,.37.56c0,1.55,0,3.11,0,4.66h0C24.42,9.44,24.49,10.89,24.41,12.34Z"/><path class="cls-1" d="M24.42,8h0c0-1.55,0-3.11,0-4.66a.48.48,0,0,0-.37-.56,21.27,21.27,0,0,0-15.25,0,.58.58,0,0,0-.46.64c0,2.9,0,5.8,0,8.69A8.59,8.59,0,0,0,13,19.78c1,.56,2.05,1,3.09,1.48a.75.75,0,0,0,.55,0c1-.46,2-.9,3-1.42a8.6,8.6,0,0,0,4.76-7.5C24.49,10.89,24.42,9.44,24.42,8ZM9.1,3.86a.52.52,0,0,1,.27-.3,19,19,0,0,1,13.07-.39l.39.13.09.08c-5.42-.89-10.24,0-13.83,4.77C9.09,6.63,9.09,5.24,9.1,3.86ZM19.43,19c-.86.46-1.76.85-2.66,1.25a.8.8,0,0,1-.59,0c-.74-.32-1.47-.68-2.21-1,1-.27,2.07-.49,3.08-.81a10.74,10.74,0,0,0,5.54-3.65,18.81,18.81,0,0,0,1.14-1.91A8,8,0,0,1,19.43,19Zm3.76-5.79a10.41,10.41,0,0,1-4.35,3.78,19.68,19.68,0,0,1-5.76,1.74.84.84,0,0,1-.49-.16A8,8,0,0,1,9,11.89c0-.81,0-1.63,0-2.44a1.33,1.33,0,0,1,.23-.7,12.28,12.28,0,0,1,8.3-5.13,18.51,18.51,0,0,1,5.85,0c.29,0,.37.17.36.44,0,1.28,0,2.56,0,3.85,0,1.07-.05,2.14,0,3.21A3.37,3.37,0,0,1,23.19,13.16Z"/><path class="cls-3" d="M23.78,7.87c0-1.29,0-2.57,0-3.85,0-.27-.07-.4-.36-.44a18.51,18.51,0,0,0-5.85,0,12.28,12.28,0,0,0-8.3,5.13,1.33,1.33,0,0,0-.23.7c0,.81,0,1.63,0,2.44a8,8,0,0,0,3.56,6.63.84.84,0,0,0,.49.16,19.68,19.68,0,0,0,5.76-1.74,10.41,10.41,0,0,0,4.35-3.78,3.37,3.37,0,0,0,.6-2.08C23.73,10,23.78,8.94,23.78,7.87Zm-9.26.81h0Z"/><path class="cls-4" d="M9.09,8.15c0-1.52,0-2.91,0-4.29a.52.52,0,0,1,.27-.3,19,19,0,0,1,13.07-.39l.39.13.09.08C17.5,2.49,12.68,3.35,9.09,8.15Z"/><path class="cls-5" d="M23.73,12.84A8,8,0,0,1,19.43,19c-.86.46-1.76.85-2.66,1.25a.8.8,0,0,1-.59,0c-.74-.32-1.47-.68-2.21-1,1-.27,2.07-.49,3.08-.81a10.74,10.74,0,0,0,5.54-3.65A20,20,0,0,0,23.73,12.84Z"/></g><polygon class="cls-1" points="20.73 7.45 19.8 13.23 18.95 13.23 18.21 13.23 18.92 8.87 17.5 8.87 17.25 10.3 15.83 10.3 16.07 8.86 14.63 8.86 14.83 7.46 20.73 7.45"/><polygon class="cls-1" points="12.12 14.65 13.05 8.87 13.9 8.87 14.64 8.87 13.93 13.23 15.35 13.23 15.6 11.8 17.02 11.8 16.78 13.24 18.22 13.24 18.02 14.64 12.12 14.65"/><polygon class="cls-3" points="18.93 8.89 18.22 13.23 16.79 13.23 17.02 11.78 15.59 11.78 15.36 13.22 13.91 13.22 14.63 8.88 16.06 8.88 15.83 10.33 17.26 10.33 17.49 8.89 18.93 8.89"/></svg>