<?xml version="1.0" encoding="utf-8"?>
<!-- Generator: Adobe Illustrator 23.0.1, SVG Export Plug-In . SVG Version: 6.00 Build 0)  -->
<svg version="1.1" id="Layer_1" xmlns="http://www.w3.org/2000/svg" xmlns:xlink="http://www.w3.org/1999/xlink" x="0px" y="0px"
	 viewBox="0 0 40.4 40.4" style="enable-background:new 0 0 40.4 40.4;" xml:space="preserve">
<style type="text/css">
	.st0{fill:#494D56;}
	.st1{fill:#FFFFFF;}
	.st2{fill-rule:evenodd;clip-rule:evenodd;fill:#FFFFFF;}
</style>
<path class="st0" d="M40.4,20.2c0,10.6-8.1,19.3-18.5,20.1c-0.6,0.1-1.1,0.1-1.7,0.1c-1.5,0-3-0.2-4.4-0.5C6.8,37.9,0,29.8,0,20.2
	C0,9,9.1,0,20.2,0C31.4,0,40.4,9,40.4,20.2z"/>
<g>
	<path class="st1" d="M22.5,16c0.3-0.4,0.9-0.6,1.8-0.6c0.8,0,1.8,0.1,2.8,0.4l0.8-4.2c-1.6-0.6-3.3-0.7-5-0.7
		c-1.7,0-3.1,0.3-4.2,0.9c-1.1,0.6-1.8,1.3-2.2,2.3c-0.4,0.9-0.6,2.4-0.6,4.3v1.7h-3.3v4.9h3.3V40c1.4,0.3,2.9,0.5,4.4,0.5
		c0.6,0,1.1,0,1.7-0.1V24.7h4.4v-4.9H22v-1.6C22,17.1,22.1,16.4,22.5,16z"/>
</g>
</svg>
