<?xml version="1.0" encoding="utf-8"?>
<!-- Generator: Adobe Illustrator 23.0.1, SVG Export Plug-In . SVG Version: 6.00 Build 0)  -->
<svg version="1.1" id="Layer_1" xmlns="http://www.w3.org/2000/svg" xmlns:xlink="http://www.w3.org/1999/xlink" x="0px" y="0px"
	 viewBox="0 0 32 32" style="enable-background:new 0 0 32 32;" xml:space="preserve">
<style type="text/css">
	.st0{fill:#FA2437;}
	.st1{fill:#61B522;}
	.st2{fill:#BD000E;}
	.st3{fill:#155427;}
	.st4{fill:#FFFFFF;}
</style>
<polygon class="st0" points="13.3,3.9 10.9,3.9 9.4,13.3 18.7,13.3 19.1,11 16.8,11 17.1,8.6 14.8,8.6 14.4,10.9 12.1,10.9 "/>
<polygon class="st1" points="19.1,11 21.4,11 22.9,1.6 13.7,1.6 13.3,3.9 15.6,3.9 15.2,6.3 17.5,6.3 17.9,3.9 20.2,3.9 "/>
<polygon class="st2" points="9.4,13.3 10.9,3.9 9.5,5.1 8.1,14.5 17.3,14.5 18.7,13.3 "/>
<polygon class="st3" points="13.3,3.9 13.7,1.6 12.2,2.8 12,3.9 "/>
<polygon class="st3" points="19.1,11 18.9,12.1 20.1,12.1 21.4,11 "/>
<polygon class="st4" points="1.1,17.1 2.5,17.1 2.5,18.8 3.9,18.8 3.9,17.1 5.3,17.1 5.3,21.7 3.9,21.7 3.9,19.9 2.5,19.9 2.5,21.7 
	1.1,21.7 "/>
<rect x="6" y="17.1" class="st4" width="1.4" height="4.6"/>
<path class="st4" d="M8.3,17.1H10c1.6,0,2.4,0.8,2.4,2.2v0c0,1.5-0.8,2.3-2.4,2.3H8.3V17.1z M10,20.6c0.7,0,1-0.4,1-1.2v-0.1
	c0-0.8-0.3-1.1-1-1.1H9.7v2.4H10z"/>
<path class="st4" d="M14.1,17.2h1.9l1.4,4.6h-1.5L15.6,21h-1.4L14,21.7h-1.3L14.1,17.2z M14.5,20h0.9l-0.4-1.7L14.5,20z"/>
<polygon class="st4" points="18,17.1 19.5,17.1 19.5,20.6 21.1,20.6 21.1,21.7 18,21.7 "/>
<path class="st4" d="M21.7,19.4L21.7,19.4c0-1.5,1-2.4,2.4-2.4c1.1,0,2.1,0.5,2.1,1.7h-1.4c0-0.4-0.3-0.6-0.7-0.6
	c-0.6,0-0.9,0.4-0.9,1.2v0.1c0,0.7,0.2,1.2,1,1.2c0.6,0,0.8-0.3,0.8-0.6h-0.8v-1h2.2v0.6c0,1.1-0.7,2.1-2.3,2.1
	C22.5,21.8,21.7,20.8,21.7,19.4"/>
<path class="st4" d="M26.9,19.4L26.9,19.4c0-1.5,1-2.4,2.3-2.4c1.3,0,2.3,0.9,2.3,2.3v0.1c0,1.4-0.9,2.4-2.3,2.4
	C27.7,21.8,26.9,20.8,26.9,19.4 M30,19.4L30,19.4c0-0.8-0.3-1.3-0.9-1.3c-0.5,0-0.9,0.4-0.9,1.2v0.1c0,0.8,0.3,1.2,0.9,1.2
	C29.7,20.6,30,20.2,30,19.4"/>
<path class="st4" d="M4.7,24.5L4.7,24.5c0-0.7,0.4-1,0.9-1c0.4,0,0.8,0.2,0.9,0.7H6c0-0.2-0.2-0.3-0.4-0.3c-0.3,0-0.4,0.2-0.4,0.6v0
	c0,0.4,0.2,0.6,0.4,0.6c0.2,0,0.4-0.1,0.4-0.4h0.5c0,0.5-0.3,0.8-0.9,0.8C5.1,25.5,4.7,25.1,4.7,24.5"/>
<path class="st4" d="M6.8,23.5h0.5v0.4c0.1-0.3,0.3-0.4,0.6-0.4V24c-0.4,0-0.6,0.1-0.6,0.5v1H6.8V23.5z"/>
<path class="st4" d="M8.1,24.5L8.1,24.5c0-0.6,0.4-1,0.9-1c0.5,0,0.9,0.3,0.9,1v0.1H8.6c0,0.3,0.2,0.5,0.5,0.5
	c0.2,0,0.3-0.1,0.4-0.3h0.5c-0.1,0.4-0.4,0.6-0.9,0.6C8.5,25.5,8.1,25.1,8.1,24.5 M9.4,24.3c0-0.3-0.2-0.4-0.4-0.4
	c-0.2,0-0.4,0.2-0.4,0.4H9.4z"/>
<path class="st4" d="M10.1,24.5L10.1,24.5c0-0.7,0.4-1,0.9-1c0.4,0,0.8,0.2,0.9,0.7h-0.5c0-0.2-0.2-0.3-0.4-0.3
	c-0.3,0-0.4,0.2-0.4,0.6v0c0,0.4,0.2,0.6,0.4,0.6c0.2,0,0.4-0.1,0.4-0.4h0.5c0,0.5-0.3,0.8-0.9,0.8C10.5,25.5,10.1,25.1,10.1,24.5"
	/>
<path class="st4" d="M12.1,24.5L12.1,24.5c0-0.6,0.4-1,0.9-1c0.5,0,0.9,0.3,0.9,1v0.1h-1.3c0,0.3,0.2,0.5,0.5,0.5
	c0.2,0,0.3-0.1,0.4-0.3H14c-0.1,0.4-0.4,0.6-0.9,0.6C12.5,25.5,12.1,25.1,12.1,24.5 M13.5,24.3c0-0.3-0.2-0.4-0.4-0.4
	c-0.2,0-0.4,0.2-0.4,0.4H13.5z"/>
<path class="st1" d="M15,24.5L15,24.5c0-0.7,0.4-1,0.9-1c0.4,0,0.8,0.2,0.9,0.7h-0.5c0-0.2-0.2-0.3-0.4-0.3c-0.3,0-0.4,0.2-0.4,0.6
	v0c0,0.4,0.2,0.6,0.4,0.6c0.2,0,0.4-0.1,0.4-0.4h0.5c0,0.5-0.3,0.8-0.9,0.8C15.4,25.5,15,25.1,15,24.5"/>
<path class="st1" d="M17.1,24.5L17.1,24.5c0-0.6,0.4-1,1-1c0.5,0,1,0.4,1,1v0c0,0.6-0.4,1-1,1C17.5,25.5,17.1,25.1,17.1,24.5
	 M18.5,24.5L18.5,24.5c0-0.4-0.2-0.6-0.4-0.6c-0.3,0-0.4,0.2-0.4,0.6v0c0,0.4,0.2,0.6,0.4,0.6C18.3,25.1,18.5,24.9,18.5,24.5"/>
<path class="st1" d="M19.4,23.5h0.5v0.3c0.1-0.2,0.3-0.3,0.6-0.3c0.4,0,0.6,0.2,0.6,0.7v1.2h-0.5v-1.1c0-0.3-0.1-0.4-0.3-0.4
	c-0.2,0-0.4,0.1-0.4,0.4v1.1h-0.5V23.5z"/>
<path class="st1" d="M21.7,24.9v-1h-0.2v-0.4h0.2v-0.4h0.5v0.4h0.4v0.4h-0.4v0.9c0,0.2,0.1,0.2,0.2,0.2c0.1,0,0.1,0,0.2,0v0.4
	c-0.1,0-0.2,0.1-0.3,0.1C21.9,25.5,21.7,25.3,21.7,24.9"/>
<path class="st1" d="M22.9,23c0-0.2,0.1-0.3,0.3-0.3c0.2,0,0.3,0.1,0.3,0.3c0,0.2-0.1,0.3-0.3,0.3C23,23.3,22.9,23.1,22.9,23
	 M22.9,23.5h0.5v1.9h-0.5V23.5z"/>
<path class="st1" d="M23.8,25.5h0.5c0,0.2,0.1,0.3,0.4,0.3c0.3,0,0.5-0.2,0.5-0.5V25c-0.1,0.2-0.3,0.4-0.6,0.4
	c-0.4,0-0.8-0.3-0.8-0.9v0c0-0.6,0.3-0.9,0.8-0.9c0.3,0,0.5,0.1,0.6,0.3v-0.3h0.5v1.8c0,0.6-0.4,0.9-1,0.9
	C24.2,26.2,23.9,25.9,23.8,25.5 M25.2,24.4L25.2,24.4c0-0.4-0.2-0.6-0.4-0.6c-0.3,0-0.4,0.2-0.4,0.5v0c0,0.3,0.2,0.5,0.4,0.5
	C25,25,25.2,24.8,25.2,24.4"/>
<path class="st1" d="M26.1,24.5L26.1,24.5c0-0.6,0.4-1,1-1c0.5,0,1,0.4,1,1v0c0,0.6-0.4,1-1,1C26.5,25.5,26.1,25.1,26.1,24.5
	 M27.5,24.5L27.5,24.5c0-0.4-0.2-0.6-0.4-0.6c-0.3,0-0.4,0.2-0.4,0.6v0c0,0.4,0.2,0.6,0.4,0.6C27.3,25.1,27.5,24.9,27.5,24.5"/>
<polygon class="st4" points="13.3,3.9 15.6,3.9 15.2,6.3 17.5,6.3 17.9,3.9 20.2,3.9 19.1,11 16.8,11 17.1,8.6 14.8,8.6 14.4,10.9 
	12.1,10.9 "/>
</svg>
