<?xml version="1.0" encoding="utf-8"?>
<!-- Generator: Adobe Illustrator 23.0.1, SVG Export Plug-In . SVG Version: 6.00 Build 0)  -->
<svg version="1.1" id="Layer_1" xmlns="http://www.w3.org/2000/svg" xmlns:xlink="http://www.w3.org/1999/xlink" x="0px" y="0px"
	 viewBox="0 0 40.4 40.5" style="enable-background:new 0 0 40.4 40.5;" xml:space="preserve">
<style type="text/css">
	.st0{fill:url(#SVGID_1_);}
	.st1{fill-rule:evenodd;clip-rule:evenodd;fill:#FFFFFF;}
</style>
<linearGradient id="SVGID_1_" gradientUnits="userSpaceOnUse" x1="0" y1="20.2004" x2="40.4" y2="20.2004">
	<stop  offset="0" style="stop-color:#8267F7"/>
	<stop  offset="1" style="stop-color:#00E4D7"/>
</linearGradient>
<path class="st0" d="M40.4,20.2c0,11.2-9,20.2-20.2,20.2C9.1,40.5,0,31.4,0,20.2S9.1,0,20.2,0C31.4,0,40.4,9.1,40.4,20.2z"/>
<g>
	<path class="st1" d="M28.3,9.3c-5.4,0-10.7,0-16.1,0c-1.9,0-2.9,1-2.9,2.9c0,2.6,0,5.3,0,8s0,5.4,0,8c0,1.8,1,2.9,2.8,2.9
		c5.4,0,10.8,0,16.2,0c1.9,0,2.9-1,2.9-2.9c0-5.4,0-10.7,0-16.1C31.2,10.3,30.1,9.3,28.3,9.3z M26.5,11.8c2.2,0,2.2,0,2.2,2.2
		c0,2.1,0,2.1-2.1,2.1s-2.1,0-2.1-2.1C24.4,11.8,24.4,11.8,26.5,11.8z M20.2,16c2.3,0,4.2,2,4.2,4.2c0,2.3-2,4.3-4.3,4.2
		c-2.3-0.1-4.2-2-4.2-4.3C16,17.9,17.9,16,20.2,16z M28.7,27.4c0,1-0.3,1.3-1.3,1.3c-2.4,0-4.8,0-7.2,0s-4.7,0-7.1,0
		c-1,0-1.3-0.3-1.3-1.3c0-2.6,0-5.3,0-8c0-0.8,0.2-0.9,0.9-0.9c1,0.1,1,0,0.9,1c-0.4,3.4,1.9,6.7,5.3,7.3c3.4,0.7,6.9-1.4,7.8-4.7
		c0.3-1,0.4-2.1,0.2-3.1c-0.1-0.4,0-0.5,0.4-0.5c1.5-0.1,1.5-0.1,1.5,1.4C28.7,22.4,28.7,24.9,28.7,27.4z"/>
</g>
</svg>
