<?xml version="1.0" encoding="utf-8"?>
<!-- Generator: Adobe Illustrator 23.0.1, SVG Export Plug-In . SVG Version: 6.00 Build 0)  -->
<svg version="1.1" id="Layer_1" xmlns="http://www.w3.org/2000/svg" xmlns:xlink="http://www.w3.org/1999/xlink" x="0px" y="0px"
	 viewBox="0 0 418.7 78.9" style="enable-background:new 0 0 418.7 78.9;" xml:space="preserve">
<style type="text/css">
	.st0{fill:none;}
	.st1{fill:#FFFFFF;}
	.st2{font-family:'VAG-Rounded-Bold';}
	.st3{font-size:47.2474px;}
	.st4{opacity:0.3;fill:#FFFFFF;}
	.st5{fill:#FFBAD8;}
	.st6{fill:#FDB8D8;}
	.st7{fill:#FAB6D8;}
	.st8{fill:#F8B4D8;}
	.st9{fill:#F6B3D8;}
	.st10{fill:#F3B1D8;}
	.st11{fill:#F1AFD8;}
	.st12{fill:#EFADD8;}
	.st13{fill:#ECABD8;}
	.st14{fill:#EAA9D9;}
	.st15{fill:#E7A7D9;}
	.st16{fill:#E5A6D9;}
	.st17{fill:#E3A4D9;}
	.st18{fill:#E0A2D9;}
	.st19{fill:#DEA0D9;}
	.st20{fill:#DC9ED9;}
	.st21{fill:#D99CD9;}
	.st22{fill:#D79AD9;}
	.st23{fill:#D598D9;}
	.st24{fill:#D297D9;}
	.st25{fill:#D095D9;}
	.st26{fill:#CE93D9;}
	.st27{fill:#CB91D9;}
	.st28{fill:#C98FD9;}
	.st29{fill:#C78DD9;}
	.st30{fill:#C28ADA;}
	.st31{fill:#BF88DA;}
	.st32{fill:#BD86DA;}
	.st33{fill:#BB84DA;}
	.st34{fill:#B882DA;}
	.st35{fill:#B680DA;}
	.st36{fill:#B47EDA;}
	.st37{fill:#B17DDA;}
	.st38{fill:#AF7BDA;}
	.st39{fill:#AD79DA;}
	.st40{fill:#AA77DA;}
	.st41{fill:#A875DA;}
	.st42{fill:#A673DA;}
	.st43{fill:#A371DA;}
	.st44{fill:#A16FDA;}
	.st45{fill:#9F6EDA;}
	.st46{fill:#9C6CDA;}
	.st47{fill:#9A6ADB;}
	.st48{fill:#9768DB;}
	.st49{fill:#9566DB;}
	.st50{fill:#9364DB;}
	.st51{fill:#9062DB;}
	.st52{fill:#8E61DB;}
	.st53{fill:#8C5FDB;}
	.st54{fill:#895DDB;}
	.st55{fill:#875BDB;}
	.st56{fill:#C48BD9;}
	.st57{fill:#B5B9FF;}
	.st58{fill:#B3B7FF;}
	.st59{fill:#B1B4FF;}
	.st60{fill:#AFB2FF;}
	.st61{fill:#ADAFFF;}
	.st62{fill:#ABADFF;}
	.st63{fill:#A9AAFF;}
	.st64{fill:#A6A8FF;}
	.st65{fill:#A4A6FF;}
	.st66{fill:#A2A3FF;}
	.st67{fill:#A0A1FF;}
	.st68{fill:#9E9EFF;}
	.st69{fill:#9C9CFF;}
	.st70{fill:#9A9AFF;}
	.st71{fill:#9897FF;}
	.st72{fill:#9695FF;}
	.st73{fill:#9492FF;}
	.st74{fill:#9290FF;}
	.st75{fill:#908DFF;}
	.st76{fill:#8E8BFF;}
	.st77{fill:#8B89FF;}
	.st78{fill:#8986FF;}
	.st79{fill:#8784FF;}
	.st80{fill:#8581FF;}
	.st81{fill:#837FFF;}
	.st82{fill:#817CFF;}
	.st83{fill:#7F7AFF;}
	.st84{fill:#B982FF;}
	.st85{fill:#B781FF;}
	.st86{fill:#B67FFF;}
	.st87{fill:#B47EFF;}
	.st88{fill:#B27DFF;}
	.st89{fill:#B17CFF;}
	.st90{fill:#AF7AFF;}
	.st91{fill:#AD79FF;}
	.st92{fill:#AC78FF;}
	.st93{fill:#AA77FF;}
	.st94{fill:#A875FF;}
	.st95{fill:#A674FF;}
	.st96{fill:#A573FF;}
	.st97{fill:#A372FF;}
	.st98{fill:#A170FF;}
	.st99{fill:#A06FFF;}
	.st100{fill:#9E6EFF;}
	.st101{fill:#9C6DFF;}
	.st102{fill:#9B6BFF;}
	.st103{fill:#996AFF;}
	.st104{fill:#9769FF;}
	.st105{fill:#9668FF;}
	.st106{fill:#9466FF;}
	.st107{fill:#9265FF;}
	.st108{fill:#9164FF;}
	.st109{fill:#8F63FF;}
	.st110{fill:#8D61FF;}
	.st111{fill:#8B60FF;}
	.st112{fill:#8A5FFF;}
	.st113{fill:#885EFF;}
	.st114{fill:#865CFF;}
	.st115{fill:#855BFF;}
	.st116{fill:#835AFF;}
	.st117{fill:#8159FF;}
	.st118{fill:#8057FF;}
	.st119{fill:#7E56FF;}
	.st120{fill:#7C55FF;}
	.st121{fill:#7B54FF;}
	.st122{fill:#7952FF;}
	.st123{fill:#7751FF;}
	.st124{fill:#7650FF;}
	.st125{fill:#744FFF;}
	.st126{fill:#724DFF;}
	.st127{fill:#704CFF;}
	.st128{fill:#6F4BFF;}
	.st129{fill:#6D4AFF;}
	.st130{fill:#6B48FF;}
	.st131{fill:#6A47FF;}
	.st132{fill:#6846FF;}
	.st133{fill:#6645FF;}
	.st134{fill:#6543FF;}
</style>
<g>
	<g>
		<rect x="68.9" y="19.9" class="st0" width="363.8" height="54.3"/>
		<text transform="matrix(1 0 0 1 99.8396 56.2668)" class="st1 st2 st3">aDomicilioHgo</text>
	</g>
	<g>
		<path class="st4" d="M47.6,21.8c-0.1-0.1-0.2-0.1-0.2-0.2c-1-0.9-2.7-1.1-3.7,0c-1,1.1-1,2.6,0,3.7c0.1,0.1,0.1,0.2,0.2,0.2
			c0.9,1,2.8,1,3.7,0C48.5,24.5,48.7,22.7,47.6,21.8L47.6,21.8z"/>
		<g>
			<path class="st5" d="M23.2,22.1c-1.3,0-2.5-1-2.7-2.3c-0.2-1.3,0.8-2.3,2.1-2.3c1.3,0,2.5,1,2.7,2.3
				C25.4,21.1,24.5,22.1,23.2,22.1L23.2,22.1z"/>
			<path class="st6" d="M23.4,22.1c-1.3,0-2.5-1-2.7-2.3c-0.2-1.3,0.8-2.3,2.1-2.3c1.3,0,2.5,1,2.7,2.3
				C25.6,21.1,24.7,22.1,23.4,22.1z"/>
			<path class="st7" d="M23.5,22.1c-1.3,0-2.5-1-2.7-2.3c-0.2-1.3,0.8-2.3,2.1-2.3c1.3,0,2.5,1,2.7,2.3
				C25.8,21.1,24.9,22.1,23.5,22.1z"/>
			<path class="st8" d="M23.7,22.1c-1.3,0-2.5-1-2.7-2.3c-0.2-1.3,0.8-2.3,2.1-2.3c1.3,0,2.5,1,2.7,2.3C26,21.1,25,22.1,23.7,22.1
				L23.7,22.1z"/>
			<path class="st9" d="M23.8,22.2c-1.3,0-2.5-1.1-2.7-2.4c-0.2-1.3,0.8-2.4,2.1-2.4c1.3,0,2.5,1.1,2.7,2.4
				C26.1,21.1,25.2,22.2,23.8,22.2L23.8,22.2z"/>
			<path class="st10" d="M24.1,22.1c-1.3,0-2.5-1-2.7-2.3c-0.2-1.3,0.8-2.3,2.1-2.3c1.3,0,2.5,1,2.7,2.3
				C26.4,21.1,25.4,22.1,24.1,22.1z"/>
			<path class="st11" d="M24.3,22.1c-1.3,0-2.5-1-2.7-2.3c-0.2-1.3,0.8-2.3,2.1-2.3c1.3,0,2.5,1,2.7,2.3
				C26.5,21.1,25.6,22.1,24.3,22.1z"/>
			<path class="st12" d="M24.5,22.1c-1.3,0-2.5-1-2.7-2.3c-0.2-1.3,0.8-2.3,2.1-2.3c1.3,0,2.5,1,2.7,2.3
				C26.7,21.1,25.8,22.1,24.5,22.1L24.5,22.1z"/>
			<path class="st13" d="M24.7,22.1c-1.3,0-2.5-1-2.7-2.3c-0.2-1.3,0.8-2.3,2.1-2.3c1.3,0,2.5,1,2.7,2.3
				C26.9,21.1,26,22.1,24.7,22.1z"/>
			<path class="st14" d="M24.9,22.1c-1.3,0-2.5-1-2.7-2.3c-0.2-1.3,0.8-2.3,2.1-2.3c1.3,0,2.5,1,2.7,2.3
				C27.1,21.1,26.2,22.1,24.9,22.1z"/>
			<path class="st15" d="M25,22.2c-1.3,0-2.5-1.1-2.7-2.4c-0.2-1.3,0.8-2.4,2.1-2.4c1.3,0,2.5,1.1,2.7,2.4
				C27.2,21.1,26.3,22.2,25,22.2z"/>
			<path class="st16" d="M25.2,22.1c-1.3,0-2.5-1-2.7-2.3c-0.2-1.3,0.8-2.3,2.1-2.3c1.3,0,2.5,1,2.7,2.3
				C27.5,21.1,26.5,22.1,25.2,22.1L25.2,22.1z"/>
			<path class="st17" d="M25.4,22.1c-1.3,0-2.5-1-2.7-2.3c-0.2-1.3,0.8-2.3,2.1-2.3c1.3,0,2.5,1,2.7,2.3
				C27.7,21.1,26.7,22.1,25.4,22.1L25.4,22.1z"/>
			<path class="st18" d="M25.6,22.1c-1.3,0-2.5-1-2.7-2.3c-0.2-1.3,0.8-2.3,2.1-2.3c1.3,0,2.5,1,2.7,2.3
				C27.9,21.1,26.9,22.1,25.6,22.1z"/>
			<path class="st19" d="M25.8,22.1c-1.3,0-2.5-1-2.7-2.3c-0.2-1.3,0.8-2.3,2.1-2.3c1.3,0,2.5,1,2.7,2.3
				C28,21.1,27.1,22.1,25.8,22.1z"/>
			<path class="st20" d="M26,22.1c-1.3,0-2.5-1-2.7-2.3c-0.2-1.3,0.8-2.3,2.1-2.3c1.3,0,2.5,1,2.7,2.3C28.2,21.1,27.3,22.1,26,22.1z
				"/>
			<path class="st21" d="M26.2,22.1c-1.3,0-2.5-1-2.7-2.3c-0.2-1.3,0.8-2.3,2.1-2.3c1.3,0,2.5,1,2.7,2.3
				C28.4,21.1,27.5,22.1,26.2,22.1L26.2,22.1z"/>
			<path class="st22" d="M26.3,22.1c-1.3,0-2.5-1-2.7-2.3c-0.2-1.3,0.8-2.3,2.1-2.3c1.3,0,2.5,1,2.7,2.3
				C28.6,21.1,27.7,22.1,26.3,22.1z"/>
			<path class="st23" d="M26.5,22.1c-1.3,0-2.5-1-2.7-2.3c-0.2-1.3,0.8-2.3,2.1-2.3c1.3,0,2.5,1,2.7,2.3
				C28.8,21.1,27.8,22.1,26.5,22.1z"/>
			<path class="st24" d="M26.7,22.1c-1.3,0-2.5-1-2.7-2.3c-0.2-1.3,0.8-2.3,2.1-2.3c1.3,0,2.5,1,2.7,2.3C29,21.1,28,22.1,26.7,22.1z
				"/>
			<path class="st25" d="M26.9,22.1c-1.3,0-2.5-1-2.7-2.3c-0.2-1.3,0.8-2.3,2.1-2.3c1.3,0,2.5,1,2.7,2.3
				C29.2,21.1,28.2,22.1,26.9,22.1z"/>
			<path class="st26" d="M27.1,22.1c-1.3,0-2.5-1-2.7-2.3c-0.2-1.3,0.8-2.3,2.1-2.3c1.3,0,2.5,1,2.7,2.3
				C29.3,21.1,28.4,22.1,27.1,22.1z"/>
			<path class="st27" d="M27.3,22.1c-1.3,0-2.5-1-2.7-2.3c-0.2-1.3,0.8-2.3,2.1-2.3c1.3,0,2.5,1,2.7,2.3
				C29.5,21.1,28.6,22.1,27.3,22.1z"/>
			<path class="st28" d="M27.5,22.1c-1.3,0-2.5-1-2.7-2.3c-0.2-1.3,0.8-2.3,2.1-2.3c1.3,0,2.5,1,2.7,2.3
				C29.7,21.1,28.8,22.1,27.5,22.1z"/>
			<path class="st29" d="M27.7,22.1c-1.3,0-2.5-1-2.7-2.3c-0.2-1.3,0.8-2.3,2.1-2.3c1.3,0,2.5,1,2.7,2.3
				C29.9,21.1,29,22.1,27.7,22.1z"/>
			<path class="st30" d="M28,22.1c-1.3,0-2.5-1-2.7-2.3c-0.2-1.3,0.8-2.3,2.1-2.3c1.3,0,2.5,1,2.7,2.3C30.3,21.1,29.3,22.1,28,22.1z
				"/>
			<path class="st31" d="M28.2,22.1c-1.3,0-2.5-1-2.7-2.3c-0.2-1.3,0.8-2.3,2.1-2.3c1.3,0,2.5,1,2.7,2.3
				C30.5,21.1,29.5,22.1,28.2,22.1z"/>
			<path class="st32" d="M28.4,22.1c-1.3,0-2.5-1-2.7-2.3c-0.2-1.3,0.8-2.3,2.1-2.3c1.3,0,2.5,1,2.7,2.3
				C30.7,21.1,29.7,22.1,28.4,22.1L28.4,22.1z"/>
			<path class="st33" d="M28.6,22.1c-1.3,0-2.5-1-2.7-2.3c-0.2-1.3,0.8-2.3,2.1-2.3c1.3,0,2.5,1,2.7,2.3
				C30.8,21.1,29.9,22.1,28.6,22.1z"/>
			<path class="st34" d="M28.8,22.1c-1.3,0-2.5-1-2.7-2.3c-0.2-1.3,0.8-2.3,2.1-2.3c1.3,0,2.5,1,2.7,2.3
				C31,21.1,30.1,22.1,28.8,22.1z"/>
			<path class="st35" d="M29,22.1c-1.3,0-2.5-1-2.7-2.3c-0.2-1.3,0.8-2.3,2.1-2.3c1.3,0,2.5,1,2.7,2.3C31.2,21.1,30.3,22.1,29,22.1z
				"/>
			<path class="st36" d="M29.1,22.2c-1.3,0-2.5-1.1-2.7-2.4c-0.2-1.3,0.8-2.4,2.1-2.4c1.3,0,2.5,1.1,2.7,2.4
				C31.4,21.1,30.4,22.2,29.1,22.2L29.1,22.2z"/>
			<path class="st37" d="M29.3,22.2c-1.3,0-2.5-1.1-2.7-2.4c-0.2-1.3,0.8-2.4,2.1-2.4c1.3,0,2.5,1.1,2.7,2.4
				C31.6,21.1,30.6,22.2,29.3,22.2z"/>
			<path class="st38" d="M29.5,22.2c-1.3,0-2.5-1.1-2.7-2.4c-0.2-1.3,0.8-2.4,2.1-2.4c1.3,0,2.5,1.1,2.7,2.4
				C31.8,21.1,30.8,22.2,29.5,22.2z"/>
			<path class="st39" d="M29.7,22.2c-1.3,0-2.5-1.1-2.7-2.4c-0.2-1.3,0.8-2.4,2.1-2.4c1.3,0,2.5,1.1,2.7,2.4
				C31.9,21.1,31,22.2,29.7,22.2z"/>
			<path class="st40" d="M29.9,22.2c-1.3,0-2.5-1.1-2.7-2.4c-0.2-1.3,0.8-2.4,2.1-2.4c1.3,0,2.5,1.1,2.7,2.4
				C32.1,21.1,31.2,22.2,29.9,22.2z"/>
			<path class="st41" d="M30,22.2c-1.3,0-2.5-1.1-2.7-2.4c-0.2-1.3,0.8-2.4,2.1-2.4c1.3,0,2.5,1.1,2.7,2.4
				C32.3,21.1,31.4,22.2,30,22.2z"/>
			<path class="st42" d="M30.2,22.2c-1.3,0-2.5-1.1-2.7-2.4c-0.2-1.3,0.8-2.4,2.1-2.4c1.3,0,2.5,1.1,2.7,2.4
				C32.5,21.1,31.6,22.2,30.2,22.2z"/>
			<path class="st43" d="M30.4,22.2c-1.3,0-2.5-1.1-2.7-2.4c-0.2-1.3,0.8-2.4,2.1-2.4c1.3,0,2.5,1.1,2.7,2.4
				C32.7,21.1,31.7,22.2,30.4,22.2z"/>
			<path class="st44" d="M30.6,22.2c-1.3,0-2.5-1.1-2.7-2.4c-0.2-1.3,0.8-2.4,2.1-2.4c1.3,0,2.5,1.1,2.7,2.4
				C32.9,21.1,31.9,22.2,30.6,22.2L30.6,22.2z"/>
			<path class="st45" d="M30.8,22.2c-1.3,0-2.5-1.1-2.7-2.4c-0.2-1.3,0.8-2.4,2.1-2.4c1.3,0,2.5,1.1,2.7,2.4
				C33.1,21.1,32.1,22.2,30.8,22.2z"/>
			<path class="st46" d="M31,22.2c-1.3,0-2.5-1.1-2.7-2.4c-0.2-1.3,0.8-2.4,2.1-2.4c1.3,0,2.5,1.1,2.7,2.4
				C33.3,21.1,32.3,22.2,31,22.2z"/>
			<path class="st47" d="M31.2,22.2c-1.3,0-2.5-1.1-2.7-2.4c-0.2-1.3,0.8-2.4,2.1-2.4c1.3,0,2.5,1.1,2.7,2.4
				C33.4,21.1,32.5,22.2,31.2,22.2z"/>
			<path class="st48" d="M31.4,22.2c-1.3,0-2.5-1.1-2.7-2.4c-0.2-1.3,0.8-2.4,2.1-2.4c1.3,0,2.5,1.1,2.7,2.4
				C33.6,21.1,32.7,22.2,31.4,22.2L31.4,22.2z"/>
			<path class="st49" d="M31.6,22.2c-1.3,0-2.5-1.1-2.7-2.4c-0.2-1.3,0.8-2.4,2.1-2.4c1.3,0,2.5,1.1,2.7,2.4
				C33.8,21.1,32.9,22.2,31.6,22.2z"/>
			<path class="st50" d="M31.7,22.2c-1.3,0-2.5-1.1-2.7-2.4c-0.2-1.3,0.8-2.4,2.1-2.4c1.3,0,2.5,1.1,2.7,2.4
				C34,21.1,33.1,22.2,31.7,22.2z"/>
			<path class="st51" d="M31.9,22.2c-1.3,0-2.5-1.1-2.7-2.4c-0.2-1.3,0.8-2.4,2.1-2.4c1.3,0,2.5,1.1,2.7,2.4
				C34.2,21.1,33.3,22.2,31.9,22.2z"/>
			<path class="st52" d="M32.1,22.2c-1.3,0-2.5-1.1-2.7-2.4c-0.2-1.3,0.8-2.4,2.1-2.4c1.3,0,2.5,1.1,2.7,2.4
				C34.4,21.1,33.4,22.2,32.1,22.2z"/>
			<path class="st53" d="M32.3,22.2c-1.3,0-2.5-1.1-2.7-2.4c-0.2-1.3,0.8-2.4,2.1-2.4c1.3,0,2.5,1.1,2.7,2.4
				C34.6,21.1,33.6,22.2,32.3,22.2z"/>
			<path class="st54" d="M32.5,22.2c-1.3,0-2.5-1.1-2.7-2.4c-0.2-1.3,0.8-2.4,2.1-2.4c1.3,0,2.5,1.1,2.7,2.4
				C34.8,21.1,33.8,22.2,32.5,22.2z"/>
			<path class="st55" d="M32.7,22.2c-1.3,0-2.5-1.1-2.7-2.4c-0.2-1.3,0.8-2.4,2.1-2.4c1.3,0,2.5,1.1,2.7,2.4
				C35,21.1,34,22.2,32.7,22.2z"/>
		</g>
		<g>
			<path class="st5" d="M20.4,38.4c-1.3,0-2.5-1-2.7-2.3c-0.2-1.3,0.8-2.3,2.1-2.3c1.3,0,2.5,1,2.7,2.3
				C22.6,37.3,21.7,38.4,20.4,38.4L20.4,38.4z"/>
			<path class="st6" d="M20.6,38.4c-1.3,0-2.5-1-2.7-2.3c-0.2-1.3,0.8-2.3,2.1-2.3c1.3,0,2.5,1,2.7,2.3
				C22.8,37.3,21.9,38.4,20.6,38.4z"/>
			<path class="st7" d="M20.8,38.4c-1.3,0-2.5-1-2.7-2.3c-0.2-1.3,0.8-2.3,2.1-2.3s2.5,1,2.7,2.3C23,37.3,22.1,38.4,20.8,38.4z"/>
			<path class="st8" d="M21,38.4c-1.3,0-2.5-1-2.7-2.3c-0.2-1.3,0.8-2.3,2.1-2.3c1.3,0,2.5,1,2.7,2.3C23.2,37.3,22.3,38.4,21,38.4
				L21,38.4z"/>
			<path class="st9" d="M21.1,38.4c-1.3,0-2.5-1.1-2.7-2.4c-0.2-1.3,0.8-2.4,2.1-2.4s2.5,1.1,2.7,2.4C23.3,37.3,22.4,38.4,21.1,38.4
				L21.1,38.4z"/>
			<path class="st10" d="M21.3,38.4c-1.3,0-2.5-1-2.7-2.3c-0.2-1.3,0.8-2.3,2.1-2.3c1.3,0,2.5,1,2.7,2.3
				C23.6,37.3,22.6,38.4,21.3,38.4z"/>
			<path class="st11" d="M21.5,38.4c-1.3,0-2.5-1-2.7-2.3c-0.2-1.3,0.8-2.3,2.1-2.3c1.3,0,2.5,1,2.7,2.3
				C23.8,37.3,22.8,38.4,21.5,38.4z"/>
			<path class="st12" d="M21.7,38.4c-1.3,0-2.5-1-2.7-2.3c-0.2-1.3,0.8-2.3,2.1-2.3c1.3,0,2.5,1,2.7,2.3C24,37.3,23,38.4,21.7,38.4
				L21.7,38.4z"/>
			<path class="st13" d="M21.9,38.4c-1.3,0-2.5-1-2.7-2.3c-0.2-1.3,0.8-2.3,2.1-2.3c1.3,0,2.5,1,2.7,2.3
				C24.1,37.3,23.2,38.4,21.9,38.4z"/>
			<path class="st14" d="M22.1,38.4c-1.3,0-2.5-1-2.7-2.3c-0.2-1.3,0.8-2.3,2.1-2.3c1.3,0,2.5,1,2.7,2.3
				C24.3,37.3,23.4,38.4,22.1,38.4z"/>
			<path class="st15" d="M22.2,38.4c-1.3,0-2.5-1.1-2.7-2.4c-0.2-1.3,0.8-2.4,2.1-2.4c1.3,0,2.5,1.1,2.7,2.4
				C24.5,37.3,23.5,38.4,22.2,38.4z"/>
			<path class="st16" d="M22.5,38.4c-1.3,0-2.5-1-2.7-2.3c-0.2-1.3,0.8-2.3,2.1-2.3c1.3,0,2.5,1,2.7,2.3
				C24.7,37.3,23.8,38.4,22.5,38.4L22.5,38.4z"/>
			<path class="st17" d="M22.6,38.4c-1.3,0-2.5-1-2.7-2.3c-0.2-1.3,0.8-2.3,2.1-2.3c1.3,0,2.5,1,2.7,2.3
				C24.9,37.3,24,38.4,22.6,38.4L22.6,38.4z"/>
			<path class="st18" d="M22.8,38.4c-1.3,0-2.5-1-2.7-2.3c-0.2-1.3,0.8-2.3,2.1-2.3c1.3,0,2.5,1,2.7,2.3
				C25.1,37.3,24.1,38.4,22.8,38.4z"/>
			<path class="st19" d="M23,38.4c-1.3,0-2.5-1-2.7-2.3c-0.2-1.3,0.8-2.3,2.1-2.3c1.3,0,2.5,1,2.7,2.3C25.3,37.3,24.3,38.4,23,38.4z
				"/>
			<path class="st20" d="M23.2,38.4c-1.3,0-2.5-1-2.7-2.3c-0.2-1.3,0.8-2.3,2.1-2.3c1.3,0,2.5,1,2.7,2.3
				C25.5,37.3,24.5,38.4,23.2,38.4z"/>
			<path class="st21" d="M23.4,38.4c-1.3,0-2.5-1-2.7-2.3c-0.2-1.3,0.8-2.3,2.1-2.3c1.3,0,2.5,1,2.7,2.3
				C25.6,37.3,24.7,38.4,23.4,38.4L23.4,38.4z"/>
			<path class="st22" d="M23.6,38.4c-1.3,0-2.5-1-2.7-2.3c-0.2-1.3,0.8-2.3,2.1-2.3c1.3,0,2.5,1,2.7,2.3
				C25.8,37.3,24.9,38.4,23.6,38.4z"/>
			<path class="st23" d="M23.8,38.4c-1.3,0-2.5-1-2.7-2.3c-0.2-1.3,0.8-2.3,2.1-2.3c1.3,0,2.5,1,2.7,2.3
				C26,37.3,25.1,38.4,23.8,38.4z"/>
			<path class="st24" d="M23.9,38.4c-1.3,0-2.5-1-2.7-2.3c-0.2-1.3,0.8-2.3,2.1-2.3c1.3,0,2.5,1,2.7,2.3
				C26.2,37.3,25.3,38.4,23.9,38.4z"/>
			<path class="st25" d="M24.1,38.4c-1.3,0-2.5-1-2.7-2.3c-0.2-1.3,0.8-2.3,2.1-2.3c1.3,0,2.5,1,2.7,2.3
				C26.4,37.3,25.4,38.4,24.1,38.4z"/>
			<path class="st26" d="M24.3,38.4c-1.3,0-2.5-1-2.7-2.3c-0.2-1.3,0.8-2.3,2.1-2.3c1.3,0,2.5,1,2.7,2.3
				C26.6,37.3,25.6,38.4,24.3,38.4z"/>
			<path class="st27" d="M24.5,38.4c-1.3,0-2.5-1-2.7-2.3c-0.2-1.3,0.8-2.3,2.1-2.3s2.5,1,2.7,2.3C26.8,37.3,25.8,38.4,24.5,38.4z"
				/>
			<path class="st28" d="M24.7,38.4c-1.3,0-2.5-1-2.7-2.3c-0.2-1.3,0.8-2.3,2.1-2.3c1.3,0,2.5,1,2.7,2.3
				C26.9,37.3,26,38.4,24.7,38.4z"/>
			<path class="st29" d="M24.9,38.4c-1.3,0-2.5-1-2.7-2.3c-0.2-1.3,0.8-2.3,2.1-2.3c1.3,0,2.5,1,2.7,2.3
				C27.1,37.3,26.2,38.4,24.9,38.4z"/>
			<path class="st30" d="M25.3,38.4c-1.3,0-2.5-1-2.7-2.3c-0.2-1.3,0.8-2.3,2.1-2.3c1.3,0,2.5,1,2.7,2.3
				C27.5,37.3,26.6,38.4,25.3,38.4z"/>
			<path class="st31" d="M25.4,38.4c-1.3,0-2.5-1-2.7-2.3c-0.2-1.3,0.8-2.3,2.1-2.3c1.3,0,2.5,1,2.7,2.3
				C27.7,37.3,26.8,38.4,25.4,38.4z"/>
			<path class="st32" d="M25.6,38.4c-1.3,0-2.5-1-2.7-2.3c-0.2-1.3,0.8-2.3,2.1-2.3c1.3,0,2.5,1,2.7,2.3
				C27.9,37.3,26.9,38.4,25.6,38.4L25.6,38.4z"/>
			<path class="st33" d="M25.8,38.4c-1.3,0-2.5-1-2.7-2.3c-0.2-1.3,0.8-2.3,2.1-2.3c1.3,0,2.5,1,2.7,2.3
				C28.1,37.3,27.1,38.4,25.8,38.4z"/>
			<path class="st34" d="M26,38.4c-1.3,0-2.5-1-2.7-2.3c-0.2-1.3,0.8-2.3,2.1-2.3s2.5,1,2.7,2.3C28.3,37.3,27.3,38.4,26,38.4z"/>
			<path class="st35" d="M26.2,38.4c-1.3,0-2.5-1-2.7-2.3c-0.2-1.3,0.8-2.3,2.1-2.3c1.3,0,2.5,1,2.7,2.3
				C28.4,37.3,27.5,38.4,26.2,38.4z"/>
			<path class="st36" d="M26.3,38.4c-1.3,0-2.5-1.1-2.7-2.4c-0.2-1.3,0.8-2.4,2.1-2.4c1.3,0,2.5,1.1,2.7,2.4
				C28.6,37.3,27.7,38.4,26.3,38.4L26.3,38.4z"/>
			<path class="st37" d="M26.5,38.4c-1.3,0-2.5-1.1-2.7-2.4c-0.2-1.3,0.8-2.4,2.1-2.4c1.3,0,2.5,1.1,2.7,2.4
				C28.8,37.3,27.8,38.4,26.5,38.4z"/>
			<path class="st38" d="M26.7,38.4c-1.3,0-2.5-1.1-2.7-2.4c-0.2-1.3,0.8-2.4,2.1-2.4s2.5,1.1,2.7,2.4C29,37.3,28,38.4,26.7,38.4z"
				/>
			<path class="st39" d="M26.9,38.4c-1.3,0-2.5-1.1-2.7-2.4c-0.2-1.3,0.8-2.4,2.1-2.4c1.3,0,2.5,1.1,2.7,2.4
				C29.2,37.3,28.2,38.4,26.9,38.4z"/>
			<path class="st40" d="M27.1,38.4c-1.3,0-2.5-1.1-2.7-2.4c-0.2-1.3,0.8-2.4,2.1-2.4c1.3,0,2.5,1.1,2.7,2.4
				C29.4,37.3,28.4,38.4,27.1,38.4z"/>
			<path class="st41" d="M27.3,38.4c-1.3,0-2.5-1.1-2.7-2.4c-0.2-1.3,0.8-2.4,2.1-2.4c1.3,0,2.5,1.1,2.7,2.4
				C29.5,37.3,28.6,38.4,27.3,38.4z"/>
			<path class="st42" d="M27.5,38.4c-1.3,0-2.5-1.1-2.7-2.4c-0.2-1.3,0.8-2.4,2.1-2.4c1.3,0,2.5,1.1,2.7,2.4
				C29.7,37.3,28.8,38.4,27.5,38.4z"/>
			<path class="st43" d="M27.6,38.4c-1.3,0-2.5-1.1-2.7-2.4c-0.2-1.3,0.8-2.4,2.1-2.4s2.5,1.1,2.7,2.4C29.9,37.3,29,38.4,27.6,38.4z
				"/>
			<path class="st44" d="M27.8,38.4c-1.3,0-2.5-1.1-2.7-2.4c-0.2-1.3,0.8-2.4,2.1-2.4c1.3,0,2.5,1.1,2.7,2.4
				C30.1,37.3,29.2,38.4,27.8,38.4L27.8,38.4z"/>
			<path class="st45" d="M28,38.4c-1.3,0-2.5-1.1-2.7-2.4c-0.2-1.3,0.8-2.4,2.1-2.4s2.5,1.1,2.7,2.4C30.3,37.3,29.3,38.4,28,38.4z"
				/>
			<path class="st46" d="M28.2,38.4c-1.3,0-2.5-1.1-2.7-2.4c-0.2-1.3,0.8-2.4,2.1-2.4c1.3,0,2.5,1.1,2.7,2.4
				C30.5,37.3,29.5,38.4,28.2,38.4z"/>
			<path class="st47" d="M28.4,38.4c-1.3,0-2.5-1.1-2.7-2.4c-0.2-1.3,0.8-2.4,2.1-2.4s2.5,1.1,2.7,2.4
				C30.7,37.3,29.7,38.4,28.4,38.4z"/>
			<path class="st48" d="M28.6,38.4c-1.3,0-2.5-1.1-2.7-2.4c-0.2-1.3,0.8-2.4,2.1-2.4c1.3,0,2.5,1.1,2.7,2.4
				C30.9,37.3,29.9,38.4,28.6,38.4L28.6,38.4z"/>
			<path class="st49" d="M28.8,38.4c-1.3,0-2.5-1.1-2.7-2.4c-0.2-1.3,0.8-2.4,2.1-2.4s2.5,1.1,2.7,2.4C31,37.3,30.1,38.4,28.8,38.4z
				"/>
			<path class="st50" d="M29,38.4c-1.3,0-2.5-1.1-2.7-2.4c-0.2-1.3,0.8-2.4,2.1-2.4c1.3,0,2.5,1.1,2.7,2.4
				C31.2,37.3,30.3,38.4,29,38.4z"/>
			<path class="st51" d="M29.2,38.4c-1.3,0-2.5-1.1-2.7-2.4c-0.2-1.3,0.8-2.4,2.1-2.4s2.5,1.1,2.7,2.4
				C31.4,37.3,30.5,38.4,29.2,38.4z"/>
			<path class="st52" d="M29.3,38.4c-1.3,0-2.5-1.1-2.7-2.4c-0.2-1.3,0.8-2.4,2.1-2.4c1.3,0,2.5,1.1,2.7,2.4
				C31.6,37.3,30.7,38.4,29.3,38.4z"/>
			<path class="st53" d="M29.5,38.4c-1.3,0-2.5-1.1-2.7-2.4c-0.2-1.3,0.8-2.4,2.1-2.4s2.5,1.1,2.7,2.4
				C31.8,37.3,30.9,38.4,29.5,38.4z"/>
			<path class="st54" d="M29.7,38.4c-1.3,0-2.5-1.1-2.7-2.4c-0.2-1.3,0.8-2.4,2.1-2.4c1.3,0,2.5,1.1,2.7,2.4
				C32,37.3,31,38.4,29.7,38.4z"/>
			<path class="st55" d="M29.9,38.4c-1.3,0-2.5-1.1-2.7-2.4c-0.2-1.3,0.8-2.4,2.1-2.4c1.3,0,2.5,1.1,2.7,2.4
				C32.2,37.3,31.2,38.4,29.9,38.4z"/>
		</g>
		<g>
			<path class="st5" d="M17,30.4c-1.4,0-2.6-1.2-2.7-2.5c-0.1-1.3,0.9-2.4,2.3-2.3c1.4,0,2.6,1.2,2.7,2.5
				C19.5,29.4,18.4,30.5,17,30.4L17,30.4z"/>
			<path class="st6" d="M17.6,30.4c-1.6,0-3-1.1-3.1-2.5c-0.1-1.3,1.1-2.4,2.7-2.4s3,1.1,3.1,2.5C20.4,29.3,19.2,30.4,17.6,30.4z"/>
			<path class="st7" d="M18.1,30.4c-1.7,0-3.1-1.1-3.3-2.5c-0.1-1.3,1.2-2.4,2.8-2.4s3.1,1.1,3.3,2.5C21.1,29.3,19.8,30.4,18.1,30.4
				z"/>
			<path class="st8" d="M18.7,30.3c-1.9,0-3.5-1.1-3.6-2.4c-0.1-1.3,1.3-2.4,3.2-2.4c1.9,0,3.5,1.1,3.6,2.4
				C22.1,29.3,20.6,30.3,18.7,30.3L18.7,30.3z"/>
			<path class="st9" d="M18.9,30.4c-1.9,0-3.5-1.1-3.7-2.5c-0.1-1.4,1.3-2.4,3.2-2.4c1.9,0,3.5,1.1,3.7,2.5
				C22.2,29.3,20.8,30.4,18.9,30.4L18.9,30.4z"/>
			<path class="st10" d="M19.3,30.3c-1.9,0-3.5-1.1-3.6-2.4c-0.1-1.3,1.3-2.4,3.2-2.4c1.9,0,3.5,1.1,3.6,2.4
				C22.6,29.3,21.2,30.3,19.3,30.3z"/>
			<path class="st11" d="M19.5,30.3c-1.9,0-3.5-1.1-3.6-2.4c-0.1-1.3,1.3-2.4,3.2-2.4c1.9,0,3.5,1.1,3.6,2.4
				C22.9,29.3,21.4,30.3,19.5,30.3z"/>
			<path class="st12" d="M19.8,30.3c-1.9,0-3.5-1.1-3.6-2.4c-0.1-1.3,1.3-2.4,3.2-2.4c1.9,0,3.5,1.1,3.6,2.4
				C23.1,29.3,21.7,30.3,19.8,30.3L19.8,30.3z"/>
			<path class="st13" d="M20.1,30.3c-1.9,0-3.5-1.1-3.6-2.4c-0.1-1.3,1.3-2.4,3.2-2.4c1.9,0,3.5,1.1,3.6,2.4
				C23.4,29.3,22,30.3,20.1,30.3z"/>
			<path class="st14" d="M20.3,30.3c-1.9,0-3.5-1.1-3.6-2.4c-0.1-1.3,1.3-2.4,3.2-2.4c1.9,0,3.5,1.1,3.6,2.4
				C23.7,29.3,22.2,30.3,20.3,30.3z"/>
			<path class="st15" d="M20.5,30.4c-1.9,0-3.5-1.1-3.7-2.5c-0.1-1.4,1.3-2.4,3.2-2.4c1.9,0,3.5,1.1,3.7,2.5
				C23.9,29.3,22.4,30.4,20.5,30.4z"/>
			<path class="st16" d="M20.9,30.3c-1.9,0-3.5-1.1-3.6-2.4c-0.1-1.3,1.3-2.4,3.2-2.4c1.9,0,3.5,1.1,3.6,2.4
				C24.2,29.3,22.8,30.3,20.9,30.3L20.9,30.3z"/>
			<path class="st17" d="M21.1,30.3c-1.9,0-3.5-1.1-3.6-2.4c-0.1-1.3,1.3-2.4,3.2-2.4c1.9,0,3.5,1.1,3.6,2.4
				C24.5,29.3,23,30.3,21.1,30.3L21.1,30.3z"/>
			<path class="st18" d="M21.4,30.3c-1.9,0-3.5-1.1-3.6-2.4c-0.1-1.3,1.3-2.4,3.2-2.4c1.9,0,3.5,1.1,3.6,2.4
				C24.7,29.3,23.3,30.3,21.4,30.3z"/>
			<path class="st19" d="M21.7,30.3c-1.9,0-3.5-1.1-3.6-2.4c-0.1-1.3,1.3-2.4,3.2-2.4c1.9,0,3.5,1.1,3.6,2.4
				C25,29.3,23.6,30.4,21.7,30.3z"/>
			<path class="st20" d="M22,30.3c-1.9,0-3.5-1.1-3.6-2.4c-0.1-1.3,1.3-2.4,3.2-2.4s3.5,1.1,3.6,2.4C25.3,29.3,23.8,30.4,22,30.3z"
				/>
			<path class="st21" d="M22.2,30.3c-1.9,0-3.5-1.1-3.6-2.4c-0.1-1.3,1.3-2.4,3.2-2.4c1.9,0,3.5,1.1,3.6,2.4
				C25.6,29.3,24.1,30.4,22.2,30.3L22.2,30.3z"/>
			<path class="st22" d="M22.5,30.3c-1.9,0-3.5-1.1-3.6-2.4c-0.1-1.3,1.3-2.4,3.2-2.4c1.9,0,3.5,1.1,3.6,2.4
				C25.8,29.3,24.4,30.4,22.5,30.3z"/>
			<path class="st23" d="M22.8,30.3c-1.9,0-3.5-1.1-3.6-2.4c-0.1-1.3,1.3-2.4,3.2-2.4c1.9,0,3.5,1.1,3.6,2.4
				C26.1,29.3,24.7,30.4,22.8,30.3z"/>
			<path class="st24" d="M23,30.3c-1.9,0-3.5-1.1-3.6-2.4c-0.1-1.3,1.3-2.4,3.2-2.4c1.9,0,3.5,1.1,3.6,2.4
				C26.4,29.3,24.9,30.4,23,30.3z"/>
			<path class="st25" d="M23.3,30.3c-1.9,0-3.5-1.1-3.6-2.4c-0.1-1.3,1.3-2.4,3.2-2.4c1.9,0,3.5,1.1,3.6,2.4
				C26.6,29.3,25.2,30.4,23.3,30.3z"/>
			<path class="st26" d="M23.6,30.4c-1.9,0-3.5-1.1-3.6-2.4c-0.1-1.3,1.3-2.4,3.2-2.4c1.9,0,3.5,1.1,3.6,2.4
				C26.9,29.3,25.5,30.4,23.6,30.4z"/>
			<path class="st27" d="M23.8,30.4c-1.9,0-3.5-1.1-3.6-2.4c-0.1-1.3,1.3-2.4,3.2-2.4c1.9,0,3.5,1.1,3.6,2.4
				C27.2,29.3,25.7,30.4,23.8,30.4z"/>
			<path class="st28" d="M24.1,30.4c-1.9,0-3.5-1.1-3.6-2.4c-0.1-1.3,1.3-2.4,3.2-2.4c1.9,0,3.5,1.1,3.6,2.4
				C27.4,29.3,26,30.4,24.1,30.4z"/>
			<path class="st29" d="M24.4,30.4c-1.9,0-3.5-1.1-3.6-2.4c-0.1-1.3,1.3-2.4,3.2-2.4c1.9,0,3.5,1.1,3.6,2.4
				C27.7,29.3,26.3,30.4,24.4,30.4z"/>
			<path class="st30" d="M24.9,30.4c-1.9,0-3.5-1.1-3.6-2.4c-0.1-1.3,1.3-2.4,3.2-2.4c1.9,0,3.5,1.1,3.6,2.4
				C28.2,29.3,26.8,30.4,24.9,30.4z"/>
			<path class="st31" d="M25.2,30.4c-1.9,0-3.5-1.1-3.6-2.4c-0.1-1.3,1.3-2.4,3.2-2.4s3.5,1.1,3.6,2.4
				C28.5,29.3,27.1,30.4,25.2,30.4z"/>
			<path class="st32" d="M25.4,30.4c-1.9,0-3.5-1.1-3.6-2.4c-0.1-1.3,1.3-2.4,3.2-2.4c1.9,0,3.5,1.1,3.6,2.4
				C28.8,29.3,27.3,30.4,25.4,30.4L25.4,30.4z"/>
			<path class="st33" d="M25.7,30.4c-1.9,0-3.5-1.1-3.6-2.4c-0.1-1.3,1.3-2.4,3.2-2.4c1.9,0,3.5,1.1,3.6,2.4
				C29,29.3,27.6,30.4,25.7,30.4z"/>
			<path class="st34" d="M26,30.4c-1.9,0-3.5-1.1-3.6-2.4c-0.1-1.3,1.3-2.4,3.2-2.4c1.9,0,3.5,1.1,3.6,2.4
				C29.3,29.3,27.9,30.4,26,30.4z"/>
			<path class="st35" d="M26.3,30.4c-1.9,0-3.5-1.1-3.6-2.4c-0.1-1.3,1.3-2.4,3.2-2.4c1.9,0,3.5,1.1,3.6,2.4
				C29.6,29.3,28.1,30.4,26.3,30.4z"/>
			<path class="st36" d="M26.5,30.4c-1.9,0-3.5-1.1-3.7-2.5c-0.1-1.4,1.3-2.4,3.2-2.4c1.9,0,3.5,1.1,3.7,2.5
				C29.8,29.3,28.4,30.4,26.5,30.4L26.5,30.4z"/>
			<path class="st37" d="M26.7,30.4c-1.9,0-3.5-1.1-3.7-2.5c-0.1-1.4,1.3-2.4,3.2-2.4c1.9,0,3.5,1.1,3.7,2.5
				C30.1,29.3,28.6,30.4,26.7,30.4z"/>
			<path class="st38" d="M27,30.4c-1.9,0-3.5-1.1-3.7-2.5c-0.1-1.4,1.3-2.4,3.2-2.4c1.9,0,3.5,1.1,3.7,2.5
				C30.4,29.3,28.9,30.4,27,30.4z"/>
			<path class="st39" d="M27.3,30.4c-1.9,0-3.5-1.1-3.7-2.5c-0.1-1.4,1.3-2.4,3.2-2.4c1.9,0,3.5,1.1,3.7,2.5
				C30.6,29.3,29.2,30.4,27.3,30.4z"/>
			<path class="st40" d="M27.5,30.4c-1.9,0-3.5-1.1-3.7-2.5c-0.1-1.4,1.3-2.4,3.2-2.4c1.9,0,3.5,1.1,3.7,2.5
				C30.9,29.3,29.4,30.4,27.5,30.4z"/>
			<path class="st41" d="M27.8,30.4c-1.9,0-3.5-1.1-3.7-2.5c-0.1-1.4,1.3-2.4,3.2-2.4c1.9,0,3.5,1.1,3.7,2.5
				C31.2,29.3,29.7,30.4,27.8,30.4z"/>
			<path class="st42" d="M28.1,30.4c-1.9,0-3.5-1.1-3.7-2.5c-0.1-1.4,1.3-2.4,3.2-2.4c1.9,0,3.5,1.1,3.7,2.5
				C31.4,29.3,30,30.4,28.1,30.4z"/>
			<path class="st43" d="M28.4,30.4c-1.9,0-3.5-1.1-3.7-2.5c-0.1-1.4,1.3-2.4,3.2-2.4c1.9,0,3.5,1.1,3.7,2.5
				C31.7,29.3,30.3,30.4,28.4,30.4z"/>
			<path class="st44" d="M28.6,30.4c-1.9,0-3.5-1.1-3.7-2.5c-0.1-1.4,1.3-2.4,3.2-2.4c1.9,0,3.5,1.1,3.7,2.5
				C32,29.3,30.5,30.4,28.6,30.4L28.6,30.4z"/>
			<path class="st45" d="M28.9,30.4c-1.9,0-3.5-1.1-3.7-2.5c-0.1-1.4,1.3-2.4,3.2-2.4c1.9,0,3.5,1.1,3.7,2.5
				C32.3,29.3,30.8,30.4,28.9,30.4z"/>
			<path class="st46" d="M29.2,30.4c-1.9,0-3.5-1.1-3.7-2.5c-0.1-1.4,1.3-2.4,3.2-2.4c1.9,0,3.5,1.1,3.7,2.5
				C32.5,29.3,31.1,30.4,29.2,30.4z"/>
			<path class="st47" d="M29.4,30.4c-1.9,0-3.5-1.1-3.7-2.5c-0.1-1.4,1.3-2.4,3.2-2.4c1.9,0,3.5,1.1,3.7,2.5
				C32.8,29.3,31.3,30.4,29.4,30.4z"/>
			<path class="st48" d="M29.7,30.4c-1.9,0-3.5-1.1-3.7-2.5c-0.1-1.4,1.3-2.4,3.2-2.4c1.9,0,3.5,1.1,3.7,2.5
				C33.1,29.3,31.6,30.4,29.7,30.4L29.7,30.4z"/>
			<path class="st49" d="M30,30.4c-1.9,0-3.5-1.1-3.7-2.5c-0.1-1.4,1.3-2.4,3.2-2.4s3.5,1.1,3.7,2.5C33.3,29.3,31.9,30.4,30,30.4z"
				/>
			<path class="st50" d="M30.2,30.4c-1.9,0-3.5-1.1-3.7-2.5c-0.1-1.4,1.3-2.4,3.2-2.4c1.9,0,3.5,1.1,3.7,2.5
				C33.6,29.3,32.2,30.4,30.2,30.4z"/>
			<path class="st51" d="M30.5,30.4c-1.9,0-3.5-1.1-3.7-2.5c-0.1-1.4,1.3-2.4,3.2-2.4c1.9,0,3.5,1.1,3.7,2.5
				C33.9,29.3,32.4,30.4,30.5,30.4z"/>
			<path class="st52" d="M30.8,30.4c-1.9,0-3.5-1.1-3.7-2.5c-0.1-1.4,1.3-2.4,3.2-2.4s3.5,1.1,3.7,2.5
				C34.1,29.3,32.7,30.4,30.8,30.4z"/>
			<path class="st53" d="M31.1,30.4c-1.9,0-3.5-1.1-3.7-2.5c-0.1-1.4,1.3-2.4,3.2-2.4c1.9,0,3.5,1.1,3.7,2.5
				C34.4,29.3,33,30.4,31.1,30.4z"/>
			<path class="st54" d="M31.3,30.4c-1.9,0-3.5-1.1-3.7-2.5c-0.1-1.4,1.3-2.4,3.2-2.4c1.9,0,3.5,1.1,3.7,2.5
				C34.7,29.3,33.2,30.4,31.3,30.4z"/>
			<path class="st55" d="M31.6,30.4c-1.9,0-3.5-1.1-3.7-2.5c-0.1-1.4,1.3-2.4,3.2-2.4c1.9,0,3.5,1.1,3.7,2.5
				C35,29.3,33.5,30.4,31.6,30.4z"/>
		</g>
		<path class="st5" d="M31.1,19.7c0.7-5.8,5.9-10.4,11.7-10.4c5.8,0,9.8,4.7,9.1,10.4c-0.7,5.8-5.9,10.4-11.7,10.4
			C34.5,30.1,30.4,25.4,31.1,19.7L31.1,19.7z"/>
		<path class="st6" d="M31,20.5c0.7-5.8,5.9-10.4,11.7-10.4c5.8,0,9.8,4.7,9.1,10.4c-0.7,5.8-5.9,10.4-11.7,10.4
			C34.4,30.9,30.3,26.3,31,20.5z"/>
		<path class="st7" d="M30.9,21.3c0.7-5.8,5.9-10.4,11.7-10.4c5.8,0,9.8,4.7,9.1,10.4s-5.9,10.4-11.7,10.4
			C34.3,31.7,30.2,27.1,30.9,21.3z"/>
		<path class="st8" d="M30.8,22.1c0.7-5.8,5.9-10.4,11.7-10.4c5.8,0,9.8,4.7,9.1,10.4C51,27.9,45.7,32.6,40,32.6
			C34.2,32.6,30.1,27.9,30.8,22.1L30.8,22.1z"/>
		<path class="st9" d="M30.7,22.6c0.7-5.8,6-10.5,11.8-10.5c5.8,0,9.9,4.7,9.2,10.5s-6,10.5-11.8,10.5C34.1,33.1,30,28.4,30.7,22.6
			L30.7,22.6z"/>
		<path class="st10" d="M30.6,23.8c0.7-5.8,5.9-10.4,11.7-10.4c5.8,0,9.8,4.7,9.1,10.4s-5.9,10.4-11.7,10.4
			C34,34.2,29.9,29.5,30.6,23.8z"/>
		<path class="st11" d="M30.5,24.6c0.7-5.8,5.9-10.4,11.7-10.4c5.8,0,9.8,4.7,9.1,10.4S45.4,35,39.7,35C33.9,35,29.8,30.3,30.5,24.6
			z"/>
		<path class="st12" d="M30.4,25.4C31.1,19.6,36.4,15,42.1,15c5.8,0,9.8,4.7,9.1,10.4c-0.7,5.8-5.9,10.4-11.7,10.4
			C33.8,35.8,29.7,31.2,30.4,25.4L30.4,25.4z"/>
		<path class="st13" d="M30.3,26.2C31,20.5,36.3,15.8,42,15.8c5.8,0,9.8,4.7,9.1,10.4s-5.9,10.4-11.7,10.4
			C33.7,36.6,29.6,32,30.3,26.2z"/>
		<path class="st14" d="M30.2,27c0.7-5.8,5.9-10.4,11.7-10.4c5.8,0,9.8,4.7,9.1,10.4s-5.9,10.4-11.7,10.4
			C33.6,37.5,29.5,32.8,30.2,27z"/>
		<path class="st15" d="M30.1,27.5c0.7-5.8,6-10.5,11.8-10.5c5.8,0,9.9,4.7,9.2,10.5c-0.7,5.8-6,10.5-11.8,10.5
			C33.5,38,29.4,33.3,30.1,27.5z"/>
		<path class="st16" d="M30,28.7c0.7-5.8,5.9-10.4,11.7-10.4c5.8,0,9.8,4.7,9.1,10.4c-0.7,5.8-5.9,10.4-11.7,10.4
			C33.4,39.1,29.3,34.4,30,28.7L30,28.7z"/>
		<path class="st17" d="M29.9,29.5c0.7-5.8,5.9-10.4,11.7-10.4c5.8,0,9.8,4.7,9.1,10.4c-0.7,5.8-5.9,10.4-11.7,10.4
			C33.3,39.9,29.2,35.2,29.9,29.5L29.9,29.5z"/>
		<path class="st18" d="M29.8,30.3c0.7-5.8,5.9-10.4,11.7-10.4c5.8,0,9.8,4.7,9.1,10.4S44.7,40.7,39,40.7
			C33.2,40.7,29.1,36.1,29.8,30.3z"/>
		<path class="st19" d="M29.7,31.1c0.7-5.8,5.9-10.4,11.7-10.4c5.8,0,9.8,4.7,9.1,10.4s-5.9,10.4-11.7,10.4
			C33.1,41.5,29,36.9,29.7,31.1z"/>
		<path class="st20" d="M29.6,31.9c0.7-5.8,5.9-10.4,11.7-10.4c5.8,0,9.8,4.7,9.1,10.4c-0.7,5.8-5.9,10.4-11.7,10.4
			C33,42.4,28.9,37.7,29.6,31.9z"/>
		<path class="st21" d="M29.5,32.8c0.7-5.8,5.9-10.4,11.7-10.4c5.8,0,9.8,4.7,9.1,10.4c-0.7,5.8-5.9,10.4-11.7,10.4
			C32.9,43.2,28.8,38.5,29.5,32.8L29.5,32.8z"/>
		<path class="st22" d="M29.4,33.6c0.7-5.8,5.9-10.4,11.7-10.4c5.8,0,9.8,4.7,9.1,10.4S44.3,44,38.6,44C32.8,44,28.7,39.3,29.4,33.6
			z"/>
		<path class="st23" d="M29.3,34.4C30,28.6,35.3,24,41,24c5.8,0,9.8,4.7,9.1,10.4c-0.7,5.8-5.9,10.4-11.7,10.4
			C32.7,44.8,28.6,40.1,29.3,34.4z"/>
		<path class="st24" d="M29.2,35.2c0.7-5.8,5.9-10.4,11.7-10.4c5.8,0,9.8,4.7,9.1,10.4c-0.7,5.8-5.9,10.4-11.7,10.4
			C32.6,45.6,28.5,41,29.2,35.2z"/>
		<path class="st25" d="M29.1,36c0.7-5.8,5.9-10.4,11.7-10.4c5.8,0,9.8,4.7,9.1,10.4c-0.7,5.8-5.9,10.4-11.7,10.4
			C32.5,46.4,28.4,41.8,29.1,36z"/>
		<path class="st26" d="M29,36.8c0.7-5.8,5.9-10.4,11.7-10.4c5.8,0,9.8,4.7,9.1,10.4c-0.7,5.8-5.9,10.4-11.7,10.4
			C32.4,47.3,28.3,42.6,29,36.8z"/>
		<path class="st27" d="M28.9,37.7c0.7-5.8,5.9-10.4,11.7-10.4c5.8,0,9.8,4.7,9.1,10.4c-0.7,5.8-5.9,10.4-11.7,10.4
			C32.3,48.1,28.2,43.4,28.9,37.7z"/>
		<path class="st28" d="M28.8,38.5c0.7-5.8,5.9-10.4,11.7-10.4c5.8,0,9.8,4.7,9.1,10.4C49,44.2,43.7,48.9,38,48.9
			C32.2,48.9,28.1,44.2,28.8,38.5z"/>
		<path class="st29" d="M28.7,39.3c0.7-5.8,5.9-10.4,11.7-10.4c5.8,0,9.8,4.7,9.1,10.4c-0.7,5.8-5.9,10.4-11.7,10.4
			C32.1,49.7,28,45,28.7,39.3z"/>
		<path class="st56" d="M28.6,40.1c0.7-5.8,5.9-10.4,11.7-10.4c5.8,0,9.8,4.7,9.1,10.4c-0.7,5.8-5.9,10.4-11.7,10.4
			C32,50.5,27.9,45.9,28.6,40.1z"/>
		<path class="st30" d="M28.5,40.9c0.7-5.8,5.9-10.4,11.7-10.4c5.8,0,9.8,4.7,9.1,10.4c-0.7,5.8-5.9,10.4-11.7,10.4
			C31.9,51.3,27.8,46.7,28.5,40.9z"/>
		<path class="st31" d="M28.4,41.7c0.7-5.8,5.9-10.4,11.7-10.4c5.8,0,9.8,4.7,9.1,10.4c-0.7,5.8-5.9,10.4-11.7,10.4
			C31.8,52.2,27.7,47.5,28.4,41.7z"/>
		<path class="st32" d="M28.3,42.6C29,36.8,34.3,32.1,40,32.1c5.8,0,9.8,4.7,9.1,10.4C48.5,48.3,43.2,53,37.5,53
			C31.7,53,27.6,48.3,28.3,42.6L28.3,42.6z"/>
		<path class="st33" d="M28.2,43.4C28.9,37.6,34.2,33,39.9,33c5.8,0,9.8,4.7,9.1,10.4c-0.7,5.8-5.9,10.4-11.7,10.4
			C31.6,53.8,27.5,49.1,28.2,43.4z"/>
		<path class="st34" d="M28.1,44.2c0.7-5.8,5.9-10.4,11.7-10.4c5.8,0,9.8,4.7,9.1,10.4c-0.7,5.8-5.9,10.4-11.7,10.4
			C31.5,54.6,27.4,49.9,28.1,44.2z"/>
		<path class="st35" d="M28,45c0.7-5.8,5.9-10.4,11.7-10.4c5.8,0,9.8,4.7,9.1,10.4s-5.9,10.4-11.7,10.4C31.4,55.4,27.3,50.8,28,45z"
			/>
		<path class="st36" d="M27.8,45.6c0.7-5.8,6-10.5,11.8-10.5c5.8,0,9.9,4.7,9.2,10.5c-0.7,5.8-6,10.5-11.8,10.5
			C31.3,56.1,27.1,51.4,27.8,45.6L27.8,45.6z"/>
		<path class="st37" d="M27.7,46.5c0.7-5.8,6-10.5,11.8-10.5c5.8,0,9.9,4.7,9.2,10.5S42.7,57,36.9,57C31.1,57,27,52.3,27.7,46.5z"/>
		<path class="st38" d="M27.6,47.3c0.7-5.8,6-10.5,11.8-10.5c5.8,0,9.9,4.7,9.2,10.5s-6,10.5-11.8,10.5C31,57.8,26.9,53.1,27.6,47.3
			z"/>
		<path class="st39" d="M27.5,48.1c0.7-5.8,6-10.5,11.8-10.5c5.8,0,9.9,4.7,9.2,10.5s-6,10.5-11.8,10.5
			C30.9,58.6,26.8,53.9,27.5,48.1z"/>
		<path class="st40" d="M27.4,48.9c0.7-5.8,6-10.5,11.8-10.5c5.8,0,9.9,4.7,9.2,10.5c-0.7,5.8-6,10.5-11.8,10.5
			C30.8,59.4,26.7,54.7,27.4,48.9z"/>
		<path class="st41" d="M27.3,49.7c0.7-5.8,6-10.5,11.8-10.5c5.8,0,9.9,4.7,9.2,10.5s-6,10.5-11.8,10.5
			C30.7,60.2,26.6,55.5,27.3,49.7z"/>
		<path class="st42" d="M27.2,50.6c0.7-5.8,6-10.5,11.8-10.5c5.8,0,9.9,4.7,9.2,10.5c-0.7,5.8-6,10.5-11.8,10.5
			C30.6,61.1,26.5,56.4,27.2,50.6z"/>
		<path class="st43" d="M27.1,51.4c0.7-5.8,6-10.5,11.8-10.5c5.8,0,9.9,4.7,9.2,10.5c-0.7,5.8-6,10.5-11.8,10.5
			C30.5,61.9,26.4,57.2,27.1,51.4z"/>
		<path class="st44" d="M27,52.2c0.7-5.8,6-10.5,11.8-10.5c5.8,0,9.9,4.7,9.2,10.5s-6,10.5-11.8,10.5C30.4,62.7,26.3,58,27,52.2
			L27,52.2z"/>
		<path class="st45" d="M26.9,53c0.7-5.8,6-10.5,11.8-10.5c5.8,0,9.9,4.7,9.2,10.5c-0.7,5.8-6,10.5-11.8,10.5
			C30.3,63.5,26.2,58.8,26.9,53z"/>
		<path class="st46" d="M26.8,53.9c0.7-5.8,6-10.5,11.8-10.5c5.8,0,9.9,4.7,9.2,10.5s-6,10.5-11.8,10.5
			C30.2,64.4,26.1,59.7,26.8,53.9z"/>
		<path class="st47" d="M26.7,54.7c0.7-5.8,6-10.5,11.8-10.5c5.8,0,9.9,4.7,9.2,10.5s-6,10.5-11.8,10.5C30.1,65.2,26,60.5,26.7,54.7
			z"/>
		<path class="st48" d="M26.6,55.5c0.7-5.8,6-10.5,11.8-10.5c5.8,0,9.9,4.7,9.2,10.5S41.6,66,35.8,66C30,66,25.9,61.3,26.6,55.5
			L26.6,55.5z"/>
		<path class="st49" d="M26.5,56.3c0.7-5.8,6-10.5,11.8-10.5c5.8,0,9.9,4.7,9.2,10.5s-6,10.5-11.8,10.5
			C29.9,66.8,25.8,62.1,26.5,56.3z"/>
		<path class="st50" d="M26.4,57.2c0.7-5.8,6-10.5,11.8-10.5c5.8,0,9.9,4.7,9.2,10.5s-6,10.5-11.8,10.5C29.8,67.7,25.7,63,26.4,57.2
			z"/>
		<path class="st51" d="M26.3,58c0.7-5.8,6-10.5,11.8-10.5c5.8,0,9.9,4.7,9.2,10.5c-0.7,5.8-6,10.5-11.8,10.5
			C29.7,68.5,25.6,63.8,26.3,58z"/>
		<path class="st52" d="M26.2,58.8c0.7-5.8,6-10.5,11.8-10.5c5.8,0,9.9,4.7,9.2,10.5s-6,10.5-11.8,10.5
			C29.6,69.3,25.5,64.6,26.2,58.8z"/>
		<path class="st53" d="M26.1,59.6c0.7-5.8,6-10.5,11.8-10.5c5.8,0,9.9,4.7,9.2,10.5c-0.7,5.8-6,10.5-11.8,10.5
			C29.5,70.1,25.4,65.4,26.1,59.6z"/>
		<path class="st54" d="M26,60.5C26.7,54.7,32,50,37.8,50c5.8,0,9.9,4.7,9.2,10.5C46.3,66.3,41,71,35.2,71
			C29.4,71,25.3,66.3,26,60.5z"/>
		<path class="st57" d="M59.8,40.5c0.7-5.8,5.9-10.4,11.7-10.4c5.8,0,9.8,4.7,9.1,10.4S74.7,50.9,69,50.9
			C63.2,50.9,59.1,46.3,59.8,40.5z"/>
		<ellipse transform="matrix(0.7284 -0.6851 0.6851 0.7284 -9.0085 58.3099)" class="st58" cx="69" cy="40.5" rx="11.1" ry="9.8"/>
		<ellipse transform="matrix(0.7284 -0.6851 0.6851 0.7284 -9.335 57.4861)" class="st59" cx="67.8" cy="40.5" rx="11.1" ry="9.8"/>
		
			<ellipse transform="matrix(0.7284 -0.6851 0.6851 0.7284 -9.6616 56.6624)" class="st60" cx="66.6" cy="40.5" rx="11.1" ry="9.8"/>
		
			<ellipse transform="matrix(0.7284 -0.6851 0.6851 0.7284 -9.9878 55.8393)" class="st61" cx="65.4" cy="40.5" rx="11.1" ry="9.8"/>
		
			<ellipse transform="matrix(0.7284 -0.6851 0.6851 0.7284 -10.3143 55.0155)" class="st62" cx="64.2" cy="40.5" rx="11.1" ry="9.8"/>
		<ellipse transform="matrix(0.7284 -0.6851 0.6851 0.7284 -10.6408 54.1918)" class="st63" cx="63" cy="40.5" rx="11.1" ry="9.8"/>
		<path class="st64" d="M51.4,40.5c0.7-5.8,5.9-10.4,11.7-10.4c5.8,0,9.8,4.7,9.1,10.4c-0.7,5.8-5.9,10.4-11.7,10.4
			C54.8,50.9,50.7,46.3,51.4,40.5z"/>
		<path class="st65" d="M50.2,40.5c0.7-5.8,5.9-10.4,11.7-10.4c5.8,0,9.8,4.7,9.1,10.4c-0.7,5.8-5.9,10.4-11.7,10.4
			C53.6,50.9,49.5,46.3,50.2,40.5z"/>
		
			<ellipse transform="matrix(0.7284 -0.6851 0.6851 0.7284 -11.6204 51.7204)" class="st66" cx="59.4" cy="40.5" rx="11.1" ry="9.8"/>
		<path class="st67" d="M47.8,40.5c0.7-5.8,5.9-10.4,11.7-10.4c5.8,0,9.8,4.7,9.1,10.4S62.7,50.9,57,50.9
			C51.2,50.9,47.1,46.3,47.8,40.5z"/>
		<path class="st68" d="M46.6,40.5c0.7-5.8,5.9-10.4,11.7-10.4c5.8,0,9.8,4.7,9.1,10.4c-0.7,5.8-5.9,10.4-11.7,10.4
			C50,50.9,45.9,46.3,46.6,40.5z"/>
		
			<ellipse transform="matrix(0.7284 -0.6851 0.6851 0.7284 -12.5997 49.2498)" class="st69" cx="55.8" cy="40.5" rx="11.1" ry="9.8"/>
		
			<ellipse transform="matrix(0.7284 -0.6851 0.6851 0.7284 -12.9262 48.4261)" class="st70" cx="54.6" cy="40.5" rx="11.1" ry="9.8"/>
		
			<ellipse transform="matrix(0.7284 -0.6851 0.6851 0.7284 -13.2528 47.6023)" class="st71" cx="53.4" cy="40.5" rx="11.1" ry="9.8"/>
		<path class="st72" d="M41.8,40.5c0.7-5.8,5.9-10.4,11.7-10.4c5.8,0,9.8,4.7,9.1,10.4c-0.7,5.8-5.9,10.4-11.7,10.4
			C45.2,50.9,41.1,46.3,41.8,40.5z"/>
		<path class="st73" d="M40.6,40.5c0.7-5.8,5.9-10.4,11.7-10.4c5.8,0,9.8,4.7,9.1,10.4s-5.9,10.4-11.7,10.4
			C44,50.9,39.9,46.3,40.6,40.5z"/>
		
			<ellipse transform="matrix(0.7284 -0.6851 0.6851 0.7284 -14.232 45.1317)" class="st74" cx="49.8" cy="40.5" rx="11.1" ry="9.8"/>
		<path class="st75" d="M38.2,40.5c0.7-5.8,5.9-10.4,11.7-10.4c5.8,0,9.8,4.7,9.1,10.4s-5.9,10.4-11.7,10.4
			C41.6,50.9,37.5,46.3,38.2,40.5z"/>
		<path class="st76" d="M37,40.5c0.7-5.8,5.9-10.4,11.7-10.4c5.8,0,9.8,4.7,9.1,10.4s-5.9,10.4-11.7,10.4
			C40.4,50.9,36.3,46.3,37,40.5z"/>
		
			<ellipse transform="matrix(0.7284 -0.6851 0.6851 0.7284 -15.2116 42.6604)" class="st77" cx="46.2" cy="40.5" rx="11.1" ry="9.8"/>
		<ellipse transform="matrix(0.7284 -0.6851 0.6851 0.7284 -15.5381 41.8366)" class="st78" cx="45" cy="40.5" rx="11.1" ry="9.8"/>
		
			<ellipse transform="matrix(0.7284 -0.6851 0.6851 0.7284 -15.8647 41.0129)" class="st79" cx="43.8" cy="40.5" rx="11.1" ry="9.8"/>
		<path class="st80" d="M32.2,40.5c0.7-5.8,5.9-10.4,11.7-10.4c5.8,0,9.8,4.7,9.1,10.4c-0.7,5.8-5.9,10.4-11.7,10.4
			C35.6,50.9,31.5,46.3,32.2,40.5z"/>
		
			<ellipse transform="matrix(0.7284 -0.6851 0.6851 0.7284 -16.5174 39.366)" class="st81" cx="41.4" cy="40.5" rx="11.1" ry="9.8"/>
		
			<ellipse transform="matrix(0.7284 -0.6851 0.6851 0.7284 -16.8439 38.5423)" class="st82" cx="40.2" cy="40.5" rx="11.1" ry="9.8"/>
		<path class="st83" d="M28.6,40.5c0.7-5.8,5.9-10.4,11.7-10.4c5.8,0,9.8,4.7,9.1,10.4c-0.7,5.8-5.9,10.4-11.7,10.4
			C32,50.9,27.9,46.3,28.6,40.5z"/>
		<path class="st84" d="M62.4,19.7c0.7-5.8,5.9-10.4,11.7-10.4c5.8,0,9.8,4.7,9.1,10.4c-0.7,5.8-5.9,10.4-11.7,10.4
			C65.8,30.1,61.7,25.4,62.4,19.7L62.4,19.7z"/>
		<path class="st85" d="M62.3,20.5C63,14.7,68.2,10.1,74,10.1c5.8,0,9.8,4.7,9.1,10.4s-5.9,10.4-11.7,10.4
			C65.7,30.9,61.6,26.3,62.3,20.5z"/>
		<path class="st86" d="M62.2,21.3c0.7-5.8,5.9-10.4,11.7-10.4c5.8,0,9.8,4.7,9.1,10.4c-0.7,5.8-5.9,10.4-11.7,10.4
			C65.6,31.7,61.5,27.1,62.2,21.3z"/>
		<path class="st87" d="M62.1,22.1c0.7-5.8,5.9-10.4,11.7-10.4c5.8,0,9.8,4.7,9.1,10.4c-0.7,5.8-5.9,10.4-11.7,10.4
			C65.5,32.6,61.4,27.9,62.1,22.1L62.1,22.1z"/>
		<path class="st88" d="M62,22.9c0.7-5.8,5.9-10.4,11.7-10.4c5.8,0,9.8,4.7,9.1,10.4s-5.9,10.4-11.7,10.4
			C65.4,33.4,61.3,28.7,62,22.9L62,22.9z"/>
		<path class="st89" d="M61.9,23.8c0.7-5.8,5.9-10.4,11.7-10.4c5.8,0,9.8,4.7,9.1,10.4C82,29.5,76.8,34.2,71,34.2
			C65.3,34.2,61.2,29.5,61.9,23.8z"/>
		<path class="st90" d="M61.8,24.6c0.7-5.8,5.9-10.4,11.7-10.4c5.8,0,9.8,4.7,9.1,10.4C81.9,30.3,76.7,35,70.9,35
			C65.2,35,61.1,30.3,61.8,24.6z"/>
		<path class="st91" d="M61.7,25.4C62.4,19.6,67.6,15,73.4,15c5.8,0,9.8,4.7,9.1,10.4c-0.7,5.8-5.9,10.4-11.7,10.4
			C65.1,35.8,61,31.2,61.7,25.4L61.7,25.4z"/>
		<path class="st92" d="M61.6,26.2c0.7-5.8,5.9-10.4,11.7-10.4c5.8,0,9.8,4.7,9.1,10.4c-0.7,5.8-5.9,10.4-11.7,10.4
			C65,36.6,60.9,32,61.6,26.2z"/>
		<path class="st93" d="M61.5,27c0.7-5.8,5.9-10.4,11.7-10.4c5.8,0,9.8,4.7,9.1,10.4c-0.7,5.8-5.9,10.4-11.7,10.4
			C64.9,37.5,60.8,32.8,61.5,27z"/>
		<path class="st94" d="M61.4,27.9c0.7-5.8,5.9-10.4,11.7-10.4c5.8,0,9.8,4.7,9.1,10.4c-0.7,5.8-5.9,10.4-11.7,10.4
			C64.8,38.3,60.7,33.6,61.4,27.9z"/>
		<path class="st95" d="M61.3,28.7C62,22.9,67.2,18.2,73,18.2c5.8,0,9.8,4.7,9.1,10.4c-0.7,5.8-5.9,10.4-11.7,10.4
			C64.7,39.1,60.6,34.4,61.3,28.7L61.3,28.7z"/>
		<path class="st96" d="M61.2,29.5c0.7-5.8,5.9-10.4,11.7-10.4c5.8,0,9.8,4.7,9.1,10.4c-0.7,5.8-5.9,10.4-11.7,10.4
			C64.6,39.9,60.5,35.2,61.2,29.5L61.2,29.5z"/>
		<path class="st97" d="M61.1,30.3c0.7-5.8,5.9-10.4,11.7-10.4c5.8,0,9.8,4.7,9.1,10.4c-0.7,5.8-5.9,10.4-11.7,10.4
			C64.5,40.7,60.4,36.1,61.1,30.3z"/>
		<path class="st98" d="M61,31.1c0.7-5.8,5.9-10.4,11.7-10.4c5.8,0,9.8,4.7,9.1,10.4c-0.7,5.8-5.9,10.4-11.7,10.4
			C64.4,41.5,60.3,36.9,61,31.1z"/>
		<path class="st99" d="M60.9,31.9c0.7-5.8,5.9-10.4,11.7-10.4c5.8,0,9.8,4.7,9.1,10.4S75.8,42.4,70,42.4
			C64.3,42.4,60.2,37.7,60.9,31.9z"/>
		<path class="st100" d="M60.8,32.8c0.7-5.8,5.9-10.4,11.7-10.4c5.8,0,9.8,4.7,9.1,10.4c-0.7,5.8-5.9,10.4-11.7,10.4
			C64.2,43.2,60.1,38.5,60.8,32.8L60.8,32.8z"/>
		<path class="st101" d="M60.7,33.6c0.7-5.8,5.9-10.4,11.7-10.4c5.8,0,9.8,4.7,9.1,10.4C80.8,39.3,75.6,44,69.8,44
			C64.1,44,60,39.3,60.7,33.6z"/>
		<path class="st102" d="M60.6,34.4C61.3,28.6,66.5,24,72.3,24c5.8,0,9.8,4.7,9.1,10.4s-5.9,10.4-11.7,10.4
			C64,44.8,59.9,40.1,60.6,34.4z"/>
		<path class="st103" d="M60.5,35.2c0.7-5.8,5.9-10.4,11.7-10.4c5.8,0,9.8,4.7,9.1,10.4c-0.7,5.8-5.9,10.4-11.7,10.4
			C63.9,45.6,59.8,41,60.5,35.2z"/>
		<path class="st104" d="M60.4,36c0.7-5.8,5.9-10.4,11.7-10.4c5.8,0,9.8,4.7,9.1,10.4c-0.7,5.8-5.9,10.4-11.7,10.4
			C63.8,46.4,59.7,41.8,60.4,36z"/>
		<path class="st105" d="M60.3,36.8C61,31.1,66.2,26.4,72,26.4c5.8,0,9.8,4.7,9.1,10.4s-5.9,10.4-11.7,10.4
			C63.7,47.3,59.6,42.6,60.3,36.8z"/>
		<path class="st106" d="M60.2,37.7c0.7-5.8,5.9-10.4,11.7-10.4c5.8,0,9.8,4.7,9.1,10.4c-0.7,5.8-5.9,10.4-11.7,10.4
			C63.6,48.1,59.5,43.4,60.2,37.7z"/>
		<path class="st107" d="M60.1,38.5c0.7-5.8,5.9-10.4,11.7-10.4c5.8,0,9.8,4.7,9.1,10.4S75,48.9,69.2,48.9
			C63.5,48.9,59.4,44.2,60.1,38.5z"/>
		<path class="st108" d="M60,39.3c0.7-5.8,5.9-10.4,11.7-10.4c5.8,0,9.8,4.7,9.1,10.4c-0.7,5.8-5.9,10.4-11.7,10.4
			C63.4,49.7,59.3,45,60,39.3z"/>
		<path class="st109" d="M59.9,40.1c0.7-5.8,5.9-10.4,11.7-10.4c5.8,0,9.8,4.7,9.1,10.4C80,45.9,74.8,50.5,69,50.5
			C63.3,50.5,59.2,45.9,59.9,40.1z"/>
		<path class="st110" d="M59.8,40.9c0.7-5.8,5.9-10.4,11.7-10.4c5.8,0,9.8,4.7,9.1,10.4s-5.9,10.4-11.7,10.4
			C63.2,51.3,59.1,46.7,59.8,40.9z"/>
		<path class="st111" d="M59.7,41.7c0.7-5.8,5.9-10.4,11.7-10.4c5.8,0,9.8,4.7,9.1,10.4c-0.7,5.8-5.9,10.4-11.7,10.4
			C63.1,52.2,59,47.5,59.7,41.7z"/>
		<path class="st112" d="M59.6,42.6c0.7-5.8,5.9-10.4,11.7-10.4c5.8,0,9.8,4.7,9.1,10.4C79.7,48.3,74.5,53,68.7,53
			C63,53,58.9,48.3,59.6,42.6L59.6,42.6z"/>
		<path class="st113" d="M59.5,43.4C60.2,37.6,65.4,33,71.2,33c5.8,0,9.8,4.7,9.1,10.4s-5.9,10.4-11.7,10.4
			C62.9,53.8,58.8,49.1,59.5,43.4z"/>
		<path class="st114" d="M59.4,44.2c0.7-5.8,5.9-10.4,11.7-10.4c5.8,0,9.8,4.7,9.1,10.4c-0.7,5.8-5.9,10.4-11.7,10.4
			C62.8,54.6,58.7,49.9,59.4,44.2z"/>
		<path class="st115" d="M59.3,45C60,39.3,65.2,34.6,71,34.6c5.8,0,9.8,4.7,9.1,10.4c-0.7,5.8-5.9,10.4-11.7,10.4
			C62.7,55.4,58.6,50.8,59.3,45z"/>
		<path class="st116" d="M59.2,45.8c0.7-5.8,5.9-10.4,11.7-10.4c5.8,0,9.8,4.7,9.1,10.4c-0.7,5.8-5.9,10.4-11.7,10.4
			C62.6,56.2,58.5,51.6,59.2,45.8L59.2,45.8z"/>
		<path class="st117" d="M59.1,46.6c0.7-5.8,5.9-10.4,11.7-10.4c5.8,0,9.8,4.7,9.1,10.4c-0.7,5.8-5.9,10.4-11.7,10.4
			C62.5,57.1,58.4,52.4,59.1,46.6z"/>
		<path class="st118" d="M59,47.5C59.7,41.7,64.9,37,70.7,37c5.8,0,9.8,4.7,9.1,10.4c-0.7,5.8-5.9,10.4-11.7,10.4
			C62.4,57.9,58.3,53.2,59,47.5z"/>
		<path class="st119" d="M58.9,48.3c0.7-5.8,5.9-10.4,11.7-10.4c5.8,0,9.8,4.7,9.1,10.4C79,54,73.8,58.7,68,58.7
			C62.3,58.7,58.2,54,58.9,48.3z"/>
		<path class="st120" d="M58.8,49.1c0.7-5.8,5.9-10.4,11.7-10.4c5.8,0,9.8,4.7,9.1,10.4c-0.7,5.8-5.9,10.4-11.7,10.4
			C62.2,59.5,58.1,54.9,58.8,49.1z"/>
		<path class="st121" d="M58.7,49.9c0.7-5.8,5.9-10.4,11.7-10.4c5.8,0,9.8,4.7,9.1,10.4c-0.7,5.8-5.9,10.4-11.7,10.4
			C62.1,60.3,58,55.7,58.7,49.9z"/>
		<path class="st122" d="M58.6,50.7c0.7-5.8,5.9-10.4,11.7-10.4c5.8,0,9.8,4.7,9.1,10.4c-0.7,5.8-5.9,10.4-11.7,10.4
			C62,61.2,57.9,56.5,58.6,50.7z"/>
		<path class="st123" d="M58.5,51.6c0.7-5.8,5.9-10.4,11.7-10.4c5.8,0,9.8,4.7,9.1,10.4C78.6,57.3,73.4,62,67.6,62
			C61.9,62,57.8,57.3,58.5,51.6z"/>
		<path class="st124" d="M58.4,52.4c0.7-5.8,5.9-10.4,11.7-10.4c5.8,0,9.8,4.7,9.1,10.4s-5.9,10.4-11.7,10.4
			C61.8,62.8,57.7,58.1,58.4,52.4L58.4,52.4z"/>
		<path class="st125" d="M58.3,53.2C59,47.4,64.2,42.8,70,42.8c5.8,0,9.8,4.7,9.1,10.4c-0.7,5.8-5.9,10.4-11.7,10.4
			C61.7,63.6,57.6,58.9,58.3,53.2z"/>
		<path class="st126" d="M58.2,54c0.7-5.8,5.9-10.4,11.7-10.4c5.8,0,9.8,4.7,9.1,10.4c-0.7,5.8-5.9,10.4-11.7,10.4
			C61.6,64.4,57.5,59.8,58.2,54z"/>
		<path class="st127" d="M58.1,54.8c0.7-5.8,5.9-10.4,11.7-10.4c5.8,0,9.8,4.7,9.1,10.4c-0.7,5.8-5.9,10.4-11.7,10.4
			C61.5,65.2,57.4,60.6,58.1,54.8z"/>
		<path class="st128" d="M58,55.6c0.7-5.8,5.9-10.4,11.7-10.4c5.8,0,9.8,4.7,9.1,10.4c-0.7,5.8-5.9,10.4-11.7,10.4
			C61.4,66.1,57.3,61.4,58,55.6L58,55.6z"/>
		<path class="st129" d="M57.9,56.5C58.6,50.7,63.8,46,69.6,46c5.8,0,9.8,4.7,9.1,10.4C78,62.2,72.8,66.9,67,66.9
			C61.3,66.9,57.2,62.2,57.9,56.5z"/>
		<path class="st130" d="M57.8,57.3c0.7-5.8,5.9-10.4,11.7-10.4c5.8,0,9.8,4.7,9.1,10.4c-0.7,5.8-5.9,10.4-11.7,10.4
			C61.2,67.7,57.1,63,57.8,57.3z"/>
		<path class="st131" d="M57.7,58.1c0.7-5.8,5.9-10.4,11.7-10.4c5.8,0,9.8,4.7,9.1,10.4c-0.7,5.8-5.9,10.4-11.7,10.4
			C61.1,68.5,57,63.8,57.7,58.1z"/>
		<path class="st132" d="M57.6,58.9c0.7-5.8,5.9-10.4,11.7-10.4c5.8,0,9.8,4.7,9.1,10.4s-5.9,10.4-11.7,10.4
			C61,69.3,56.9,64.7,57.6,58.9z"/>
		<path class="st133" d="M57.5,59.7c0.7-5.8,5.9-10.4,11.7-10.4c5.8,0,9.8,4.7,9.1,10.4c-0.7,5.8-5.9,10.4-11.7,10.4
			C60.9,70.1,56.8,65.5,57.5,59.7z"/>
		<path class="st134" d="M57.4,60.5c0.7-5.8,5.9-10.4,11.7-10.4c5.8,0,9.8,4.7,9.1,10.4C77.5,66.3,72.3,71,66.5,71
			C60.8,71,56.7,66.3,57.4,60.5z"/>
	</g>
</g>
</svg>
