<?xml version="1.0" encoding="utf-8"?>
<!-- Generator: Adobe Illustrator 23.0.1, SVG Export Plug-In . SVG Version: 6.00 Build 0)  -->
<svg version="1.1" id="Layer_1" xmlns="http://www.w3.org/2000/svg" xmlns:xlink="http://www.w3.org/1999/xlink" x="0px" y="0px"
	 viewBox="0 0 234.2 264.3" style="enable-background:new 0 0 234.2 264.3;" xml:space="preserve">
<style type="text/css">
	.st0{fill:#808080;}
	.st1{fill:#FFFFFF;}
	.st2{filter:url(#Adobe_OpacityMaskFilter);}
	.st3{clip-path:url(#SVGID_2_);fill:#FFFFFF;}
	.st4{clip-path:url(#SVGID_2_);mask:url(#SVGID_3_);}
	.st5{opacity:0.3;}
	.st6{fill:#40B8A8;}
	.st7{opacity:0.2;}
	.st8{fill:none;stroke:#7DACBC;stroke-width:1.0295;stroke-linecap:round;stroke-linejoin:round;stroke-miterlimit:10;}
	.st9{fill:#EFEC7F;}
	.st10{fill:#7DACBC;}
	.st11{fill:#B0DEEA;}
	.st12{fill:#FF9700;}
	.st13{fill:#FFBF40;}
	.st14{fill:#C97224;}
	.st15{fill:#D87B00;}
	.st16{fill:#053041;}
	.st17{fill:#D6AE85;}
	.st18{fill:#C69A71;}
	.st19{fill:#664444;}
	.st20{fill:#AF550B;}
	.st21{fill:#FF8D8D;}
</style>
<title>catgoria</title>
<rect x="-0.4" y="-0.4" class="st0" width="234.8" height="265"/>
<g>
	<g>
		<path class="st1" d="M51,233.1h-4.9v-17.7h6.6l2.4,8.8c0,0.1,0.1,0.4,0.2,0.8s0.2,1,0.4,1.8c0.1-0.6,0.2-1.1,0.3-1.6
			c0.1-0.4,0.2-0.8,0.2-1l2.4-8.8h6.6v17.7h-4.9l0-8.7c0-0.5,0-1,0-1.5c0-0.5,0-1,0-1.6c-0.2,0.9-0.4,1.9-0.7,3l0,0.2l-2.1,8.6h-3.8
			l-2.1-8.5c-0.1-0.4-0.2-0.8-0.3-1.3c-0.1-0.5-0.2-1.2-0.4-2c0,0.8,0,1.4,0.1,2c0,0.5,0,1,0,1.3V233.1z"/>
		<path class="st1" d="M66.8,233.1l6-17.7h5.5l6,17.7h-5.4l-0.6-2.3h-5.4l-0.7,2.3H66.8z M73.8,227.1h3.4l-1.7-6.1L73.8,227.1z"/>
		<path class="st1" d="M85,227.6h5.3c0.1,0.6,0.4,1.1,0.8,1.4c0.4,0.3,1,0.4,1.7,0.4c0.6,0,1.1-0.1,1.5-0.3c0.4-0.2,0.5-0.5,0.5-0.9
			c0-0.6-0.8-1.2-2.3-1.6c-0.3-0.1-0.5-0.1-0.7-0.2c-1.3-0.3-2.3-0.6-3-0.9c-0.7-0.3-1.3-0.5-1.6-0.8c-0.7-0.5-1.1-1.1-1.5-1.8
			s-0.5-1.5-0.5-2.3c0-1.8,0.6-3.1,1.9-4.1c1.3-1,3-1.5,5.2-1.5c2.2,0,3.9,0.5,5.2,1.4c1.3,1,2,2.3,2.1,4.1h-5.2
			c-0.1-0.5-0.3-0.9-0.7-1.2c-0.4-0.3-0.9-0.4-1.5-0.4c-0.6,0-1,0.1-1.3,0.3c-0.3,0.2-0.4,0.5-0.4,0.9c0,0.6,0.7,1.1,2.2,1.5
			c0.1,0,0.2,0.1,0.3,0.1c0.2,0.1,0.5,0.1,1,0.3c2,0.5,3.3,1,3.9,1.4c0.8,0.5,1.3,1.1,1.7,1.8c0.3,0.7,0.5,1.4,0.5,2.4
			c0,2-0.7,3.4-2,4.5c-1.3,1-3.2,1.6-5.6,1.6c-2.3,0-4-0.5-5.4-1.6C85.9,231,85.2,229.5,85,227.6z"/>
		<path class="st1" d="M113.7,226.3h5.2c-0.2,2.3-0.9,4.1-2.4,5.4s-3.4,1.9-5.8,1.9c-2.7,0-4.9-0.8-6.4-2.5
			c-1.6-1.7-2.3-3.9-2.3-6.8c0-2.9,0.8-5.1,2.3-6.8c1.5-1.7,3.7-2.5,6.3-2.5c2.5,0,4.4,0.6,5.8,1.9c1.4,1.2,2.2,3,2.4,5.3h-5.2
			c-0.1-0.9-0.4-1.6-0.8-2c-0.5-0.5-1.2-0.7-2-0.7c-1.1,0-1.9,0.4-2.4,1.2s-0.8,2-0.8,3.7c0,1.6,0.3,2.8,0.9,3.6
			c0.6,0.8,1.4,1.2,2.5,1.2c0.8,0,1.5-0.3,2-0.8C113.3,227.9,113.6,227.2,113.7,226.3z"/>
		<path class="st1" d="M120.4,224.3c0-2.9,0.8-5.1,2.4-6.8c1.6-1.7,3.7-2.5,6.5-2.5c2.7,0,4.9,0.8,6.5,2.5c1.6,1.7,2.4,3.9,2.4,6.8
			c0,2.9-0.8,5.1-2.4,6.8s-3.7,2.5-6.5,2.5c-2.7,0-4.9-0.8-6.5-2.5S120.4,227.2,120.4,224.3z M125.9,224.3c0,1.7,0.3,2.9,0.8,3.7
			c0.5,0.8,1.4,1.2,2.5,1.2c1.1,0,2-0.4,2.5-1.2c0.5-0.8,0.8-2,0.8-3.7c0-1.7-0.3-2.9-0.8-3.7c-0.5-0.8-1.4-1.2-2.5-1.2
			c-1.1,0-2,0.4-2.5,1.2C126.2,221.4,125.9,222.6,125.9,224.3z"/>
		<path class="st1" d="M144.1,233.1v-13h-4.9v-4.7h15.2v4.7h-4.9v13H144.1z"/>
		<path class="st1" d="M153.7,233.1l6-17.7h5.5l6,17.7h-5.4l-0.6-2.3h-5.4l-0.7,2.3H153.7z M160.7,227.1h3.4l-1.7-6.1L160.7,227.1z"
			/>
		<path class="st1" d="M172,227.6h5.3c0.1,0.6,0.4,1.1,0.8,1.4c0.4,0.3,1,0.4,1.7,0.4c0.6,0,1.1-0.1,1.5-0.3
			c0.4-0.2,0.5-0.5,0.5-0.9c0-0.6-0.8-1.2-2.3-1.6c-0.3-0.1-0.5-0.1-0.7-0.2c-1.3-0.3-2.3-0.6-3-0.9c-0.7-0.3-1.3-0.5-1.6-0.8
			c-0.7-0.5-1.1-1.1-1.5-1.8c-0.3-0.7-0.5-1.5-0.5-2.3c0-1.8,0.6-3.1,1.9-4.1c1.3-1,3-1.5,5.2-1.5c2.2,0,3.9,0.5,5.2,1.4
			c1.3,1,2,2.3,2.1,4.1h-5.2c-0.1-0.5-0.3-0.9-0.7-1.2s-0.9-0.4-1.5-0.4c-0.6,0-1,0.1-1.3,0.3c-0.3,0.2-0.4,0.5-0.4,0.9
			c0,0.6,0.7,1.1,2.2,1.5c0.1,0,0.2,0.1,0.3,0.1c0.2,0.1,0.5,0.1,1,0.3c2,0.5,3.3,1,3.9,1.4c0.8,0.5,1.3,1.1,1.7,1.8
			c0.3,0.7,0.5,1.4,0.5,2.4c0,2-0.7,3.4-2,4.5c-1.3,1-3.2,1.6-5.6,1.6c-2.3,0-4-0.5-5.4-1.6C172.9,231,172.1,229.5,172,227.6z"/>
	</g>
</g>
<g>
	<defs>
		<rect id="SVGID_1_" x="0.5" y="0" width="234.8" height="265"/>
	</defs>
	<clipPath id="SVGID_2_">
		<use xlink:href="#SVGID_1_"  style="overflow:visible;"/>
	</clipPath>
	<defs>
		<filter id="Adobe_OpacityMaskFilter" filterUnits="userSpaceOnUse" x="-107.5" y="-7.4" width="493.3" height="367.5">
			<feColorMatrix  type="matrix" values="1 0 0 0 0  0 1 0 0 0  0 0 1 0 0  0 0 0 1 0"/>
		</filter>
	</defs>
	<mask maskUnits="userSpaceOnUse" x="-107.5" y="-7.4" width="493.3" height="367.5" id="SVGID_3_">
		<g class="st2">
			<rect x="-42.7" y="-0.3" class="st3" width="353" height="353.2"/>
		</g>
	</mask>
	<g class="st4">
		<g id="huellas" class="st5">
			<g>
				<path class="st6" d="M68.1,174.9c0.2-1.4,0.7-2.9,1.5-4c4.1-6.5,12.6-6.4,17-0.5c1.1,1.5,2,3.4,2.2,5.4c0.2,2-0.3,4.2-1.6,5.6
					c-1.3,1.4-3.3,1.7-4.7,0.5c-0.6-0.5-1.1-1.2-1.5-1.8c-0.4-0.7-0.8-1.4-1.5-1.8c-0.3-0.1-0.7-0.2-1.1-0.2
					c-1.2,0.1-2.1,0.6-2.6,1.6c-0.4,0.8-0.9,1.8-1.8,2.2c-0.6,0.3-1.3,0.3-2,0.1C68.7,181.3,67.6,178.1,68.1,174.9z"/>
				<g>
					<g>
						<path class="st6" d="M72.8,158.2c-2.9,1.1-3.5,5.2-0.4,6.5c1.3,0.5,2.9,0.2,3.8-0.9c0.9-1,1.2-2.6,0.5-3.9
							C76.1,158.6,74.3,157.7,72.8,158.2z"/>
						<path class="st6" d="M81.9,158.2c-2.9,1.1-3.5,5.2-0.4,6.5c1.3,0.5,2.9,0.2,3.8-0.9c0.9-1,1.2-2.6,0.5-3.9
							C85.1,158.6,83.4,157.7,81.9,158.2z"/>
					</g>
					<path class="st6" d="M89.4,164.1c-2.4,0.5-3.1,3.7-1.3,5.4c1.3,1.2,3.7,1,4.8-0.4C94.8,166.6,92.3,163.5,89.4,164.1z"/>
					<path class="st6" d="M65.6,164.1c-2.4,0.5-3.1,3.7-1.3,5.4c1.3,1.2,3.7,1,4.8-0.4C71,166.6,68.4,163.5,65.6,164.1z"/>
				</g>
			</g>
			<g>
				<path class="st6" d="M-96,146c-0.2-1.4-0.1-2.9,0.3-4.3c2.2-7.4,10.4-9.5,16.3-5c1.5,1.1,2.8,2.7,3.6,4.6c0.7,1.9,0.8,4.2,0,5.8
					c-0.9,1.6-2.7,2.5-4.4,1.8c-0.7-0.3-1.4-0.8-1.9-1.3c-0.6-0.6-1.1-1.2-2-1.3c-0.4,0-0.7,0-1.1,0.1c-1.1,0.4-1.8,1.2-2.1,2.3
					c-0.2,0.9-0.4,2-1.1,2.6c-0.5,0.4-1.2,0.6-1.9,0.6C-93.7,152-95.5,149.2-96,146z"/>
				<g>
					<g>
						<path class="st6" d="M-95.9,128.7c-2.5,1.8-1.9,6,1.4,6.4c1.4,0.2,2.8-0.6,3.5-1.9c0.6-1.2,0.4-2.9-0.5-3.9
							C-92.7,128.2-94.6,127.8-95.9,128.7z"/>
						<path class="st6" d="M-87.2,126.3c-2.5,1.8-1.9,6,1.4,6.4c1.4,0.2,2.8-0.6,3.5-1.9c0.6-1.2,0.4-2.9-0.5-3.9
							C-83.9,125.7-85.9,125.3-87.2,126.3z"/>
					</g>
					<path class="st6" d="M-78.3,129.9c-2.2,1.2-2,4.4,0.2,5.5c1.6,0.8,3.8,0,4.5-1.6C-72.4,130.8-75.7,128.5-78.3,129.9z"/>
					<path class="st6" d="M-101.3,136.3c-2.2,1.2-2,4.4,0.2,5.5c1.6,0.8,3.8,0,4.5-1.6C-95.4,137.2-98.7,134.9-101.3,136.3z"/>
				</g>
			</g>
			<g>
				<path class="st6" d="M-32.2,219.4c0.6-1.3,1.5-2.6,2.5-3.5c5.7-5.2,13.8-2.7,16.5,4.1c0.7,1.8,1,3.8,0.7,5.8c-0.4,2-1.5,4-3,5
					c-1.6,1-3.6,0.7-4.6-0.7c-0.4-0.6-0.8-1.4-0.9-2.1c-0.2-0.8-0.3-1.6-1-2.1c-0.3-0.2-0.6-0.4-1-0.4c-1.1-0.3-2.2,0-2.9,0.9
					c-0.6,0.7-1.3,1.5-2.3,1.6c-0.7,0.1-1.3-0.1-1.9-0.4C-33.3,225.6-33.5,222.3-32.2,219.4z"/>
				<g>
					<g>
						<path class="st6" d="M-23.2,204.6c-3,0.3-4.7,4.1-2.1,6.1c1.1,0.9,2.7,0.9,3.9,0.2c1.2-0.7,1.8-2.2,1.6-3.6
							C-20.1,205.8-21.6,204.4-23.2,204.6z"/>
						<path class="st6" d="M-14.4,207c-3,0.3-4.7,4.1-2.1,6.1c1.1,0.9,2.7,0.9,3.9,0.2c1.2-0.7,1.8-2.2,1.6-3.6
							C-11.4,208.3-12.9,206.9-14.4,207z"/>
					</g>
					<path class="st6" d="M-8.8,214.7c-2.4-0.1-4,2.8-2.7,4.8c0.9,1.5,3.3,2,4.7,0.9C-4.2,218.5-5.8,214.9-8.8,214.7z"/>
					<path class="st6" d="M-31.7,208.3c-2.4-0.1-4,2.8-2.7,4.8c0.9,1.5,3.3,2,4.7,0.9C-27.1,212.1-28.8,208.5-31.7,208.3z"/>
				</g>
			</g>
			<g>
				<path class="st6" d="M277,153.7c0.2-1.4,0.7-2.9,1.5-4c4.1-6.5,12.6-6.4,17-0.5c1.1,1.5,2,3.4,2.2,5.4c0.2,2-0.3,4.2-1.6,5.6
					c-1.3,1.4-3.3,1.7-4.7,0.5c-0.6-0.5-1.1-1.2-1.5-1.8c-0.4-0.7-0.8-1.4-1.5-1.8c-0.3-0.1-0.7-0.2-1.1-0.2
					c-1.2,0.1-2.1,0.6-2.6,1.6c-0.4,0.8-0.9,1.8-1.8,2.2c-0.6,0.3-1.3,0.3-2,0.1C277.6,160.1,276.5,156.9,277,153.7z"/>
				<g>
					<g>
						<path class="st6" d="M281.7,137.1c-2.9,1.1-3.5,5.2-0.4,6.5c1.3,0.5,2.9,0.2,3.8-0.9c0.9-1,1.2-2.6,0.5-3.9
							C284.9,137.4,283.2,136.5,281.7,137.1z"/>
						<path class="st6" d="M290.7,137.1c-2.9,1.1-3.5,5.2-0.4,6.5c1.3,0.5,2.9,0.2,3.8-0.9c0.9-1,1.2-2.6,0.5-3.9
							C294,137.4,292.2,136.5,290.7,137.1z"/>
					</g>
					<path class="st6" d="M298.3,142.9c-2.4,0.5-3.1,3.7-1.3,5.4c1.3,1.2,3.7,1,4.8-0.4C303.7,145.4,301.2,142.3,298.3,142.9z"/>
					<path class="st6" d="M274.4,142.9c-2.4,0.5-3.1,3.7-1.3,5.4c1.3,1.2,3.7,1,4.8-0.4C279.9,145.4,277.3,142.3,274.4,142.9z"/>
				</g>
			</g>
			<g>
				<path class="st6" d="M148.3,139.1c0.7-1.2,1.8-2.4,2.9-3.2c6.2-4.5,14.1-1.1,15.9,6.1c0.5,1.8,0.6,3.9,0,5.9
					c-0.6,2-1.9,3.8-3.6,4.6c-1.7,0.8-3.7,0.3-4.5-1.3c-0.4-0.7-0.6-1.5-0.7-2.2c-0.1-0.8-0.2-1.6-0.7-2.2c-0.3-0.3-0.6-0.4-0.9-0.6
					c-1.1-0.4-2.2-0.2-3,0.5c-0.7,0.6-1.5,1.3-2.5,1.3c-0.7,0-1.3-0.3-1.8-0.7C146.5,145.2,146.7,141.9,148.3,139.1z"/>
				<g>
					<g>
						<path class="st6" d="M159,125.5c-3-0.1-5.2,3.5-2.8,5.8c1,1,2.6,1.3,3.9,0.7c1.3-0.6,2.1-2,2-3.4
							C161.9,127.1,160.6,125.6,159,125.5z"/>
						<path class="st6" d="M167.4,129c-3-0.1-5.2,3.5-2.8,5.8c1,1,2.6,1.3,3.9,0.7c1.3-0.6,2.1-2,2-3.4
							C170.3,130.6,169,129.1,167.4,129z"/>
					</g>
					<path class="st6" d="M172.1,137.3c-2.4-0.4-4.3,2.3-3.3,4.5c0.7,1.6,3,2.4,4.6,1.5C176.2,141.7,175.1,137.8,172.1,137.3z"/>
					<path class="st6" d="M150.1,128.2c-2.4-0.4-4.3,2.3-3.3,4.5c0.7,1.6,3,2.4,4.6,1.5C154.2,132.6,153,128.7,150.1,128.2z"/>
				</g>
			</g>
			<g>
				<path class="st6" d="M218,225.9c-0.4-1.4-0.4-2.9-0.2-4.3c1.3-7.6,9.2-10.7,15.5-7c1.6,1,3.2,2.4,4.1,4.2c1,1.8,1.3,4,0.7,5.8
					c-0.6,1.7-2.4,2.8-4.1,2.3c-0.7-0.2-1.5-0.6-2.1-1.1c-0.6-0.5-1.2-1-2.1-1c-0.4,0-0.7,0.1-1,0.3c-1,0.5-1.7,1.4-1.8,2.5
					c-0.1,0.9-0.1,2-0.8,2.7c-0.5,0.5-1.1,0.7-1.8,0.8C221,231.5,218.8,229,218,225.9z"/>
				<g>
					<g>
						<path class="st6" d="M216,208.7c-2.2,2.1-1.2,6.2,2.1,6.1c1.4,0,2.7-1,3.2-2.3c0.5-1.3,0.1-2.9-1-3.8
							C219.1,207.8,217.1,207.6,216,208.7z"/>
						<path class="st6" d="M224.4,205.2c-2.2,2.1-1.2,6.2,2.1,6.1c1.4,0,2.7-1,3.2-2.3c0.5-1.3,0.1-2.9-1-3.8
							C227.5,204.3,225.5,204.2,224.4,205.2z"/>
					</g>
					<path class="st6" d="M233.6,207.8c-2,1.4-1.4,4.6,0.8,5.5c1.7,0.6,3.8-0.4,4.3-2.2C239.5,208,236,206.1,233.6,207.8z"/>
					<path class="st6" d="M211.5,216.9c-2,1.4-1.4,4.6,0.8,5.5c1.7,0.6,3.8-0.4,4.3-2.2C217.5,217.1,214,215.2,211.5,216.9z"/>
				</g>
			</g>
			<g>
				<path class="st6" d="M63.4,80.9c-0.3-1.4-0.3-2.9,0.1-4.3c1.7-7.5,9.8-10.1,15.9-6c1.6,1.1,3,2.5,3.9,4.4
					c0.9,1.9,1.1,4.1,0.3,5.8c-0.7,1.7-2.5,2.7-4.2,2c-0.7-0.3-1.5-0.7-2-1.2c-0.6-0.5-1.2-1.1-2-1.2c-0.4,0-0.7,0.1-1.1,0.2
					c-1.1,0.4-1.8,1.3-1.9,2.4c-0.1,0.9-0.2,2-1,2.6c-0.5,0.5-1.2,0.7-1.8,0.7C66,86.7,64,84,63.4,80.9z"/>
				<g>
					<g>
						<path class="st6" d="M62.3,63.6c-2.3,1.9-1.5,6.1,1.7,6.3c1.4,0.1,2.8-0.8,3.3-2.1c0.6-1.3,0.2-2.9-0.8-3.9
							C65.6,62.9,63.6,62.6,62.3,63.6z"/>
						<path class="st6" d="M70.9,60.6c-2.3,1.9-1.5,6.1,1.7,6.3c1.4,0.1,2.8-0.8,3.3-2.1c0.6-1.3,0.2-2.9-0.8-3.9
							C74.1,59.9,72.1,59.6,70.9,60.6z"/>
					</g>
					<path class="st6" d="M80,63.7c-2.1,1.3-1.7,4.5,0.5,5.5c1.6,0.7,3.8-0.2,4.4-1.9C85.9,64.3,82.5,62.2,80,63.7z"/>
					<path class="st6" d="M57.5,71.6c-2.1,1.3-1.7,4.5,0.5,5.5c1.6,0.7,3.8-0.2,4.4-1.9C63.4,72.1,60,70,57.5,71.6z"/>
				</g>
			</g>
			<g>
				<path class="st6" d="M-98.5,15.7c0.9-1.2,2-2.2,3.2-2.8c6.7-3.8,14.1,0.5,15.1,7.8c0.3,1.9,0.1,3.9-0.7,5.8
					c-0.8,1.9-2.3,3.6-4.1,4.1c-1.8,0.6-3.7-0.1-4.4-1.8c-0.3-0.7-0.4-1.6-0.4-2.3c0-0.8,0-1.6-0.5-2.3c-0.2-0.3-0.5-0.5-0.9-0.7
					c-1-0.5-2.1-0.5-3.1,0.2c-0.8,0.5-1.6,1.1-2.6,1c-0.7-0.1-1.3-0.4-1.8-0.9C-101,21.6-100.4,18.3-98.5,15.7z"/>
				<g>
					<g>
						<path class="st6" d="M-86.3,3.4c-3-0.4-5.6,2.9-3.5,5.5c0.9,1.1,2.5,1.5,3.8,1.1c1.3-0.4,2.3-1.8,2.3-3.2
							C-83.6,5.3-84.7,3.6-86.3,3.4z"/>
						<path class="st6" d="M-78.4,7.8c-3-0.4-5.6,2.9-3.5,5.5c0.9,1.1,2.5,1.5,3.8,1.1c1.3-0.4,2.3-1.8,2.3-3.2
							C-75.7,9.7-76.8,8-78.4,7.8z"/>
					</g>
					<path class="st6" d="M-74.6,16.6c-2.3-0.7-4.5,1.8-3.8,4.1c0.6,1.7,2.7,2.7,4.4,2C-71,21.3-71.8,17.4-74.6,16.6z"/>
					<path class="st6" d="M-95.5,5.1c-2.3-0.7-4.5,1.8-3.8,4.1c0.6,1.7,2.7,2.7,4.4,2C-91.9,9.8-92.6,5.9-95.5,5.1z"/>
				</g>
			</g>
			<g>
				<path class="st6" d="M-32.2,97.1c0.6-1.3,1.5-2.5,2.5-3.5c5.7-5.1,13.9-2.6,16.5,4.3c0.7,1.8,1,3.8,0.6,5.8
					c-0.4,2-1.5,4-3.1,4.9c-1.6,0.9-3.6,0.7-4.6-0.8c-0.4-0.6-0.8-1.4-0.9-2.2c-0.2-0.8-0.3-1.6-1-2.1c-0.3-0.2-0.6-0.4-1-0.5
					c-1.1-0.3-2.2,0-3,0.8c-0.6,0.7-1.3,1.5-2.3,1.6c-0.7,0.1-1.3-0.1-1.9-0.5C-33.4,103.3-33.5,100-32.2,97.1z"/>
				<g>
					<g>
						<path class="st6" d="M-23,82.4c-3,0.2-4.8,4.1-2.2,6.1c1.1,0.9,2.7,1,3.9,0.3c1.2-0.7,1.9-2.2,1.6-3.6
							C-20,83.7-21.4,82.3-23,82.4z"/>
						<path class="st6" d="M-14.3,84.9c-3,0.2-4.8,4.1-2.2,6.1c1.1,0.9,2.7,1,3.9,0.3c1.2-0.7,1.9-2.2,1.6-3.6
							C-11.3,86.2-12.7,84.8-14.3,84.9z"/>
					</g>
					<path class="st6" d="M-8.7,92.7c-2.4-0.2-4,2.7-2.8,4.8c0.9,1.5,3.2,2,4.7,1C-4.2,96.6-5.8,92.9-8.7,92.7z"/>
					<path class="st6" d="M-31.6,86c-2.4-0.2-4,2.7-2.8,4.8c0.9,1.5,3.2,2,4.7,1C-27.1,89.9-28.7,86.2-31.6,86z"/>
				</g>
			</g>
			<g>
				<path class="st6" d="M21.6,7.3c0.6-1.3,1.5-2.5,2.5-3.5C29.9-1.3,38,1.3,40.6,8.1c0.7,1.8,1,3.8,0.6,5.8c-0.4,2-1.5,4-3.1,4.9
					c-1.6,0.9-3.6,0.7-4.6-0.8c-0.4-0.6-0.8-1.4-0.9-2.2c-0.2-0.8-0.3-1.6-1-2.1c-0.3-0.2-0.6-0.4-1-0.5c-1.1-0.3-2.2,0-3,0.8
					c-0.6,0.7-1.3,1.5-2.3,1.6c-0.7,0.1-1.3-0.1-1.9-0.5C20.4,13.5,20.3,10.2,21.6,7.3z"/>
				<g>
					<g>
						<path class="st6" d="M30.8-7.4c-3,0.2-4.8,4.1-2.2,6.1c1.1,0.9,2.7,1,3.9,0.3c1.2-0.7,1.9-2.2,1.6-3.6
							C33.9-6.1,32.4-7.5,30.8-7.4z"/>
						<path class="st6" d="M39.5-4.8c-3,0.2-4.8,4.1-2.2,6.1c1.1,0.9,2.7,1,3.9,0.3c1.2-0.7,1.9-2.2,1.6-3.6
							C42.6-3.6,41.1-4.9,39.5-4.8z"/>
					</g>
					<path class="st6" d="M45.1,2.9c-2.4-0.2-4,2.7-2.8,4.8c0.9,1.5,3.2,2,4.7,1C49.6,6.8,48.1,3.1,45.1,2.9z"/>
					<path class="st6" d="M22.2-3.8c-2.4-0.2-4,2.7-2.8,4.8c0.9,1.5,3.2,2,4.7,1C26.8,0.1,25.2-3.6,22.2-3.8z"/>
				</g>
			</g>
			<g>
				<path class="st6" d="M281.2,25.1c-0.4-1.4-0.5-2.9-0.3-4.3c1-7.6,8.8-11,15.3-7.4c1.7,0.9,3.2,2.3,4.3,4c1,1.8,1.4,4,0.9,5.8
					c-0.6,1.8-2.3,2.9-4,2.4c-0.7-0.2-1.5-0.6-2.1-1c-0.6-0.5-1.3-1-2.1-1c-0.4,0-0.7,0.1-1,0.3c-1,0.5-1.6,1.4-1.7,2.6
					c0,0.9-0.1,2-0.7,2.7c-0.5,0.5-1.1,0.8-1.7,0.9C284.4,30.6,282.1,28.2,281.2,25.1z"/>
				<g>
					<g>
						<path class="st6" d="M278.6,8c-2.2,2.1-1,6.2,2.3,6.1c1.4-0.1,2.7-1,3.1-2.4s0-2.9-1.1-3.8C281.8,7,279.8,6.9,278.6,8z"/>
						<path class="st6" d="M286.9,4.2c-2.2,2.1-1,6.2,2.3,6.1c1.4-0.1,2.7-1,3.1-2.4c0.4-1.3,0-2.9-1.1-3.8
							C290,3.2,288,3.1,286.9,4.2z"/>
					</g>
					<path class="st6" d="M296.2,6.5c-2,1.5-1.3,4.7,1,5.4c1.7,0.6,3.8-0.6,4.2-2.3C302.2,6.5,298.6,4.7,296.2,6.5z"/>
					<path class="st6" d="M274.5,16.3c-2,1.5-1.3,4.7,1,5.4c1.7,0.6,3.8-0.6,4.2-2.3C280.5,16.3,276.8,14.6,274.5,16.3z"/>
				</g>
			</g>
			<g>
				<path class="st6" d="M359.7,96.4c0.9-1.1,2.1-2,3.4-2.7c6.9-3.4,14,1.2,14.7,8.5c0.2,1.9-0.1,3.9-1,5.8
					c-0.9,1.8-2.5,3.4-4.3,3.9c-1.8,0.5-3.7-0.3-4.3-2c-0.2-0.7-0.4-1.6-0.3-2.3c0-0.8,0.1-1.6-0.4-2.3c-0.2-0.3-0.5-0.5-0.8-0.7
					c-1-0.6-2.1-0.6-3.1,0c-0.8,0.5-1.7,1.1-2.7,0.9c-0.7-0.1-1.2-0.5-1.7-1C356.8,102.1,357.6,98.8,359.7,96.4z"/>
				<g>
					<g>
						<path class="st6" d="M372.4,84.7c-3-0.6-5.7,2.7-3.7,5.3c0.8,1.1,2.4,1.7,3.7,1.3c1.3-0.4,2.4-1.6,2.5-3
							C375,86.7,374,85,372.4,84.7z"/>
						<path class="st6" d="M380.1,89.5c-3-0.6-5.7,2.7-3.7,5.3c0.8,1.1,2.4,1.7,3.7,1.3c1.3-0.4,2.4-1.6,2.5-3
							C382.7,91.5,381.7,89.8,380.1,89.5z"/>
					</g>
					<path class="st6" d="M383.5,98.4c-2.3-0.8-4.6,1.5-4,3.9c0.5,1.7,2.6,2.8,4.3,2.2C386.8,103.4,386.3,99.4,383.5,98.4z"/>
					<path class="st6" d="M363.2,85.9c-2.3-0.8-4.6,1.5-4,3.9c0.5,1.7,2.6,2.8,4.3,2.2C366.5,90.9,366,86.9,363.2,85.9z"/>
				</g>
			</g>
			<g>
				<path class="st6" d="M149.3,21.3c0.2-1.4,0.7-2.9,1.5-4c4.1-6.5,12.6-6.4,17-0.5c1.1,1.5,2,3.4,2.2,5.4c0.2,2-0.3,4.2-1.6,5.6
					c-1.3,1.4-3.3,1.7-4.7,0.5c-0.6-0.5-1.1-1.2-1.5-1.8c-0.4-0.7-0.8-1.4-1.5-1.8c-0.3-0.1-0.7-0.2-1.1-0.2
					c-1.2,0.1-2.1,0.6-2.6,1.6c-0.4,0.8-0.9,1.8-1.8,2.2c-0.6,0.3-1.3,0.3-2,0.1C149.9,27.6,148.8,24.4,149.3,21.3z"/>
				<g>
					<g>
						<path class="st6" d="M154,4.6c-2.9,1.1-3.5,5.2-0.4,6.5c1.3,0.5,2.9,0.2,3.8-0.9c0.9-1,1.2-2.6,0.5-3.9
							C157.3,5,155.5,4,154,4.6z"/>
						<path class="st6" d="M163.1,4.6c-2.9,1.1-3.5,5.2-0.4,6.5c1.3,0.5,2.9,0.2,3.8-0.9s1.2-2.6,0.5-3.9C166.3,5,164.6,4,163.1,4.6
							z"/>
					</g>
					<path class="st6" d="M170.6,10.5c-2.4,0.5-3.1,3.7-1.3,5.4c1.3,1.2,3.7,1,4.8-0.4C176,12.9,173.5,9.8,170.6,10.5z"/>
					<path class="st6" d="M146.8,10.5c-2.4,0.5-3.1,3.7-1.3,5.4c1.3,1.2,3.7,1,4.8-0.4C152.2,12.9,149.6,9.8,146.8,10.5z"/>
				</g>
			</g>
			<g>
				<path class="st6" d="M215.5,100.1c0.2-1.4,0.7-2.9,1.5-4c4.1-6.5,12.6-6.4,17-0.5c1.1,1.5,2,3.4,2.2,5.4c0.2,2-0.3,4.2-1.6,5.6
					c-1.3,1.4-3.3,1.7-4.7,0.5c-0.6-0.5-1.1-1.2-1.5-1.8c-0.4-0.7-0.8-1.4-1.5-1.8c-0.3-0.1-0.7-0.2-1.1-0.2
					c-1.2,0.1-2.1,0.6-2.6,1.6c-0.4,0.8-0.9,1.8-1.8,2.2c-0.6,0.3-1.3,0.3-2,0.1C216.1,106.5,215,103.3,215.5,100.1z"/>
				<g>
					<g>
						<path class="st6" d="M220.2,83.5c-2.9,1.1-3.5,5.2-0.4,6.5c1.3,0.5,2.9,0.2,3.8-0.9c0.9-1,1.2-2.6,0.5-3.9
							C223.5,83.8,221.7,82.9,220.2,83.5z"/>
						<path class="st6" d="M229.3,83.5c-2.9,1.1-3.5,5.2-0.4,6.5c1.3,0.5,2.9,0.2,3.8-0.9c0.9-1,1.2-2.6,0.5-3.9
							C232.5,83.8,230.7,82.9,229.3,83.5z"/>
					</g>
					<path class="st6" d="M236.8,89.4c-2.4,0.5-3.1,3.7-1.3,5.4c1.3,1.2,3.7,1,4.8-0.4C242.2,91.8,239.7,88.7,236.8,89.4z"/>
					<path class="st6" d="M212.9,89.4c-2.4,0.5-3.1,3.7-1.3,5.4c1.3,1.2,3.7,1,4.8-0.4C218.4,91.8,215.8,88.7,212.9,89.4z"/>
				</g>
			</g>
			<g>
				<path class="st6" d="M42.6,277.5c0-1.4,0.3-2.9,0.9-4.2c3.2-7,11.6-8,16.8-2.7c1.3,1.3,2.4,3.1,2.9,5.1c0.5,2,0.2,4.2-0.8,5.8
					c-1.1,1.5-3,2.1-4.6,1.1c-0.6-0.4-1.3-1-1.7-1.6c-0.5-0.6-0.9-1.3-1.8-1.5c-0.4-0.1-0.7-0.1-1.1,0c-1.1,0.2-2,0.9-2.4,2
					c-0.3,0.9-0.6,1.9-1.5,2.4c-0.6,0.3-1.3,0.4-1.9,0.3C44,283.7,42.5,280.7,42.6,277.5z"/>
				<g>
					<g>
						<path class="st6" d="M45.1,260.3c-2.7,1.4-2.7,5.7,0.4,6.5c1.3,0.4,2.9-0.2,3.7-1.4s0.8-2.8,0-3.9
							C48.4,260.3,46.5,259.6,45.1,260.3z"/>
						<path class="st6" d="M54.1,259.2c-2.7,1.4-2.7,5.7,0.4,6.5c1.3,0.4,2.9-0.2,3.7-1.4c0.8-1.1,0.8-2.8,0-3.9
							C57.4,259.1,55.5,258.4,54.1,259.2z"/>
					</g>
					<path class="st6" d="M62.3,264c-2.3,0.8-2.6,4.1-0.6,5.5c1.5,1,3.8,0.6,4.7-1C68,265.7,65.1,263,62.3,264z"/>
					<path class="st6" d="M38.7,267.1c-2.3,0.8-2.6,4.1-0.6,5.5c1.5,1,3.8,0.6,4.7-1C44.4,268.8,41.4,266.1,38.7,267.1z"/>
				</g>
			</g>
			<g>
				<path class="st6" d="M61.1,353.4c0-1.4,0.3-2.9,0.9-4.2c3.2-7,11.6-8,16.8-2.7c1.3,1.3,2.4,3.1,2.9,5.1c0.5,2,0.2,4.2-0.8,5.8
					c-1.1,1.5-3,2.1-4.6,1.1c-0.6-0.4-1.3-1-1.7-1.6c-0.5-0.6-0.9-1.3-1.8-1.5c-0.4-0.1-0.7-0.1-1.1,0c-1.1,0.2-2,0.9-2.4,2
					c-0.3,0.9-0.6,1.9-1.5,2.4c-0.6,0.3-1.3,0.4-1.9,0.3C62.5,359.6,61.1,356.6,61.1,353.4z"/>
				<g>
					<g>
						<path class="st6" d="M63.6,336.3c-2.7,1.4-2.7,5.7,0.4,6.5c1.3,0.4,2.9-0.2,3.7-1.4c0.8-1.1,0.8-2.8,0-3.9
							C66.9,336.2,65,335.5,63.6,336.3z"/>
						<path class="st6" d="M72.6,335.1c-2.7,1.4-2.7,5.7,0.4,6.5c1.3,0.4,2.9-0.2,3.7-1.4c0.8-1.1,0.8-2.8,0-3.9
							C75.9,335,74,334.4,72.6,335.1z"/>
					</g>
					<path class="st6" d="M80.8,339.9c-2.3,0.8-2.6,4.1-0.6,5.5c1.5,1,3.8,0.6,4.7-1C86.6,341.7,83.6,338.9,80.8,339.9z"/>
					<path class="st6" d="M57.2,343.1c-2.3,0.8-2.6,4.1-0.6,5.5c1.5,1,3.8,0.6,4.7-1C62.9,344.8,60,342.1,57.2,343.1z"/>
				</g>
			</g>
			<g>
				<path class="st6" d="M-95.6,267.7c-0.2-1.4-0.2-2.9,0.1-4.3c1.8-7.5,10-9.9,16-5.7c1.6,1.1,3,2.6,3.8,4.5c0.8,1.9,1,4.1,0.2,5.8
					c-0.8,1.7-2.6,2.6-4.3,2c-0.7-0.3-1.4-0.7-2-1.3c-0.6-0.6-1.2-1.1-2-1.2c-0.4,0-0.7,0-1.1,0.2c-1.1,0.4-1.8,1.2-2,2.4
					c-0.1,0.9-0.3,2-1,2.6c-0.5,0.4-1.2,0.6-1.8,0.7C-93.1,273.5-95.1,270.8-95.6,267.7z"/>
				<g>
					<g>
						<path class="st6" d="M-96.3,250.4c-2.4,1.9-1.7,6.1,1.6,6.3c1.4,0.1,2.8-0.7,3.4-2c0.6-1.3,0.3-2.9-0.7-3.9
							C-93.1,249.7-95.1,249.4-96.3,250.4z"/>
						<path class="st6" d="M-87.7,247.5c-2.4,1.9-1.7,6.1,1.6,6.3c1.4,0.1,2.8-0.7,3.4-2c0.6-1.3,0.3-2.9-0.7-3.9
							C-84.5,246.9-86.5,246.6-87.7,247.5z"/>
					</g>
					<path class="st6" d="M-78.7,250.8c-2.1,1.2-1.8,4.5,0.4,5.5c1.6,0.8,3.8-0.1,4.4-1.8C-72.8,251.5-76.2,249.3-78.7,250.8z"/>
					<path class="st6" d="M-101.4,258.2c-2.1,1.2-1.8,4.5,0.4,5.5c1.6,0.8,3.8-0.1,4.4-1.8C-95.4,258.8-98.8,256.7-101.4,258.2z"/>
				</g>
			</g>
			<g>
				<path class="st6" d="M-32.3,339.4c0.7-1.3,1.7-2.4,2.9-3.2c6.2-4.5,14-1.2,16,5.9c0.5,1.8,0.6,3.9,0,5.9c-0.6,2-1.9,3.8-3.6,4.6
					c-1.7,0.8-3.7,0.3-4.5-1.2c-0.4-0.7-0.6-1.5-0.7-2.2c-0.1-0.8-0.2-1.6-0.8-2.2c-0.3-0.3-0.6-0.4-0.9-0.6c-1.1-0.4-2.2-0.2-3,0.5
					c-0.7,0.6-1.5,1.3-2.5,1.4c-0.7,0-1.3-0.3-1.8-0.6C-34.1,345.5-33.9,342.2-32.3,339.4z"/>
				<g>
					<g>
						<path class="st6" d="M-21.8,325.7c-3-0.1-5.2,3.6-2.8,5.9c1,1,2.6,1.2,3.9,0.6s2.1-2,1.9-3.4
							C-18.9,327.3-20.2,325.7-21.8,325.7z"/>
						<path class="st6" d="M-13.3,329.1c-3-0.1-5.2,3.6-2.8,5.9c1,1,2.6,1.2,3.9,0.6c1.3-0.6,2.1-2,1.9-3.4
							C-10.4,330.6-11.7,329.1-13.3,329.1z"/>
					</g>
					<path class="st6" d="M-8.5,337.3c-2.4-0.4-4.3,2.3-3.2,4.5c0.8,1.6,3,2.3,4.6,1.4C-4.4,341.6-5.6,337.8-8.5,337.3z"/>
					<path class="st6" d="M-30.7,328.5c-2.4-0.4-4.3,2.3-3.2,4.5c0.8,1.6,3,2.3,4.6,1.4C-26.5,332.8-27.7,329-30.7,328.5z"/>
				</g>
			</g>
			<g>
				<path class="st6" d="M360.5,314c-0.3-1.4-0.3-2.9-0.1-4.3c1.5-7.5,9.5-10.4,15.7-6.5c1.6,1,3.1,2.5,4,4.3
					c0.9,1.8,1.2,4.1,0.5,5.8c-0.7,1.7-2.5,2.7-4.2,2.2c-0.7-0.2-1.5-0.7-2-1.2c-0.6-0.5-1.2-1.1-2.1-1.1c-0.4,0-0.7,0.1-1.1,0.2
					c-1.1,0.5-1.7,1.3-1.9,2.5c-0.1,0.9-0.2,2-0.9,2.7c-0.5,0.5-1.1,0.7-1.8,0.8C363.3,319.7,361.2,317.1,360.5,314z"/>
				<g>
					<g>
						<path class="st6" d="M358.9,296.7c-2.3,2-1.4,6.1,1.9,6.2c1.4,0,2.8-0.9,3.3-2.2c0.5-1.3,0.1-2.9-0.9-3.8
							C362.1,295.9,360.1,295.7,358.9,296.7z"/>
						<path class="st6" d="M367.4,293.5c-2.3,2-1.4,6.1,1.9,6.2c1.4,0,2.8-0.9,3.3-2.2c0.5-1.3,0.1-2.9-0.9-3.8
							C370.6,292.7,368.6,292.5,367.4,293.5z"/>
					</g>
					<path class="st6" d="M376.5,296.3c-2,1.3-1.6,4.6,0.7,5.5c1.7,0.7,3.8-0.3,4.3-2.1C382.5,296.7,379,294.7,376.5,296.3z"/>
					<path class="st6" d="M354.3,304.8c-2,1.3-1.6,4.6,0.7,5.5c1.7,0.7,3.8-0.3,4.3-2.1C360.2,305.2,356.7,303.2,354.3,304.8z"/>
				</g>
			</g>
			<g>
				<path class="st6" d="M261.6,282.2c-0.3-1.4-0.3-2.9-0.1-4.3c1.5-7.5,9.5-10.4,15.7-6.5c1.6,1,3.1,2.5,4,4.3
					c0.9,1.8,1.2,4.1,0.5,5.8c-0.7,1.7-2.5,2.7-4.2,2.2c-0.7-0.2-1.5-0.7-2-1.2c-0.6-0.5-1.2-1.1-2.1-1.1c-0.4,0-0.7,0.1-1.1,0.2
					c-1.1,0.5-1.7,1.3-1.9,2.5c-0.1,0.9-0.2,2-0.9,2.7c-0.5,0.5-1.1,0.7-1.8,0.8C264.4,287.9,262.3,285.3,261.6,282.2z"/>
				<g>
					<g>
						<path class="st6" d="M260.1,265c-2.3,2-1.4,6.1,1.9,6.2c1.4,0,2.8-0.9,3.3-2.2c0.5-1.3,0.1-2.9-0.9-3.8
							C263.2,264.1,261.3,263.9,260.1,265z"/>
						<path class="st6" d="M268.5,261.7c-2.3,2-1.4,6.1,1.9,6.2c1.4,0,2.8-0.9,3.3-2.2c0.5-1.3,0.1-2.9-0.9-3.8
							C271.7,260.9,269.7,260.7,268.5,261.7z"/>
					</g>
					<path class="st6" d="M277.7,264.5c-2,1.3-1.6,4.6,0.7,5.5c1.7,0.7,3.8-0.3,4.3-2.1C283.6,264.9,280.2,262.9,277.7,264.5z"/>
					<path class="st6" d="M255.4,273c-2,1.3-1.6,4.6,0.7,5.5c1.7,0.7,3.8-0.3,4.3-2.1C261.4,273.4,257.9,271.4,255.4,273z"/>
				</g>
			</g>
			<g>
				<path class="st6" d="M281.5,341c1-1.1,2.2-1.9,3.5-2.5c7-3,14,1.9,14.3,9.3c0.1,1.9-0.3,3.9-1.3,5.7c-1,1.8-2.7,3.3-4.5,3.7
					c-1.8,0.4-3.7-0.5-4.1-2.2c-0.2-0.7-0.3-1.6-0.2-2.3c0.1-0.8,0.2-1.6-0.3-2.3c-0.2-0.3-0.5-0.6-0.8-0.7c-1-0.6-2.1-0.7-3.1-0.1
					c-0.8,0.4-1.7,1-2.7,0.8c-0.7-0.1-1.2-0.5-1.7-1C278.4,346.6,279.3,343.3,281.5,341z"/>
				<g>
					<g>
						<path class="st6" d="M294.9,330c-3-0.8-5.8,2.3-4,5.1c0.8,1.2,2.3,1.8,3.6,1.5c1.4-0.3,2.5-1.5,2.7-2.9
							C297.4,332.2,296.4,330.4,294.9,330z"/>
						<path class="st6" d="M302.3,335.2c-3-0.8-5.8,2.3-4,5.1c0.8,1.2,2.3,1.8,3.6,1.5c1.4-0.3,2.5-1.5,2.7-2.9
							C304.8,337.3,303.9,335.6,302.3,335.2z"/>
					</g>
					<path class="st6" d="M305.2,344.3c-2.3-0.9-4.7,1.3-4.2,3.7c0.4,1.8,2.4,2.9,4.1,2.4C308.2,349.4,307.9,345.4,305.2,344.3z"/>
					<path class="st6" d="M285.6,330.7c-2.3-0.9-4.7,1.3-4.2,3.7c0.4,1.8,2.4,2.9,4.1,2.4C288.7,335.8,288.3,331.8,285.6,330.7z"/>
				</g>
			</g>
			<g>
				<path class="st6" d="M148.6,262.5c0.5-1.4,1.3-2.6,2.3-3.7c5.3-5.5,13.6-3.6,16.8,3c0.8,1.7,1.3,3.7,1,5.8
					c-0.2,2-1.2,4.1-2.7,5.1c-1.5,1.1-3.6,1-4.7-0.4c-0.5-0.6-0.9-1.4-1.1-2.1c-0.2-0.8-0.4-1.6-1.1-2c-0.3-0.2-0.7-0.3-1-0.4
					c-1.1-0.2-2.2,0.2-2.9,1.1c-0.6,0.7-1.2,1.6-2.2,1.8c-0.7,0.1-1.3,0-1.9-0.3C147.8,268.8,147.5,265.5,148.6,262.5z"/>
				<g>
					<g>
						<path class="st6" d="M156.6,247.1c-3,0.4-4.5,4.4-1.7,6.3c1.2,0.8,2.8,0.8,3.9-0.1c1.1-0.8,1.7-2.4,1.3-3.7
							C159.7,248.2,158.2,246.9,156.6,247.1z"/>
						<path class="st6" d="M165.5,249c-3,0.4-4.5,4.4-1.7,6.3c1.2,0.8,2.8,0.8,3.9-0.1c1.1-0.8,1.7-2.4,1.3-3.7
							C168.6,250,167.1,248.8,165.5,249z"/>
					</g>
					<path class="st6" d="M171.6,256.3c-2.4,0-3.8,3-2.4,5c1,1.5,3.4,1.8,4.8,0.6C176.5,259.8,174.6,256.3,171.6,256.3z"/>
					<path class="st6" d="M148.3,251.4c-2.4,0-3.8,3-2.4,5c1,1.5,3.4,1.8,4.8,0.6C153.1,254.9,151.3,251.4,148.3,251.4z"/>
				</g>
			</g>
			<g>
				<path class="st6" d="M198.4,349.3c-0.9-1.1-1.6-2.5-1.9-3.9c-1.9-7.4,4.1-13.5,11.4-12.6c1.9,0.2,3.8,0.9,5.4,2.2
					c1.6,1.3,2.8,3.2,2.9,5c0.1,1.9-1.1,3.5-2.9,3.7c-0.7,0.1-1.6,0-2.3-0.2c-0.8-0.2-1.6-0.4-2.3-0.1c-0.3,0.1-0.6,0.4-0.9,0.7
					c-0.8,0.9-1,1.9-0.6,3c0.3,0.9,0.7,1.9,0.3,2.8c-0.2,0.6-0.7,1.1-1.3,1.5C203.4,353.3,200.3,351.8,198.4,349.3z"/>
				<g>
					<g>
						<path class="st6" d="M189.6,334.4c-1.2,2.8,1.4,6.1,4.4,4.8c1.3-0.6,2.1-2,2-3.4c-0.1-1.4-1.1-2.7-2.4-3.1
							C192.2,332.3,190.3,332.9,189.6,334.4z"/>
						<path class="st6" d="M195.9,327.8c-1.2,2.8,1.4,6.1,4.4,4.8c1.3-0.6,2.1-2,2-3.4c-0.1-1.4-1.1-2.7-2.4-3.1
							C198.5,325.7,196.6,326.4,195.9,327.8z"/>
					</g>
					<path class="st6" d="M205.4,326.5c-1.3,2.1,0.5,4.8,2.9,4.7c1.8-0.1,3.3-1.9,3-3.7C210.9,324.3,206.9,324,205.4,326.5z"/>
					<path class="st6" d="M188.9,343.7c-1.3,2.1,0.5,4.8,2.9,4.7c1.8-0.1,3.3-1.9,3-3.7C194.4,341.5,190.4,341.2,188.9,343.7z"/>
				</g>
			</g>
		</g>
		<g id="huesos" class="st7">
			<g id="hueso_23_">
				<path class="st8" d="M16.3,125.3c-1.6,1.4-2.2,3.6-1.5,5.9c0.6,2.4,2.8,3.3,4.5,3c3.2,0,4.6-2.9,6.2-5.5
					c1.2-2.1,3.1-3.6,5.2-4.6c2.7-1.4,5.5-2.6,8.3-3.9c1.2-0.5,2.5-1,3.7-1.6c2.3-1.1,4.7-2.1,7.3-2c2.7,0.1,5.2,2.2,7.7,0.5
					c3.7-2.5,1.8-7.9-2.3-8"/>
				<path class="st8" d="M54.4,110c1-0.9,1.6-2.1,1.8-3.1c0.3-3.3-2-5.5-4.9-6c-3.3-0.3-4.4,3.3-6,5.9c-0.9,1.4-2.2,2.9-3.7,3.6
					c-1,0.4-1.9,0.9-2.9,1.3c-2.8,1.2-5.5,2.5-8.3,3.7c-1.8,0.8-3.6,1.6-5.3,2.4c-0.7,0.3-1.4,0.7-2.2,0.8c-1.9,0.4-3.6,0-5.5-0.5
					c-1.6-0.5-3.2-0.7-4.6,0.3c-3.6,2.6-1.5,8.1,2.8,7.9"/>
			</g>
			<polygon class="st9" points="190.5,68.3 189.2,69 187.5,69.3 185.7,69 184.4,68 183.6,66.8 183.2,65.5 183.3,64 183.9,62.5 
				185.4,61.1 187.5,60 189.2,58.9 190.4,57.7 191.5,56 192.5,54 197.8,41.2 198.7,38.8 199.1,36.2 198.9,33.6 198.4,31.1 
				198.2,29.3 198.4,27.2 199.6,25.2 201.1,23.9 203.3,23.5 205.4,24.6 206.9,26 207.6,27.3 207.9,28.3 209.1,27.5 210.6,27.1 
				212.2,27.3 214.1,28.3 215.3,30.3 215.1,33.2 213.1,35.1 210.9,36.3 208.9,37.7 207.5,39.5 206.3,42.3 200.2,56.6 199.2,59.4 
				199.2,62 199.8,64.9 200.4,67.4 200.2,69.6 198.7,71.4 197,72.2 194.9,72.4 193.3,72.1 191.7,70.8 190.8,69.3 			"/>
			<g id="hueso_17_">
				<path class="st8" d="M309.3,48.7c-2.1,0.1-3.9,1.5-4.8,3.7c-1,2.3,0.2,4.3,1.7,5.1c2.5,1.9,5.4,0.5,8.2-0.6
					c2.2-0.9,4.6-0.9,6.9-0.5c3,0.6,6,1.3,9,2c1.3,0.3,2.6,0.7,3.9,1c2.5,0.5,5,1.2,7,2.8c2.1,1.7,2.8,4.9,5.8,5.1
					c4.4,0.3,6.2-5.2,3-7.8"/>
				<path class="st8" d="M348.8,59.8c1.3-0.1,2.6-0.6,3.3-1.3c2.3-2.4,1.8-5.5-0.3-7.7c-2.4-2.3-5.5-0.1-8.3,1
					c-1.6,0.6-3.5,1-5.1,0.6c-1-0.3-2.1-0.5-3.1-0.8c-2.9-0.7-5.9-1.4-8.8-2.1c-1.9-0.5-3.8-0.9-5.7-1.4c-0.8-0.2-1.5-0.3-2.3-0.7
					c-1.7-0.9-2.9-2.2-4-3.7c-1-1.3-2.1-2.5-3.8-2.6c-4.5-0.1-6.1,5.5-2.6,8"/>
			</g>
			<polygon class="st10" points="55.5,108.9 56.9,109.3 58.3,110.3 59.4,111.7 59.7,113.2 59.5,114.7 58.9,115.9 57.8,117 
				56.3,117.6 54.3,117.6 52,117 50,116.6 48.3,116.8 46.3,117.2 44.3,118 31.6,123.7 29.3,124.9 27.3,126.5 25.7,128.5 24.3,130.7 
				23.2,132.2 21.6,133.6 19.4,134.2 17.4,134.1 15.5,132.9 14.8,130.7 14.6,128.7 15,127.2 15.5,126.3 14,126.1 12.7,125.3 
				11.6,124 10.9,122 11.4,119.7 13.5,117.8 16.3,117.8 18.8,118.4 21.2,118.7 23.4,118.4 26.2,117.1 40.4,110.9 43.1,109.5 
				44.8,107.6 46.3,105 47.7,102.8 49.3,101.3 51.6,101 53.4,101.6 55,102.9 56,104.2 56.3,106.2 55.9,108 			"/>
			<g>
				<g id="hueso_19_">
					<path class="st8" d="M23.3,54.6c-1.6,1.4-2.2,3.6-1.5,5.9c0.6,2.4,2.8,3.3,4.5,3c3.2,0,4.6-2.9,6.2-5.5
						c1.2-2.1,3.1-3.6,5.2-4.6c2.7-1.4,5.5-2.6,8.3-3.9c1.2-0.5,2.5-1,3.7-1.6c2.3-1.1,4.7-2.1,7.3-2c2.7,0.1,5.2,2.2,7.7,0.5
						c3.7-2.5,1.8-7.9-2.3-8"/>
					<path class="st8" d="M61.4,39.3c1-0.9,1.6-2.1,1.8-3.1c0.3-3.3-2-5.5-4.9-6c-3.3-0.3-4.4,3.3-6,5.9c-0.9,1.4-2.2,2.9-3.7,3.6
						c-1,0.4-1.9,0.9-2.9,1.3c-2.8,1.2-5.5,2.5-8.3,3.7c-1.8,0.8-3.6,1.6-5.3,2.4c-0.7,0.3-1.4,0.7-2.2,0.8c-1.9,0.4-3.6,0-5.5-0.5
						c-1.6-0.5-3.2-0.7-4.6,0.3c-3.6,2.6-1.5,8.1,2.8,7.9"/>
				</g>
				<polygon class="st10" points="62.5,38.3 63.9,38.6 65.3,39.6 66.5,41 66.7,42.5 66.5,44 65.9,45.2 64.8,46.3 63.3,46.9 
					61.3,46.9 59,46.3 57.1,46 55.3,46.1 53.3,46.5 51.3,47.3 38.7,53 36.3,54.2 34.3,55.8 32.7,57.8 31.3,60 30.3,61.5 28.6,62.9 
					26.4,63.5 24.5,63.5 22.5,62.2 21.8,60 21.6,58 22,56.5 22.5,55.6 21,55.4 19.7,54.6 18.6,53.4 18,51.3 18.4,49 20.5,47.1 
					23.3,47.1 25.8,47.7 28.2,48 30.4,47.7 33.2,46.5 47.4,40.2 50.1,38.8 51.8,36.9 53.3,34.3 54.7,32.1 56.3,30.6 58.6,30.3 
					60.4,30.9 62,32.2 63,33.5 63.3,35.5 62.9,37.3 				"/>
			</g>
			<g>
				<g id="hueso_1_">
					<path class="st8" d="M-52.6,35.9c-1.9-1-4.2-0.7-6,0.8c-2,1.5-2,3.8-1.1,5.3c1.2,2.9,4.4,3.2,7.4,3.7c2.4,0.3,4.4,1.5,6.2,3.1
						c2.3,2,4.5,4.2,6.7,6.3c1,0.9,1.9,1.9,2.9,2.8c1.8,1.7,3.7,3.6,4.6,6c1,2.5-0.1,5.6,2.5,7.3c3.7,2.5,8-1.3,6.6-5.2"/>
					<path class="st8" d="M-24.2,65.5c1.1,0.6,2.5,0.8,3.5,0.5c3.2-0.9,4.3-3.9,3.7-6.8c-0.9-3.2-4.7-2.9-7.7-3.4
						c-1.6-0.3-3.5-0.9-4.7-2.1c-0.8-0.7-1.5-1.5-2.3-2.2c-2.2-2.1-4.3-4.2-6.5-6.3c-1.4-1.4-2.8-2.7-4.2-4.1
						c-0.6-0.6-1.1-1.1-1.6-1.8c-1.1-1.6-1.4-3.4-1.6-5.3c-0.2-1.6-0.5-3.2-2-4.2c-3.8-2.4-8,1.7-6.3,5.5"/>
				</g>
				<polygon class="st10" points="-22.9,66.2 -22.7,67.6 -23,69.3 -23.9,70.9 -25.3,71.7 -26.7,72.1 -28,72 -29.4,71.3 -30.6,70.2 
					-31.4,68.3 -31.6,65.9 -32,64 -32.8,62.4 -34,60.8 -35.4,59.2 -45.4,49.5 -47.4,47.9 -49.6,46.6 -52.1,45.8 -54.7,45.4 
					-56.4,44.9 -58.3,43.9 -59.8,42.1 -60.4,40.3 -60,38 -58.2,36.5 -56.4,35.6 -54.9,35.4 -53.8,35.5 -54.2,34.1 -54,32.5 
					-53.2,31.1 -51.6,29.7 -49.3,29.3 -46.7,30.5 -45.7,33.1 -45.3,35.6 -44.7,38 -43.6,39.9 -41.4,42.1 -30.3,52.9 -28,54.8 
					-25.6,55.7 -22.7,56.2 -20.1,56.6 -18.1,57.5 -16.9,59.6 -16.8,61.5 -17.4,63.5 -18.3,64.9 -20,65.9 -21.8,66.2 				"/>
			</g>
			<g>
				<g id="hueso_2_">
					<path class="st8" d="M-53.8,158.6c-1.9-1-4.2-0.7-6,0.8c-2,1.5-2,3.8-1.1,5.3c1.2,2.9,4.4,3.2,7.4,3.7c2.4,0.3,4.4,1.5,6.2,3.1
						c2.3,2,4.5,4.2,6.7,6.3c1,0.9,1.9,1.9,2.9,2.8c1.8,1.7,3.7,3.6,4.6,6c1,2.5-0.1,5.6,2.5,7.3c3.7,2.5,8-1.3,6.6-5.2"/>
					<path class="st8" d="M-25.4,188.3c1.1,0.6,2.5,0.8,3.5,0.5c3.2-0.9,4.3-3.9,3.7-6.8c-0.9-3.2-4.7-2.9-7.7-3.4
						c-1.6-0.3-3.5-0.9-4.7-2.1c-0.8-0.7-1.5-1.5-2.3-2.2c-2.2-2.1-4.3-4.2-6.5-6.3c-1.4-1.4-2.8-2.7-4.2-4.1
						c-0.6-0.6-1.1-1.1-1.6-1.8c-1.1-1.6-1.4-3.4-1.6-5.3c-0.2-1.6-0.5-3.2-2-4.2c-3.8-2.4-8,1.7-6.3,5.5"/>
				</g>
				<polygon class="st10" points="-24,188.9 -23.8,190.4 -24.2,192.1 -25.1,193.6 -26.5,194.4 -27.9,194.8 -29.2,194.7 -30.6,194.1 
					-31.8,192.9 -32.5,191 -32.8,188.7 -33.2,186.7 -34,185.2 -35.1,183.5 -36.6,181.9 -46.6,172.3 -48.6,170.6 -50.8,169.3 
					-53.3,168.6 -55.8,168.1 -57.6,167.7 -59.5,166.7 -60.9,164.8 -61.6,163 -61.2,160.8 -59.4,159.3 -57.6,158.4 -56,158.2 
					-55,158.3 -55.4,156.8 -55.2,155.3 -54.4,153.8 -52.8,152.5 -50.5,152 -47.9,153.2 -46.8,155.9 -46.5,158.4 -45.9,160.7 
					-44.7,162.7 -42.6,164.8 -31.5,175.6 -29.1,177.6 -26.7,178.5 -23.8,178.9 -21.3,179.4 -19.3,180.3 -18.1,182.3 -18,184.3 
					-18.6,186.2 -19.5,187.6 -21.2,188.6 -23,189 				"/>
			</g>
			<g>
				<g id="hueso_3_">
					<path class="st8" d="M31.3,236.8c1.7-1.3,2.4-3.5,1.8-5.8c-0.5-2.5-2.6-3.4-4.3-3.2c-3.2-0.1-4.7,2.7-6.5,5.1
						c-1.3,2-3.2,3.4-5.4,4.3c-2.8,1.2-5.7,2.3-8.5,3.4c-1.3,0.5-2.5,0.9-3.8,1.4c-2.3,0.9-4.8,1.8-7.4,1.6
						c-2.7-0.2-5.1-2.4-7.7-0.9c-3.8,2.3-2.2,7.8,1.9,8.1"/>
					<path class="st8" d="M-7.6,250c-1,0.8-1.8,2-2,3c-0.5,3.3,1.7,5.6,4.6,6.3c3.3,0.5,4.6-3.1,6.3-5.5c1-1.3,2.3-2.8,3.9-3.4
						c1-0.4,2-0.7,3-1.1c2.8-1.1,5.7-2.1,8.5-3.2c1.8-0.7,3.6-1.4,5.5-2.1c0.8-0.3,1.4-0.6,2.3-0.7c1.9-0.3,3.6,0.2,5.4,0.8
						c1.6,0.6,3.1,0.9,4.6,0c3.8-2.4,1.9-8-2.3-8.1"/>
				</g>
				<polygon class="st10" points="-8.7,250.9 -10.2,250.5 -11.5,249.5 -12.6,248 -12.7,246.4 -12.5,244.9 -11.8,243.8 -10.6,242.8 
					-9.1,242.2 -7,242.3 -4.8,243.1 -2.9,243.6 -1.2,243.5 0.9,243.2 2.9,242.5 15.9,237.6 18.3,236.5 20.3,235 22.1,233.1 
					23.6,231 24.7,229.6 26.4,228.2 28.7,227.7 30.6,227.9 32.5,229.2 33.1,231.5 33.1,233.5 32.7,235 32.1,235.9 33.6,236.2 
					34.9,237 35.9,238.3 36.5,240.4 35.9,242.6 33.7,244.5 30.8,244.3 28.4,243.5 26,243.1 23.8,243.3 20.9,244.4 6.5,249.9 
					3.7,251.1 1.9,252.9 0.2,255.4 -1.3,257.5 -2.9,258.9 -5.3,259.1 -7.1,258.4 -8.6,257 -9.5,255.6 -9.7,253.6 -9.2,251.9 				"/>
			</g>
			<g>
				<g id="hueso_5_">
					<path class="st8" d="M-55.9,280.9c-2-0.8-4.2-0.2-5.9,1.4c-1.9,1.7-1.6,4-0.5,5.4c1.5,2.8,4.8,2.7,7.7,2.9
						c2.4,0.1,4.6,1,6.5,2.4c2.5,1.8,4.9,3.7,7.3,5.6c1.1,0.8,2.1,1.7,3.2,2.5c2,1.5,4,3.2,5.2,5.5c1.2,2.4,0.5,5.6,3.2,7
						c3.9,2.1,7.8-2.2,6-5.8"/>
					<path class="st8" d="M-24.5,307.4c1.2,0.4,2.6,0.5,3.6,0.2c3.1-1.3,3.9-4.3,3-7.2c-1.3-3.1-5-2.3-8-2.6
						c-1.7-0.1-3.6-0.5-4.9-1.6c-0.8-0.7-1.7-1.3-2.5-2c-2.4-1.9-4.8-3.7-7.1-5.6c-1.5-1.2-3.1-2.4-4.6-3.6
						c-0.6-0.5-1.2-0.9-1.8-1.6c-1.2-1.5-1.7-3.2-2.1-5.1c-0.3-1.6-0.9-3.2-2.4-3.9c-4-2-7.8,2.5-5.7,6.2"/>
				</g>
				<polygon class="st10" points="-23.1,307.9 -22.7,309.3 -22.9,311 -23.6,312.7 -24.9,313.6 -26.3,314.2 -27.6,314.2 -29,313.7 
					-30.3,312.7 -31.3,310.9 -31.8,308.6 -32.4,306.7 -33.3,305.2 -34.7,303.7 -36.3,302.2 -47.3,293.7 -49.4,292.3 -51.8,291.2 
					-54.3,290.7 -56.9,290.6 -58.7,290.3 -60.7,289.5 -62.3,287.8 -63.2,286.1 -63,283.8 -61.3,282.1 -59.7,281.1 -58.1,280.7 
					-57.1,280.7 -57.6,279.3 -57.6,277.7 -57,276.2 -55.5,274.7 -53.3,274 -50.6,274.9 -49.2,277.4 -48.7,279.9 -47.8,282.2 
					-46.4,284 -44,285.9 -31.9,295.4 -29.3,297.1 -26.9,297.8 -23.9,297.9 -21.3,298.1 -19.3,298.8 -17.9,300.7 -17.6,302.6 
					-17.9,304.6 -18.7,306.1 -20.3,307.3 -22,307.8 				"/>
			</g>
			<g>
				<g id="hueso_6_">
					<path class="st8" d="M102.6,288.7c-1.2-1.8-3.3-2.6-5.7-2.2c-2.5,0.3-3.6,2.4-3.5,4.1c-0.3,3.1,2.4,4.9,4.7,6.8
						c1.9,1.4,3.2,3.4,4,5.7c1,2.9,2,5.8,2.9,8.7c0.4,1.3,0.7,2.6,1.2,3.9c0.8,2.4,1.5,4.9,1.2,7.5c-0.4,2.7-2.7,4.9-1.3,7.6
						c2,3.9,7.6,2.7,8.2-1.4"/>
					<path class="st8" d="M113.5,328.3c0.7,1,1.9,1.9,2.9,2.2c3.3,0.7,5.7-1.3,6.5-4.2c0.7-3.3-2.8-4.8-5.1-6.7
						c-1.3-1-2.7-2.5-3.2-4.1c-0.3-1-0.6-2-0.9-3c-0.9-2.9-1.8-5.8-2.7-8.7c-0.6-1.9-1.2-3.7-1.7-5.6c-0.2-0.8-0.5-1.5-0.6-2.3
						c-0.1-1.9,0.4-3.6,1.1-5.4c0.6-1.5,1.1-3.1,0.2-4.6c-2.2-3.9-7.8-2.4-8.2,1.8"/>
				</g>
				<polygon class="st10" points="114.3,329.5 113.8,330.9 112.7,332.2 111.2,333.1 109.6,333.2 108.1,332.9 107,332.1 106.1,330.9 
					105.6,329.3 105.9,327.3 106.8,325.1 107.3,323.2 107.4,321.5 107.2,319.5 106.7,317.4 102.5,304.1 101.5,301.7 100.2,299.5 
					98.4,297.6 96.3,296 95,294.8 93.8,293 93.4,290.7 93.7,288.8 95.2,287.1 97.5,286.6 99.5,286.6 100.9,287.2 101.8,287.8 
					102.1,286.3 103,285.1 104.4,284.2 106.5,283.7 108.7,284.5 110.4,286.8 110.1,289.6 109.2,291.9 108.6,294.3 108.7,296.6 
					109.6,299.5 114.2,314.3 115.3,317.1 117,319.1 119.3,320.9 121.3,322.5 122.6,324.2 122.7,326.6 121.9,328.3 120.4,329.8 
					119,330.6 117,330.6 115.3,330.1 				"/>
			</g>
			<g>
				<g id="hueso_7_">
					<path class="st8" d="M191.7,279.3c-2-0.8-4.2-0.3-5.9,1.3c-1.9,1.7-1.6,4-0.6,5.4c1.5,2.8,4.7,2.7,7.7,3
						c2.4,0.1,4.6,1.1,6.5,2.5c2.5,1.8,4.9,3.7,7.2,5.7c1.1,0.8,2.1,1.7,3.1,2.6c2,1.5,4,3.2,5.1,5.5c1.2,2.4,0.5,5.6,3.1,7.1
						c3.9,2.1,7.8-2.1,6.1-5.7"/>
					<path class="st8" d="M222.8,306.1c1.2,0.5,2.6,0.5,3.6,0.2c3.1-1.2,4-4.3,3.1-7.1c-1.2-3.1-5-2.4-8-2.7
						c-1.7-0.1-3.6-0.6-4.9-1.6c-0.8-0.7-1.7-1.3-2.5-2c-2.4-1.9-4.7-3.8-7.1-5.7c-1.5-1.2-3-2.4-4.5-3.7c-0.6-0.5-1.2-0.9-1.7-1.6
						c-1.2-1.5-1.7-3.2-2-5.1c-0.3-1.6-0.8-3.2-2.4-4c-4-2-7.8,2.4-5.8,6.1"/>
				</g>
				<polygon class="st10" points="224.2,306.6 224.5,308.1 224.3,309.8 223.6,311.4 222.3,312.3 220.9,312.9 219.6,312.9 
					218.1,312.4 216.8,311.3 215.9,309.5 215.4,307.2 214.8,305.3 213.9,303.8 212.6,302.3 211,300.8 200.2,292.2 198,290.7 
					195.7,289.6 193.1,289.1 190.6,288.9 188.8,288.6 186.8,287.8 185.2,286.1 184.4,284.3 184.6,282.1 186.2,280.4 187.9,279.3 
					189.4,279 190.5,279 190,277.6 190,276.1 190.6,274.5 192.1,273 194.4,272.3 197.1,273.3 198.4,275.8 198.9,278.3 199.8,280.6 
					201.1,282.4 203.5,284.4 215.5,294.1 218,295.8 220.5,296.5 223.5,296.7 226.1,296.9 228.1,297.6 229.5,299.5 229.7,301.4 
					229.4,303.4 228.6,304.9 227,306.1 225.2,306.6 				"/>
			</g>
			<g>
				<g id="hueso_8_">
					<path class="st8" d="M314.8,275.6c-1-1.9-3.1-2.9-5.5-2.7c-2.5,0.1-3.8,2.1-3.9,3.8c-0.6,3.1,1.9,5.1,4.1,7.2
						c1.8,1.6,2.9,3.7,3.5,6c0.8,3,1.4,6,2.1,9c0.3,1.3,0.5,2.7,0.8,4c0.6,2.4,1.1,5,0.5,7.5c-0.6,2.6-3.2,4.6-2,7.5
						c1.7,4.1,7.4,3.3,8.3-0.6"/>
					<path class="st8" d="M322,316c0.6,1.1,1.7,2,2.6,2.4c3.2,1,5.8-0.8,6.9-3.6c1-3.2-2.4-5-4.5-7.1c-1.2-1.2-2.4-2.7-2.8-4.4
						c-0.2-1-0.4-2.1-0.7-3.1c-0.6-3-1.3-5.9-1.9-8.9c-0.4-1.9-0.8-3.8-1.2-5.7c-0.2-0.8-0.4-1.5-0.3-2.3c0-1.9,0.7-3.6,1.6-5.2
						c0.8-1.5,1.4-3,0.6-4.6c-1.8-4.1-7.6-3.1-8.3,1.1"/>
				</g>
				<polygon class="st10" points="322.8,317.3 322.1,318.7 320.9,319.9 319.3,320.7 317.7,320.6 316.3,320.1 315.2,319.3 314.4,318 
					314.1,316.4 314.5,314.4 315.6,312.3 316.4,310.4 316.6,308.7 316.5,306.7 316.2,304.5 313.2,291 312.5,288.5 311.4,286.2 
					309.7,284.1 307.9,282.4 306.6,281 305.6,279.1 305.4,276.8 305.9,274.9 307.5,273.3 309.8,273 311.8,273.3 313.2,274 
					314,274.7 314.5,273.2 315.5,272 317,271.3 319.1,271 321.2,271.9 322.7,274.4 322.1,277.2 321,279.4 320.2,281.8 320.1,284 
					320.7,287 324,302.1 324.8,305.1 326.3,307.1 328.5,309.2 330.4,310.9 331.5,312.8 331.4,315.1 330.4,316.8 328.8,318.1 
					327.3,318.8 325.3,318.7 323.6,318 				"/>
			</g>
			<g>
				<g id="hueso_9_">
					<path class="st8" d="M355.1,183.5c-1.3-1.7-3.5-2.3-5.8-1.8c-2.5,0.5-3.4,2.7-3.2,4.4c-0.1,3.2,2.7,4.7,5.2,6.4
						c2,1.3,3.4,3.2,4.4,5.4c1.2,2.8,2.4,5.6,3.5,8.5c0.5,1.3,0.9,2.5,1.4,3.8c1,2.3,1.9,4.8,1.7,7.4c-0.2,2.7-2.4,5.1-0.8,7.7
						c2.3,3.8,7.8,2.1,8.1-2"/>
					<path class="st8" d="M368.8,222.2c0.8,1,2,1.7,3,2c3.3,0.5,5.6-1.7,6.2-4.7c0.5-3.3-3.1-4.6-5.6-6.3c-1.4-0.9-2.8-2.3-3.4-3.9
						c-0.4-1-0.8-2-1.2-3c-1.1-2.8-2.2-5.6-3.3-8.4c-0.7-1.8-1.4-3.6-2.1-5.4c-0.3-0.8-0.6-1.4-0.7-2.3c-0.3-1.9,0.1-3.6,0.8-5.4
						c0.5-1.6,0.9-3.2-0.1-4.6c-2.4-3.7-8-1.8-8,2.4"/>
				</g>
				<polygon class="st10" points="369.7,223.3 369.3,224.8 368.3,226.2 366.8,227.2 365.2,227.4 363.8,227.1 362.6,226.5 
					361.6,225.3 361,223.8 361.1,221.8 361.9,219.5 362.3,217.6 362.2,215.8 361.9,213.8 361.2,211.8 356.1,198.9 354.9,196.5 
					353.5,194.4 351.5,192.7 349.4,191.2 348,190.1 346.6,188.4 346.1,186.1 346.2,184.2 347.6,182.4 349.8,181.7 351.8,181.7 
					353.3,182.1 354.2,182.7 354.5,181.1 355.2,179.8 356.6,178.8 358.6,178.3 360.9,178.8 362.7,181 362.6,183.8 361.9,186.2 
					361.5,188.6 361.7,190.9 362.8,193.7 368.5,208.2 369.8,210.9 371.6,212.7 374,214.4 376.2,215.8 377.6,217.5 377.9,219.8 
					377.1,221.6 375.8,223.2 374.4,224.1 372.4,224.3 370.7,223.8 				"/>
			</g>
			<g>
				<g id="hueso_10_">
					<path class="st8" d="M192.4,157.4c-2-0.7-4.2-0.1-5.9,1.6c-1.8,1.7-1.5,4.1-0.4,5.4c1.6,2.7,4.8,2.6,7.8,2.7
						c2.4,0,4.6,0.9,6.6,2.3c2.5,1.7,5,3.6,7.4,5.4c1.1,0.8,2.1,1.7,3.2,2.4c2,1.5,4.1,3.1,5.3,5.4c1.3,2.4,0.7,5.6,3.4,6.9
						c4,2,7.8-2.3,5.8-6"/>
					<path class="st8" d="M224.4,183.1c1.2,0.4,2.6,0.4,3.6,0.1c3.1-1.3,3.8-4.4,2.8-7.2c-1.3-3.1-5.1-2.2-8.1-2.4
						c-1.7-0.1-3.6-0.5-5-1.5c-0.8-0.6-1.7-1.3-2.5-1.9c-2.4-1.8-4.8-3.6-7.3-5.4c-1.6-1.2-3.1-2.3-4.7-3.5
						c-0.7-0.5-1.3-0.9-1.8-1.5c-1.3-1.5-1.8-3.2-2.2-5c-0.4-1.6-0.9-3.1-2.5-3.9c-4-1.9-7.7,2.7-5.6,6.3"/>
				</g>
				<polygon class="st10" points="225.8,183.6 226.2,185 226.1,186.7 225.4,188.4 224.2,189.3 222.8,189.9 221.4,190 220,189.5 
					218.7,188.5 217.7,186.7 217.1,184.5 216.5,182.6 215.5,181.1 214.1,179.6 212.5,178.2 201.3,170 199.1,168.6 196.8,167.6 
					194.2,167.1 191.6,167 189.8,166.8 187.8,166.1 186.1,164.4 185.3,162.7 185.4,160.4 187,158.7 188.6,157.6 190.2,157.2 
					191.2,157.2 190.6,155.8 190.6,154.2 191.2,152.7 192.6,151.1 194.9,150.4 197.6,151.3 199,153.7 199.6,156.2 200.5,158.4 
					201.9,160.2 204.4,162 216.8,171.3 219.3,173 221.8,173.6 224.8,173.6 227.4,173.7 229.4,174.4 230.9,176.3 231.2,178.2 
					230.9,180.2 230.2,181.7 228.6,182.9 226.9,183.5 				"/>
			</g>
			<g>
				<g id="hueso_11_">
					<path class="st8" d="M308.1,99.2c1.6-1.5,2-3.7,1.3-5.9c-0.7-2.4-2.9-3.2-4.6-2.8c-3.2,0.2-4.5,3.1-6,5.7
						c-1.1,2.1-2.9,3.7-5,4.8c-2.7,1.5-5.4,2.8-8.2,4.2c-1.2,0.6-2.5,1.1-3.6,1.7c-2.2,1.2-4.6,2.3-7.2,2.3c-2.7,0.1-5.3-2-7.7-0.2
						c-3.6,2.6-1.5,8,2.6,7.9"/>
					<path class="st8" d="M270.6,116c-0.9,0.9-1.6,2.1-1.7,3.1c-0.2,3.3,2.2,5.4,5.1,5.8c3.3,0.2,4.3-3.5,5.8-6.1
						c0.8-1.4,2.1-3,3.6-3.8c1-0.5,1.9-0.9,2.9-1.4c2.7-1.3,5.4-2.7,8.1-4c1.7-0.9,3.5-1.7,5.2-2.6c0.7-0.4,1.4-0.7,2.2-0.9
						c1.9-0.4,3.6-0.2,5.5,0.3c1.6,0.4,3.2,0.6,4.6-0.5c3.5-2.7,1.1-8.1-3.1-7.8"/>
				</g>
				<polygon class="st10" points="269.6,117 268.1,116.7 266.7,115.8 265.5,114.4 265.2,112.9 265.3,111.4 265.9,110.2 266.9,109.1 
					268.4,108.4 270.5,108.3 272.7,108.9 274.7,109.1 276.4,108.9 278.4,108.4 280.4,107.6 292.8,101.4 295.1,100.1 297,98.4 
					298.6,96.3 299.9,94.1 300.9,92.6 302.5,91.1 304.7,90.4 306.6,90.4 308.6,91.5 309.4,93.8 309.6,95.7 309.3,97.3 308.8,98.2 
					310.4,98.3 311.7,99 312.8,100.2 313.6,102.2 313.2,104.6 311.2,106.6 308.4,106.7 305.9,106.2 303.5,106 301.2,106.4 
					298.5,107.7 284.6,114.5 282,116 280.3,118 278.9,120.6 277.6,122.9 276.1,124.4 273.8,124.8 271.9,124.3 270.3,123.1 
					269.2,121.7 268.9,119.8 269.2,118 				"/>
			</g>
			<g>
				<g id="hueso_12_">
					<path class="st8" d="M208,29.9c0.2-2.1-0.9-4.1-2.9-5.3c-2.1-1.4-4.3-0.5-5.3,0.9c-2.3,2.2-1.3,5.3-0.8,8.2
						c0.5,2.3,0.2,4.7-0.6,6.9c-1.1,2.9-2.3,5.7-3.5,8.5c-0.5,1.2-1.1,2.5-1.6,3.7c-0.9,2.3-2,4.7-3.9,6.4c-2,1.8-5.3,2-5.9,4.9
						c-1,4.3,4.1,7,7.2,4.3"/>
					<path class="st8" d="M190.6,67.1c-0.1,1.3,0.2,2.6,0.8,3.5c2,2.7,5.2,2.7,7.7,1c2.7-2,1-5.5,0.4-8.4c-0.3-1.6-0.4-3.6,0.2-5.2
						c0.4-1,0.8-1.9,1.2-2.9c1.2-2.8,2.4-5.6,3.5-8.3c0.8-1.8,1.5-3.6,2.3-5.4c0.3-0.8,0.6-1.4,1.1-2.1c1.1-1.6,2.6-2.5,4.3-3.4
						c1.5-0.7,2.8-1.6,3.2-3.4c0.9-4.4-4.4-6.9-7.4-3.9"/>
				</g>
				<polygon class="st10" points="190.5,68.6 189.2,69.3 187.5,69.6 185.7,69.3 184.5,68.3 183.6,67.1 183.2,65.8 183.3,64.3 
					183.9,62.8 185.4,61.4 187.5,60.3 189.2,59.2 190.4,58 191.5,56.3 192.5,54.3 197.8,41.5 198.7,39.1 199.1,36.5 198.9,33.9 
					198.4,31.4 198.2,29.6 198.4,27.5 199.6,25.4 201.1,24.2 203.3,23.8 205.4,24.9 206.9,26.3 207.6,27.6 207.8,28.6 209.1,27.7 
					210.6,27.4 212.2,27.6 214.1,28.6 215.3,30.6 215.1,33.4 213.1,35.4 210.8,36.6 208.9,38 207.5,39.8 206.3,42.6 200.2,56.8 
					199.2,59.7 199.2,62.3 199.8,65.2 200.4,67.7 200.2,69.9 198.8,71.7 197,72.5 194.9,72.7 193.3,72.4 191.7,71.1 190.8,69.6 				
					"/>
			</g>
			<polygon class="st9" points="119.5,102.5 118.9,103.9 117.8,105.2 116.3,106.1 114.7,106.2 113.3,105.8 112.1,105.1 111.2,103.9 
				110.7,102.3 111,100.3 111.9,98.1 112.4,96.2 112.5,94.5 112.3,92.4 111.8,90.3 107.5,77.1 106.6,74.7 105.3,72.5 103.4,70.6 
				101.4,69 100.1,67.8 98.8,66 98.5,63.7 98.8,61.8 100.2,60 102.5,59.6 104.5,59.6 106,60.2 106.8,60.8 107.2,59.3 108,58 
				109.4,57.1 111.5,56.7 113.8,57.4 115.4,59.7 115.1,62.5 114.2,64.9 113.7,67.3 113.7,69.5 114.6,72.4 119.3,87.2 120.4,90.1 
				122.1,92 124.4,93.8 126.5,95.4 127.7,97.1 127.8,99.5 127,101.2 125.6,102.7 124.1,103.5 122.1,103.6 120.4,103 			"/>
			<g>
				<g id="hueso_14_">
					<path class="st8" d="M107.9,61.9c-1.2-1.8-3.3-2.6-5.7-2.2c-2.5,0.4-3.6,2.4-3.5,4.1c-0.3,3.1,2.4,4.9,4.7,6.8
						c1.9,1.4,3.2,3.4,4,5.7c1,2.9,2,5.8,2.9,8.7c0.4,1.3,0.7,2.6,1.2,3.9c0.8,2.4,1.5,4.9,1.2,7.5c-0.4,2.7-2.7,4.9-1.3,7.6
						c2,3.9,7.7,2.7,8.2-1.4"/>
					<path class="st8" d="M118.8,101.5c0.7,1,1.9,1.9,2.9,2.2c3.3,0.7,5.7-1.3,6.5-4.2c0.7-3.3-2.8-4.8-5.1-6.7
						c-1.3-1-2.7-2.5-3.2-4.1c-0.3-1-0.6-2-1-3c-0.9-2.9-1.8-5.8-2.7-8.7c-0.6-1.9-1.2-3.7-1.8-5.6c-0.2-0.8-0.5-1.5-0.6-2.3
						c-0.1-1.9,0.4-3.6,1.1-5.4c0.6-1.5,1.1-3.1,0.2-4.6c-2.2-3.9-7.8-2.4-8.2,1.8"/>
				</g>
				<polygon class="st10" points="119.7,102.7 119.1,104.1 118,105.4 116.5,106.3 114.9,106.4 113.5,106.1 112.3,105.3 111.4,104.1 
					110.9,102.5 111.2,100.5 112.1,98.3 112.6,96.4 112.7,94.7 112.5,92.6 112,90.5 107.7,77.3 106.8,74.9 105.4,72.7 103.6,70.8 
					101.6,69.3 100.2,68 99,66.2 98.7,63.9 98.9,62 100.4,60.3 102.7,59.8 104.7,59.8 106.1,60.4 107,61 107.4,59.5 108.2,58.3 
					109.6,57.4 111.7,56.9 113.9,57.6 115.6,59.9 115.3,62.8 114.4,65.1 113.8,67.5 113.9,69.8 114.8,72.7 119.5,87.4 120.6,90.3 
					122.2,92.2 124.6,94 126.7,95.6 127.9,97.3 128,99.7 127.2,101.4 125.8,102.9 124.3,103.7 122.3,103.8 120.6,103.2 				"/>
			</g>
			<polygon class="st10" points="350.3,59.7 351.3,60.9 351.8,62.5 351.8,64.3 351.1,65.7 350,66.8 348.8,67.3 347.3,67.5 
				345.7,67.1 344.1,65.8 342.7,63.9 341.3,62.5 339.9,61.5 338,60.7 336,60 322.5,56.8 319.9,56.4 317.3,56.4 314.8,57 312.4,57.9 
				310.6,58.4 308.5,58.6 306.3,57.7 304.8,56.5 304.1,54.3 304.9,52.1 305.9,50.4 307.2,49.5 308.1,49 307,47.9 306.4,46.6 
				306.4,44.9 307.1,42.9 308.8,41.3 311.7,41.1 313.9,42.8 315.5,44.8 317.2,46.5 319.2,47.6 322.2,48.3 337.2,52 340.2,52.5 
				342.7,52.1 345.5,51 347.9,50.1 350,49.9 352.1,51 353.2,52.6 353.7,54.6 353.6,56.3 352.7,58 351.3,59.2 			"/>
			<polygon class="st10" points="306.1,216.6 307.5,217 308.9,217.9 310.1,219.3 310.3,220.9 310.1,222.4 309.5,223.6 308.4,224.6 
				306.9,225.3 304.9,225.3 302.6,224.7 300.6,224.3 298.9,224.4 296.9,224.9 294.9,225.7 282.2,231.4 279.9,232.6 277.9,234.2 
				276.3,236.2 274.9,238.4 273.8,239.9 272.2,241.3 270,241.9 268,241.8 266.1,240.6 265.4,238.4 265.2,236.4 265.6,234.9 
				266.1,234 264.6,233.7 263.3,233 262.2,231.7 261.5,229.7 262,227.4 264.1,225.5 266.9,225.5 269.4,226.1 271.8,226.4 274,226.1 
				276.8,224.8 291,218.6 293.7,217.1 295.4,215.2 296.9,212.7 298.3,210.5 299.9,209 302.2,208.7 304,209.3 305.6,210.5 
				306.6,211.9 306.9,213.9 306.5,215.7 			"/>
			<g id="hueso_13_">
				<path class="st8" d="M266.9,233c-1.6,1.4-2.2,3.6-1.5,5.9c0.6,2.4,2.8,3.3,4.5,3c3.2,0,4.6-2.9,6.2-5.5c1.2-2.1,3.1-3.6,5.2-4.6
					c2.7-1.4,5.5-2.6,8.3-3.9c1.2-0.5,2.5-1,3.7-1.6c2.3-1.1,4.7-2.1,7.3-2c2.7,0.1,5.2,2.2,7.7,0.5c3.7-2.5,1.8-7.9-2.3-8"/>
				<path class="st8" d="M305,217.6c1-0.9,1.6-2.1,1.8-3.1c0.3-3.3-2-5.5-4.9-6c-3.3-0.3-4.4,3.3-6,5.9c-0.9,1.4-2.2,2.9-3.7,3.6
					c-1,0.4-1.9,0.9-2.9,1.3c-2.8,1.2-5.5,2.5-8.3,3.7c-1.8,0.8-3.6,1.6-5.3,2.4c-0.7,0.3-1.4,0.7-2.2,0.8c-1.9,0.4-3.6,0-5.5-0.5
					c-1.6-0.5-3.2-0.7-4.6,0.3c-3.6,2.6-1.5,8.1,2.8,7.9"/>
			</g>
		</g>
		<g id="circulos" class="st5">
			<path class="st11" d="M87.2,316.4c-2.8,1.1-3.4,5.2-0.4,6.4c1.3,0.5,2.9,0.2,3.8-0.9c0.9-1,1.2-2.6,0.5-3.9
				C90.5,316.8,88.7,315.9,87.2,316.4z"/>
			<path class="st11" d="M-82,209.1c-4.8,1.8-5.8,8.7-0.7,10.8c2.2,0.9,4.8,0.3,6.4-1.4c1.6-1.7,1.9-4.4,0.9-6.5
				C-76.5,209.7-79.5,208.2-82,209.1z"/>
			<path class="st11" d="M-15.2,133.5c-4.8,1.8-5.8,8.7-0.7,10.8c2.2,0.9,4.8,0.3,6.4-1.4c1.6-1.7,1.9-4.4,0.9-6.5
				C-9.8,134.1-12.7,132.6-15.2,133.5z"/>
			<path class="st11" d="M44.5,185c-4.8,1.8-5.8,8.7-0.7,10.8c2.2,0.9,4.8,0.3,6.4-1.4c1.6-1.7,1.9-4.4,0.9-6.5
				C50,185.6,47,184.1,44.5,185z"/>
			<path class="st11" d="M-18.7,156.6c-2.8,1.1-3.4,5.2-0.4,6.4c1.3,0.5,2.9,0.2,3.8-0.9c0.9-1,1.2-2.6,0.5-3.9
				C-15.4,156.9-17.2,156-18.7,156.6z"/>
			<path class="st11" d="M24,198.4c-2.8,1.1-3.4,5.2-0.4,6.4c1.3,0.5,2.9,0.2,3.8-0.9c0.9-1,1.2-2.6,0.5-3.9
				C27.2,198.7,25.4,197.8,24,198.4z"/>
			<path class="st11" d="M14.2,172.6c-2,0.7-2.4,3.7-0.3,4.5c0.9,0.4,2,0.1,2.7-0.6c0.7-0.7,0.8-1.8,0.4-2.7
				C16.5,172.8,15.3,172.2,14.2,172.6z"/>
			<path class="st11" d="M116.6,127c-4.8,1.8-5.8,8.7-0.7,10.8c2.2,0.9,4.8,0.3,6.4-1.4c1.6-1.7,1.9-4.4,0.9-6.5
				C122,127.6,119.1,126.1,116.6,127z"/>
			<path class="st11" d="M105.2,142.4c-2.8,1.1-3.4,5.2-0.4,6.4c1.3,0.5,2.9,0.2,3.8-0.9c0.9-1,1.2-2.6,0.5-3.9
				C108.4,142.8,106.6,141.9,105.2,142.4z"/>
			<path class="st11" d="M90.1,131.3c-2,0.7-2.4,3.7-0.3,4.5c0.9,0.4,2,0.1,2.7-0.6c0.7-0.7,0.8-1.8,0.4-2.7
				C92.4,131.6,91.2,131,90.1,131.3z"/>
			<path class="st11" d="M126.3,192c-2,0.7-2.4,3.7-0.3,4.5c0.9,0.4,2,0.1,2.7-0.6c0.7-0.7,0.8-1.8,0.4-2.7
				C128.6,192.2,127.4,191.6,126.3,192z"/>
			<path class="st11" d="M-84.6,169.5c-2.8,1.1-3.4,5.2-0.4,6.4c1.3,0.5,2.9,0.2,3.8-0.9c0.9-1,1.2-2.6,0.5-3.9
				C-81.3,169.9-83.1,169-84.6,169.5z"/>
			<path class="st11" d="M-105.8,164.6c-2,0.7-2.4,3.7-0.3,4.5c0.9,0.4,2,0.1,2.7-0.6c0.7-0.7,0.8-1.8,0.4-2.7
				C-103.5,164.9-104.8,164.2-105.8,164.6z"/>
			<path class="st11" d="M-64,225.2c-2,0.7-2.4,3.7-0.3,4.5c0.9,0.4,2,0.1,2.7-0.6c0.7-0.7,0.8-1.8,0.4-2.7
				C-61.7,225.5-63,224.9-64,225.2z"/>
			<path class="st11" d="M231.6,133.5c-4.8,1.8-5.8,8.7-0.7,10.8c2.2,0.9,4.8,0.3,6.4-1.4c1.6-1.7,1.9-4.4,0.9-6.5
				C237.1,134.1,234.1,132.6,231.6,133.5z"/>
			<path class="st11" d="M311,174.7c-4.8,1.8-5.8,8.7-0.7,10.8c2.2,0.9,4.8,0.3,6.4-1.4c1.6-1.7,1.9-4.4,0.9-6.5
				C316.5,175.3,313.5,173.8,311,174.7z"/>
			<path class="st11" d="M228.1,156.6c-2.8,1.1-3.4,5.2-0.4,6.4c1.3,0.5,2.9,0.2,3.8-0.9c0.9-1,1.2-2.6,0.5-3.9
				C231.4,156.9,229.6,156,228.1,156.6z"/>
			<path class="st11" d="M290.5,188.1c-2.8,1.1-3.4,5.2-0.4,6.4c1.3,0.5,2.9,0.2,3.8-0.9c0.9-1,1.2-2.6,0.5-3.9
				C293.8,188.4,292,187.5,290.5,188.1z"/>
			<path class="st11" d="M342.9,212.5c-2.8,1.1-3.4,5.2-0.4,6.4c1.3,0.5,2.9,0.2,3.8-0.9s1.2-2.6,0.5-3.9
				C346.1,212.9,344.3,212,342.9,212.5z"/>
			<path class="st11" d="M269.3,183.2c-2,0.7-2.4,3.7-0.3,4.5c0.9,0.4,2,0.1,2.7-0.6c0.7-0.7,0.8-1.8,0.4-2.7
				C271.6,183.4,270.3,182.8,269.3,183.2z"/>
			<path class="st11" d="M363.4,127c-4.8,1.8-5.8,8.7-0.7,10.8c2.2,0.9,4.8,0.3,6.4-1.4c1.6-1.7,1.9-4.4,0.9-6.5
				C368.9,127.6,365.9,126.1,363.4,127z"/>
			<path class="st11" d="M352,142.4c-2.8,1.1-3.4,5.2-0.4,6.4c1.3,0.5,2.9,0.2,3.8-0.9c0.9-1,1.2-2.6,0.5-3.9
				C355.2,142.8,353.5,141.9,352,142.4z"/>
			<path class="st11" d="M337,131.3c-2,0.7-2.4,3.7-0.3,4.5c0.9,0.4,2,0.1,2.7-0.6c0.7-0.7,0.8-1.8,0.4-2.7
				C339.2,131.6,338,131,337,131.3z"/>
			<path class="st11" d="M373.2,192c-2,0.7-2.4,3.7-0.3,4.5c0.9,0.4,2,0.1,2.7-0.6c0.7-0.7,0.8-1.8,0.4-2.7
				C375.4,192.2,374.2,191.6,373.2,192z"/>
			<path class="st11" d="M162.2,169.5c-2.8,1.1-3.4,5.2-0.4,6.4c1.3,0.5,2.9,0.2,3.8-0.9c0.9-1,1.2-2.6,0.5-3.9
				C165.5,169.9,163.7,169,162.2,169.5z"/>
			<path class="st11" d="M141,164.6c-2,0.7-2.4,3.7-0.3,4.5c0.9,0.4,2,0.1,2.7-0.6c0.7-0.7,0.8-1.8,0.4-2.7
				C143.3,164.9,142.1,164.2,141,164.6z"/>
			<path class="st11" d="M-82,87c-4.8,1.8-5.8,8.7-0.7,10.8c2.2,0.9,4.8,0.3,6.4-1.4c1.6-1.7,1.9-4.4,0.9-6.5
				C-76.5,87.6-79.5,86-82,87z"/>
			<path class="st11" d="M-15.2,11.3c-4.8,1.8-5.8,8.7-0.7,10.8c2.2,0.9,4.8,0.3,6.4-1.4c1.6-1.7,1.9-4.4,0.9-6.5
				C-9.8,11.9-12.7,10.4-15.2,11.3z"/>
			<path class="st11" d="M37.7,87.8c-4.8,1.8-5.8,8.7-0.7,10.8c2.2,0.9,4.8,0.3,6.4-1.4c1.6-1.7,1.9-4.4,0.9-6.5
				C43.2,88.5,40.2,86.9,37.7,87.8z"/>
			<path class="st11" d="M-18.7,34.4c-2.8,1.1-3.4,5.2-0.4,6.4c1.3,0.5,2.9,0.2,3.8-0.9c0.9-1,1.2-2.6,0.5-3.9
				C-15.4,34.8-17.2,33.9-18.7,34.4z"/>
			<path class="st11" d="M17.2,101.2c-2.8,1.1-3.4,5.2-0.4,6.4c1.3,0.5,2.9,0.2,3.8-0.9s1.2-2.6,0.5-3.9
				C20.4,101.6,18.7,100.7,17.2,101.2z"/>
			<path class="st11" d="M96,90.3c-2.8,1.1-3.4,5.2-0.4,6.4c1.3,0.5,2.9,0.2,3.8-0.9c0.9-1,1.2-2.6,0.5-3.9
				C99.3,90.7,97.5,89.8,96,90.3z"/>
			<path class="st11" d="M2.8,71.3c-2,0.7-2.4,3.7-0.3,4.5c0.9,0.4,2,0.1,2.7-0.6c0.7-0.7,0.8-1.8,0.4-2.7C5,71.6,3.8,70.9,2.8,71.3
				z"/>
			<path class="st11" d="M66.3-3.8c-2,0.7-2.4,3.7-0.3,4.5c0.9,0.4,2,0.1,2.7-0.6c0.7-0.7,0.8-1.8,0.4-2.7
				C68.6-3.5,67.3-4.1,66.3-3.8z"/>
			<path class="st11" d="M116.6,4.8c-4.8,1.8-5.8,8.7-0.7,10.8c2.2,0.9,4.8,0.3,6.4-1.4c1.6-1.7,1.9-4.4,0.9-6.5
				C122,5.4,119.1,3.9,116.6,4.8z"/>
			<path class="st11" d="M105.2,20.3c-2.8,1.1-3.4,5.2-0.4,6.4c1.3,0.5,2.9,0.2,3.8-0.9s1.2-2.6,0.5-3.9
				C108.4,20.7,106.6,19.7,105.2,20.3z"/>
			<path class="st11" d="M90.1,9.2c-2,0.7-2.4,3.7-0.3,4.5c0.9,0.4,2,0.1,2.7-0.6c0.7-0.7,0.8-1.8,0.4-2.7
				C92.4,9.4,91.2,8.8,90.1,9.2z"/>
			<path class="st11" d="M126.3,69.8c-2,0.7-2.4,3.7-0.3,4.5c0.9,0.4,2,0.1,2.7-0.6c0.7-0.7,0.8-1.8,0.4-2.7
				C128.6,70.1,127.4,69.4,126.3,69.8z"/>
			<path class="st11" d="M-84.6,47.4c-2.8,1.1-3.4,5.2-0.4,6.4c1.3,0.5,2.9,0.2,3.8-0.9s1.2-2.6,0.5-3.9
				C-81.3,47.7-83.1,46.8-84.6,47.4z"/>
			<path class="st11" d="M-105.8,42.5c-2,0.7-2.4,3.7-0.3,4.5c0.9,0.4,2,0.1,2.7-0.6c0.7-0.7,0.8-1.8,0.4-2.7
				C-103.5,42.7-104.8,42.1-105.8,42.5z"/>
			<path class="st11" d="M-64,103.1c-2,0.7-2.4,3.7-0.3,4.5c0.9,0.4,2,0.1,2.7-0.6c0.7-0.7,0.8-1.8,0.4-2.7
				C-61.7,103.3-63,102.7-64,103.1z"/>
			<path class="st11" d="M164.8,87c-4.8,1.8-5.8,8.7-0.7,10.8c2.2,0.9,4.8,0.3,6.4-1.4c1.6-1.7,1.9-4.4,0.9-6.5
				C170.3,87.6,167.3,86,164.8,87z"/>
			<path class="st11" d="M231.6,11.3c-4.8,1.8-5.8,8.7-0.7,10.8c2.2,0.9,4.8,0.3,6.4-1.4c1.6-1.7,1.9-4.4,0.9-6.5
				C237.1,11.9,234.1,10.4,231.6,11.3z"/>
			<path class="st11" d="M291.3,62.8c-4.8,1.8-5.8,8.7-0.7,10.8c2.2,0.9,4.8,0.3,6.4-1.4c1.6-1.7,1.9-4.4,0.9-6.5
				C296.8,63.4,293.8,61.9,291.3,62.8z"/>
			<path class="st11" d="M249.6,45.3c-2.8,1.1-3.4,5.2-0.4,6.4c1.3,0.5,2.9,0.2,3.8-0.9c0.9-1,1.2-2.6,0.5-3.9
				C252.9,45.7,251.1,44.8,249.6,45.3z"/>
			<path class="st11" d="M270.8,76.2c-2.8,1.1-3.4,5.2-0.4,6.4c1.3,0.5,2.9,0.2,3.8-0.9s1.2-2.6,0.5-3.9
				C274,76.6,272.3,75.7,270.8,76.2z"/>
			<path class="st11" d="M342.9,90.3c-2.8,1.1-3.4,5.2-0.4,6.4c1.3,0.5,2.9,0.2,3.8-0.9c0.9-1,1.2-2.6,0.5-3.9
				C346.1,90.7,344.3,89.8,342.9,90.3z"/>
			<path class="st11" d="M249.6,71.3c-2,0.7-2.4,3.7-0.3,4.5c0.9,0.4,2,0.1,2.7-0.6c0.7-0.7,0.8-1.8,0.4-2.7
				C251.9,71.6,250.6,70.9,249.6,71.3z"/>
			<path class="st11" d="M363.4,4.8c-4.8,1.8-5.8,8.7-0.7,10.8c2.2,0.9,4.8,0.3,6.4-1.4c1.6-1.7,1.9-4.4,0.9-6.5
				C368.9,5.4,365.9,3.9,363.4,4.8z"/>
			<path class="st11" d="M352,20.3c-2.8,1.1-3.4,5.2-0.4,6.4c1.3,0.5,2.9,0.2,3.8-0.9s1.2-2.6,0.5-3.9
				C355.2,20.7,353.5,19.7,352,20.3z"/>
			<path class="st11" d="M337,9.2c-2,0.7-2.4,3.7-0.3,4.5c0.9,0.4,2,0.1,2.7-0.6c0.7-0.7,0.8-1.8,0.4-2.7C339.2,9.4,338,8.8,337,9.2
				z"/>
			<path class="st11" d="M373.2,69.8c-2,0.7-2.4,3.7-0.3,4.5c0.9,0.4,2,0.1,2.7-0.6c0.7-0.7,0.8-1.8,0.4-2.7
				C375.4,70.1,374.2,69.4,373.2,69.8z"/>
			<path class="st11" d="M162.2,47.4c-2.8,1.1-3.4,5.2-0.4,6.4c1.3,0.5,2.9,0.2,3.8-0.9s1.2-2.6,0.5-3.9
				C165.5,47.7,163.7,46.8,162.2,47.4z"/>
			<path class="st11" d="M141,42.5c-2,0.7-2.4,3.7-0.3,4.5c0.9,0.4,2,0.1,2.7-0.6c0.7-0.7,0.8-1.8,0.4-2.7
				C143.3,42.7,142.1,42.1,141,42.5z"/>
			<path class="st11" d="M182.8,103.1c-2,0.7-2.4,3.7-0.3,4.5c0.9,0.4,2,0.1,2.7-0.6c0.7-0.7,0.8-1.8,0.4-2.7
				C185.1,103.3,183.8,102.7,182.8,103.1z"/>
			<path class="st11" d="M-82,330.4c-4.8,1.8-5.8,8.7-0.7,10.8c2.2,0.9,4.8,0.3,6.4-1.4c1.6-1.7,1.9-4.4,0.9-6.5
				C-76.5,331-79.5,329.5-82,330.4z"/>
			<path class="st11" d="M-15.2,254.7c-4.8,1.8-5.8,8.7-0.7,10.8c2.2,0.9,4.8,0.3,6.4-1.4c1.6-1.7,1.9-4.4,0.9-6.5
				C-9.8,255.4-12.7,253.8-15.2,254.7z"/>
			<path class="st11" d="M38.6,313.3c-4.8,1.8-5.8,8.7-0.7,10.8c2.2,0.9,4.8,0.3,6.4-1.4c1.6-1.7,1.9-4.4,0.9-6.5
				C44.1,313.9,41.1,312.4,38.6,313.3z"/>
			<path class="st11" d="M-18.7,277.8c-2.8,1.1-3.4,5.2-0.4,6.4c1.3,0.5,2.9,0.2,3.8-0.9c0.9-1,1.2-2.6,0.5-3.9
				C-15.4,278.2-17.2,277.3-18.7,277.8z"/>
			<path class="st11" d="M18.1,326.7c-2.8,1.1-3.4,5.2-0.4,6.4c1.3,0.5,2.9,0.2,3.8-0.9c0.9-1,1.2-2.6,0.5-3.9
				C21.3,327.1,19.5,326.2,18.1,326.7z"/>
			<path class="st11" d="M14.2,290c-2,0.7-2.4,3.7-0.3,4.5c0.9,0.4,2,0.1,2.7-0.6c0.7-0.7,0.8-1.8,0.4-2.7
				C16.5,290.3,15.3,289.6,14.2,290z"/>
			<path class="st11" d="M116.6,248.3c-4.8,1.8-5.8,8.7-0.7,10.8c2.2,0.9,4.8,0.3,6.4-1.4c1.6-1.7,1.9-4.4,0.9-6.5
				C122,248.9,119.1,247.3,116.6,248.3z"/>
			<path class="st11" d="M105.2,263.7c-2.8,1.1-3.4,5.2-0.4,6.4c1.3,0.5,2.9,0.2,3.8-0.9c0.9-1,1.2-2.6,0.5-3.9
				C108.4,264.1,106.6,263.2,105.2,263.7z"/>
			<path class="st11" d="M90.1,252.6c-2,0.7-2.4,3.7-0.3,4.5c0.9,0.4,2,0.1,2.7-0.6c0.7-0.7,0.8-1.8,0.4-2.7
				C92.4,252.9,91.2,252.2,90.1,252.6z"/>
			<path class="st11" d="M126.3,305c-2,0.7-2.4,3.7-0.3,4.5c0.9,0.4,2,0.1,2.7-0.6c0.7-0.7,0.8-1.8,0.4-2.7
				C128.6,305.3,127.4,304.6,126.3,305z"/>
			<path class="st11" d="M-84.6,290.8c-2.8,1.1-3.4,5.2-0.4,6.4c1.3,0.5,2.9,0.2,3.8-0.9s1.2-2.6,0.5-3.9
				C-81.3,291.2-83.1,290.3-84.6,290.8z"/>
			<path class="st11" d="M-105.8,285.9c-2,0.7-2.4,3.7-0.3,4.5c0.9,0.4,2,0.1,2.7-0.6c0.7-0.7,0.8-1.8,0.4-2.7
				C-103.5,286.1-104.8,285.5-105.8,285.9z"/>
			<path class="st11" d="M-64,346.5c-2,0.7-2.4,3.7-0.3,4.5c0.9,0.4,2,0.1,2.7-0.6c0.7-0.7,0.8-1.8,0.4-2.7
				C-61.7,346.8-63,346.1-64,346.5z"/>
			<path class="st11" d="M160.7,315.4c-4.8,1.8-5.8,8.7-0.7,10.8c2.2,0.9,4.8,0.3,6.4-1.4c1.6-1.7,1.9-4.4,0.9-6.5
				C166.2,316,163.2,314.5,160.7,315.4z"/>
			<path class="st11" d="M231.6,254.7c-4.8,1.8-5.8,8.7-0.7,10.8c2.2,0.9,4.8,0.3,6.4-1.4c1.6-1.7,1.9-4.4,0.9-6.5
				C237.1,255.4,234.1,253.8,231.6,254.7z"/>
			<path class="st11" d="M278.1,303.3c-4.8,1.8-5.8,8.7-0.7,10.8c2.2,0.9,4.8,0.3,6.4-1.4c1.6-1.7,1.9-4.4,0.9-6.5
				C283.6,303.9,280.6,302.4,278.1,303.3z"/>
			<path class="st11" d="M228.1,277.8c-2.8,1.1-3.4,5.2-0.4,6.4c1.3,0.5,2.9,0.2,3.8-0.9c0.9-1,1.2-2.6,0.5-3.9
				C231.4,278.2,229.6,277.3,228.1,277.8z"/>
			<path class="st11" d="M249.3,314.1c-2.8,1.1-3.4,5.2-0.4,6.4c1.3,0.5,2.9,0.2,3.8-0.9c0.9-1,1.2-2.6,0.5-3.9
				C252.6,314.4,250.8,313.5,249.3,314.1z"/>
			<path class="st11" d="M342.9,333.8c-2.8,1.1-3.4,5.2-0.4,6.4c1.3,0.5,2.9,0.2,3.8-0.9c0.9-1,1.2-2.6,0.5-3.9
				C346.1,334.1,344.3,333.2,342.9,333.8z"/>
			<path class="st11" d="M240.2,340.3c-2,0.7-2.4,3.7-0.3,4.5c0.9,0.4,2,0.1,2.7-0.6c0.7-0.7,0.8-1.8,0.4-2.7
				C242.5,340.6,241.2,340,240.2,340.3z"/>
			<path class="st11" d="M363.4,248.3c-4.8,1.8-5.8,8.7-0.7,10.8c2.2,0.9,4.8,0.3,6.4-1.4c1.6-1.7,1.9-4.4,0.9-6.5
				C368.9,248.9,365.9,247.3,363.4,248.3z"/>
			<path class="st11" d="M352,263.7c-2.8,1.1-3.4,5.2-0.4,6.4c1.3,0.5,2.9,0.2,3.8-0.9c0.9-1,1.2-2.6,0.5-3.9
				C355.2,264.1,353.5,263.2,352,263.7z"/>
			<path class="st11" d="M337,252.6c-2,0.7-2.4,3.7-0.3,4.5c0.9,0.4,2,0.1,2.7-0.6c0.7-0.7,0.8-1.8,0.4-2.7
				C339.2,252.9,338,252.2,337,252.6z"/>
			<path class="st11" d="M376.4,343.3c-2,0.7-2.4,3.7-0.3,4.5c0.9,0.4,2,0.1,2.7-0.6c0.7-0.7,0.8-1.8,0.4-2.7
				C378.7,343.5,377.4,342.9,376.4,343.3z"/>
			<path class="st11" d="M162.2,290.8c-2.8,1.1-3.4,5.2-0.4,6.4c1.3,0.5,2.9,0.2,3.8-0.9s1.2-2.6,0.5-3.9
				C165.5,291.2,163.7,290.3,162.2,290.8z"/>
			<path class="st11" d="M118.4,347.3c-2.8,1.1-3.4,5.2-0.4,6.4c1.3,0.5,2.9,0.2,3.8-0.9c0.9-1,1.2-2.6,0.5-3.9
				C121.6,347.7,119.9,346.8,118.4,347.3z"/>
			<path class="st11" d="M141,285.9c-2,0.7-2.4,3.7-0.3,4.5c0.9,0.4,2,0.1,2.7-0.6c0.7-0.7,0.8-1.8,0.4-2.7
				C143.3,286.1,142.1,285.5,141,285.9z"/>
			<path class="st11" d="M171.3,346.5c-2,0.7-2.4,3.7-0.3,4.5c0.9,0.4,2,0.1,2.7-0.6c0.7-0.7,0.8-1.8,0.4-2.7
				C173.6,346.8,172.4,346.1,171.3,346.5z"/>
		</g>
	</g>
</g>
<g>
	<g>
		<path class="st12" d="M183,132.2c0.7,2.7,0.8,5.6-0.1,8.2c-0.8,2.3-2.4,4.3-4.3,5.8c-1.9,1.5-4.1,2.6-6.3,3.6l-0.4,0.3
			c4.9,7.4,8.3,15.7,10,24.4c0.5,2.7,0.9,5.5,0.6,8.3c-0.3,2.7-1.3,5.3-3.2,7.2c-0.1,0.1-0.1,0.1-0.2,0.2c-2.3,2.1-5.4,3-8.4,3.6
			c-7.4,1.5-15.1,2.2-22.6,1.2c-2.6-0.3-5.2-0.9-7.6-1.9c-0.1,0-0.2-0.1-0.3-0.2c-2.3-1.1-4.3-2.7-5.5-4.9c-2-3.6-1.7-8-1.2-12.1
			c1.3-10.3,3.3-20.8,8.1-30c-2.2-1.3-4.3-3.1-5.5-5.4c-1.8-3.4-1.6-7.5-0.4-11.1c1-3,2.7-5.7,4.4-8.3l-0.1,0
			c-1.2-4.8-1.2-9.9-0.2-14.7c4.6,1.1,8.8,3.7,11.9,7.2c3.9-1.4,8.1-1.7,12.2-0.8c2.7,0.6,5.3,1.6,7.6,3.1c4-2.6,8.8-3.8,13.5-3.3
			c-0.3,4.6-1.9,9.2-4.6,13c0,0,0,0,0,0c0.6,1.4,1.3,2.7,1.8,4.1C182.4,130.4,182.7,131.3,183,132.2z"/>
		<path class="st13" d="M181.5,115.3c-2.7,0.1-5.4,0.9-7.7,2.2c-0.2-0.1-0.3-0.3-0.5-0.4l-1.2-0.8c-0.2-0.2-0.5-0.3-0.7-0.5
			c4-2.6,8.8-3.8,13.5-3.3c-0.3,4.6-1.9,9.2-4.6,13c-0.2-0.3-0.3-0.6-0.4-0.9l-0.6-0.6c-0.4-0.7-0.8-1.3-1.2-2
			C179.6,120,180.8,117.7,181.5,115.3L181.5,115.3z"/>
		<path class="st14" d="M181.5,115.3L181.5,115.3c-0.7,2.4-1.9,4.7-3.5,6.6c-1.2-1.7-2.6-3.2-4.2-4.4
			C176.2,116.2,178.8,115.4,181.5,115.3z"/>
		<path class="st13" d="M178.1,122c0.4,0.6,0.9,1.3,1.2,2l0.6,0.6c0.1,0.3,0.3,0.6,0.4,0.9c0,0,0,0,0,0c0.6,1.4,1.3,2.7,1.8,4.1
			c-4.2-0.4-8.4-1.8-11.7-4.4c-3.8-3-6.4-7.6-6.6-12.4c2.7,0.6,5.3,1.6,7.6,3.1c0.2,0.1,0.5,0.3,0.7,0.5l1.2,0.8
			c0.2,0.1,0.3,0.2,0.5,0.4C175.4,118.8,176.9,120.3,178.1,122z"/>
		<path class="st13" d="M179.2,189.9c-0.1,0.1-0.1,0.1-0.2,0.2c-2.3,2.1-5.4,3-8.4,3.6c-7.4,1.5-15.1,2.2-22.6,1.2
			c-2.6-0.3-5.2-0.9-7.6-1.9c-0.1,0-0.2-0.1-0.3-0.2c-1.6-8.1-0.1-16.8,4.2-23.8c2.8-4.6,7.1-8.6,12.4-9.3c4.1-0.5,8.3,1.1,11.5,3.7
			c3.2,2.7,5.4,6.3,7.1,10.1C177.6,178.7,179,184.3,179.2,189.9z"/>
		<circle class="st15" cx="173.3" cy="138.1" r="3.4"/>
		<path class="st16" d="M170.2,131.3c0.1,1.8-0.7,3.3-1.9,3.4c-1.2,0.1-2.3-1.3-2.4-3c-0.1-1.8,0.7-3.3,1.9-3.4
			C169,128.2,170,129.6,170.2,131.3z"/>
		<path class="st13" d="M154.1,131.4c0.8-0.6,1.7-1.2,2.5-1.7c0,0,0,0,0,0c0,0,0,0,0,0c1.2-0.5,2.5-0.6,3.7-0.1
			c1,0.4,1.9,1.3,2.5,2.2c2.3,3,3.7,6.7,4,10.5c0.1,1.7,0,3.5-1,4.7c-1.1,1.4-3,1.8-4.8,1.9c-3.5,0.2-7-0.4-10.2-2
			c-1.3-0.6-2.7-1.5-3.3-2.8c-0.6-1.1-0.6-2.4-0.4-3.5c0.3-1.2,0.8-2.3,1.5-3.3C150.1,135,152,133,154.1,131.4z M158.3,136.8
			c2.8,0.1,3.9-2.1,3.9-2.1c-3.7-2.5-7.3-1.1-7.3-1.1S155.5,136.8,158.3,136.8z"/>
		<path class="st15" d="M144.1,147.5c7.9,3.3,16.7,4.3,25.2,2.7c-3.6,3-8.3,4.5-12.9,4.1c-4.8-0.4-9.3-2.8-12.3-6.5L144.1,147.5z"/>
		<path class="st16" d="M162.2,134.7c0,0-1.1,2.2-3.9,2.1c-2.8-0.1-3.4-3.2-3.4-3.2S158.5,132.2,162.2,134.7z"/>
		<path class="st16" d="M149.8,125.7c1.2,0.2,1.9,1.8,1.5,3.6c-0.3,1.7-1.6,3-2.7,2.8c-1.2-0.2-1.9-1.8-1.5-3.6
			C147.4,126.7,148.7,125.5,149.8,125.7z"/>
		<path class="st15" d="M141,130.9c1.9,0,3.4,1.5,3.4,3.4s-1.5,3.4-3.4,3.4c-1.9,0-3.4-1.5-3.4-3.4S139.1,130.9,141,130.9z"/>
		<path class="st14" d="M142.6,109.9c2.6,1.2,5,2.9,7,5c-2.4,0.7-4.6,1.8-6.6,3.4C142.3,115.6,142.2,112.7,142.6,109.9z"/>
		<path class="st16" d="M162.6,139.3c-0.4,0.8-1.3,1.1-2.1,0.9c-0.9-0.2-1.5-0.9-2-1.7c-0.2-0.3-0.5-0.2-0.7,0.1
			c-0.4,0.7-1,1.3-1.8,1.5c-0.7,0.2-1.5-0.1-1.8-0.7c-0.2-0.4-1-0.2-0.7,0.3c0.5,0.9,1.5,1.4,2.5,1.2c0.9-0.1,1.7-0.8,2.2-1.5
			c0.6,0.8,1.4,1.4,2.4,1.6c1.1,0.2,2.2-0.3,2.7-1.4C163.5,139.2,162.8,138.9,162.6,139.3z"/>
		<path class="st15" d="M146.4,153.8c-0.2-0.1-0.4,0-0.5,0.2c-0.3,0.8-0.7,1.6-1.1,2.3c-0.1,0.2,0,0.4,0.2,0.5
			c0.2,0.1,0.4,0,0.5-0.2c0.4-0.7,0.8-1.5,1.1-2.3C146.7,154.1,146.6,153.9,146.4,153.8z"/>
		<path class="st15" d="M151.7,155.2c-0.2,0-0.4,0.1-0.5,0.3c-0.1,0.5-0.2,1.1-0.3,1.6c0,0.2,0.1,0.4,0.3,0.5c0.2,0,0.4-0.1,0.5-0.3
			c0.1-0.5,0.2-1.1,0.3-1.6C152,155.5,151.9,155.2,151.7,155.2z"/>
		<path class="st15" d="M148,157.9c-0.2-0.1-0.5,0-0.5,0.2c-0.2,0.6-0.4,1.3-0.6,1.9c-0.1,0.2,0,0.4,0.2,0.5c0.2,0.1,0.5,0,0.5-0.2
			c0.2-0.6,0.4-1.3,0.6-1.9C148.2,158.2,148.2,158,148,157.9z"/>
		<path class="st15" d="M169.4,158.6c-0.2-0.3-0.4-0.6-0.6-0.9c0,0,0,0,0,0c0,0,0,0,0,0c0,0,0-0.1-0.1-0.1c0-0.1-0.1-0.1-0.1-0.2
			c-0.1-0.2-0.2-0.3-0.2-0.5c-0.1-0.2-0.3-0.3-0.5-0.2c-0.2,0.1-0.3,0.3-0.2,0.5c0.3,0.7,0.6,1.4,1.1,2c0.1,0.2,0.4,0.2,0.6,0.1
			C169.5,159,169.6,158.8,169.4,158.6z"/>
		<path class="st15" d="M173.1,157.9c-0.4-0.7-0.7-1.5-1.1-2.2c-0.1-0.2-0.3-0.3-0.5-0.2c-0.2,0.1-0.3,0.3-0.2,0.5
			c0.4,0.7,0.7,1.5,1.1,2.2c0.1,0.2,0.3,0.3,0.5,0.2C173.1,158.4,173.2,158.1,173.1,157.9z"/>
		<path class="st15" d="M173.7,162.5c-0.2-0.4-0.4-0.8-0.6-1.2c0-0.1-0.1-0.2-0.2-0.2c-0.1,0-0.2-0.1-0.3,0
			c-0.2,0.1-0.3,0.3-0.2,0.5c0.2,0.4,0.4,0.8,0.6,1.2c0,0.1,0.1,0.2,0.2,0.2c0.1,0,0.2,0.1,0.3,0
			C173.7,162.9,173.8,162.7,173.7,162.5z"/>
		<path class="st15" d="M157.5,126.5c-0.3-0.7-0.7-1.4-1-2.1c-0.1-0.2-0.3-0.3-0.5-0.2c-0.2,0.1-0.3,0.3-0.2,0.5
			c0.3,0.7,0.7,1.4,1,2.1c0.1,0.2,0.3,0.3,0.5,0.2C157.5,126.9,157.6,126.7,157.5,126.5z"/>
		<path class="st15" d="M160.7,126.6c0,0,0-0.1,0-0.1c0,0,0,0,0-0.1c0,0,0,0,0,0c0-0.1,0-0.2,0-0.2c0-0.2,0-0.4,0-0.5
			c0,0,0-0.1,0-0.1c0,0,0,0,0,0c0,0,0,0,0,0c0-0.1,0-0.2,0-0.3c0-0.2,0.1-0.4,0.1-0.5c0.1-0.2-0.1-0.4-0.3-0.5
			c-0.2,0-0.4,0.1-0.5,0.3c-0.2,0.8-0.2,1.6,0,2.4c0.1,0.2,0.3,0.3,0.5,0.2C160.7,127,160.7,126.8,160.7,126.6z"/>
		<path class="st15" d="M163.6,125c-0.2,0-0.4,0.1-0.5,0.3c0,0.2,0,0.3-0.1,0.5c0,0.1,0,0.2-0.1,0.3c0,0,0,0,0,0.1c0,0,0,0.1,0,0.1
			c-0.1,0.2-0.1,0.3-0.2,0.5c0,0.1-0.1,0.1-0.1,0.2c0,0,0,0.1-0.1,0.1c0,0,0,0,0,0c0,0,0,0,0,0.1c-0.1,0.2-0.1,0.4,0,0.6
			c0.2,0.1,0.4,0.1,0.6,0c0.4-0.6,0.7-1.3,0.8-2.1C164,125.3,163.8,125.1,163.6,125z"/>
		<path class="st15" d="M158.5,122.5c-0.1-0.6-0.3-1.3-0.4-1.9c0-0.2-0.3-0.3-0.5-0.2c-0.2,0.1-0.3,0.3-0.2,0.5
			c0.1,0.6,0.3,1.3,0.4,1.9c0,0.2,0.3,0.3,0.5,0.2C158.5,122.9,158.5,122.7,158.5,122.5z"/>
		<path class="st15" d="M163.5,121c-0.1-0.1-0.2-0.1-0.3-0.1c-0.1,0-0.2,0.1-0.3,0.1c-0.1,0.1-0.1,0.2-0.1,0.3c0,0,0,0,0,0
			c0,0.2-0.1,0.4-0.1,0.6c0,0.1-0.1,0.2-0.1,0.2c0,0,0,0.1-0.1,0.1c0,0,0,0,0,0.1c0,0,0,0,0,0c0,0,0,0,0,0c-0.1,0.1-0.1,0.2-0.1,0.3
			c0,0.1,0.1,0.2,0.1,0.3c0.1,0.1,0.2,0.1,0.3,0.1c0.1,0,0.2-0.1,0.3-0.1c0.2-0.3,0.3-0.5,0.4-0.8c0.1-0.3,0.1-0.5,0.1-0.8
			C163.6,121.2,163.6,121.1,163.5,121z"/>
		<path class="st15" d="M161,117c-0.2,0-0.4,0.1-0.5,0.3c-0.1,0.6-0.1,1.3-0.2,1.9c0,0.2,0.1,0.4,0.3,0.5c0.2,0,0.4-0.1,0.5-0.3
			c0.1-0.6,0.1-1.3,0.2-1.9C161.3,117.3,161.2,117,161,117z"/>
		<path class="st15" d="M163.7,112.6c-4-0.7-8.2-0.4-12.1,0.6c-0.5,0.1-0.2,0.8,0.3,0.7c3.8-1.1,7.8-1.3,11.7-0.6
			C164,113.4,164.1,112.6,163.7,112.6z"/>
		<path class="st15" d="M151.8,113.3c-2.9-2.6-6.2-4.9-9.7-6.7c-0.7-0.3-1.5-0.8-2.2-0.4c-0.8,0.4-0.8,1.4-0.9,2.2
			c-0.3,2-0.3,4.1-0.1,6.1c0.2,2.3,0.7,4.6,1.4,6.8c0.1,0.5,0.9,0.2,0.7-0.3c-1.2-3.5-1.6-7.3-1.3-11c0.1-0.9,0.1-1.8,0.4-2.7
			c0.3-1,1.5-0.2,2.1,0.1c1.6,0.8,3.1,1.7,4.6,2.8c1.6,1.1,3.2,2.4,4.7,3.7C151.7,114.2,152.1,113.7,151.8,113.3z"/>
		<path class="st15" d="M141.9,145c-3.2-1-5.5-3.8-6.3-7c-1-3.9-0.1-8,1.7-11.4c1-1.9,2.2-3.7,3.5-5.4c0.3-0.4-0.3-0.9-0.6-0.5
			c-2.5,3.2-4.8,6.8-5.5,10.9c-0.7,3.8-0.1,7.9,2.4,10.9c1.2,1.5,2.8,2.6,4.7,3.2C142.2,145.9,142.3,145.2,141.9,145z"/>
		<path class="st15" d="M182.4,129.7c-0.3-0.4-0.9,0-0.6,0.4c1.8,2.7,2,6.3,0.9,9.4c-1.1,3.1-3.4,5.6-6,7.5c-1.6,1.1-3.3,2-5,2.8
			c-0.4,0.2-0.2,0.9,0.3,0.7c3.3-1.4,6.4-3.3,8.7-6c2.2-2.6,3.7-5.9,3.5-9.4C184,133.1,183.4,131.3,182.4,129.7z"/>
		<path class="st15" d="M177.3,159.8c-1.8-3.3-3.6-6.7-5.3-10c-0.2-0.4-0.8,0-0.6,0.4c1.8,3.3,3.6,6.7,5.3,10
			C177,160.6,177.6,160.2,177.3,159.8z"/>
		<path class="st15" d="M141.6,145.1c-2.4,4.6-4.3,9.5-5.7,14.5c-0.1,0.5,0.6,0.6,0.7,0.1c1.3-5,3.2-9.7,5.6-14.3
			C142.5,145,141.8,144.7,141.6,145.1z"/>
	</g>
	<path class="st12" d="M133.9,195.4h19.2c0,0-16.9-39.4-20-34.1C125.6,173.8,133.9,195.4,133.9,195.4z"/>
	<path class="st12" d="M183.5,194h-14c0,0,3.8-38.6,7.3-33.4C184.9,172.9,183.5,194,183.5,194z"/>
	<path class="st15" d="M133.7,190.9c4.5-0.3,10.1,4.5,10.1,4.5l-12.4,0C127.7,193.6,129,191.3,133.7,190.9z"/>
	<path class="st15" d="M182.7,190.2c-4.5-0.3-10.1,4.5-10.1,4.5l12.4,0C188.8,192.9,187.4,190.6,182.7,190.2z"/>
	<path class="st17" d="M151.4,190.7c-2.7-0.5-3.8,1.3-4,2.9l1.1,1.8h4.9C154.8,193.9,154.1,191.2,151.4,190.7z"/>
	<path class="st17" d="M143.6,190.3c2.2-0.4,3.4,1.1,4,2.7l-0.7,2.4l-5.7,0C140,193.4,141.3,190.7,143.6,190.3z"/>
	<path class="st17" d="M148.3,190.4c-2.6-0.5-5.8,1.2-3.8,5h5.5C151.8,193.8,151.2,190.9,148.3,190.4z"/>
	<path class="st18" d="M149.5,193.4c-0.1,0.8-1.1,1.4-2.4,1.4c-1,0-1.8-0.4-2.2-0.9c-0.1,0.4,0,0.9,0.4,1.5h3.7
		C149.9,194.9,150.1,194,149.5,193.4z"/>
	<path class="st18" d="M153.6,193.4c-0.1,0.8-1.3,1.4-2.8,1.4c-1.1,0-2.5,0-2,0.6h4.6C154.4,194.9,154.2,194,153.6,193.4z"/>
	<path class="st19" d="M142.3,195.4h1.7c0,0-0.5-1.8-1-1.9C142.5,193.4,142.3,195.4,142.3,195.4z"/>
	<path class="st19" d="M146.4,195.4h1.7c0,0-0.5-1.8-1-1.9C146.6,193.4,146.4,195.4,146.4,195.4z"/>
	<path class="st19" d="M150.2,195.4h1.7c0,0-1.1-1.7-1.6-1.8C149.9,193.6,150.2,195.4,150.2,195.4z"/>
	<path class="st17" d="M178,190.7c-2.7-0.5-3.8,1.3-4,2.9l1.1,1.8h4.9C181.4,193.9,180.6,191.2,178,190.7z"/>
	<path class="st17" d="M170.2,190.3c2.2-0.4,3.4,1.1,4,2.7l-0.7,2.4l-5.7,0C166.6,193.4,167.9,190.7,170.2,190.3z"/>
	<path class="st17" d="M174.8,190.4c-2.6-0.5-5.8,1.2-3.8,5h5.5C178.4,193.8,177.8,190.9,174.8,190.4z"/>
	<path class="st18" d="M176.1,193.4c-0.1,0.8-1.1,1.4-2.4,1.4c-1,0-1.8-0.4-2.2-0.9c-0.1,0.4,0,0.9,0.4,1.5h3.7
		C176.5,194.9,176.6,194,176.1,193.4z"/>
	<path class="st18" d="M180.2,193.4c-0.1,0.8-1.3,1.4-2.8,1.4c-1.1,0-2.5,0-2,0.6h4.6C180.9,194.9,180.8,194,180.2,193.4z"/>
	<path class="st19" d="M168.9,195.4h1.7c0,0-0.5-1.8-1-1.9C169.1,193.4,168.9,195.4,168.9,195.4z"/>
	<path class="st19" d="M173,195.4h1.7c0,0-0.5-1.8-1-1.9C173.2,193.4,173,195.4,173,195.4z"/>
	<path class="st19" d="M176.8,195.4h1.7c0,0-1.1-1.7-1.6-1.8C176.4,193.6,176.8,195.4,176.8,195.4z"/>
</g>
<g>
	<g>
		<path class="st14" d="M139.2,78.8c-1.2,3.6-3.1,7-3.8,10.7c-0.1,0.8-0.2,1.6-0.5,2.3c-0.3,0.7-0.9,1.4-1.7,1.6
			c-1.3,0.3-2.4-0.7-3.2-1.7c-1.3-1.6-2.5-3.4-3.5-5.2c-2.4,3.1-5.5,5.7-8.8,7.8h0c0.4,1.9,0.8,3.8,1.2,5.7c0.6,3.2,1.2,6.6-0.1,9.7
			c-1,2.5-3.2,4.4-5.7,5.5c-1.1,0.5-2.2,0.8-3.4,1c14.4,20.2,22.1,45,21.8,69.7c1.2,3.6-0.3,7.9-3.5,9.9c-2.6,1.6-5.8,1.8-8.8,1.9
			c-9.7,0.2-19.3,0.2-29-0.2c-9.1-0.4-18.3-1.1-27.3-2.3c-4.6-0.6-9.7-1.7-12.4-5.5c-1.8-2.6-2.1-6-1.4-9.1c0.6-3.1,2.1-6,3.5-8.8
			l0,0c-4.9-2.5-8.9-6.7-11.3-11.7c-0.3-0.7-0.7-1.5-0.5-2.3c0.3-1.4,2.6-1.9,3.4-0.7c-2.6-5.3-4.4-11.1-4.7-17
			c-0.3-5.9,1.1-12,4.5-16.8c0.8-1.2,1.9-2.3,3.3-2.2c0.9,0.1,1.7,0.7,2.1,1.5c0.5,0.8,0.7,1.7,0.9,2.6c1.4,7,2,14.2,1.7,21.4
			c0.4-1,2.1-0.9,2.8,0.1c0.6,0.9,0.5,2.2,0.3,3.3c-0.6,3.2-1.7,6.4-2.2,9.6c-0.5,3.2-0.4,6.7,1.1,9.5c8.2-17,15.3-34.7,21.1-52.7
			c-0.8-0.2-1.5-0.4-2.2-0.8c-2.5-1.1-4.7-3-5.7-5.5c-1.3-3-0.7-6.5-0.1-9.7c0.4-1.9,0.8-3.8,1.2-5.7h0c-3.4-2-6.4-4.7-8.8-7.8
			c-1,1.8-2.2,3.6-3.5,5.2c-0.8,1-2,2-3.2,1.7c-0.8-0.2-1.4-0.9-1.7-1.6c-0.3-0.7-0.4-1.5-0.5-2.3c-0.6-3.7-2.5-7.1-3.8-10.7
			c-0.6-1.8-1-3.9,0.1-5.4c0.7-0.9,1.7-1.4,2.7-1.9c2.4-1.2,4.7-2.7,6.9-4.4c1.8-1.5,3.6-3.2,5.9-3.8c2.9-0.8,6,0.4,8.8,1.8
			c2.6,1.3,5.3,2.8,8.2,2.8c1.8-2.9,3.7-5.9,6.6-7.7c0.7-0.4,1.6-0.8,2.3-0.3c0.7,0.5,0.6,1.5,0.3,2.3c-0.3,0.8-0.8,1.5-0.9,2.4l0,0
			c2.9-2,6.3-3.2,9.8-3.4c0.8-0.1,1.9,0.1,2.2,0.8c0.3,0.7-0.3,1.5-0.9,2.1c-1.3,1.3-2.5,2.6-3.8,3.9l0,0.1c4.1-1,8.4-1,12.4,0.2
			c2.6-0.8,5.5-2.6,7.5-3.7c2.7-1.3,5.8-2.6,8.8-1.8c2.3,0.6,4.1,2.3,5.9,3.8c2.1,1.7,4.4,3.2,6.9,4.4c1,0.5,2,1,2.7,1.9
			C140.2,74.9,139.8,77,139.2,78.8z"/>
		<path class="st13" d="M122.6,73.8c0.4,4.4,1.7,8.8,3.9,12.7c-2.4,3.1-5.5,5.7-8.8,7.8h0c-1.1-5.1-2.3-10.2-3.6-15.2l0.2,0
			c3-1.2,5.9-3,8.3-5.2L122.6,73.8z"/>
		<path class="st20" d="M116.1,145.5c0.4,1.3,0.6,2.8,0,4.1c-0.6,1.3-2.2,2.1-3.4,1.4c1,1.7,1.6,3.7,1.4,5.7c-0.3,2-1.4,3.9-3.2,4.8
			c-1.8,0.9-4.1,0.7-5.5-0.8c-0.2,1.9-0.4,3.9-1,5.7c-0.6,1.8-1.7,3.6-3.4,4.6c-1.6,1-3.9,1.2-5.5,0.2c-2-1.3-2.5-4-2.7-6.5
			c0.9,1.7,3.2,2.5,5.1,2c2.2-0.6,3.7-2.7,4.2-4.9c0.5-2.2,0.1-4.5-0.6-6.6c1,0.8,2.1,1.6,3.3,1.9c1.2,0.3,2.7,0.1,3.5-1
			c0.6-0.8,0.6-1.8,0.6-2.7c-0.1-2.7-0.9-5.4-2.2-7.8c1.1,0.6,2.2,1.1,3.4,1.2c1.2,0.1,2.5-0.4,3.1-1.4c0.6-1.1,0.2-2.4-0.2-3.5
			c-1.3-3.6-3.2-6.9-5.5-9.9l0.2-0.3C111.7,135.4,114.6,140.2,116.1,145.5z"/>
		<path class="st13" d="M87,106.4c0.8,3.7,3.2,7,6.4,9l0.1,0.1c3.3-1.8,5.9-4.8,7.2-8.3l-0.2-0.1c-1.9-1.5-4.2-2.5-6.6-2.6
			C91.4,104.3,89,105,87,106.4L87,106.4z M106.8,116.5c-1.5,2.3-4.2,3.8-6.9,3.8c-1,0-2-0.3-2.9-0.7c-1.6-0.7-2.9-2.1-3.5-3.8
			l-0.3,0.1c-0.8,1.6-2.2,2.8-3.9,3.4c-1,0.4-2.1,0.5-3.1,0.4c-2.1-0.2-4.1-1.2-5.5-2.8c-0.5-0.5-0.9-1.1-1.3-1.8
			c-1.4-2.5-1.6-5.5-0.9-8.3c0.7-2.7,2.3-5.2,4.3-7.2c2-2,4.4-3.5,6.9-4.8c-0.9-1.2-1.5-2.6-1.9-4.1c-0.2-0.7-0.3-1.4,0.2-2
			c0.4-0.4,1.1-0.5,1.7-0.3c0.6,0.2,1,0.6,1.5,1c-0.2-2,0.1-4.1,0.9-6c0.3-0.7,0.9-1.6,1.7-1.4c0.8,0.1,1,1.1,1.1,1.8
			c0.3,2.2,0.5,4.4,0.8,6.6c0.4-0.7,0.9-1.4,1.6-1.9c0.7-0.4,1.7-0.5,2.3,0.1c0.6,0.6,0.5,1.7,0.3,2.6c-0.5,1.6-1.2,3.1-2.2,4.5l0,0
			c2.5,1.4,4.8,3,6.7,5.1c1.9,2.1,3.4,4.6,3.9,7.3c0.6,2.8,0.2,5.8-1.4,8.1C106.8,116.4,106.8,116.5,106.8,116.5z"/>
		<path class="st16" d="M105.9,85.6c1.4,0,2.6,1.5,2.6,3.4c0,1.9-1.2,3.4-2.6,3.4c-1.4,0-2.6-1.5-2.6-3.4
			C103.3,87.2,104.5,85.6,105.9,85.6z"/>
		<path class="st16" d="M100.5,107l0.2,0.1c-1.4,3.5-4,6.5-7.2,8.3l-0.1-0.1c-3.2-1.9-5.6-5.3-6.4-9h0c2-1.4,4.4-2,6.9-1.9
			C96.2,104.6,98.6,105.5,100.5,107z"/>
		<path class="st21" d="M96.9,119.6c-0.1,1.4-0.5,3-1.6,3.9c-1.2,1-3.2,0.9-4.5-0.1c-1.2-1-1.7-2.5-1.7-4c1.7-0.6,3.1-1.8,3.9-3.4
			l0.3-0.1C94,117.6,95.3,118.9,96.9,119.6z"/>
		<path class="st16" d="M80.4,85.3c1.4,0,2.6,1.5,2.6,3.4c0,1.9-1.2,3.4-2.6,3.4c-1.4,0-2.6-1.5-2.6-3.4
			C77.8,86.8,79,85.3,80.4,85.3z"/>
		<path class="st13" d="M71.5,79.4l0.2,0c-1.2,5.1-2.5,10.1-3.6,15.2h0c-3.4-2-6.4-4.7-8.8-7.8c2.1-3.9,3.5-8.3,3.9-12.7l0.1,0
			C65.6,76.5,68.5,78.2,71.5,79.4z"/>
		<path class="st20" d="M54.7,146.5c0.6,0.9,0.5,2.2,0.3,3.3c-0.6,3.2-1.7,6.4-2.2,9.6c-0.5,3.2-0.4,6.7,1.1,9.5
			c-0.4,0.9-0.9,1.8-1.3,2.7c-4.9-2.5-8.9-6.7-11.3-11.7c-0.3-0.7-0.7-1.5-0.5-2.3c0.3-1.4,2.6-1.9,3.4-0.7
			c-2.6-5.3-4.4-11.1-4.7-17c-0.3-5.9,1.1-12,4.5-16.8c0.8-1.2,1.9-2.3,3.3-2.2c0.9,0.1,1.7,0.7,2.1,1.5c0.5,0.8,0.7,1.7,0.9,2.6
			c1.4,7,2,14.2,1.7,21.4C52.4,145.4,54.1,145.6,54.7,146.5z"/>
		<path class="st20" d="M77.1,98.6c-0.2-0.2-0.4-0.3-0.6-0.1c-0.9,0.6-1.6,1.3-2.3,2c-0.2,0.2-0.1,0.5,0.1,0.6
			c0.2,0.2,0.5,0.1,0.6-0.1c0.2-0.2,0.3-0.4,0.5-0.5c0.1-0.1,0.2-0.2,0.3-0.2c0,0,0,0,0,0c0,0,0,0,0,0c0,0,0.1-0.1,0.1-0.1
			c0.4-0.3,0.8-0.6,1.2-0.9C77.2,99.1,77.3,98.8,77.1,98.6z"/>
		<path class="st20" d="M77.7,100.7c-0.2-0.2-0.5-0.1-0.6,0.1c-0.5,0.5-0.9,1.1-1.4,1.6c-0.2,0.2-0.1,0.5,0.1,0.6
			c0.2,0.2,0.5,0.1,0.6-0.1c0.5-0.5,0.9-1.1,1.4-1.6C77.9,101.2,77.9,100.9,77.7,100.7z"/>
		<path class="st20" d="M74.9,103.1c-0.2-0.1-0.5-0.2-0.6,0.1c-0.4,0.6-0.9,1.3-1.3,1.9c-0.1,0.1-0.1,0.2-0.1,0.3
			c0,0.1,0.1,0.2,0.2,0.3c0.2,0.1,0.5,0.2,0.6-0.1c0.4-0.6,0.9-1.3,1.3-1.9c0.1-0.1,0.1-0.2,0.1-0.3C75.1,103.3,75,103.2,74.9,103.1
			z"/>
		<path class="st20" d="M109,101.3c-0.4-0.7-0.9-1.3-1.3-2c-0.1-0.2-0.4-0.3-0.6-0.1c-0.2,0.1-0.3,0.4-0.1,0.6
			c0.5,0.6,0.9,1.3,1.3,2c0.1,0.2,0.5,0.3,0.6,0.1C109.1,101.8,109.1,101.5,109,101.3z"/>
		<path class="st20" d="M112,100c-0.4-0.6-0.9-1.2-1.5-1.6c-0.1-0.1-0.2-0.1-0.3-0.1c-0.1,0-0.2,0.1-0.3,0.2
			c-0.1,0.2-0.2,0.5,0.1,0.6c0.1,0.1,0.3,0.2,0.4,0.3c0.1,0.1,0.1,0.1,0.2,0.2c0,0,0.1,0.1,0.1,0.1c0,0,0,0,0,0
			c0.2,0.3,0.4,0.5,0.6,0.8c0.1,0.1,0.2,0.2,0.3,0.2c0.1,0,0.3,0,0.3-0.1c0.1-0.1,0.2-0.2,0.2-0.3C112.1,100.3,112.1,100.2,112,100z
			"/>
		<path class="st20" d="M112.8,105.2c-0.2-0.8-0.6-1.6-1.1-2.3c-0.1-0.2-0.4-0.3-0.6-0.1c-0.2,0.2-0.3,0.4-0.1,0.6
			c0.1,0.2,0.2,0.3,0.3,0.5c0,0,0,0.1,0.1,0.1c0,0,0,0,0,0c0,0,0,0,0,0c0,0.1,0.1,0.2,0.1,0.3c0.2,0.4,0.3,0.7,0.4,1.1
			c0.1,0.2,0.4,0.4,0.6,0.3C112.8,105.7,112.9,105.5,112.8,105.2z"/>
		<path class="st20" d="M77.6,116.6c-2.9-0.8-6-2.1-8.2-4.2c-2.2-2-2.5-4.9-2.2-7.7c0.3-3.1,0.9-6.2,1.5-9.3
			c0.6-3.2,1.3-6.4,2.1-9.6c0.9-3.6,1.9-7.2,3.1-10.7c0.2-0.6-0.6-1-0.8-0.4c-2.1,6.6-3.9,13.4-5.2,20.2c-0.6,3.2-1.3,6.5-1.6,9.8
			c-0.2,2.8,0.1,5.7,2,7.8c1.1,1.2,2.6,2.1,4,2.9c1.6,0.9,3.3,1.5,5.1,2C78,117.7,78.2,116.8,77.6,116.6z"/>
		<path class="st20" d="M118.7,96.8c-0.6-3.3-1.3-6.6-2-9.8c-0.9-3.7-1.9-7.4-3-11.1c-0.2-0.6-1-0.2-0.9,0.3
			c1.8,6.1,3.4,12.4,4.6,18.7c0.3,1.5,0.6,3.1,0.8,4.6c0.3,1.6,0.6,3.3,0.6,4.9c0,2.8-0.9,5.5-2.7,7.6c-2,2.4-5,3.7-8.2,3.8
			c-0.6,0-0.5,0.9,0.1,0.9c5.7-0.2,10.6-4.5,11.6-10.1C120.1,103.4,119.3,100,118.7,96.8z"/>
		<path class="st20" d="M95.4,70.2c-1-1.5-3.1-1.3-4.9-0.9c0.6-0.7,1.2-1.5,1.5-2.3c0.4-1.1-0.6-1.6-1.5-1.5c-2.1,0.3-4,1.7-5.6,3.2
			c0-0.3,0.1-0.6,0.1-0.9c0.1-0.5,0.2-1.1,0.1-1.7c-0.4-1.1-1.6-0.8-2.3-0.2c-1.9,1.4-3.2,3.5-4,5.7c-0.2,0.6,0.7,0.7,0.9,0.2
			c0.5-1.7,1.5-3.2,2.7-4.4c0.3-0.3,1.9-1.8,1.8-0.6c-0.1,1-0.3,2-0.4,3c-0.1,0.4,0.4,0.7,0.7,0.5c1.5-1.3,3-2.6,4.8-3.4
			c0.4-0.2,0.9-0.4,1.4-0.4c0.1,0,0.5-0.1,0.5,0c0.1,0.1-0.3,0.6-0.4,0.7c-0.6,0.9-1.3,1.8-2,2.6c-0.3,0.4,0.1,0.8,0.5,0.7
			c0.9-0.2,1.8-0.5,2.7-0.5c0.8-0.1,1.7,0,2.3,0.5c1.3,1.2-2,2.7-2.8,3c-0.6,0.2-0.2,1.1,0.3,0.9C93.4,73.9,96.7,72.2,95.4,70.2z"/>
		<path class="st20" d="M79.4,67.9c-2.9-0.4-5.7-1.2-8.4-2.4c-2.5-1.1-5.1-2.3-7.9-2.1c-1.3,0.1-2.6,0.5-3.7,1.3
			c-1.1,0.8-2.1,1.7-3.2,2.6c-2.3,1.7-4.7,3-7.2,4.4c-2.3,1.2-4.2,3.1-3.6,5.9c0.3,1.4,1,2.7,1.5,4c0.5,1.4,1,2.7,1.4,4.1
			c0.4,1.4,0.8,2.8,1.1,4.2c0.3,1.2,0.6,2.6,1.6,3.5c1.9,1.9,4.6-0.3,5.9-1.8c2-2.3,3.3-5.1,4.4-7.9c1.1-3,1.8-6.1,2.2-9.3
			c0.1-0.6-0.8-0.8-0.9-0.2c-0.5,5.1-2,10.3-4.7,14.6c-0.7,1.1-1.4,2.1-2.3,2.9c-0.8,0.8-2,1.7-3.2,1.3c-1.2-0.3-1.6-2-1.9-3
			c-0.3-1.3-0.6-2.6-1-3.8c-0.4-1.3-0.8-2.6-1.3-3.9c-0.5-1.3-1-2.5-1.5-3.8c-0.5-1.3-0.8-2.6,0-3.9c0.6-1.1,1.7-1.8,2.8-2.3
			c2.3-1.2,4.5-2.3,6.6-3.9c1-0.8,2-1.6,3-2.4c1-0.8,2-1.5,3.3-1.7c2.9-0.6,5.8,0.8,8.4,2c2.7,1.2,5.5,2.1,8.5,2.5
			C79.8,68.8,80,67.9,79.4,67.9z"/>
		<path class="st20" d="M139.8,73.7c-0.6-1-1.6-1.7-2.6-2.3c-1.3-0.7-2.6-1.4-3.8-2.2c-1.4-0.8-2.7-1.7-4-2.6
			c-1.2-0.9-2.4-1.8-3.6-2.6c-1.3-0.8-2.6-1.4-4.2-1.4c-1.7,0-3.3,0.5-4.9,1.2c-1.5,0.7-3,1.5-4.5,2.3c-1.6,0.8-3.3,1.6-5,2.3
			c-0.5,0.2-0.2,1.1,0.3,0.9c2.7-1.2,5.3-2.4,7.9-3.8c2.4-1.2,5.1-2.5,7.8-1.8c1.3,0.4,2.4,1.2,3.4,2c1.1,0.9,2.3,1.7,3.4,2.5
			c2.2,1.5,4.6,2.8,6.9,4.1c1,0.6,2.1,1.3,2.4,2.5c0.3,1.3-0.1,2.7-0.5,4c-0.8,2.6-2,5-2.9,7.5c-0.4,1.2-0.8,2.5-1.1,3.8
			c-0.2,1.1-0.4,2.5-1.7,2.6c-1.3,0.1-2.2-1-3-1.9c-0.8-1-1.6-2.1-2.2-3.3c-1.5-2.5-2.6-5.3-3.4-8.1c-0.8-2.9-1.8-6.3-0.8-9.2
			c0.2-0.6-0.6-1-0.8-0.4c-0.9,2.8-0.3,5.8,0.4,8.6c0.7,2.8,1.7,5.5,3,8.1c0.6,1.2,1.3,2.4,2.1,3.6c0.7,1.1,1.6,2.3,2.7,3
			c1,0.6,2.4,0.8,3.4,0c0.9-0.7,1.1-1.9,1.3-3c0.6-2.9,1.8-5.6,2.9-8.3c0.5-1.4,1.1-2.7,1.4-4.2C140.3,76.3,140.4,74.9,139.8,73.7z"
			/>
		<path class="st20" d="M106.2,134.3c-0.8-1.4-1.6-2.8-2.6-4.2c-0.4-0.5-1.1,0.1-0.7,0.5c1,1.3,1.9,2.7,2.6,4.2
			c0.1,0.2,0.5,0.2,0.6,0.1C106.3,134.8,106.3,134.5,106.2,134.3z"/>
		<path class="st20" d="M103.1,135.8c-0.7-1.2-1.3-2.4-1.9-3.7c-0.2-0.5-1.1-0.2-0.9,0.3c0.6,1.4,1.2,2.7,2,3.9
			c0.1,0.2,0.4,0.2,0.6,0.1C103.2,136.3,103.2,136,103.1,135.8z"/>
		<path class="st20" d="M98.7,137.1c-0.3-0.8-0.4-1.8-0.3-2.7c0-0.2-0.1-0.5-0.4-0.5c-0.2,0-0.5,0.1-0.5,0.4
			c-0.1,1.1,0.1,2.1,0.4,3.2c0.1,0.2,0.4,0.4,0.6,0.3C98.7,137.6,98.8,137.3,98.7,137.1z"/>
		<path class="st20" d="M106.8,140.2c-0.2-0.8-0.5-1.5-0.7-2.3c-0.1-0.2-0.4-0.4-0.6-0.3c-0.2,0.1-0.3,0.3-0.3,0.6
			c0.2,0.8,0.5,1.5,0.7,2.3c0.1,0.2,0.4,0.4,0.6,0.3C106.8,140.6,106.9,140.4,106.8,140.2z"/>
		<path class="st20" d="M103.3,139.7c0-0.2-0.2-0.5-0.5-0.4c-0.2,0-0.4,0.2-0.4,0.5c0.1,0.9,0.2,1.8,0.3,2.7c0,0.2,0.2,0.4,0.5,0.4
			c0.2,0,0.4-0.2,0.4-0.5C103.5,141.5,103.4,140.6,103.3,139.7z"/>
		<path class="st20" d="M123.4,140.1c-3.3-6.6-6.8-13.2-10.4-19.7c-0.9-1.6-1.8-3.2-3.2-4.5c-0.4-0.4-1,0.3-0.6,0.7
			c1.5,1.5,2.5,3.4,3.5,5.2c1.1,2,2.3,4.1,3.4,6.2c2.2,4.1,4.4,8.3,6.5,12.5C122.8,141,123.7,140.7,123.4,140.1z"/>
		<path class="st20" d="M74.8,116.1c-2.5,7.4-5,14.8-7.8,22.2c-2.7,7.3-5.6,14.6-8.9,21.7c-1.9,4-3.8,8-6,11.8
			c-0.3,0.5,0.5,0.9,0.8,0.4c3.8-6.8,7.1-13.9,10-21.1c3-7.2,5.7-14.6,8.3-22c1.5-4.2,2.9-8.4,4.3-12.6
			C75.8,115.9,75,115.5,74.8,116.1z"/>
	</g>
	<polygon class="st20" points="86.4,196.9 95.4,196.9 93.9,126 78.2,137.9 	"/>
	<polygon class="st20" points="113,196.9 118.2,196.9 118.4,146.3 105.1,135.3 	"/>
	<path class="st14" d="M70.3,196.9H46.5c0,0-7-4.4-3.4-9.8c3.6-5.4,20.4-2.9,23.4-0.2C70.1,190.2,70.3,196.9,70.3,196.9z"/>
	<path class="st14" d="M64.6,146.5c-7.7,3.1-11.5,32.2-11.2,42.2l3.6,8.2h18.1C75.1,196.9,72.3,143.5,64.6,146.5z"/>
	<path class="st20" d="M72,183.4c0.7,4.8,0.9,9.4,0.7,13.4h3.4c0,0-3.8-54.5-11.5-51.5c-2.6,1-4.6,6.1-6.3,11.2
		C63.7,156,69.9,167.9,72,183.4z"/>
	<path class="st14" d="M146.4,184.2c-21-2.5-27.2,12.7-27.2,12.7h28C147.2,196.9,152.1,184.9,146.4,184.2z"/>
	<path class="st20" d="M146,190c-7.9,0.3-14.4-1.5-14.6-4.2c0,0,0,0,0-0.1c-9.2,3.6-13.7,11.1-13.7,11.1h29.5c0,0,1.5-3.8,1.9-7.2
		C148.1,189.8,147.1,189.9,146,190z"/>
	<polygon class="st14" points="83,196.9 92,196.9 93.6,126.2 75.4,134.6 	"/>
	<path class="st14" d="M128.5,196.9h-10L104.8,134c6,2.1,10.1,3.9,15.8,5.9L128.5,196.9z"/>
	<path class="st13" d="M89.1,197.6h12.5c0,0-2.3-6.5-9.4-6.7C87.4,190.7,89.1,197.6,89.1,197.6z"/>
	<path class="st13" d="M79.6,197.6H92c0,0-1.2-5.4-8.3-5.6C79,191.9,79.6,197.6,79.6,197.6z"/>
	<path class="st13" d="M134.4,197.6h-12c0,0,1.1-5.4,8-5.6C134.9,191.9,134.4,197.6,134.4,197.6z"/>
	<path class="st13" d="M114,197.6h12.5c0,0-1.2-5.4-8.3-5.6C113.4,191.9,114,197.6,114,197.6z"/>
	<path class="st20" d="M83,197.6h2.9c0,0-0.9-2.6-1.7-2.7C83.3,194.8,83,197.6,83,197.6z"/>
	<path class="st20" d="M89.8,197.6h2.9c0,0-0.9-2.6-1.7-2.7C90.2,194.8,89.8,197.6,89.8,197.6z"/>
	<path class="st20" d="M96.2,197.6h2.9c0,0-1.8-2.4-2.7-2.5C95.6,195,96.2,197.6,96.2,197.6z"/>
	<path class="st20" d="M117.3,197.6h2.8c0,0-0.8-2.6-1.6-2.7C117.7,194.8,117.3,197.6,117.3,197.6z"/>
	<path class="st20" d="M123.8,197.6h2.8c0,0-0.8-2.6-1.6-2.7C124.1,194.8,123.8,197.6,123.8,197.6z"/>
	<path class="st20" d="M129.9,197.6h2.8c0,0-1.7-2.4-2.5-2.5C129.3,195,129.9,197.6,129.9,197.6z"/>
</g>
</svg>
