<svg id="Layer_1" data-name="Layer 1" xmlns="http://www.w3.org/2000/svg" xmlns:xlink="http://www.w3.org/1999/xlink" viewBox="0 0 64.25 64.65"><defs><style>.cls-1{fill:url(#linear-gradient);}.cls-2{fill:#fff;}</style><linearGradient id="linear-gradient" x1="32.12" x2="32.13" y2="64.46" gradientUnits="userSpaceOnUse"><stop offset="0" stop-color="#00c6ff"/><stop offset="1" stop-color="#006bfd"/></linearGradient></defs><title>messenger</title><path class="cls-1" d="M32.12,0C14.38,0,0,13.4,0,29.93A29.17,29.17,0,0,0,12,53.24V64.65l10.94-6a34.42,34.42,0,0,0,9.21,1.25c17.75,0,32.13-13.4,32.13-29.93S49.87,0,32.12,0Zm3.2,40.31-8.19-8.78-16,8.78L28.73,21.55l8.38,8.78,15.76-8.78Z"/><polygon class="cls-2" points="52.87 21.55 35.32 40.31 27.13 31.53 11.17 40.31 28.73 21.55 37.11 30.33 52.87 21.55"/></svg>