<?xml version="1.0" encoding="utf-8"?>
<!-- Generator: Adobe Illustrator 23.0.1, SVG Export Plug-In . SVG Version: 6.00 Build 0)  -->
<svg version="1.1" id="Layer_1" xmlns="http://www.w3.org/2000/svg" xmlns:xlink="http://www.w3.org/1999/xlink" x="0px" y="0px"
	 viewBox="0 0 234.2 264.3" style="enable-background:new 0 0 234.2 264.3;" xml:space="preserve">
<style type="text/css">
	.st0{fill:#808080;}
	.st1{fill:#FFFFFF;}
</style>
<title>catgoria</title>
<rect class="st0" width="234.2" height="264.3"/>
<path class="st1" d="M72.6,225.8c-0.1-2.5,0.7-4.9,2.4-6.8c1.7-1.7,4-2.6,6.4-2.5c2.4-0.1,4.7,0.8,6.4,2.5c3.1,4,3.1,9.6,0,13.6
	c-1.7,1.7-4,2.6-6.4,2.5c-2.4,0.1-4.8-0.8-6.4-2.5C73.3,230.7,72.5,228.3,72.6,225.8z M78.1,225.8c-0.1,1.3,0.2,2.6,0.8,3.7
	c0.6,0.8,1.5,1.2,2.5,1.2c1,0.1,1.9-0.4,2.5-1.2c1-2.3,1-5,0-7.4c-0.6-0.8-1.5-1.2-2.5-1.2c-1-0.1-1.9,0.4-2.5,1.2
	C78.3,223.2,78,224.5,78.1,225.8z"/>
<path class="st1" d="M96.3,234.6v-13h-4.9v-4.6h15.2v4.6h-4.9v13H96.3z"/>
<path class="st1" d="M108.4,234.6v-17.6h8.1c2.5,0,4.4,0.4,5.4,1.2c1.2,0.9,1.8,2.4,1.6,3.9c0,0.9-0.2,1.9-0.7,2.7
	c-0.5,0.8-1.2,1.3-2.1,1.7c0.8,0.1,1.6,0.6,2.1,1.2c0.5,0.8,0.7,1.7,0.7,2.7l0.1,2.4c0,0,0,0,0,0.1c0,0.7,0.2,1.1,0.5,1.1v0.7h-5.5
	c-0.1-0.4-0.2-0.8-0.2-1.1c0-0.2-0.1-0.5-0.1-0.7V231c0.1-0.7-0.1-1.4-0.5-1.9c-0.5-0.4-1.1-0.6-1.8-0.6h-2.3v6.1L108.4,234.6z
	 M113.7,224.5h2.5c0.6,0.1,1.2-0.1,1.8-0.4c0.7-0.7,0.7-1.8,0-2.6c-0.6-0.3-1.3-0.4-1.9-0.4h-2.3L113.7,224.5z"/>
<path class="st1" d="M125.6,225.8c-0.1-2.5,0.7-4.9,2.4-6.8c3.7-3.3,9.2-3.3,12.9,0c3.1,4,3.1,9.6,0,13.6c-3.7,3.3-9.2,3.3-12.9,0
	C126.3,230.7,125.5,228.3,125.6,225.8z M131.1,225.8c-0.1,1.3,0.2,2.6,0.8,3.7c0.6,0.8,1.5,1.2,2.5,1.2c1,0.1,1.9-0.4,2.5-1.2
	c1.1-2.3,1.1-5,0-7.4c-0.6-0.8-1.5-1.2-2.5-1.2c-1-0.1-1.9,0.4-2.5,1.2C131.3,223.2,131,224.5,131.1,225.8z"/>
<path class="st1" d="M144.9,229.1h5.3c0.1,0.5,0.4,1,0.8,1.4c0.5,0.3,1.1,0.5,1.7,0.4c0.5,0,1-0.1,1.5-0.3c0.3-0.2,0.6-0.5,0.6-0.9
	c0-0.6-0.8-1.1-2.3-1.6l-0.7-0.2c-1.2-0.3-2.2-0.6-3-0.9c-0.6-0.2-1.1-0.4-1.6-0.8c-0.6-0.5-1.1-1.1-1.5-1.7
	c-0.3-0.7-0.5-1.5-0.5-2.3c-0.1-1.6,0.6-3.1,1.9-4.1c3.2-2,7.2-2,10.4-0.1c1.3,1,2,2.5,2.1,4.1h-5.2c-0.1-0.5-0.3-0.9-0.7-1.2
	c-0.5-0.3-1-0.4-1.5-0.4c-0.5,0-0.9,0.1-1.3,0.3c-0.3,0.2-0.5,0.6-0.4,0.9c0,0.6,0.8,1.1,2.2,1.5l0.3,0.1l1,0.2
	c1.4,0.3,2.7,0.8,3.9,1.4c1.4,0.9,2.2,2.5,2.2,4.1c0.1,1.7-0.7,3.4-2,4.5c-1.6,1.1-3.6,1.7-5.6,1.6c-1.9,0.1-3.8-0.5-5.4-1.6
	C145.8,232.4,145,230.8,144.9,229.1z"/>
<path class="st1" d="M84.9,100.9h64c5.5,0,10,4.5,10,10l0,0c0,5.5-4.5,10-10,10h-64c-5.5,0-10-4.5-10-10l0,0
	C74.9,105.4,79.4,100.9,84.9,100.9z"/>
<path class="st1" d="M127.9,76.9v64c0,5.5-4.5,10-10,10l0,0c-5.5,0-10-4.5-10-10v-64c0-5.5,4.5-10,10-10l0,0
	C123.5,66.9,127.9,71.4,127.9,76.9z"/>
</svg>
