<svg xmlns="http://www.w3.org/2000/svg" viewBox="0 0 207.7 303.34"><defs><style>.cls-1{fill:#3bbaea;}.cls-2{fill:#fff;}.cls-3{fill:#053041;}.cls-4{fill:#00c6ff;opacity:0.5;}.cls-5,.cls-6{fill:#a4d562;}.cls-5,.cls-9{opacity:0.7;}.cls-7{fill:#fbb03b;}.cls-8{fill:#f7931e;}.cls-10,.cls-9{fill:#e25051;}.cls-11{fill:#f3f3f3;}.cls-12{fill:#bbf7ff;}.cls-13{fill:#aab2bd;}.cls-14{fill:#ccd1d9;}.cls-15{fill:#e6e9ed;}</style></defs><title>paso</title><g id="Layer_4" data-name="Layer 4"><rect class="cls-1" x="16.62" y="220.92" width="170" height="64" rx="24.29"/><circle class="cls-2" cx="101.71" cy="104.02" r="88.09"/><path class="cls-2" d="M60.21,245.5v2.9H50.59V233.7h3.32v11.8Z"/><path class="cls-2" d="M63,248.4V232.82h3.24V248.4Z"/><path class="cls-2" d="M80.6,243.73H72.5A2.88,2.88,0,0,0,75.41,246a4,4,0,0,0,2.86-1.19l1.7,1.72a6.29,6.29,0,0,1-4.83,2c-3.61,0-5.9-2.31-5.9-5.73a5.51,5.51,0,0,1,5.82-5.8C79,237,80.87,239.62,80.6,243.73Zm-3-1.91a2.36,2.36,0,0,0-2.5-2.45,2.64,2.64,0,0,0-2.65,2.45Z"/><path class="cls-2" d="M94.08,247.35c0,3.21-2.41,5.25-6,5.25a8.74,8.74,0,0,1-4.92-1.5l1.2-2.26A6,6,0,0,0,87.85,250c1.84,0,3-1,3-2.52v-1.28a4,4,0,0,1-3.4,1.64c-2.92,0-4.94-2.19-4.94-5.46s2-5.36,4.85-5.36a4.07,4.07,0,0,1,3.49,1.64V237.1h3.21Zm-3.21-4.92a2.67,2.67,0,0,0-2.65-2.94,2.7,2.7,0,0,0-2.66,2.94,2.67,2.67,0,1,0,5.31,0Z"/><path class="cls-2" d="M104.35,247.07a4.33,4.33,0,0,1-3.55,1.47c-2.41,0-3.88-1.47-3.88-3.52s1.53-3.38,4.3-3.41h3.11v-.21c0-1.19-.8-1.89-2.35-1.89a7.18,7.18,0,0,0-3.36,1l-1-2.22a10.6,10.6,0,0,1,5.1-1.31c3,0,4.77,1.52,4.79,4.06l0,7.37h-3.17Zm0-2.54v-1h-2.54c-1.24,0-1.85.38-1.85,1.29s.67,1.42,1.77,1.42A2.49,2.49,0,0,0,104.33,244.53Z"/><path class="cls-2" d="M122.22,248.4H119v-1.66a4.14,4.14,0,0,1-3.57,1.78c-3.21,0-5.33-2.33-5.33-5.81s2.1-5.74,5.24-5.74a4.25,4.25,0,0,1,3.66,1.79v-5.94h3.21ZM119,242.79a2.85,2.85,0,0,0-2.82-3.13,3.14,3.14,0,0,0,0,6.26A2.85,2.85,0,0,0,119,242.79Z"/><path class="cls-2" d="M132.76,247.07a4.31,4.31,0,0,1-3.54,1.47c-2.42,0-3.89-1.47-3.89-3.52s1.53-3.38,4.31-3.41h3.1v-.21c0-1.19-.8-1.89-2.35-1.89a7.18,7.18,0,0,0-3.36,1l-1-2.22a10.61,10.61,0,0,1,5.11-1.31c3,0,4.76,1.52,4.78,4.06l0,7.37h-3.17Zm0-2.54v-1H130.2c-1.24,0-1.85.38-1.85,1.29s.68,1.42,1.77,1.42A2.49,2.49,0,0,0,132.74,244.53Z"/><path class="cls-2" d="M151.85,247.07a4.32,4.32,0,0,1-3.55,1.47c-2.41,0-3.88-1.47-3.88-3.52s1.53-3.38,4.3-3.41h3.11v-.21c0-1.19-.8-1.89-2.35-1.89a7.18,7.18,0,0,0-3.36,1l-1-2.22a10.6,10.6,0,0,1,5.1-1.31c3,0,4.77,1.52,4.79,4.06l0,7.37h-3.17Zm0-2.54v-1h-2.54c-1.24,0-1.85.38-1.85,1.29s.67,1.42,1.77,1.42A2.49,2.49,0,0,0,151.83,244.53Z"/><path class="cls-2" d="M89.24,264.57l-2.18,1.57A3.1,3.1,0,0,0,84.48,265a3.06,3.06,0,0,0,0,6.08,2.93,2.93,0,0,0,2.62-1.32l2.23,1.51a5.55,5.55,0,0,1-5,2.5,5.76,5.76,0,1,1,0-11.52A5.63,5.63,0,0,1,89.24,264.57Z"/><path class="cls-2" d="M98.36,272.27a4.35,4.35,0,0,1-3.55,1.47c-2.42,0-3.89-1.47-3.89-3.52s1.54-3.38,4.31-3.41h3.11v-.21c0-1.19-.8-1.89-2.36-1.89a7.21,7.21,0,0,0-3.36,1l-1-2.22a10.57,10.57,0,0,1,5.1-1.31c3,0,4.76,1.52,4.79,4.06l0,7.37H98.36Zm0-2.54v-1H95.79c-1.23,0-1.84.38-1.84,1.29s.67,1.42,1.76,1.42A2.5,2.5,0,0,0,98.34,269.73Z"/><path class="cls-2" d="M113.31,263.41l-1.12,2.21a7.49,7.49,0,0,0-3.44-1.09c-.75,0-1.3.25-1.3.84,0,1.7,6,.84,5.94,4.82,0,2.31-2,3.53-4.6,3.53a7.88,7.88,0,0,1-4.89-1.57l1-2.19a6.78,6.78,0,0,0,3.93,1.41c.82,0,1.42-.27,1.42-.88,0-1.81-5.85-.84-5.85-4.81,0-2.33,2-3.53,4.45-3.53A8.51,8.51,0,0,1,113.31,263.41Z"/><path class="cls-2" d="M122.86,272.27a4.32,4.32,0,0,1-3.55,1.47c-2.41,0-3.88-1.47-3.88-3.52s1.53-3.38,4.3-3.41h3.11v-.21c0-1.19-.8-1.89-2.35-1.89a7.18,7.18,0,0,0-3.36,1l-1-2.22a10.6,10.6,0,0,1,5.1-1.31c3,0,4.77,1.52,4.79,4.06l0,7.37h-3.17Zm0-2.54v-1H120.3c-1.24,0-1.85.38-1.85,1.29s.68,1.42,1.77,1.42A2.49,2.49,0,0,0,122.84,269.73Z"/><path class="cls-3" d="M40.23,167.22l115.58.34,16.52.05a1.5,1.5,0,0,0,0-3l-115.58-.34-16.52-.05a1.5,1.5,0,0,0,0,3Z"/><path class="cls-4" d="M19.64,102.92l37.51.11S55.54,98.14,49,98.12c0,0-1.6-9.79-13-8.2-8.24,1.16-8.18,8.14-8.18,8.14S21.29,98,19.64,102.92Z"/><path class="cls-4" d="M150.18,68l31,.09s-1.62-3.27-6.51-3.28c0,0-1.61-8.16-8.13-8.18s-8.18,6.5-8.18,6.5S150.2,63.15,150.18,68Z"/><path class="cls-5" d="M166.63,164.27c8.26-37.48-17.83-37.56-21.09-40.83S137.45,100.58,113,97.25,83.6,113.47,77.05,120,54.21,124.8,46,136.2s-3.34,27.71-3.34,27.71Z"/><path class="cls-6" d="M137.28,160.3s-9.78-1.66-14.69,4.85l44,.12s-4.87-9.8-17.92-9.83C142.19,155.42,137.28,160.3,137.28,160.3Z"/><path class="cls-3" d="M137.58,159.21c-5.78-.9-11.91.59-15.78,5.14a1.14,1.14,0,0,0,.79,1.92l44,.13a1.14,1.14,0,0,0,1-1.69c-5.7-11.08-22.23-13.74-31.11-5.21-1.05,1,.54,2.59,1.59,1.59,7.87-7.55,22.56-5,27.57,4.75l1-1.69-44-.13.8,1.92c3.32-3.9,8.59-5.34,13.59-4.56C138.4,161.6,139,159.43,137.58,159.21Z"/><path class="cls-6" d="M47.05,165.54s5.43-8.75,15.23-10.36c0,0,8.15-1.6,13,3.3,0,0,9.79,0,9.77,6.56C85.08,165,47.57,164.93,47.05,165.54Z"/><path class="cls-3" d="M48,166.11c3.62-5.67,10.22-9.92,17-10a14.35,14.35,0,0,1,6.62,1.28C73,158,74,159.2,75.4,159.61c3.46,1,8.14.32,8.55,5.43l1.13-1.13q-9.9,0-19.81,0c-4.33,0-8.65.05-13,.16-1.63,0-4.28-.32-5.81.47-1.28.66-.15,2.61,1.14,1.94s5.26-.18,7-.21c4.23-.08,8.45-.1,12.67-.12q8.91,0,17.83,0A1.13,1.13,0,0,0,86.2,165c-.34-4.21-3.37-6.37-7.3-7.25a16.35,16.35,0,0,1-3.81-1c-2.58-1.3-4.43-2.51-7.44-2.85-8.51-1-17,3.92-21.57,11C45.3,166.19,47.25,167.32,48,166.11Z"/><path class="cls-7" d="M72.85,101.64H85.69v18.61H72.85Z"/><path class="cls-8" d="M80.87,101.64h4.82v18.61H80.87Z"/><path class="cls-9" d="M71.89,94.72H86.64v6.92H71.89Z"/><path class="cls-10" d="M79.73,94.72h6.91v6.92H79.73Z"/><path class="cls-11" d="M135.12,165.91H70.28V122.76L102.7,97.87l32.42,24.89Z"/><path class="cls-3" d="M102.7,97.87l-3.46,2.65,29,22.24v43.15h6.92V122.76Z"/><circle class="cls-12" cx="102.7" cy="118.55" r="6.91"/><path class="cls-4" d="M123.13,130.8h12v28.41h-12Z"/><path class="cls-4" d="M128.2,130.8h6.92v28.41H128.2Z"/><path class="cls-4" d="M70.28,130.8h12v28.41h-12Z"/><path class="cls-4" d="M75.35,130.8h6.91v28.41H75.35Z"/><path class="cls-7" d="M88.87,130.8h27.66v35.11H88.87Z"/><path class="cls-8" d="M109.61,130.8h6.92v35.11h-6.92Z"/><path class="cls-10" d="M145.34,126.25,104.8,95.12a3.47,3.47,0,0,0-4.21,0L60.06,126.25a3.46,3.46,0,1,0,4.21,5.48l38.43-29.51,38.43,29.51a3.46,3.46,0,0,0,4.21-5.48Z"/><path class="cls-3" d="M102.7,127.19a8.65,8.65,0,1,0-8.64-8.64A8.66,8.66,0,0,0,102.7,127.19Zm-4.86-6.82H101v3.06A5.23,5.23,0,0,1,97.84,120.37Zm6.59,3.06v-3.06h3.12A5.19,5.19,0,0,1,104.43,123.43Zm3.19-6.52h-3.19v-3.25A5.2,5.2,0,0,1,107.62,116.91ZM101,113.66v3.25H97.78A5.18,5.18,0,0,1,101,113.66Z"/><path class="cls-3" d="M157.2,164.18H148a1.73,1.73,0,0,0,0,3.46h9.17M50,167.64h90.61a1.73,1.73,0,0,0,0-3.46h-3.81V130.62l3.23,2.48a5.19,5.19,0,0,0,6.32-8.23L131.2,113.21a1.73,1.73,0,1,0-2.11,2.74l15.19,11.67a1.68,1.68,0,0,1,.66,1.14,1.73,1.73,0,0,1-.34,1.28,1.73,1.73,0,0,1-2.42.32l-38.43-29.51a1.74,1.74,0,0,0-2.1,0l-32.42,24.9-.06,0-6,4.57a1.75,1.75,0,0,1-1,.36,1.73,1.73,0,0,1-1.06-3.1l40.53-31.13a1.76,1.76,0,0,1,2.11,0l19.49,15a1.73,1.73,0,1,0,2.11-2.74l-19.49-15a5.22,5.22,0,0,0-6.32,0l-11.41,8.76a1.69,1.69,0,0,0,.24-.87V94.72A1.73,1.73,0,0,0,86.64,93H71.89a1.74,1.74,0,0,0-1.73,1.73v6.92a1.72,1.72,0,0,0,1,1.54v12.4L59,124.88a5.19,5.19,0,0,0,3.16,9.3,5.13,5.13,0,0,0,3.15-1.08l3.23-2.48v.17h0V145.5a1.73,1.73,0,1,0,3.46,0v-13h8.53v24.95H72V152.8a1.73,1.73,0,1,0-3.46,0v6.4h0v5H50M73.62,96.45H84.91v3.46H73.62Zm1,6.92H84v2.35l-9.38,7.2v-9.55Zm16,60.81V132.53h24.2v31.65Zm42.79-6.7h-8.53V132.53h8.53ZM72,160.93H82.26A1.72,1.72,0,0,0,84,159.21V130.8a1.73,1.73,0,0,0-1.73-1.73H72V128L102.7,104.4,133.39,128v1.1H123.13a1.74,1.74,0,0,0-1.73,1.73v28.41a1.73,1.73,0,0,0,1.73,1.72h10.26v3.25H118.25V130.8a1.73,1.73,0,0,0-1.72-1.73H88.87a1.73,1.73,0,0,0-1.73,1.73v33.38H72Z"/><path class="cls-10" d="M124.36,25a8.25,8.25,0,0,1,8.25,8.25c0,7.08-8.25,14.44-8.25,14.44s-8.25-7.36-8.25-14.44A8.25,8.25,0,0,1,124.36,25Zm3.09,8.25a3.1,3.1,0,1,0-3.09,3.1A3.1,3.1,0,0,0,127.45,33.21Z"/><path class="cls-13" d="M83.6,68.81a1.55,1.55,0,0,1-1.54,1.54h0a1.55,1.55,0,1,1,1.55-1.54Z"/><path class="cls-14" d="M91.41,84.8H68.71V81.7A11.36,11.36,0,0,1,80.05,70.35h0A11.35,11.35,0,0,1,91.41,81.7v3.1Z"/><path class="cls-13" d="M80.06,70.35h0a11.28,11.28,0,0,0-1.54.12,11.35,11.35,0,0,1,9.8,11.23v3.1h3.1V81.7A11.35,11.35,0,0,0,80.06,70.35Z"/><path class="cls-15" d="M68.71,84.8H92.44v1a2.06,2.06,0,0,1-2.06,2.06H69.74a2.06,2.06,0,0,1-2.06-2.06v-1Z"/><path class="cls-3" d="M124.36,48.69a1,1,0,0,1-.69-.27c-.35-.31-8.6-7.76-8.6-15.21a9.29,9.29,0,1,1,18.58,0c0,7.45-8.25,14.9-8.6,15.21A1,1,0,0,1,124.36,48.69Zm0-22.7a7.23,7.23,0,0,0-7.22,7.22c0,5.38,5.29,11.11,7.22,13,1.92-1.91,7.22-7.65,7.22-13A7.23,7.23,0,0,0,124.36,26Z"/><path class="cls-3" d="M118.77,79.64H95.54a1,1,0,1,1,0-2.06h23.23a1,1,0,0,1,0,2.06Z"/><path class="cls-3" d="M118.77,64.16H78.5a1,1,0,0,1,0-2.06h40.27a1,1,0,0,1,0,2.06Z"/><path class="cls-3" d="M117.14,48.69H81a1,1,0,0,1,0-2.07h36.13a1,1,0,0,1,0,2.07Z"/><path class="cls-3" d="M118.77,79.64a1,1,0,0,1,0-2.06,6.71,6.71,0,1,0,0-13.42,1,1,0,0,1,0-2.06,8.77,8.77,0,1,1,0,17.54Z"/><path class="cls-3" d="M80.5,64.16a8.77,8.77,0,1,1,0-17.54,1,1,0,0,1,0,2.06,6.71,6.71,0,1,0,0,13.42,1,1,0,0,1,0,2.06Z"/><path class="cls-3" d="M124.35,37.34a4.13,4.13,0,1,1,4.13-4.13A4.13,4.13,0,0,1,124.35,37.34Zm0-6.19a2.06,2.06,0,1,0,2.07,2.06A2.06,2.06,0,0,0,124.35,31.15Z"/><path class="cls-3" d="M93.47,85.83H66.64a1,1,0,0,1,0-2.06H93.47a1,1,0,0,1,0,2.06Z"/><path class="cls-3" d="M91.41,82.73a1,1,0,0,1-1-1,10.32,10.32,0,1,0-20.64,0,1,1,0,0,1-2.06,0,12.38,12.38,0,1,1,24.76,0A1,1,0,0,1,91.41,82.73Z"/><path class="cls-3" d="M70.71,85.83a1,1,0,0,1-1-1V81.7a1,1,0,1,1,2.06,0v3.1A1,1,0,0,1,70.71,85.83Z"/><path class="cls-3" d="M91.41,85.77a1,1,0,0,1-1-1v-3a1,1,0,0,1,2.07,0v3A1,1,0,0,1,91.41,85.77Z"/><path class="cls-3" d="M71.74,88.92a3.09,3.09,0,0,1-3.1-3.09,1,1,0,0,1,2.07,0,1,1,0,0,0,1,1,1,1,0,0,1,0,2.06Z"/><path class="cls-3" d="M90.37,88.92a1,1,0,0,1,0-2.06,1,1,0,0,0,1-1,1,1,0,0,1,2.07,0A3.09,3.09,0,0,1,90.37,88.92Z"/><path class="cls-3" d="M90.37,88.92H69.74a1,1,0,0,1,0-2.06H90.37a1,1,0,0,1,0,2.06Z"/><path class="cls-3" d="M92.44,86.86a1,1,0,0,1-1-1v-1a1,1,0,0,1,2.06,0v1A1,1,0,0,1,92.44,86.86Z"/><path class="cls-3" d="M69.68,86.86a1,1,0,0,1-1-1v-1a1,1,0,1,1,2.06,0v1A1,1,0,0,1,69.68,86.86Z"/><path class="cls-3" d="M82.05,71.38a2.58,2.58,0,1,1,2.58-2.57A2.57,2.57,0,0,1,82.05,71.38Zm0-3.09a.52.52,0,1,0,.51.52A.52.52,0,0,0,82.05,68.29Z"/></g></svg>