<svg xmlns="http://www.w3.org/2000/svg" viewBox="0 0 207.7 303.34"><defs><style>.cls-1{fill:#3bbaea;}.cls-2{fill:#fff;}.cls-3{fill:#053041;}.cls-4{fill:#00c6ff;opacity:0.5;}.cls-5{fill:#a4d562;}.cls-6{fill:#ccd1d9;}.cls-7{fill:#eac6bb;}.cls-8{fill:#fbb03b;}.cls-9{fill:#4a89dc;}.cls-10{fill:#656d78;}</style></defs><title>paso</title><g id="Layer_1" data-name="Layer 1"><rect class="cls-1" x="17.58" y="220.92" width="170" height="64" rx="24.29"/><circle class="cls-2" cx="102.67" cy="104.02" r="88.09"/><path class="cls-2" d="M52.78,243.2H49.4v4.2H46.08V232.7h6.39c3.84,0,6,1.85,6,5.1a4.85,4.85,0,0,1-2.75,4.75l3.13,4.85H55.11Zm-.31-2.77c1.82,0,2.87-.84,2.87-2.52s-1.05-2.46-2.87-2.46H49.4v5Z"/><path class="cls-2" d="M72.37,242.73h-8.1A2.89,2.89,0,0,0,67.19,245,4,4,0,0,0,70,243.81l1.7,1.72a6.28,6.28,0,0,1-4.82,2c-3.62,0-5.91-2.31-5.91-5.73a5.51,5.51,0,0,1,5.82-5.8C70.8,236,72.65,238.62,72.37,242.73Zm-3-1.91a2.35,2.35,0,0,0-2.5-2.45,2.64,2.64,0,0,0-2.64,2.45Z"/><path class="cls-2" d="M85,238.37l-2.19,1.57a3.1,3.1,0,0,0-2.58-1.19,3.06,3.06,0,0,0,0,6.08,2.92,2.92,0,0,0,2.62-1.32L85.08,245a5.55,5.55,0,0,1-5,2.5,5.77,5.77,0,1,1,0-11.53A5.64,5.64,0,0,1,85,238.37Z"/><path class="cls-2" d="M91.21,232.89a1.74,1.74,0,1,1-1.74-1.81A1.7,1.7,0,0,1,91.21,232.89ZM87.85,247.4V236.1h3.24v11.3Z"/><path class="cls-2" d="M107.17,241.81c0,3.42-2.08,5.71-5.25,5.71a4.28,4.28,0,0,1-3.63-1.76v1.64H95.06V231.82h3.23v5.94a4.18,4.18,0,0,1,3.57-1.77C105,236,107.17,238.33,107.17,241.81Zm-3.28-.1a2.82,2.82,0,1,0-2.79,3.12A2.84,2.84,0,0,0,103.89,241.71Z"/><path class="cls-2" d="M113.41,232.89a1.75,1.75,0,1,1-1.74-1.81A1.7,1.7,0,0,1,113.41,232.89Zm-3.36,14.51V236.1h3.23v11.3Z"/><path class="cls-2" d="M136.17,240.3v7.1H133v-6.16a2.08,2.08,0,0,0-2.19-2.31,2.59,2.59,0,0,0-2.5,2.88v5.59h-3.21v-6.16a2.08,2.08,0,0,0-2.16-2.31,2.6,2.6,0,0,0-2.52,2.88v5.59h-3.23V236.1h3.23v2A4.18,4.18,0,0,1,124.2,236a3.75,3.75,0,0,1,3.82,2.61A4.14,4.14,0,0,1,132.1,236C134.59,236,136.17,237.65,136.17,240.3Z"/><path class="cls-2" d="M150.87,241.75c0,3.44-2.44,5.77-6.05,5.77s-6.06-2.33-6.06-5.77,2.43-5.76,6.06-5.76S150.87,238.28,150.87,241.75Zm-8.86,0a2.83,2.83,0,1,0,2.81-3.11A2.82,2.82,0,0,0,142,241.79Z"/><path class="cls-2" d="M162,237.21l-1.11,2.21a7.56,7.56,0,0,0-3.45-1.09c-.75,0-1.3.25-1.3.84,0,1.7,6,.84,6,4.82,0,2.31-2,3.53-4.6,3.53a7.91,7.91,0,0,1-4.9-1.57l1-2.19a6.78,6.78,0,0,0,3.93,1.41c.82,0,1.43-.27,1.43-.88,0-1.81-5.86-.84-5.86-4.81,0-2.33,2-3.53,4.45-3.53A8.39,8.39,0,0,1,162,237.21Z"/><path class="cls-2" d="M77.81,267c0,3.42-2.08,5.71-5.25,5.71A4.28,4.28,0,0,1,68.93,271v5.71H65.7V261.3h3.23V263a4.2,4.2,0,0,1,3.57-1.76C75.67,261.2,77.81,263.53,77.81,267Zm-3.27-.1A2.82,2.82,0,1,0,71.75,270,2.84,2.84,0,0,0,74.54,266.91Z"/><path class="cls-2" d="M91.11,267.93H83a2.89,2.89,0,0,0,2.92,2.27A4,4,0,0,0,88.77,269l1.71,1.72a6.32,6.32,0,0,1-4.83,2c-3.61,0-5.9-2.31-5.9-5.73a5.5,5.5,0,0,1,5.81-5.79C89.53,261.2,91.38,263.82,91.11,267.93Zm-3-1.91a2.35,2.35,0,0,0-2.5-2.45A2.64,2.64,0,0,0,82.94,266Z"/><path class="cls-2" d="M105.15,272.6h-3.21v-1.66a4.13,4.13,0,0,1-3.57,1.78c-3.21,0-5.33-2.33-5.33-5.81s2.1-5.74,5.25-5.74a4.25,4.25,0,0,1,3.65,1.79V257h3.21ZM101.94,267a2.85,2.85,0,0,0-2.81-3.13,3.14,3.14,0,0,0,0,6.26A2.85,2.85,0,0,0,101.94,267Z"/><path class="cls-2" d="M112.51,258.09a1.75,1.75,0,1,1-1.75-1.81A1.7,1.7,0,0,1,112.51,258.09Zm-3.36,14.51V261.3h3.23v11.3Z"/><path class="cls-2" d="M127.39,272.6h-3.21v-1.66a4.13,4.13,0,0,1-3.57,1.78c-3.21,0-5.33-2.33-5.33-5.81s2.1-5.74,5.25-5.74a4.25,4.25,0,0,1,3.65,1.79V257h3.21ZM124.18,267a2.85,2.85,0,0,0-2.81-3.13,3.14,3.14,0,0,0,0,6.26A2.85,2.85,0,0,0,124.18,267Z"/><path class="cls-2" d="M142.53,267c0,3.44-2.43,5.77-6,5.77s-6.07-2.33-6.07-5.77,2.43-5.75,6.07-5.75S142.53,263.48,142.53,267Zm-8.86,0a2.83,2.83,0,1,0,2.82-3.11A2.83,2.83,0,0,0,133.67,267Z"/><path class="cls-3" d="M38.19,167.22l115.58.34,16.52.05a1.5,1.5,0,0,0,0-3l-115.58-.34-16.52-.05a1.5,1.5,0,0,0,0,3Z"/><path class="cls-4" d="M37.6,86.62l37.52.11S73.5,81.83,67,81.81c0,0-1.61-9.79-13-8.19-8.23,1.15-8.18,8.13-8.18,8.13S39.25,81.73,37.6,86.62Z"/><path class="cls-4" d="M148.15,68l31,.09s-1.62-3.27-6.51-3.28c0,0-1.61-8.16-8.13-8.18s-8.18,6.5-8.18,6.5S148.16,63.15,148.15,68Z"/><path class="cls-4" d="M164.59,164.27c8.26-37.48-17.83-37.56-21.09-40.83S135.42,100.58,111,97.25,81.56,113.47,75,120,52.17,124.8,44,136.2s-3.34,27.71-3.34,27.71Z"/><path class="cls-5" d="M135.25,160.3s-9.79-1.66-14.7,4.85l44,.12s-4.87-9.8-17.91-9.83C140.15,155.42,135.25,160.3,135.25,160.3Z"/><path class="cls-3" d="M135.54,159.21c-5.78-.9-11.91.59-15.78,5.14a1.14,1.14,0,0,0,.79,1.92l44,.13a1.14,1.14,0,0,0,1-1.69c-5.7-11.08-22.23-13.74-31.11-5.21-1,1,.55,2.59,1.59,1.59,7.87-7.55,22.56-5,27.58,4.75l1-1.69-44-.13.8,1.92c3.32-3.9,8.59-5.34,13.6-4.56C136.36,161.6,137,159.43,135.54,159.21Z"/><path class="cls-5" d="M45,165.54s5.44-8.75,15.23-10.36c0,0,8.16-1.6,13,3.3,0,0,9.78,0,9.76,6.56C83,165,45.53,164.93,45,165.54Z"/><path class="cls-3" d="M46,166.11c3.62-5.67,10.22-9.92,17-10a14.35,14.35,0,0,1,6.62,1.28c1.37.66,2.34,1.85,3.76,2.26,3.46,1,8.14.32,8.56,5.43L83,163.91q-9.9,0-19.81,0c-4.33,0-8.65.05-13,.16-1.64,0-4.29-.32-5.81.47-1.29.66-.15,2.61,1.13,1.94s5.26-.18,7-.21c4.22-.08,8.44-.1,12.66-.12q8.92,0,17.83,0A1.14,1.14,0,0,0,84.17,165c-.35-4.21-3.38-6.37-7.31-7.25a16.35,16.35,0,0,1-3.81-1c-2.58-1.3-4.42-2.51-7.44-2.85-8.51-1-17,3.92-21.57,11C43.26,166.19,45.21,167.32,46,166.11Z"/><path class="cls-1" d="M133.33,124a5.16,5.16,0,0,0,5.16,5.15v1.72a3.47,3.47,0,0,1-3.44,3.44H93.8a3.47,3.47,0,0,1-3.44-3.44V62.08a3.45,3.45,0,0,1,3.44-3.44h41.25a3.45,3.45,0,0,1,3.44,3.44V87.86a5.16,5.16,0,1,0,0,10.31,5.16,5.16,0,0,0,0,10.32,5.16,5.16,0,1,0,0,10.31A5.15,5.15,0,0,0,133.33,124Z"/><path class="cls-6" d="M126.46,117.49v-3.44a12,12,0,0,0-12-12,2.58,2.58,0,1,0-2.58-2.58,2.57,2.57,0,0,0,2.58,2.58,12,12,0,0,0-12,12v3.44Z"/><path class="cls-7" d="M138.49,98.17h1.86a5.15,5.15,0,0,1-.14,10.3h-1.72v0a5.16,5.16,0,0,1,0-10.32Z"/><path class="cls-7" d="M140.21,98.17h-1.72a5.16,5.16,0,1,1,0-10.31h1.72a5.16,5.16,0,0,1,.14,10.31Z"/><path class="cls-7" d="M138.49,108.47h1.72a5.15,5.15,0,0,1,.53,10.28v.08l-.53,0h-1.72a5.16,5.16,0,1,1,0-10.31Z"/><path class="cls-7" d="M138.49,129.11a5.16,5.16,0,1,1,0-10.31h1.72l.53,0a5.15,5.15,0,0,1-.53,10.28Z"/><path class="cls-8" d="M126.46,113.05v3.44H102.4v-3.44a12,12,0,1,1,24.06,0Z"/><path class="cls-3" d="M114.43,129.11a3.44,3.44,0,1,0-3.44-3.44A3.44,3.44,0,0,0,114.43,129.11Z"/><path class="cls-9" d="M114.43,122.24a3.44,3.44,0,1,1-3.44,3.43A3.43,3.43,0,0,1,114.43,122.24Z"/><path class="cls-7" d="M133.33,134.27l-20.62,22.86L80.05,145.77V89.58A10.3,10.3,0,0,1,90.36,99.89v30.94a3.47,3.47,0,0,0,3.44,3.44Z"/><path class="cls-10" d="M76.61,144.58l3.44,1.19,32.66,11.36,3.44,1.2-3.44,6.88H66.3Z"/><path class="cls-3" d="M90.36,101.61a1.71,1.71,0,0,1-1.71-1.72,8.6,8.6,0,0,0-8.6-8.59,1.72,1.72,0,0,1,0-3.44,12,12,0,0,1,12,12A1.72,1.72,0,0,1,90.36,101.61Z"/><path class="cls-3" d="M80.05,147.49a1.71,1.71,0,0,1-1.72-1.71V89.58a1.72,1.72,0,0,1,3.44,0v56.2A1.71,1.71,0,0,1,80.05,147.49Z"/><path class="cls-3" d="M135.05,136H93.8a5.16,5.16,0,0,1-5.15-5.16V62.08a5.16,5.16,0,0,1,5.15-5.16h41.25a5.17,5.17,0,0,1,5.16,5.16,1.72,1.72,0,0,1-3.44,0,1.72,1.72,0,0,0-1.72-1.72H93.8a1.72,1.72,0,0,0-1.72,1.72v68.75a1.72,1.72,0,0,0,1.72,1.72h41.25a1.72,1.72,0,0,0,1.72-1.72,1.72,1.72,0,0,1,3.44,0A5.17,5.17,0,0,1,135.05,136Z"/><path class="cls-3" d="M138.49,89.37a1.72,1.72,0,0,1-1.72-1.72V62.08a1.72,1.72,0,0,1,3.44,0V87.65A1.72,1.72,0,0,1,138.49,89.37Z"/><path class="cls-3" d="M138.49,120.52a6.88,6.88,0,1,1,0-13.75,1.72,1.72,0,0,1,0,3.44,3.44,3.44,0,1,0,0,6.87,1.72,1.72,0,0,1,0,3.44Z"/><path class="cls-3" d="M138.49,130.83a6.88,6.88,0,1,1,0-13.75,1.72,1.72,0,0,1,0,3.44,3.44,3.44,0,1,0,0,6.87,1.72,1.72,0,0,1,0,3.44Z"/><path class="cls-3" d="M140.21,120.52a1.72,1.72,0,0,1,0-3.44,3.44,3.44,0,0,0,0-6.88,1.72,1.72,0,1,1,0-3.43,6.88,6.88,0,0,1,0,13.75Z"/><path class="cls-3" d="M140.21,130.83a1.72,1.72,0,0,1,0-3.44,3.44,3.44,0,1,0,0-6.87,1.72,1.72,0,0,1,0-3.44,6.88,6.88,0,0,1,0,13.75Z"/><path class="cls-3" d="M140.21,120.52h-1.72a1.72,1.72,0,1,1,0-3.44h1.72a1.72,1.72,0,0,1,0,3.44Z"/><path class="cls-3" d="M140.21,130.83h-1.72a1.72,1.72,0,0,1,0-3.44h1.72a1.72,1.72,0,0,1,0,3.44Z"/><path class="cls-3" d="M138.49,110.21a6.88,6.88,0,1,1,0-13.75,1.72,1.72,0,0,1,0,3.44,3.44,3.44,0,1,0,0,6.87,1.72,1.72,0,0,1,0,3.44Z"/><path class="cls-3" d="M138.49,99.89a6.88,6.88,0,1,1,0-13.75,1.72,1.72,0,0,1,0,3.44,3.44,3.44,0,0,0,0,6.88,1.72,1.72,0,1,1,0,3.43Z"/><path class="cls-3" d="M140.21,110.2a1.72,1.72,0,1,1,0-3.43,3.44,3.44,0,0,0,0-6.88,1.72,1.72,0,0,1,0-3.44,6.88,6.88,0,0,1,0,13.75Z"/><path class="cls-3" d="M140.21,99.89a1.72,1.72,0,1,1,0-3.43,3.44,3.44,0,0,0,0-6.88,1.72,1.72,0,0,1,0-3.44,6.88,6.88,0,0,1,0,13.75Z"/><path class="cls-3" d="M140.21,99.9h-1.72a1.72,1.72,0,1,1,0-3.44h1.72a1.72,1.72,0,0,1,0,3.44Z"/><path class="cls-3" d="M140.21,89.58h-1.72a1.72,1.72,0,0,1,0-3.44h1.72a1.72,1.72,0,0,1,0,3.44Z"/><path class="cls-3" d="M140.21,110.2h-1.72a1.72,1.72,0,1,1,0-3.43h1.72a1.72,1.72,0,1,1,0,3.43Z"/><path class="cls-3" d="M112.71,158.86a1.69,1.69,0,0,1-1.15-.45,1.72,1.72,0,0,1-.13-2.43l20.63-22.86a1.72,1.72,0,1,1,2.55,2.3L114,158.29a1.73,1.73,0,0,1-1.27.57Z"/><path class="cls-3" d="M116.15,160.05a1.63,1.63,0,0,1-.57-.1L76.05,146.2A1.72,1.72,0,1,1,77.18,143l39.53,13.75a1.72,1.72,0,0,1-.56,3.34Z"/><path class="cls-3" d="M66.3,166.92a1.64,1.64,0,0,1-.77-.18,1.71,1.71,0,0,1-.77-2.3l10.32-20.63a1.72,1.72,0,1,1,3.07,1.54L67.84,166A1.71,1.71,0,0,1,66.3,166.92Z"/><path class="cls-3" d="M112.71,166.92a1.64,1.64,0,0,1-.77-.18,1.71,1.71,0,0,1-.77-2.3l3.44-6.88a1.72,1.72,0,1,1,3.07,1.54L114.25,166A1.73,1.73,0,0,1,112.71,166.92Z"/><path class="cls-3" d="M138.49,132.55a1.72,1.72,0,0,1-1.72-1.72v-1.72a1.72,1.72,0,1,1,3.44,0v1.72A1.72,1.72,0,0,1,138.49,132.55Z"/><path class="cls-3" d="M80.1,158.33a1.72,1.72,0,0,1,0-3.44h0a1.72,1.72,0,1,1,0,3.44Z"/><path class="cls-3" d="M114.43,130.83a5.16,5.16,0,1,1,5.15-5.16A5.16,5.16,0,0,1,114.43,130.83Zm0-6.87a1.72,1.72,0,1,0,1.72,1.71A1.72,1.72,0,0,0,114.43,124Z"/><path class="cls-3" d="M109.32,67.24a1.72,1.72,0,0,1,0-3.44h0a1.72,1.72,0,1,1,0,3.44Z"/><path class="cls-3" d="M119.58,67.24h-5.15a1.72,1.72,0,0,1,0-3.44h5.15a1.72,1.72,0,0,1,0,3.44Z"/><path class="cls-3" d="M126.46,115.77a1.72,1.72,0,0,1-1.72-1.72,10.32,10.32,0,0,0-20.63,0,1.72,1.72,0,1,1-3.43,0,13.75,13.75,0,0,1,27.5,0A1.72,1.72,0,0,1,126.46,115.77Z"/><path class="cls-3" d="M128.18,118.21h-27.5a1.72,1.72,0,1,1,0-3.43h27.5a1.72,1.72,0,1,1,0,3.43Z"/><path class="cls-3" d="M102.4,118.21a1.71,1.71,0,0,1-1.72-1.72v-3.44a1.72,1.72,0,0,1,3.43,0v3.44A1.71,1.71,0,0,1,102.4,118.21Z"/><path class="cls-3" d="M126.46,118.21a1.72,1.72,0,0,1-1.72-1.72v-3.44a1.72,1.72,0,0,1,3.44,0v3.44A1.72,1.72,0,0,1,126.46,118.21Z"/><path class="cls-3" d="M114.43,102.74a4.3,4.3,0,1,1,4.29-4.29A4.3,4.3,0,0,1,114.43,102.74Zm0-5.15a.86.86,0,1,0,.86.86A.85.85,0,0,0,114.43,97.59Z"/><path class="cls-3" d="M105.83,97.59a1.71,1.71,0,0,1-1.71-1.72v-8.6a1.72,1.72,0,1,1,3.43,0v8.6A1.72,1.72,0,0,1,105.83,97.59Z"/><path class="cls-3" d="M123,97.59a1.72,1.72,0,0,1-1.72-1.72v-8.6a1.72,1.72,0,0,1,3.44,0v8.6A1.72,1.72,0,0,1,123,97.59Z"/><path class="cls-3" d="M114.43,92.42a1.72,1.72,0,0,1-1.72-1.71V87.27a1.72,1.72,0,1,1,3.44,0v3.44A1.72,1.72,0,0,1,114.43,92.42Z"/></g></svg>