<svg xmlns="http://www.w3.org/2000/svg" viewBox="0 0 207.7 303.34"><defs><style>.cls-1{fill:#3bbaea;}.cls-2{fill:#fff;}.cls-3{fill:#053041;}.cls-4{fill:#00c6ff;opacity:0.5;}.cls-5{fill:#a4d562;}.cls-6{fill:#8cc152;}.cls-7{fill:#a0d468;}.cls-8{fill:#f7931e;}.cls-9{fill:#fbb03b;}</style></defs><title>paso</title><g id="Layer_5" data-name="Layer 5"><rect class="cls-1" x="17.09" y="220.92" width="170" height="64" rx="24.29"/><circle class="cls-2" cx="101.99" cy="104.02" r="88.09"/><path class="cls-2" d="M51.57,242.2H48.19v4.2H44.87V231.7h6.38c3.85,0,6,1.85,6,5.1a4.86,4.86,0,0,1-2.75,4.75l3.13,4.85H53.9Zm-.32-2.77c1.83,0,2.88-.84,2.88-2.52s-1.05-2.46-2.88-2.46H48.19v5Z"/><path class="cls-2" d="M71.16,241.73h-8.1A2.88,2.88,0,0,0,66,244a4,4,0,0,0,2.86-1.19l1.7,1.72a6.29,6.29,0,0,1-4.83,2c-3.61,0-5.9-2.31-5.9-5.73a5.51,5.51,0,0,1,5.82-5.8C69.59,235,71.43,237.62,71.16,241.73Zm-3-1.91a2.35,2.35,0,0,0-2.5-2.45A2.64,2.64,0,0,0,63,239.82Z"/><path class="cls-2" d="M76.35,246.4l-4.28-11.28,3.33,0,2.67,8.23,2.65-8.23h3.21l-4.26,11.3Z"/><path class="cls-2" d="M89.47,231.89a1.74,1.74,0,1,1-1.74-1.81A1.7,1.7,0,0,1,89.47,231.89ZM86.11,246.4V235.1h3.24v11.3Z"/><path class="cls-2" d="M101.44,236.21l-1.11,2.21a7.56,7.56,0,0,0-3.44-1.09c-.76,0-1.31.25-1.31.84,0,1.7,6,.84,6,4.82,0,2.31-2,3.53-4.6,3.53A7.86,7.86,0,0,1,92,245l1-2.19A6.73,6.73,0,0,0,97,244.17c.82,0,1.43-.27,1.43-.88,0-1.81-5.86-.84-5.86-4.81,0-2.33,2-3.53,4.45-3.53A8.39,8.39,0,0,1,101.44,236.21Z"/><path class="cls-2" d="M107.81,231.89a1.75,1.75,0,1,1-1.75-1.81A1.7,1.7,0,0,1,107.81,231.89Zm-3.36,14.51V235.1h3.23v11.3Z"/><path class="cls-2" d="M122.69,240.75c0,3.44-2.43,5.77-6,5.77s-6.07-2.33-6.07-5.77S113,235,116.65,235,122.69,237.28,122.69,240.75Zm-8.86,0a2.83,2.83,0,1,0,2.82-3.11A2.83,2.83,0,0,0,113.83,240.79Zm3.68-7H115l2.22-3.43,3,1.14Z"/><path class="cls-2" d="M136.87,239.3v7.1h-3.24v-6.16a2.1,2.1,0,0,0-2.22-2.31,2.62,2.62,0,0,0-2.58,2.9v5.57h-3.24V235.1h3.24v2a4.21,4.21,0,0,1,3.9-2.1C135.25,235,136.87,236.65,136.87,239.3Z"/><path class="cls-2" d="M155,244.86a6.45,6.45,0,0,1-4.26,1.68c-2.79,0-4.89-1.76-4.89-4.24,0-2,1.4-3.11,3-4a5.48,5.48,0,0,1-1.28-3.29c0-2.08,1.6-3.47,4.07-3.47s4.06,1.35,4.06,3.23c0,2-1.73,3.11-3.49,4,.67.75,1.51,1.63,2.54,2.64a10.71,10.71,0,0,0,1.11-2.46l2.06,1.54a13.39,13.39,0,0,1-1.38,2.64l2.24,2.17L157.13,247Zm-1.7-1.66c-1.3-1.3-2.33-2.37-3.17-3.29-.94.59-1.62,1.24-1.62,2.16a2.17,2.17,0,0,0,2.36,2.12A3.78,3.78,0,0,0,153.29,243.2Zm-2.33-6c1.22-.65,2.18-1.34,2.18-2.43a1.34,1.34,0,0,0-1.47-1.35A1.48,1.48,0,0,0,150.1,235,4,4,0,0,0,151,237.24Z"/><path class="cls-2" d="M81,256.9c3.74,0,5.88,1.85,5.88,5.1,0,3.42-2.14,5.4-5.88,5.4H78.09v4.2H74.77V256.9Zm-2.92,7.73h2.75c1.85,0,2.9-.84,2.9-2.52s-1-2.46-2.9-2.46H78.09Z"/><path class="cls-2" d="M96.26,270.27a4.35,4.35,0,0,1-3.55,1.47c-2.42,0-3.89-1.47-3.89-3.52s1.54-3.38,4.31-3.41h3.1v-.21c0-1.19-.79-1.89-2.35-1.89a7.18,7.18,0,0,0-3.36,1l-1-2.22a10.57,10.57,0,0,1,5.1-1.31c3,0,4.76,1.52,4.79,4.06l0,7.37H96.26Zm0-2.54v-1H93.69c-1.24,0-1.84.38-1.84,1.29s.67,1.42,1.76,1.42A2.48,2.48,0,0,0,96.23,267.73Z"/><path class="cls-2" d="M113.56,270.55c0,3.21-2.42,5.25-6,5.25a8.71,8.71,0,0,1-4.91-1.5l1.2-2.26a6,6,0,0,0,3.5,1.13c1.85,0,3-1,3-2.52v-1.28A4,4,0,0,1,107,271c-2.92,0-4.94-2.19-4.94-5.46s2-5.35,4.85-5.35a4.05,4.05,0,0,1,3.49,1.63V260.3h3.21Zm-3.21-4.92a2.67,2.67,0,0,0-2.65-2.94,2.7,2.7,0,0,0-2.66,2.94,2.67,2.67,0,1,0,5.31,0Z"/><path class="cls-2" d="M128.43,266c0,3.44-2.44,5.77-6.05,5.77s-6.07-2.33-6.07-5.77,2.44-5.75,6.07-5.75S128.43,262.48,128.43,266Zm-8.86,0a2.82,2.82,0,1,0,2.81-3.11A2.82,2.82,0,0,0,119.57,266Z"/><path class="cls-3" d="M40.69,167.22l115.59.34,16.52.05a1.5,1.5,0,0,0,0-3l-115.59-.34-16.52-.05a1.5,1.5,0,0,0,0,3Z"/><path class="cls-4" d="M20.11,102.92l37.51.11S56,98.14,49.48,98.12c0,0-1.6-9.79-13-8.2-8.24,1.16-8.18,8.14-8.18,8.14S21.76,98,20.11,102.92Z"/><path class="cls-4" d="M150.65,68l31,.09s-1.62-3.27-6.51-3.28c0,0-1.61-8.16-8.14-8.18s-8.17,6.5-8.17,6.5S150.67,63.15,150.65,68Z"/><path class="cls-4" d="M167.09,164.27c8.27-37.48-17.83-37.56-21.08-40.83s-8.09-22.86-32.54-26.19S84.06,113.47,77.52,120s-22.85,4.82-31,16.22-3.35,27.71-3.35,27.71Z"/><path class="cls-5" d="M137.75,160.3s-9.78-1.66-14.69,4.85l44,.12s-4.86-9.8-17.91-9.83C142.66,155.42,137.75,160.3,137.75,160.3Z"/><path class="cls-3" d="M138.05,159.21c-5.78-.9-11.91.59-15.79,5.14a1.14,1.14,0,0,0,.8,1.92l44,.13a1.14,1.14,0,0,0,1-1.69C162.36,153.63,145.84,151,137,159.5c-1.05,1,.54,2.59,1.59,1.59,7.87-7.55,22.55-5,27.57,4.75l1-1.69-44-.13.79,1.92c3.33-3.9,8.6-5.34,13.6-4.56C138.87,161.6,139.48,159.43,138.05,159.21Z"/><path class="cls-5" d="M47.52,165.54s5.43-8.75,15.22-10.36c0,0,8.16-1.6,13,3.3,0,0,9.79,0,9.77,6.56C85.55,165,48,164.93,47.52,165.54Z"/><path class="cls-3" d="M48.49,166.11c3.62-5.67,10.22-9.92,17-10a14.37,14.37,0,0,1,6.63,1.28c1.37.66,2.33,1.85,3.76,2.26,3.46,1,8.13.32,8.55,5.43l1.13-1.13q-9.92,0-19.82,0c-4.32,0-8.65.05-13,.16-1.63,0-4.29-.32-5.81.47-1.28.66-.15,2.61,1.14,1.94s5.26-.18,7-.21c4.22-.08,8.45-.1,12.67-.12q8.91,0,17.83,0A1.13,1.13,0,0,0,86.67,165c-.34-4.21-3.37-6.37-7.3-7.25a16.35,16.35,0,0,1-3.81-1c-2.58-1.3-4.43-2.51-7.44-2.85-8.52-1-17,3.92-21.57,11C45.77,166.19,47.71,167.32,48.49,166.11Z"/><path class="cls-3" d="M100.47,131.26a5.29,5.29,0,0,1,5.3,5.28h-5.3Z"/><path class="cls-3" d="M148.14,136.54a5.29,5.29,0,0,1,5.3-5.28v5.28Z"/><path class="cls-3" d="M153.44,104.78v5.28a5.29,5.29,0,0,1-5.3-5.28Z"/><path class="cls-6" d="M100.47,141.84h53v5.3h-53Z"/><path class="cls-6" d="M153.44,136.54v5.3h-53v-5.3h53Z"/><path class="cls-3" d="M100.47,104.78h5.3a5.29,5.29,0,0,1-5.3,5.28Z"/><path class="cls-7" d="M153.44,110.06v21.2a5.29,5.29,0,0,0-5.3,5.28H105.77a5.29,5.29,0,0,0-5.3-5.28v-21.2a5.29,5.29,0,0,0,5.3-5.28h42.37a5.29,5.29,0,0,0,5.3,5.28ZM134,120.65a7.06,7.06,0,1,0-7.06,7.06A7.07,7.07,0,0,0,134,120.65Z"/><path class="cls-6" d="M127,113.59a7.06,7.06,0,1,1-7.06,7.06A7.07,7.07,0,0,1,127,113.59Z"/><path class="cls-8" d="M91.65,55.34h7.08V99.48H91.65Z"/><path class="cls-2" d="M68.69,67.7v3.53A1.75,1.75,0,0,1,67,73H61.63a1.76,1.76,0,0,1-1.76-1.77V67.7h8.82Z"/><path class="cls-2" d="M79.29,69.47V80.06H74V64.17A5.3,5.3,0,0,1,79.29,69.47Z"/><path class="cls-9" d="M74,64.17V80.06h5.3V69.47A5.3,5.3,0,0,0,74,64.17Zm17.66-8.83V99.48H47.51V55.34H91.65Zm-23,15.89V67.7H59.87v3.53A1.76,1.76,0,0,0,61.63,73H67A1.75,1.75,0,0,0,68.69,71.23Z"/><path class="cls-3" d="M153.47,138.31h-53a1.76,1.76,0,0,1-1.77-1.76V104.78a1.77,1.77,0,0,1,1.77-1.77h53a1.76,1.76,0,0,1,1.76,1.77V136.2a1.34,1.34,0,0,1,0,.35A1.76,1.76,0,0,1,153.47,138.31Zm-51.24-3.53h49.44V106.55H102.23Z"/><path class="cls-3" d="M127,129.49a8.83,8.83,0,1,1,8.82-8.83A8.84,8.84,0,0,1,127,129.49Zm0-14.13a5.3,5.3,0,1,0,5.29,5.3A5.31,5.31,0,0,0,127,115.36Z"/><path class="cls-3" d="M153.43,111.83a7.06,7.06,0,0,1-7.05-7.06,1.77,1.77,0,0,1,3.53,0,3.53,3.53,0,0,0,3.52,3.53,1.77,1.77,0,0,1,0,3.53Z"/><path class="cls-3" d="M148.14,138.31a1.76,1.76,0,0,1-1.76-1.76,7.06,7.06,0,0,1,7.05-7.06,1.77,1.77,0,0,1,0,3.53,3.53,3.53,0,0,0-3.52,3.53A1.76,1.76,0,0,1,148.14,138.31Z"/><path class="cls-3" d="M105.76,138.31a1.76,1.76,0,0,1-1.76-1.76,3.54,3.54,0,0,0-3.53-3.53,1.77,1.77,0,0,1,0-3.53,7.07,7.07,0,0,1,7.06,7.06A1.76,1.76,0,0,1,105.76,138.31Z"/><path class="cls-3" d="M100.47,111.83a1.77,1.77,0,1,1,0-3.53,3.54,3.54,0,0,0,3.53-3.53,1.77,1.77,0,0,1,3.53,0,7.07,7.07,0,0,1-7.06,7.06Z"/><path class="cls-3" d="M100.47,148.92a1.77,1.77,0,0,1-1.77-1.77v-10.6a1.77,1.77,0,1,1,3.53,0v10.6a1.76,1.76,0,0,1-1.76,1.77Z"/><path class="cls-3" d="M153.44,143.61h-53a1.77,1.77,0,1,1,0-3.53h53a1.77,1.77,0,0,1,0,3.53Z"/><path class="cls-3" d="M153.44,148.91h-53a1.77,1.77,0,1,1,0-3.53h53a1.77,1.77,0,0,1,0,3.53Z"/><path class="cls-3" d="M153.44,148.92a1.77,1.77,0,0,1-1.77-1.77v-10.6a1.77,1.77,0,1,1,3.53,0v10.6A1.76,1.76,0,0,1,153.44,148.92Z"/><path class="cls-3" d="M127,101.25a1.76,1.76,0,0,1-1.76-1.77V74.77a1.77,1.77,0,1,1,3.53,0V99.48A1.77,1.77,0,0,1,127,101.25Z"/><path class="cls-3" d="M127,76.53H104A1.77,1.77,0,0,1,104,73h23a1.77,1.77,0,1,1,0,3.53Z"/><path class="cls-3" d="M107.53,80.07a1.76,1.76,0,0,1-1.24-.52L102.76,76a1.76,1.76,0,1,1,2.49-2.5l3.53,3.53a1.77,1.77,0,0,1-1.25,3Z"/><path class="cls-3" d="M104,76.53a1.76,1.76,0,0,1-1.24-3L106.29,70a1.76,1.76,0,0,1,2.49,2.5L105.25,76A1.75,1.75,0,0,1,104,76.53Z"/><path class="cls-3" d="M72.21,131.27a1.76,1.76,0,0,1-1.76-1.76V104.79a1.77,1.77,0,0,1,3.53,0v24.72A1.76,1.76,0,0,1,72.21,131.27Z"/><path class="cls-3" d="M95.16,131.27h-23a1.77,1.77,0,0,1,0-3.53h23a1.77,1.77,0,1,1,0,3.53Z"/><path class="cls-3" d="M95.16,131.27a1.79,1.79,0,0,1-1.25-.51l-3.53-3.53a1.77,1.77,0,0,1,2.5-2.5l3.53,3.53a1.76,1.76,0,0,1-1.25,3Z"/><path class="cls-3" d="M91.63,134.8a1.79,1.79,0,0,1-1.25-.51,1.77,1.77,0,0,1,0-2.5l3.53-3.53a1.77,1.77,0,0,1,2.5,2.5l-3.53,3.53a1.79,1.79,0,0,1-1.25.51Z"/><path class="cls-3" d="M91.65,101.26H47.51a1.77,1.77,0,0,1-1.77-1.77V55.35a1.77,1.77,0,0,1,1.77-1.77H91.65a1.77,1.77,0,0,1,1.77,1.77V99.49A1.77,1.77,0,0,1,91.65,101.26ZM49.27,97.72H89.89V57.11H49.27Z"/><path class="cls-3" d="M64.28,92.43a1.76,1.76,0,0,1-1.76-1.76V73a1.77,1.77,0,1,1,3.53,0V90.67A1.76,1.76,0,0,1,64.28,92.43Z"/><path class="cls-3" d="M61.63,74.77a3.53,3.53,0,0,1-3.53-3.52,1.69,1.69,0,0,1,1.67-1.67,1.85,1.85,0,0,1,1.86,1.66,1.77,1.77,0,1,1,0,3.53Z"/><path class="cls-3" d="M66.93,74.78a1.77,1.77,0,0,1,0-3.54,1.77,1.77,0,0,1,3.53,0,3.54,3.54,0,0,1-3.53,3.54Z"/><path class="cls-3" d="M66.94,74.77H61.63a1.77,1.77,0,1,1,0-3.53h5.31a1.77,1.77,0,0,1,0,3.53Z"/><path class="cls-3" d="M59.87,73a1.77,1.77,0,0,1-1.77-1.77V64.18a1.77,1.77,0,1,1,3.54,0v7.06A1.77,1.77,0,0,1,59.87,73Z"/><path class="cls-3" d="M68.7,73a1.77,1.77,0,0,1-1.77-1.77V64.18a1.77,1.77,0,1,1,3.53,0v7.06A1.76,1.76,0,0,1,68.7,73Z"/><path class="cls-3" d="M74,92.43a1.76,1.76,0,0,1-1.76-1.76V64.17a1.77,1.77,0,0,1,3.53,0v26.5A1.76,1.76,0,0,1,74,92.43Z"/><path class="cls-3" d="M79.29,71.24a1.76,1.76,0,0,1-1.76-1.76A3.55,3.55,0,0,0,74,65.94a1.77,1.77,0,0,1,0-3.53,7.08,7.08,0,0,1,7.08,7.07A1.76,1.76,0,0,1,79.29,71.24Z"/><path class="cls-3" d="M79.29,81.83a1.76,1.76,0,0,1-1.76-1.77V69.48a1.77,1.77,0,1,1,3.53,0V80.06A1.77,1.77,0,0,1,79.29,81.83Z"/><path class="cls-3" d="M79.29,81.83H74a1.77,1.77,0,0,1,0-3.53h5.3a1.77,1.77,0,1,1,0,3.53Z"/><path class="cls-3" d="M68.7,69.47H59.87a1.77,1.77,0,1,1,0-3.53H68.7a1.77,1.77,0,0,1,0,3.53Z"/><path class="cls-3" d="M64.28,69.47a1.76,1.76,0,0,1-1.76-1.77V64.18a1.77,1.77,0,1,1,3.53,0V67.7A1.77,1.77,0,0,1,64.28,69.47Z"/><path class="cls-3" d="M98.72,101.26H91.65a1.77,1.77,0,0,1,0-3.54H97V57.11h-5.3a1.77,1.77,0,0,1,0-3.53h7.07a1.76,1.76,0,0,1,1.76,1.77V99.49a1.76,1.76,0,0,1-1.76,1.77Z"/><path class="cls-3" d="M79.29,49.17a1.76,1.76,0,0,1-1.76-1.77,7.95,7.95,0,0,0-15.89,0,1.77,1.77,0,1,1-3.53,0,11.48,11.48,0,1,1,23,0A1.77,1.77,0,0,1,79.29,49.17Z"/><path class="cls-3" d="M59.87,57.11a1.76,1.76,0,0,1-1.76-1.76v-8a1.77,1.77,0,0,1,3.53,0v8A1.76,1.76,0,0,1,59.87,57.11Z"/><path class="cls-3" d="M79.29,57.11a1.76,1.76,0,0,1-1.76-1.76v-8a1.77,1.77,0,0,1,3.53,0v8A1.76,1.76,0,0,1,79.29,57.11Z"/><path class="cls-3" d="M86.36,49.17A1.76,1.76,0,0,1,84.6,47.4a7.95,7.95,0,0,0-15.89,0,1.77,1.77,0,1,1-3.53,0,11.48,11.48,0,1,1,22.95,0A1.77,1.77,0,0,1,86.36,49.17Z"/><path class="cls-3" d="M66.94,57.11a1.76,1.76,0,0,1-1.76-1.76v-8a1.77,1.77,0,0,1,3.53,0v8A1.76,1.76,0,0,1,66.94,57.11Z"/><path class="cls-3" d="M86.36,57.11a1.76,1.76,0,0,1-1.76-1.76v-8a1.77,1.77,0,0,1,3.53,0v8A1.76,1.76,0,0,1,86.36,57.11Z"/></g></svg>