<svg xmlns="http://www.w3.org/2000/svg" viewBox="0 0 207.7 303.34"><defs><style>.cls-1{fill:#3bbaea;}.cls-2{fill:#fff;}.cls-3{fill:#053041;}.cls-4{fill:#00c6ff;opacity:0.5;}.cls-15,.cls-5{fill:#fbb03b;}.cls-5{opacity:0.7;}.cls-6{fill:#a4d562;}.cls-7{fill:#f5f7fa;}.cls-8{fill:#f7931e;}.cls-9{fill:#7bb542;}.cls-10{fill:#e6e9ed;}.cls-11{fill:#8cc152;}.cls-12{fill:#a0d468;}.cls-13{fill:#545c66;}.cls-14{fill:#656d78;}.cls-16{fill:#ed5565;}</style></defs><title>paso</title><g id="Layer_3" data-name="Layer 3"><rect class="cls-1" x="17.28" y="220.92" width="170" height="64" rx="24.29"/><circle class="cls-2" cx="102.19" cy="104.02" r="88.09"/><path class="cls-2" d="M44,256.2H40.65v4.2H37.34V245.7h6.38c3.84,0,6,1.85,6,5.1A4.86,4.86,0,0,1,47,255.55l3.12,4.85H46.37Zm-.32-2.77c1.83,0,2.88-.84,2.88-2.52s-1.05-2.46-2.88-2.46H40.65v5Z"/><path class="cls-2" d="M63.63,255.73H55.52A2.89,2.89,0,0,0,58.44,258a4,4,0,0,0,2.86-1.19l1.7,1.72a6.3,6.3,0,0,1-4.83,2c-3.61,0-5.9-2.31-5.9-5.73a5.5,5.5,0,0,1,5.81-5.8C62.05,249,63.9,251.62,63.63,255.73Zm-3-1.91a2.35,2.35,0,0,0-2.49-2.45,2.64,2.64,0,0,0-2.65,2.45Z"/><path class="cls-2" d="M76.25,251.37l-2.19,1.57a3.08,3.08,0,0,0-2.58-1.19,3.06,3.06,0,0,0,0,6.08,2.94,2.94,0,0,0,2.63-1.32L76.33,258a5.53,5.53,0,0,1-5,2.5,5.77,5.77,0,1,1,0-11.53A5.63,5.63,0,0,1,76.25,251.37Z"/><path class="cls-2" d="M89.88,254.75c0,3.44-2.44,5.77-6,5.77s-6.07-2.33-6.07-5.77S80.2,249,83.83,249,89.88,251.28,89.88,254.75Zm-8.86,0a2.82,2.82,0,1,0,2.81-3.11A2.82,2.82,0,0,0,81,254.79Z"/><path class="cls-2" d="M92.88,260.4V244.82h3.24V260.4Z"/><path class="cls-2" d="M110.5,255.73h-8.11a2.89,2.89,0,0,0,2.92,2.27,4,4,0,0,0,2.86-1.19l1.7,1.72a6.3,6.3,0,0,1-4.83,2c-3.61,0-5.9-2.31-5.9-5.73A5.51,5.51,0,0,1,105,249C108.92,249,110.77,251.62,110.5,255.73Zm-3-1.91a2.35,2.35,0,0,0-2.49-2.45,2.64,2.64,0,0,0-2.65,2.45Z"/><path class="cls-2" d="M123.12,251.37l-2.18,1.57a3.11,3.11,0,0,0-2.59-1.19,3.06,3.06,0,0,0,0,6.08,2.94,2.94,0,0,0,2.63-1.32L123.2,258a5.52,5.52,0,0,1-5,2.5,5.77,5.77,0,1,1,0-11.53A5.63,5.63,0,0,1,123.12,251.37Z"/><path class="cls-2" d="M135.32,251.37l-2.18,1.57a3.1,3.1,0,0,0-2.58-1.19,3.06,3.06,0,0,0,0,6.08,2.93,2.93,0,0,0,2.62-1.32L135.4,258a5.52,5.52,0,0,1-5,2.5,5.77,5.77,0,1,1,0-11.53A5.63,5.63,0,0,1,135.32,251.37Z"/><path class="cls-2" d="M141.54,245.89a1.75,1.75,0,1,1-1.74-1.81A1.7,1.7,0,0,1,141.54,245.89Zm-3.36,14.51V249.1h3.23v11.3Z"/><path class="cls-2" d="M156.43,254.75c0,3.44-2.44,5.77-6.05,5.77s-6.07-2.33-6.07-5.77,2.44-5.76,6.07-5.76S156.43,251.28,156.43,254.75Zm-8.87,0a2.83,2.83,0,1,0,2.82-3.11A2.83,2.83,0,0,0,147.56,254.79Zm3.68-7h-2.56l2.22-3.43,3,1.14Z"/><path class="cls-2" d="M170.6,253.3v7.1h-3.23v-6.16a2.1,2.1,0,0,0-2.23-2.31,2.62,2.62,0,0,0-2.58,2.9v5.57h-3.23V249.1h3.23v2a4.23,4.23,0,0,1,3.9-2.1C169,249,170.6,250.65,170.6,253.3Z"/><path class="cls-3" d="M40.89,167.22l115.58.34,16.52.05a1.5,1.5,0,0,0,0-3l-115.58-.34-16.52-.05a1.5,1.5,0,0,0,0,3Z"/><path class="cls-4" d="M20.3,102.92l37.52.11s-1.62-4.89-8.15-4.91c0,0-1.6-9.79-13-8.2-8.23,1.16-8.18,8.14-8.18,8.14S22,98,20.3,102.92Z"/><path class="cls-4" d="M150.85,68l31,.09s-1.62-3.27-6.51-3.28c0,0-1.61-8.16-8.13-8.18s-8.18,6.5-8.18,6.5S150.86,63.15,150.85,68Z"/><path class="cls-5" d="M167.29,164.27c8.26-37.48-17.83-37.56-21.09-40.83s-8.08-22.86-32.54-26.19S84.26,113.47,77.72,120s-22.85,4.82-31,16.22-3.34,27.71-3.34,27.71Z"/><path class="cls-6" d="M137.94,160.3s-9.78-1.66-14.69,4.85l44,.12s-4.87-9.8-17.91-9.83C142.85,155.42,137.94,160.3,137.94,160.3Z"/><path class="cls-3" d="M138.24,159.21c-5.78-.9-11.91.59-15.78,5.14a1.14,1.14,0,0,0,.79,1.92l44,.13a1.14,1.14,0,0,0,1-1.69c-5.7-11.08-22.23-13.74-31.11-5.21-1.05,1,.55,2.59,1.59,1.59,7.87-7.55,22.56-5,27.58,4.75l1-1.69-44-.13.8,1.92c3.32-3.9,8.59-5.34,13.6-4.56C139.06,161.6,139.67,159.43,138.24,159.21Z"/><path class="cls-6" d="M47.71,165.54s5.44-8.75,15.23-10.36c0,0,8.16-1.6,13,3.3,0,0,9.79,0,9.77,6.56C85.74,165,48.23,164.93,47.71,165.54Z"/><path class="cls-3" d="M48.68,166.11c3.62-5.67,10.22-9.92,17-10a14.35,14.35,0,0,1,6.62,1.28c1.37.66,2.34,1.85,3.76,2.26,3.46,1,8.14.32,8.56,5.43l1.12-1.13q-9.9,0-19.81,0c-4.33,0-8.65.05-13,.16-1.64,0-4.29-.32-5.81.47-1.29.66-.15,2.61,1.13,1.94s5.26-.18,7-.21c4.22-.08,8.44-.1,12.66-.12q8.93,0,17.83,0A1.14,1.14,0,0,0,86.87,165c-.35-4.21-3.38-6.37-7.31-7.25a16.35,16.35,0,0,1-3.81-1c-2.58-1.3-4.42-2.51-7.44-2.85-8.51-1-17,3.92-21.57,11C46,166.19,47.91,167.32,48.68,166.11Z"/><path class="cls-7" d="M88.33,83.68v8.75H83.08v-14A5.24,5.24,0,0,1,88.33,83.68Z"/><path class="cls-7" d="M77.83,81.93v3.5a1.76,1.76,0,0,1-1.75,1.75H70.81a1.74,1.74,0,0,1-1.73-1.75v-3.5h8.75Z"/><path class="cls-8" d="M104.08,85.43v24.48h-7V69.68h7Z"/><path class="cls-9" d="M156.57,150.17H126.85l-4.83,0a17.5,17.5,0,0,0,17.1-17.51,17.49,17.49,0,0,1,17.45,17.49Z"/><path class="cls-3" d="M154.84,150.17v0a14,14,0,1,1-28,0v0h7v0a7,7,0,1,0,14,0v0Z"/><path class="cls-10" d="M147.84,150.17v0a7,7,0,1,1-14,0v0Z"/><path class="cls-10" d="M139.09,78.43h5.25v14h-5.25Z"/><path class="cls-11" d="M139.12,132.68A17.5,17.5,0,0,1,122,150.19H95.33a8.73,8.73,0,0,1-8.73-8.46v-.3h35a8.74,8.74,0,0,0,8.75-8.75h0l-5.25-38.5h8.77Z"/><path class="cls-12" d="M139.09,92.43v1.75h-14a8.76,8.76,0,0,1-8-5.25h9.77a3.5,3.5,0,0,0,0-7h-9.75a8.72,8.72,0,0,1,8-5.25h14V92.43Z"/><path class="cls-13" d="M126.84,81.93a3.5,3.5,0,0,1,0,7h-14a3.5,3.5,0,0,0,0-7h14Z"/><path class="cls-14" d="M112.83,81.93a3.5,3.5,0,1,1-3.5,3.5A3.48,3.48,0,0,1,112.83,81.93Z"/><path class="cls-12" d="M104.08,116.93v24.5H53.33v-17.5a7,7,0,0,1,7-7Z"/><path class="cls-14" d="M60.33,109.93h43.75v7H60.33Z"/><path class="cls-15" d="M77.83,81.93H69.08v3.5a1.74,1.74,0,0,0,1.73,1.75h5.27a1.76,1.76,0,0,0,1.75-1.75Zm5.25,10.5h5.25V83.68a5.24,5.24,0,0,0-5.25-5.25Zm14-22.75v40.23H60.33V69.68H97.08Z"/><path class="cls-14" d="M86.6,141.73v8.46H55.08v-8.76h31.5A1.46,1.46,0,0,0,86.6,141.73Z"/><path class="cls-3" d="M77.83,150.19h7a14,14,0,1,1-28,0h7a7,7,0,1,0,14,0Z"/><path class="cls-10" d="M63.85,150.19h14a7,7,0,1,1-14,0Z"/><path class="cls-16" d="M53.33,125.68v7H51.58a3.5,3.5,0,1,1,0-7Z"/><path class="cls-3" d="M140.85,165.94a15.77,15.77,0,0,1-15.76-15.75,1.75,1.75,0,0,1,3.5,0,12.25,12.25,0,1,0,24.5,0,1.75,1.75,0,0,1,3.5,0A15.76,15.76,0,0,1,140.85,165.94Z"/><path class="cls-3" d="M140.85,158.94a8.77,8.77,0,0,1-8.76-8.75,1.75,1.75,0,0,1,3.5,0,5.25,5.25,0,1,0,10.5,0,1.75,1.75,0,0,1,3.5,0A8.76,8.76,0,0,1,140.85,158.94Z"/><path class="cls-3" d="M70.84,165.94a15.76,15.76,0,0,1-15.75-15.75,1.75,1.75,0,0,1,3.5,0,12.25,12.25,0,0,0,24.5,0,1.75,1.75,0,0,1,3.5,0A15.77,15.77,0,0,1,70.84,165.94Z"/><path class="cls-3" d="M70.84,158.94a8.76,8.76,0,0,1-8.75-8.75,1.75,1.75,0,0,1,3.5,0,5.25,5.25,0,0,0,10.5,0,1.75,1.75,0,0,1,3.5,0A8.77,8.77,0,0,1,70.84,158.94Z"/><path class="cls-3" d="M95.34,151.94a10.52,10.52,0,0,1-10.51-10.51,1.75,1.75,0,0,1,3.5,0,7,7,0,0,0,7,7,1.75,1.75,0,0,1,0,3.5Z"/><path class="cls-3" d="M95.34,151.94a1.75,1.75,0,0,1,0-3.5l61.23,0a1.75,1.75,0,0,1,0,3.5Z"/><path class="cls-3" d="M121.62,151.94a1.75,1.75,0,0,1,0-3.5,15.77,15.77,0,0,0,15.75-15.75,1.75,1.75,0,0,1,3.5,0A19.27,19.27,0,0,1,121.62,151.94Z"/><path class="cls-3" d="M121.62,143.19a1.75,1.75,0,0,1,0-3.5,7,7,0,0,0,7-7,1.75,1.75,0,0,1,3.5,0A10.51,10.51,0,0,1,121.62,143.19Z"/><path class="cls-3" d="M156.57,151.92a1.75,1.75,0,0,1-1.75-1.75,15.75,15.75,0,0,0-15.73-15.73,1.75,1.75,0,1,1,0-3.5,19.26,19.26,0,0,1,19.23,19.23A1.75,1.75,0,0,1,156.57,151.92Z"/><path class="cls-3" d="M139.12,134.44a1.75,1.75,0,0,1-1.73-1.52l-5.25-38.5a1.75,1.75,0,0,1,3.47-.47l5.25,38.5a1.76,1.76,0,0,1-1.5,2l-.24,0Z"/><path class="cls-3" d="M130.34,134.44a1.75,1.75,0,0,1-1.73-1.52l-5.25-38.5a1.75,1.75,0,0,1,3.47-.47l5.25,38.5a1.75,1.75,0,0,1-1.5,2l-.24,0Z"/><path class="cls-3" d="M121.62,143.19H53.33a1.75,1.75,0,1,1,0-3.5h68.29a1.75,1.75,0,0,1,0,3.5Z"/><path class="cls-3" d="M53.33,143.19a1.75,1.75,0,0,1-1.75-1.75v-17.5a1.75,1.75,0,0,1,3.5,0v17.5A1.75,1.75,0,0,1,53.33,143.19Z"/><path class="cls-3" d="M104.09,143.19a1.75,1.75,0,0,1-1.75-1.75V116.93a1.75,1.75,0,0,1,3.5,0v24.51A1.75,1.75,0,0,1,104.09,143.19Z"/><path class="cls-3" d="M104.09,118.68H60.33a1.75,1.75,0,1,1,0-3.5h43.76a1.75,1.75,0,0,1,0,3.5Z"/><path class="cls-3" d="M86.59,151.94H55.08a1.75,1.75,0,0,1-1.75-1.75v-8.75a1.75,1.75,0,0,1,1.75-1.75H86.59a1.75,1.75,0,0,1,1.75,1.75v8.75A1.75,1.75,0,0,1,86.59,151.94Zm-29.76-3.5h28v-5.25h-28Z"/><path class="cls-3" d="M51.58,134.43a5.25,5.25,0,1,1,0-10.5,1.75,1.75,0,0,1,0,3.5,1.75,1.75,0,1,0,0,3.5,1.75,1.75,0,0,1,0,3.5Z"/><path class="cls-3" d="M53.33,127.43H51.58a1.75,1.75,0,1,1,0-3.5h1.75a1.75,1.75,0,0,1,0,3.5Z"/><path class="cls-3" d="M53.33,134.43H51.58a1.75,1.75,0,1,1,0-3.5h1.75a1.75,1.75,0,0,1,0,3.5Z"/><path class="cls-3" d="M53.33,125.69a1.75,1.75,0,0,1-1.75-1.75,8.76,8.76,0,0,1,8.75-8.76,1.75,1.75,0,0,1,0,3.5,5.26,5.26,0,0,0-5.25,5.26A1.75,1.75,0,0,1,53.33,125.69Z"/><path class="cls-3" d="M117.08,83.68a1.69,1.69,0,0,1-.7-.15,1.76,1.76,0,0,1-.91-2.31,10.52,10.52,0,0,1,9.63-6.3,1.75,1.75,0,0,1,0,3.5,7,7,0,0,0-6.42,4.2,1.76,1.76,0,0,1-1.6,1.06Z"/><path class="cls-3" d="M125.1,95.93a10.5,10.5,0,0,1-9.63-6.3,1.75,1.75,0,1,1,3.21-1.4,7,7,0,0,0,6.42,4.2,1.75,1.75,0,0,1,0,3.5Z"/><path class="cls-3" d="M139.09,78.42h-14a1.75,1.75,0,0,1,0-3.5h14a1.75,1.75,0,0,1,0,3.5Z"/><path class="cls-3" d="M139.09,95.93a1.75,1.75,0,0,1-1.75-1.75V76.67a1.75,1.75,0,1,1,3.5,0V94.18A1.75,1.75,0,0,1,139.09,95.93Z"/><path class="cls-3" d="M139.09,95.93h-14a1.75,1.75,0,0,1,0-3.5h14a1.75,1.75,0,0,1,0,3.5Z"/><path class="cls-3" d="M126.83,90.68a1.75,1.75,0,1,1,0-3.5,1.75,1.75,0,1,0,0-3.5,1.75,1.75,0,1,1,0-3.5,5.25,5.25,0,1,1,0,10.5Z"/><path class="cls-3" d="M126.83,83.68h-14a1.75,1.75,0,1,1,0-3.5h14a1.75,1.75,0,1,1,0,3.5Z"/><path class="cls-3" d="M126.83,90.68h-14a1.75,1.75,0,1,1,0-3.5h14a1.75,1.75,0,1,1,0,3.5Z"/><path class="cls-3" d="M112.84,90.68a5.25,5.25,0,1,1,5.24-5.25A5.26,5.26,0,0,1,112.84,90.68Zm0-7a1.75,1.75,0,1,0,1.74,1.75A1.75,1.75,0,0,0,112.84,83.68Z"/><path class="cls-3" d="M144.34,80.17h-5.25a1.75,1.75,0,0,1,0-3.5h5.25a1.75,1.75,0,0,1,0,3.5Z"/><path class="cls-3" d="M144.34,94.18a1.75,1.75,0,0,1-1.75-1.75v-14a1.75,1.75,0,1,1,3.5,0v14A1.75,1.75,0,0,1,144.34,94.18Z"/><path class="cls-3" d="M144.34,94.18h-5.25a1.75,1.75,0,0,1,0-3.5h5.25a1.75,1.75,0,0,1,0,3.5Z"/><path class="cls-3" d="M104.09,118.68a1.75,1.75,0,0,1-1.75-1.75v-7a1.75,1.75,0,0,1,3.5,0v7A1.76,1.76,0,0,1,104.09,118.68Z"/><path class="cls-3" d="M60.33,118.68a1.76,1.76,0,0,1-1.75-1.75v-7a1.75,1.75,0,0,1,3.5,0v7A1.75,1.75,0,0,1,60.33,118.68Z"/><path class="cls-3" d="M104.09,111.68H60.33a1.75,1.75,0,1,1,0-3.5h43.76a1.75,1.75,0,0,1,0,3.5Z"/><path class="cls-3" d="M97.08,111.67H60.33a1.75,1.75,0,0,1-1.75-1.75V69.67a1.75,1.75,0,0,1,1.75-1.75H97.08a1.75,1.75,0,0,1,1.75,1.75v40.25A1.75,1.75,0,0,1,97.08,111.67Zm-35-3.5H95.33V71.42H62.08Z"/><path class="cls-3" d="M73.45,102.93a1.75,1.75,0,0,1-1.75-1.75v-14a1.75,1.75,0,0,1,3.5,0v14A1.75,1.75,0,0,1,73.45,102.93Z"/><path class="cls-3" d="M70.82,88.93a3.5,3.5,0,0,1-3.5-3.5A1.66,1.66,0,0,1,69,83.79a1.84,1.84,0,0,1,1.84,1.64,1.75,1.75,0,0,1,0,3.5Z"/><path class="cls-3" d="M76.07,88.93a1.75,1.75,0,0,1,0-3.5,1.76,1.76,0,0,1,3.51,0,3.51,3.51,0,0,1-3.51,3.5Z"/><path class="cls-3" d="M76.08,88.93H70.82a1.75,1.75,0,0,1,0-3.5h5.26a1.75,1.75,0,0,1,0,3.5Z"/><path class="cls-3" d="M69.07,87.18a1.75,1.75,0,0,1-1.75-1.75v-7a1.75,1.75,0,0,1,3.5,0v7A1.75,1.75,0,0,1,69.07,87.18Z"/><path class="cls-3" d="M77.83,87.18a1.75,1.75,0,0,1-1.76-1.75v-7a1.76,1.76,0,0,1,3.51,0v7A1.75,1.75,0,0,1,77.83,87.18Z"/><path class="cls-3" d="M83.08,102.93a1.75,1.75,0,0,1-1.75-1.75V78.42a1.75,1.75,0,0,1,3.5,0v22.76A1.75,1.75,0,0,1,83.08,102.93Z"/><path class="cls-3" d="M88.33,85.43a1.75,1.75,0,0,1-1.75-1.75,3.51,3.51,0,0,0-3.51-3.51,1.75,1.75,0,0,1,0-3.5,7,7,0,0,1,7,7A1.75,1.75,0,0,1,88.33,85.43Z"/><path class="cls-3" d="M88.33,94.17a1.75,1.75,0,0,1-1.75-1.75V83.68a1.75,1.75,0,0,1,3.5,0v8.74a1.75,1.75,0,0,1-1.75,1.75Z"/><path class="cls-3" d="M88.33,94.17H83.08a1.75,1.75,0,0,1,0-3.5h5.25a1.75,1.75,0,0,1,0,3.5Z"/><path class="cls-3" d="M77.83,83.68H69.07a1.75,1.75,0,0,1,0-3.5h8.76a1.75,1.75,0,0,1,0,3.5Z"/><path class="cls-3" d="M73.45,83.68a1.75,1.75,0,0,1-1.75-1.75v-3.5a1.75,1.75,0,0,1,3.5,0v3.5A1.76,1.76,0,0,1,73.45,83.68Z"/><path class="cls-3" d="M104.08,111.67H95.33a1.75,1.75,0,0,1,0-3.5h7V71.42h-7a1.75,1.75,0,0,1,0-3.5h8.75a1.75,1.75,0,0,1,1.75,1.75v40.25A1.75,1.75,0,0,1,104.08,111.67Z"/><path class="cls-3" d="M86.57,64.43a1.75,1.75,0,0,1-1.75-1.75,5.25,5.25,0,1,0-10.5,0,1.75,1.75,0,0,1-3.5,0,8.75,8.75,0,1,1,17.5,0A1.75,1.75,0,0,1,86.57,64.43Z"/><path class="cls-3" d="M72.57,71.42a1.75,1.75,0,0,1-1.75-1.75v-7a1.75,1.75,0,0,1,3.5,0v7A1.75,1.75,0,0,1,72.57,71.42Z"/><path class="cls-3" d="M86.57,71.42a1.75,1.75,0,0,1-1.75-1.75v-7a1.75,1.75,0,0,1,3.5,0v7A1.75,1.75,0,0,1,86.57,71.42Z"/><path class="cls-3" d="M93.57,64.43a1.76,1.76,0,0,1-1.75-1.75,5.25,5.25,0,1,0-10.5,0,1.75,1.75,0,0,1-3.5,0,8.75,8.75,0,1,1,17.5,0A1.75,1.75,0,0,1,93.57,64.43Z"/><path class="cls-3" d="M79.57,71.42a1.75,1.75,0,0,1-1.75-1.75v-7a1.75,1.75,0,0,1,3.5,0v7A1.75,1.75,0,0,1,79.57,71.42Z"/><path class="cls-3" d="M93.57,71.42a1.75,1.75,0,0,1-1.75-1.75v-7a1.75,1.75,0,0,1,3.5,0v7A1.75,1.75,0,0,1,93.57,71.42Z"/></g></svg>