<svg xmlns="http://www.w3.org/2000/svg" viewBox="0 0 207.7 303.34"><defs><style>.cls-1{fill:#3bbaea;}.cls-2{fill:#fff;}.cls-3{fill:#053041;}.cls-4{fill:#00c6ff;opacity:0.5;}.cls-11,.cls-5{fill:#fbb03b;}.cls-5{opacity:0.7;}.cls-6{fill:#a4d562;}.cls-7{fill:#545c66;}.cls-8{fill:#aab2bd;}.cls-9{fill:#656d78;}.cls-10{fill:#e6e9ed;}.cls-12{fill:#ed5565;}.cls-13{fill:#eac6bb;}</style></defs><title>paso</title><g id="Layer_6" data-name="Layer 6"><rect class="cls-1" x="16.68" y="220.92" width="170" height="64" rx="24.29"/><circle class="cls-2" cx="101.81" cy="104.02" r="88.09"/><path class="cls-2" d="M45,245.45v3.19h7.1v2.75H45v3.26h8.11v2.75H41.71V242.7H52.9v2.75Z"/><path class="cls-2" d="M59.09,257.4l-4.28-11.28,3.34,0,2.66,8.23,2.65-8.23h3.21l-4.26,11.3Z"/><path class="cls-2" d="M75.09,256.07a4.31,4.31,0,0,1-3.54,1.47c-2.42,0-3.89-1.47-3.89-3.52s1.53-3.38,4.31-3.41h3.1v-.21c0-1.19-.79-1.89-2.35-1.89a7.18,7.18,0,0,0-3.36,1l-1-2.22A10.61,10.61,0,0,1,73.46,246c3,0,4.76,1.52,4.78,4.06l0,7.37H75.09Zm0-2.54v-1H72.53c-1.24,0-1.85.38-1.85,1.29s.68,1.42,1.77,1.42A2.49,2.49,0,0,0,75.07,253.53Z"/><path class="cls-2" d="M81.92,257.4V241.82h3.23V257.4Z"/><path class="cls-2" d="M99.87,257.4H96.66v-2a4,4,0,0,1-3.78,2.12c-2.5,0-4.07-1.66-4.07-4.32v-7.1H92v6.17a2,2,0,0,0,2.12,2.29,2.59,2.59,0,0,0,2.5-2.88V246.1h3.21Z"/><path class="cls-2" d="M110.31,256.07a4.33,4.33,0,0,1-3.55,1.47c-2.41,0-3.88-1.47-3.88-3.52s1.53-3.38,4.3-3.41h3.11v-.21c0-1.19-.8-1.89-2.35-1.89a7.15,7.15,0,0,0-3.36,1l-1-2.22a10.6,10.6,0,0,1,5.1-1.31c3,0,4.77,1.52,4.79,4.06l0,7.37h-3.17Zm0-2.54v-1h-2.54c-1.24,0-1.85.38-1.85,1.29s.67,1.42,1.76,1.42A2.5,2.5,0,0,0,110.29,253.53Z"/><path class="cls-2" d="M126.75,248.37l-2.18,1.57a3.1,3.1,0,0,0-2.58-1.19,3.06,3.06,0,0,0,0,6.08,2.93,2.93,0,0,0,2.62-1.32l2.23,1.51a5.55,5.55,0,0,1-5,2.5,5.77,5.77,0,1,1,0-11.53A5.63,5.63,0,0,1,126.75,248.37Z"/><path class="cls-2" d="M133,242.89a1.75,1.75,0,1,1-1.74-1.81A1.7,1.7,0,0,1,133,242.89Zm-3.36,14.51V246.1h3.23v11.3Z"/><path class="cls-2" d="M147.86,251.75c0,3.44-2.44,5.77-6.05,5.77s-6.07-2.33-6.07-5.77,2.44-5.76,6.07-5.76S147.86,248.28,147.86,251.75Zm-8.86,0a2.82,2.82,0,1,0,2.81-3.11A2.82,2.82,0,0,0,139,251.79Zm3.67-7h-2.56l2.22-3.43,3,1.14Z"/><path class="cls-2" d="M162,250.3v7.1H158.8v-6.16a2.1,2.1,0,0,0-2.23-2.31,2.62,2.62,0,0,0-2.58,2.9v5.57h-3.23V246.1H154v2a4.23,4.23,0,0,1,3.91-2.1C160.41,246,162,247.65,162,250.3Z"/><path class="cls-3" d="M41.29,167.22l115.58.34,16.52.05a1.5,1.5,0,0,0,0-3l-115.58-.34-16.52-.05a1.5,1.5,0,0,0,0,3Z"/><path class="cls-4" d="M20.7,102.92l37.51.11s-1.61-4.89-8.14-4.91c0,0-1.6-9.79-13-8.2-8.24,1.16-8.18,8.14-8.18,8.14S22.35,98,20.7,102.92Z"/><path class="cls-4" d="M151.24,68l31,.09s-1.62-3.27-6.51-3.28c0,0-1.61-8.16-8.13-8.18s-8.18,6.5-8.18,6.5S151.26,63.15,151.24,68Z"/><path class="cls-5" d="M167.69,164.27c8.26-37.48-17.83-37.56-21.09-40.83s-8.08-22.86-32.54-26.19S84.66,113.47,78.11,120s-22.84,4.82-31,16.22-3.34,27.71-3.34,27.71Z"/><path class="cls-6" d="M138.34,160.3s-9.78-1.66-14.69,4.85l44,.12s-4.87-9.8-17.91-9.83C143.25,155.42,138.34,160.3,138.34,160.3Z"/><path class="cls-3" d="M138.64,159.21c-5.78-.9-11.91.59-15.78,5.14a1.14,1.14,0,0,0,.79,1.92l44,.13a1.14,1.14,0,0,0,1-1.69c-5.7-11.08-22.23-13.74-31.11-5.21-1.05,1,.54,2.59,1.59,1.59,7.87-7.55,22.56-5,27.58,4.75l1-1.69-44-.13.8,1.92c3.32-3.9,8.59-5.34,13.6-4.56C139.46,161.6,140.07,159.43,138.64,159.21Z"/><path class="cls-6" d="M48.11,165.54s5.44-8.75,15.23-10.36c0,0,8.16-1.6,13,3.3,0,0,9.79,0,9.77,6.56C86.14,165,48.63,164.93,48.11,165.54Z"/><path class="cls-3" d="M49.08,166.11c3.62-5.67,10.22-9.92,17-10a14.35,14.35,0,0,1,6.62,1.28c1.37.66,2.34,1.85,3.76,2.26,3.46,1,8.14.32,8.56,5.43l1.12-1.13q-9.9,0-19.81,0c-4.33,0-8.65.05-13,.16-1.63,0-4.28-.32-5.81.47-1.28.66-.15,2.61,1.14,1.94s5.26-.18,7-.21c4.23-.08,8.45-.1,12.67-.12q8.93,0,17.83,0A1.14,1.14,0,0,0,87.27,165c-.35-4.21-3.38-6.37-7.31-7.25a16.35,16.35,0,0,1-3.81-1c-2.58-1.3-4.42-2.51-7.44-2.85-8.51-1-17,3.92-21.57,11C46.36,166.19,48.31,167.32,49.08,166.11Z"/><path class="cls-7" d="M125,151.63v5.56a8.36,8.36,0,0,1-8.34,8.34H86.06a8.37,8.37,0,0,1-8.35-8.34v-5.56A8.37,8.37,0,0,0,86.06,160h30.59A8.36,8.36,0,0,0,125,151.63Z"/><path class="cls-8" d="M101.35,151.63a2.78,2.78,0,1,1-2.78,2.78A2.79,2.79,0,0,1,101.35,151.63Z"/><path class="cls-9" d="M101.35,160H86.06a8.37,8.37,0,0,1-8.35-8.34v-2.78h23.64v2.78a2.78,2.78,0,0,0,0,5.56Z"/><path class="cls-9" d="M125,148.85v2.78a8.36,8.36,0,0,1-8.34,8.34h-15.3v-2.78a2.78,2.78,0,0,0,0-5.56v-2.78Z"/><path class="cls-10" d="M77.71,115.47v2.78a1.39,1.39,0,0,1-1.39,1.39H72.15a1.39,1.39,0,0,1-1.39-1.39v-2.78h6.95Z"/><path class="cls-10" d="M81.88,123.82V112.69a4.17,4.17,0,0,1,4.18,4.17v7Z"/><path class="cls-11" d="M77.71,118.25v-2.78H70.76v2.78a1.39,1.39,0,0,0,1.39,1.39h4.17A1.39,1.39,0,0,0,77.71,118.25Zm4.17-5.56v11.13h4.18v-7A4.17,4.17,0,0,0,81.88,112.69Zm13.91-7v36.15l-7-4.17H62.41v-32H95.79Z"/><path class="cls-11" d="M140.29,94.61v25H113.87l-7,4.18V94.61h33.38Z"/><path class="cls-1" d="M125,119.64v29.21H77.71V137.72H88.84l7,4.17V105.74H77.71V87.66H125v7H106.91v29.21l7-4.18Z"/><path class="cls-9" d="M125,87.66H77.71V86.27a7,7,0,0,1,7-7H118a7,7,0,0,1,6.95,7Z"/><path class="cls-3" d="M116.65,161.36H86.06a9.75,9.75,0,0,1-9.74-9.73,1.39,1.39,0,0,1,2.78,0,7,7,0,0,0,7,7h30.59a7,7,0,0,0,6.95-7,1.39,1.39,0,0,1,2.78,0A9.74,9.74,0,0,1,116.65,161.36Z"/><path class="cls-3" d="M97.22,84.88a1.4,1.4,0,0,1-1.4-1.39,1.39,1.39,0,0,1,1.39-1.39h0a1.39,1.39,0,0,1,0,2.78Z"/><path class="cls-3" d="M105.52,84.88h-4.17a1.39,1.39,0,0,1,0-2.78h4.17a1.39,1.39,0,0,1,0,2.78Z"/><path class="cls-3" d="M125,87.66a1.39,1.39,0,0,1-1.39-1.39A5.56,5.56,0,0,0,118,80.71a1.39,1.39,0,0,1,0-2.78,8.35,8.35,0,0,1,8.34,8.34A1.39,1.39,0,0,1,125,87.66Z"/><path class="cls-3" d="M77.71,87.66a1.39,1.39,0,0,1-1.39-1.39,8.36,8.36,0,0,1,8.34-8.35,1.4,1.4,0,1,1,0,2.79,5.57,5.57,0,0,0-5.56,5.56A1.39,1.39,0,0,1,77.71,87.66Z"/><path class="cls-3" d="M125,89.05H77.71a1.39,1.39,0,1,1,0-2.78H125a1.39,1.39,0,1,1,0,2.78Z"/><path class="cls-3" d="M116.65,166.92H86.06a9.74,9.74,0,0,1-9.74-9.73V137.72a1.39,1.39,0,0,1,2.78,0v19.47a7,7,0,0,0,7,6.95h30.59a7,7,0,0,0,6.95-6.95V119.64a1.39,1.39,0,0,1,2.78,0v37.55A9.73,9.73,0,0,1,116.65,166.92Z"/><path class="cls-3" d="M125,150.24H77.71a1.39,1.39,0,1,1,0-2.78H125a1.39,1.39,0,1,1,0,2.78Z"/><path class="cls-3" d="M101.35,158.58a4.17,4.17,0,1,1,4.17-4.17A4.17,4.17,0,0,1,101.35,158.58Zm0-5.56a1.39,1.39,0,1,0,1.39,1.39A1.39,1.39,0,0,0,101.35,153Z"/><path class="cls-3" d="M95.79,143.29a1.42,1.42,0,0,1-.72-.2l-6.62-4h-26A1.39,1.39,0,0,1,61,137.72v-32a1.39,1.39,0,0,1,1.39-1.39H95.79a1.39,1.39,0,0,1,1.39,1.39v36.16a1.38,1.38,0,0,1-.7,1.21A1.33,1.33,0,0,1,95.79,143.29Zm-32-7h25a1.36,1.36,0,0,1,.71.2l4.85,2.91V107.12H63.81Z"/><path class="cls-3" d="M106.91,125.2a1.4,1.4,0,0,1-1.39-1.39V94.61a1.39,1.39,0,0,1,1.39-1.39h33.38a1.39,1.39,0,0,1,1.39,1.39v25a1.39,1.39,0,0,1-1.39,1.39h-26l-6.62,4A1.41,1.41,0,0,1,106.91,125.2Zm1.4-29.2v25.36l4.84-2.91a1.42,1.42,0,0,1,.72-.2h25V96Z"/><path class="cls-3" d="M77.71,107.12a1.39,1.39,0,0,1-1.39-1.39V86.27a1.39,1.39,0,0,1,2.78,0v19.46A1.39,1.39,0,0,1,77.71,107.12Z"/><path class="cls-3" d="M125,96a1.39,1.39,0,0,1-1.39-1.39V86.27a1.39,1.39,0,0,1,2.78,0v8.34A1.39,1.39,0,0,1,125,96Z"/><path class="cls-3" d="M133.34,103H113.87a1.39,1.39,0,0,1,0-2.78h19.47a1.39,1.39,0,0,1,0,2.78Z"/><path class="cls-3" d="M133.34,108.52H113.87a1.39,1.39,0,0,1,0-2.78h19.47a1.39,1.39,0,0,1,0,2.78Z"/><path class="cls-3" d="M123.6,114.08h-9.73a1.39,1.39,0,0,1,0-2.78h9.73a1.39,1.39,0,0,1,0,2.78Z"/><path class="cls-3" d="M74.24,132.16a1.39,1.39,0,0,1-1.39-1.39V119.65a1.39,1.39,0,0,1,2.78,0v11.12A1.39,1.39,0,0,1,74.24,132.16Z"/><path class="cls-3" d="M72.14,121a2.77,2.77,0,0,1-2.77-2.77A1.32,1.32,0,0,1,70.68,117a1.47,1.47,0,0,1,1.47,1.3,1.39,1.39,0,1,1,0,2.78Z"/><path class="cls-3" d="M76.32,121a1.39,1.39,0,1,1,0-2.78,1.4,1.4,0,0,1,2.79,0A2.79,2.79,0,0,1,76.32,121Z"/><path class="cls-3" d="M76.33,121H72.14a1.39,1.39,0,0,1,0-2.78h4.19a1.39,1.39,0,0,1,0,2.78Z"/><path class="cls-3" d="M70.76,119.64a1.39,1.39,0,0,1-1.39-1.39v-5.56a1.39,1.39,0,0,1,2.78,0v5.56A1.39,1.39,0,0,1,70.76,119.64Z"/><path class="cls-3" d="M77.71,119.64a1.39,1.39,0,0,1-1.39-1.39v-5.56a1.4,1.4,0,0,1,2.79,0v5.56A1.4,1.4,0,0,1,77.71,119.64Z"/><path class="cls-3" d="M81.88,132.16a1.39,1.39,0,0,1-1.39-1.39V112.68a1.4,1.4,0,0,1,2.79,0v18.09A1.4,1.4,0,0,1,81.88,132.16Z"/><path class="cls-3" d="M86.06,118.26a1.4,1.4,0,0,1-1.39-1.4,2.79,2.79,0,0,0-2.79-2.78,1.4,1.4,0,0,1,0-2.79,5.58,5.58,0,0,1,5.57,5.57A1.4,1.4,0,0,1,86.06,118.26Z"/><path class="cls-3" d="M86.06,125.2a1.39,1.39,0,0,1-1.39-1.39v-7a1.39,1.39,0,1,1,2.78,0v7A1.39,1.39,0,0,1,86.06,125.2Z"/><path class="cls-3" d="M86.06,125.2H81.88a1.39,1.39,0,0,1,0-2.78h4.18a1.39,1.39,0,0,1,0,2.78Z"/><path class="cls-3" d="M77.71,116.86H70.76a1.39,1.39,0,1,1,0-2.78h6.95a1.39,1.39,0,1,1,0,2.78Z"/><path class="cls-3" d="M74.24,116.86a1.4,1.4,0,0,1-1.4-1.39v-2.78a1.4,1.4,0,0,1,2.79,0v2.78A1.4,1.4,0,0,1,74.24,116.86Z"/><path class="cls-4" d="M69.77,48.5A11.28,11.28,0,1,1,58.49,59.78,11.27,11.27,0,0,1,69.77,48.5Z"/><path class="cls-12" d="M112.74,30a7.33,7.33,0,0,1,0,10.36l-.64.63L101.73,51.32,91.37,40.94l-.64-.64A7.32,7.32,0,1,1,101.09,30l.64.64.66-.64A7.32,7.32,0,0,1,112.74,30Z"/><path class="cls-9" d="M131.8,67.3v1.88h-7.52V50.38h7.52V67.3Z"/><path class="cls-13" d="M148.72,52.26A3.75,3.75,0,0,1,152.48,56v9.4a3.77,3.77,0,0,1-3.76,3.76H137.44l-1.88-1.88H131.8v-15h5.64l1.88-6.58c.54-1.9,1.26-2.82,2.82-2.82A2.82,2.82,0,0,1,145,45.68v6.58Z"/><path class="cls-3" d="M101.73,53.19a1.88,1.88,0,0,1-1.33-.55l-11-11A9.2,9.2,0,0,1,101.73,28a9.2,9.2,0,0,1,12.35.63,9.19,9.19,0,0,1,0,13l-.66.66L103.06,52.64a1.88,1.88,0,0,1-1.33.55ZM95.89,29.68A5.44,5.44,0,0,0,92.05,39l9.68,9.68L111.42,39a5.42,5.42,0,0,0,0-7.68,5.58,5.58,0,0,0-7.71,0l-.65.65a1.88,1.88,0,0,1-2.65,0l-.64-.65a5.46,5.46,0,0,0-3.87-1.6Z"/><path class="cls-3" d="M152.48,57.89A1.88,1.88,0,0,1,150.6,56a1.88,1.88,0,0,0-1.88-1.88,1.88,1.88,0,1,1,0-3.76A5.65,5.65,0,0,1,154.36,56,1.88,1.88,0,0,1,152.48,57.89Z"/><path class="cls-3" d="M148.72,71a1.88,1.88,0,1,1,0-3.75,1.89,1.89,0,0,0,1.88-1.88,1.88,1.88,0,1,1,3.76,0A5.64,5.64,0,0,1,148.72,71Z"/><path class="cls-3" d="M152.48,67.29a1.88,1.88,0,0,1-1.88-1.88V56a1.88,1.88,0,1,1,3.76,0v9.4A1.88,1.88,0,0,1,152.48,67.29Z"/><path class="cls-3" d="M148.72,54.13H145a1.88,1.88,0,1,1,0-3.76h3.76a1.88,1.88,0,0,1,0,3.76Z"/><path class="cls-3" d="M148.72,71H137.44a1.88,1.88,0,1,1,0-3.75h11.28a1.88,1.88,0,1,1,0,3.75Z"/><path class="cls-3" d="M145,54.13a1.88,1.88,0,0,1-1.88-1.88V45.67a1.88,1.88,0,0,1,3.76,0v6.58A1.88,1.88,0,0,1,145,54.13Z"/><path class="cls-3" d="M137.44,54.13a2.4,2.4,0,0,1-.52-.07,1.9,1.9,0,0,1-1.29-2.33l1.88-6.57a1.88,1.88,0,1,1,3.62,1l-1.88,6.57A1.89,1.89,0,0,1,137.44,54.13Z"/><path class="cls-3" d="M139.32,47.55a1.86,1.86,0,0,1-.52-.07,1.89,1.89,0,0,1-1.29-2.33c.33-1.14,1.2-4.18,4.63-4.18a4.71,4.71,0,0,1,4.7,4.7,1.88,1.88,0,0,1-3.76,0,.94.94,0,0,0-.94-.94c-.35,0-.6,0-1,1.46a1.89,1.89,0,0,1-1.81,1.36Z"/><path class="cls-3" d="M137.44,71a1.87,1.87,0,0,1-1.33-.55l-1.88-1.88A1.88,1.88,0,0,1,136.89,66l1.88,1.88a1.88,1.88,0,0,1-1.33,3.2Z"/><path class="cls-3" d="M137.44,54.13H131.8a1.88,1.88,0,0,1,0-3.76h5.64a1.88,1.88,0,0,1,0,3.76Z"/><path class="cls-3" d="M135.56,69.17H131.8a1.88,1.88,0,1,1,0-3.76h3.76a1.88,1.88,0,0,1,0,3.76Z"/><path class="cls-3" d="M131.8,71h-7.52a1.88,1.88,0,0,1-1.88-1.87V50.37a1.88,1.88,0,0,1,1.88-1.88h7.52a1.88,1.88,0,0,1,1.88,1.88v18.8A1.88,1.88,0,0,1,131.8,71Zm-5.64-3.75h3.76v-15h-3.76Z"/><path class="cls-3" d="M69.78,72.92A13.16,13.16,0,1,1,82.93,59.77,13.17,13.17,0,0,1,69.78,72.92Zm0-22.55a9.4,9.4,0,1,0,9.39,9.4A9.41,9.41,0,0,0,69.78,50.37Z"/><path class="cls-3" d="M69.78,65.41a1.88,1.88,0,0,1-1.88-1.88V56a1.88,1.88,0,1,1,3.76,0v7.52A1.88,1.88,0,0,1,69.78,65.41Z"/><path class="cls-3" d="M73.54,61.65H66a1.88,1.88,0,1,1,0-3.76h7.52a1.88,1.88,0,0,1,0,3.76Z"/></g></svg>