<?xml version="1.0" encoding="utf-8"?>
<!-- Generator: Adobe Illustrator 23.0.1, SVG Export Plug-In . SVG Version: 6.00 Build 0)  -->
<svg version="1.1" id="Layer_1" xmlns="http://www.w3.org/2000/svg" xmlns:xlink="http://www.w3.org/1999/xlink" x="0px" y="0px"
	 viewBox="0 0 612 792" style="enable-background:new 0 0 612 792;" xml:space="preserve">
<style type="text/css">
	.st0{clip-path:url(#SVGID_2_);}
	.st1{filter:url(#Adobe_OpacityMaskFilter);}
	.st2{clip-path:url(#SVGID_6_);fill:url(#SVGID_8_);}
	.st3{clip-path:url(#SVGID_6_);mask:url(#SVGID_7_);fill:url(#SVGID_9_);}
	.st4{clip-path:url(#SVGID_11_);fill:url(#SVGID_12_);}
	.st5{clip-path:url(#SVGID_11_);fill:#914D1B;}
	.st6{clip-path:url(#SVGID_11_);fill:#462D0B;}
	.st7{clip-path:url(#SVGID_11_);fill:#FD5F8F;}
	.st8{clip-path:url(#SVGID_11_);fill:#FB8EAC;}
	.st9{clip-path:url(#SVGID_11_);fill:#F3CBAA;}
	.st10{clip-path:url(#SVGID_11_);fill:#FCD9BD;}
	.st11{clip-path:url(#SVGID_11_);fill:#FEC300;}
	.st12{clip-path:url(#SVGID_11_);fill:#FD3A86;}
	.st13{clip-path:url(#SVGID_11_);fill:#007CBC;}
	.st14{clip-path:url(#SVGID_11_);fill:#F49F6D;}
	.st15{clip-path:url(#SVGID_11_);fill:#FC3C80;}
	.st16{clip-path:url(#SVGID_11_);fill:#EE4E57;}
	.st17{clip-path:url(#SVGID_11_);fill:#F3F3F4;}
	.st18{clip-path:url(#SVGID_11_);fill:#FFFFFF;}
	.st19{clip-path:url(#SVGID_11_);fill:#BF7861;}
	.st20{clip-path:url(#SVGID_11_);fill:#11040F;}
	.st21{clip-path:url(#SVGID_11_);fill:#EAF4ED;}
	.st22{fill:#F3F3F4;}
	.st23{font-family:'Montserrat-Bold';}
	.st24{font-size:21.2356px;}
</style>
<g>
	<defs>
		<rect id="SVGID_1_" width="612" height="792"/>
	</defs>
	<clipPath id="SVGID_2_">
		<use xlink:href="#SVGID_1_"  style="overflow:visible;"/>
	</clipPath>
	<g class="st0">
		<defs>
			<rect id="SVGID_3_" y="58" width="612" height="675"/>
		</defs>
		<clipPath id="SVGID_4_">
			<use xlink:href="#SVGID_3_"  style="overflow:visible;"/>
		</clipPath>
	</g>
	<g class="st0">
		<defs>
			<path id="SVGID_5_" d="M21.4,435.9c0,159.2,127.4,288.3,284.6,288.3s284.6-129.1,284.6-288.3c0-159.2-127.4-288.3-284.6-288.3
				S21.4,276.7,21.4,435.9"/>
		</defs>
		<clipPath id="SVGID_6_">
			<use xlink:href="#SVGID_5_"  style="overflow:visible;"/>
		</clipPath>
		<defs>
			<filter id="Adobe_OpacityMaskFilter" filterUnits="userSpaceOnUse" x="21.4" y="147.6" width="569.2" height="576.6">
				<feColorMatrix  type="matrix" values="1 0 0 0 0  0 1 0 0 0  0 0 1 0 0  0 0 0 1 0"/>
			</filter>
		</defs>
		<mask maskUnits="userSpaceOnUse" x="21.4" y="147.6" width="569.2" height="576.6" id="SVGID_7_">
			<g class="st1">
				
					<radialGradient id="SVGID_8_" cx="-5.326365e-08" cy="792" r="1" gradientTransform="matrix(286.4764 0 0 -286.4764 306 227325.2344)" gradientUnits="userSpaceOnUse">
					<stop  offset="0" style="stop-color:#000000"/>
					<stop  offset="0.4746" style="stop-color:#020202"/>
					<stop  offset="0.6456" style="stop-color:#090909"/>
					<stop  offset="0.7675" style="stop-color:#141414"/>
					<stop  offset="0.866" style="stop-color:#252525"/>
					<stop  offset="0.9494" style="stop-color:#3B3B3B"/>
					<stop  offset="1" style="stop-color:#4D4D4D"/>
				</radialGradient>
				<rect x="21.4" y="147.6" class="st2" width="569.2" height="576.6"/>
			</g>
		</mask>
		
			<radialGradient id="SVGID_9_" cx="-5.326365e-08" cy="792" r="1" gradientTransform="matrix(286.4764 0 0 -286.4764 306 227325.2344)" gradientUnits="userSpaceOnUse">
			<stop  offset="0" style="stop-color:#FFFFFF"/>
			<stop  offset="0.3945" style="stop-color:#FDFFFF"/>
			<stop  offset="0.5366" style="stop-color:#F6FDFF"/>
			<stop  offset="0.6379" style="stop-color:#EBFBFF"/>
			<stop  offset="0.7199" style="stop-color:#DAF8FF"/>
			<stop  offset="0.7901" style="stop-color:#C4F4FF"/>
			<stop  offset="0.8522" style="stop-color:#A8EFFF"/>
			<stop  offset="0.9083" style="stop-color:#88E9FF"/>
			<stop  offset="0.9583" style="stop-color:#64E3FF"/>
			<stop  offset="1" style="stop-color:#3FDCFF"/>
		</radialGradient>
		<rect x="21.4" y="147.6" class="st3" width="569.2" height="576.6"/>
	</g>
	<g class="st0">
		<defs>
			<rect id="SVGID_10_" width="612" height="792"/>
		</defs>
		<clipPath id="SVGID_11_">
			<use xlink:href="#SVGID_10_"  style="overflow:visible;"/>
		</clipPath>
		
			<radialGradient id="SVGID_12_" cx="7.443941e-07" cy="792" r="1" gradientTransform="matrix(286.976 0 0 -286.976 306 227720.9219)" gradientUnits="userSpaceOnUse">
			<stop  offset="0" style="stop-color:#FFFFFF"/>
			<stop  offset="1" style="stop-color:#FC3C80"/>
		</radialGradient>
		<path class="st4" d="M590.6,435.9L590.6,435.9c0-159.2-127.4-288.3-284.6-288.3c-157.2,0-284.6,129.1-284.6,288.3
			c0,159.2,127.4,288.3,284.6,288.3C463.2,724.2,590.6,595.1,590.6,435.9L590.6,435.9L590.6,435.9c0,159.2-127.4,288.3-284.6,288.3
			c-157.2,0-284.6-129.1-284.6-288.3c0-159.2,127.4-288.3,284.6-288.3C463.2,147.6,590.6,276.7,590.6,435.9L590.6,435.9z"/>
		<path class="st5" d="M236.5,379c7.4,21.5,23.9,43.8,46.6,53.2c-10.6-14.6-20.4-33.4-23.8-53.9L236.5,379z"/>
		<path class="st5" d="M258.3,350.5c1.5-22.9,7.1-38.5,11.8-47.8c-3.4-6.6-3.8-11.8-3.8-11.8v-20.5c-5.7-13.3-10.7-29.1-6.5-36.6
			c3.7-6.5,9.5-6.6,14.6-4.8c2.3-3.1,5.2-6.4,8.2-9.6c1.4-1.5,2.9-3,4.3-4.4c0.5-0.5,1-1,1.6-1.5l-5-8.5
			c-18.9,8.4-42.8,22.6-42.8,40.5c0,29.6,15.2,31.9,15.2,47.1c0,15.2-23.9,30.4-23.9,62.3l5.2-1
			C237.2,354.1,248.1,351.3,258.3,350.5 M264.2,267.4v13.1c0,0-5.7-2.5-5.7-6.6C258.5,268.5,264.2,267.4,264.2,267.4"/>
		<path class="st5" d="M329,432.2c22.7-9.4,39.1-31.7,46.6-53.2l-22.8-0.6C349.3,398.8,339.5,417.6,329,432.2"/>
		<path class="st5" d="M325,215.1c1.5,1.4,2.9,2.9,4.3,4.4c3.1,3.2,5.9,6.5,8.2,9.7c5.1-1.9,11-1.8,14.7,4.7
			c4.2,7.5-0.8,23.4-6.5,36.7v20.3c0,0-0.5,5.1-3.8,11.7c4.7,9.2,10.3,24.8,11.8,47.8c10.2,0.9,21.1,3.6,21.1,3.6l5.2,1
			c0-31.9-23.9-47.1-23.9-62.3c0-15.2,15.2-17.5,15.2-47.1c0-18-23.9-32.1-42.8-40.5l-5,8.5C324,214.1,324.5,214.6,325,215.1
			 M347.8,280.5v-13.1c0,0,5.7,1.1,5.7,6.6C353.5,278,347.8,280.5,347.8,280.5"/>
		<path class="st5" d="M314.3,332.3c-2.6,1.2-5.3,1.9-8.3,1.9v0c0,0,0,0,0,0c0,0,0,0,0,0v0c-3,0-5.7-0.7-8.3-1.9
			c-2.6-1.2-5-2.9-7.3-5c-1.1,9.1-1.9,18.1-2.5,25.2c1.6,0.2,3.2,0.3,4.6,0.3c0,0,0.2,0.1,0.5,0.3l4.7-20.7c2.6,1.2,5.3,1.9,8.3,1.9
			c3,0,5.8-0.7,8.3-1.9l4.7,20.7c0.4-0.2,0.6-0.3,0.6-0.3c1.4,0,3-0.1,4.6-0.3c-0.6-7.1-1.4-16.1-2.5-25.3
			C319.3,329.3,316.9,331.1,314.3,332.3"/>
		<path class="st5" d="M305.9,356.5c0,0,0.1,0,0.1,0l0-14.3L305.9,356.5z"/>
		<path class="st6" d="M276.1,311.6c-2.7-3.1-4.6-6.1-6-8.9c-4.6,9.3-10.2,24.8-11.8,47.8c1.9-0.2,3.7-0.2,5.5-0.2
			c9.1,0,17.4,1.7,24,2.3c0.6-7.1,1.4-16.1,2.5-25.2C285.3,322.9,280.8,317,276.1,311.6"/>
		<path class="st6" d="M328.4,205.1c-12.3-5.5-20.7-8.3-20.7-8.3s6.5,7.5,15.8,16.8L328.4,205.1z"/>
		<path class="st6" d="M307.7,196.8c0,0-11.8,2.8-24.1,8.3l5,8.5C298.1,204.3,307.7,196.8,307.7,196.8"/>
		<path class="st6" d="M345.7,267.2v3.4c5.7-13.3,10.8-29.3,6.5-36.7c-3.7-6.6-9.5-6.6-14.7-4.7c0.3,0.4,0.6,0.9,0.9,1.3
			c2.7,3.7,4.4,9.5,5.5,15.4c0,0,0,0,0,0C345.9,256.3,345.7,267.2,345.7,267.2"/>
		<path class="st6" d="M335.8,311.6c-4.6,5.3-9.1,11.2-14.1,15.6c1.1,9.2,1.9,18.2,2.5,25.3c6.7-0.7,14.9-2.3,24-2.3
			c1.8,0,3.6,0.1,5.5,0.2c-1.5-23-7.2-38.6-11.8-47.8C340.4,305.5,338.5,308.6,335.8,311.6"/>
		<path class="st6" d="M267.9,245.8C268,245.8,268,245.8,267.9,245.8c1.1-5.9,2.8-11.7,5.5-15.4c0.3-0.4,0.6-0.9,1-1.3
			c-5.1-1.8-10.9-1.8-14.6,4.8c-4.2,7.4,0.8,23.3,6.5,36.6v-3.3C266.2,267.2,266.1,256.3,267.9,245.8"/>
		<path class="st6" d="M340.6,378v9.6c0,9.6-4.8,15.3-11.6,20.9c-5.7,3.4-5.7,9.9-5.7,9.9v16c1.9-0.6,3.8-1.3,5.6-2
			c10.6-14.6,20.4-33.4,23.8-53.9L340.6,378z"/>
		<path class="st6" d="M283,408.4c-6.8-5.5-11.6-11.3-11.6-20.9V378l-12.2,0.3c3.5,20.5,13.3,39.3,23.8,53.9c1.8,0.8,3.7,1.4,5.6,2
			v-16C288.7,418.3,288.7,411.8,283,408.4"/>
		<path class="st7" d="M268,245.8c4.1-2.3,9.4-5.2,14.7-7.9v-18.5c-3.1,3.2-5.9,6.5-8.2,9.6c-0.3,0.4-0.6,0.9-1,1.3
			C270.7,234.1,269,239.9,268,245.8"/>
		<path class="st8" d="M282.6,238.1c1.5-0.8,2.9-1.5,4.3-2.2v-20.8c-1.5,1.4-2.9,2.9-4.3,4.4v18.5V238.1z"/>
		<path class="st9" d="M264.2,280.5v-13.1c0,0-5.7,1.1-5.7,6.6C258.5,278,264.2,280.5,264.2,280.5"/>
		<path class="st9" d="M305.9,342.3l0,14.3c0,0,0,0,0,0c6.3,0,11.4-2.5,13-3.4l-4.7-20.7c-2.6,1.2-5.3,1.9-8.3,1.9
			c-3,0-5.8-0.7-8.3-1.9l-4.7,20.7c1.6,0.9,6.6,3.4,12.9,3.4L305.9,342.3z"/>
		<path class="st10" d="M290.3,327.3c2.3,2,4.7,3.8,7.3,5c2.6,1.2,5.3,1.9,8.3,1.9v0c0,0,0,0,0,0c0,0,0,0,0,0v0c3,0,5.7-0.7,8.3-1.9
			c2.6-1.2,5-3,7.4-5c5-4.4,9.5-10.3,14.1-15.6c2.7-3.1,4.6-6.2,6.1-9c3.3-6.6,3.8-11.7,3.8-11.7v-20.3v-3.4c0,0,0.2-10.8-1.7-21.3
			c0,0,0,0,0,0c0,0.1,0,0.1,0,0.2c-4.1-2.3-23.8-15.8-29.2-15.8c-3.4,0-7.7,8.2-7.7,14c0-5.8-2.5-13.9-5.9-13.9
			c-2.1,0-7.8,2.5-14.3,5.7c-1.4,0.7-2.9,1.4-4.3,2.2v-0.1c-5.2,2.7-10.6,5.6-14.7,7.9c0,0,0,0,0,0c-1.9,10.5-1.7,21.3-1.7,21.3v3.3
			v20.5c0,0,0.5,5.2,3.8,11.8c1.4,2.8,3.4,5.9,6,8.9C280.8,317,285.3,322.9,290.3,327.3 M325.9,245.6c9.6,0,16,12.7,16,12.7
			s-9.1-10.5-16.7-10.5c-7.6,0-13.1,3.1-13.1,3.1S316.4,245.6,325.9,245.6 M324.3,255.2c7.6,0,13.8,6.2,13.8,13.8
			c0,7.6-6.2,13.8-13.8,13.8c-7.6,0-13.8-6.2-13.8-13.8C310.5,261.4,316.7,255.2,324.3,255.2 M306,302.5c8.7,0,13.1-2.9,16.7-4.6
			c3.6-1.7,2.7,2,2.7,4c0,2-2.7,12.5-20.5,12.5c-17.8,0-18.5-11.3-18.6-15.3c-0.1-4,2.5-1.6,7.5,1.4
			C298.7,303.7,306,302.5,306,302.5 M271.4,258.3c0,0,6.4-12.7,16-12.7c9.6,0,13.8,5.3,13.8,5.3s-5.6-3.1-13.1-3.1
			C280.5,247.8,271.4,258.3,271.4,258.3 M289.1,255.2c7.6,0,13.8,6.2,13.8,13.8c0,7.6-6.2,13.8-13.8,13.8c-7.6,0-13.8-6.2-13.8-13.8
			C275.3,261.4,281.5,255.2,289.1,255.2"/>
		<path class="st7" d="M287,215.1v20.8c6.4-3.2,12.1-5.7,14.3-5.7c3.4,0,5.9,8.1,5.9,13.9c0-5.8,4.3-14,7.7-14
			c5.4,0,25.1,13.5,29.2,15.8c0-0.1,0-0.1,0-0.2c-1.1-5.9-2.8-11.7-5.5-15.4c-0.3-0.4-0.6-0.9-0.9-1.3c-2.3-3.1-5.2-6.4-8.2-9.7
			c-1.4-1.5-2.9-3-4.3-4.4c-0.5-0.5-1-1-1.5-1.5c-9.3-9.3-15.8-16.8-15.8-16.8s-9.5,7.5-19.1,16.7C288,214,287.5,214.6,287,215.1"/>
		<path class="st9" d="M347.8,267.4v13.1c0,0,5.7-2.5,5.7-6.6C353.5,268.5,347.8,267.4,347.8,267.4"/>
		<path class="st11" d="M271.4,482c-5.1,7.8-10.8,78-10.8,78s0,0.7-0.1,2c2.2-0.6,5-1.2,7.9-1.2c7.2,0,14.7,12,18.9,20
			c0.6-4,1.9-7.4,3.2-12.6c7.2-25.2,9-55.5,9.4-65.5C291,501.2,275.6,496.5,271.4,482"/>
		<path class="st12" d="M268.3,560.8c-2.9,0-5.7,0.6-7.9,1.2c-0.6,15.6-4.8,117.6-4.8,124.4c0,7.3-20.9,12-26.3,14.1
			c-5.4,2.1-0.2,5.3,10.6,6.1c10.8,0.8,10.4-0.5,18.1-1.9c13.3-1.5,10.1-16.3,10.1-16.3s-1.5-8.6,6.9-34.4
			c10.3-33.1,11.7-60.4,11.7-67.4c0-2.1,0.2-4,0.4-5.7C283,572.8,275.6,560.8,268.3,560.8"/>
		<path class="st13" d="M285.4,456.9c-4.2,12.3-11.3,21.7-13.4,24.3c-0.4,0.5-0.6,0.8-0.6,0.8c4.2,14.4,19.6,19.1,28.4,20.7
			c3.7,0.6,6.2,0.7,6.2,0.7s2.5-0.1,6.2-0.7c8.8-1.5,24.2-6.2,28.4-20.7c0,0-0.2-0.3-0.6-0.8c-2.1-2.7-9.2-12.1-13.4-24.3
			c-4.7,1.4-12.2,2.3-20.6,2.3C297.6,459.3,290.1,458.3,285.4,456.9"/>
		<path class="st11" d="M306,356.5C306,356.5,306,356.5,306,356.5c-0.1,0-0.1,0-0.1,0c-6.4,0-11.4-2.5-12.9-3.4
			c-0.3-0.2-0.5-0.3-0.5-0.3s3.9,8.9,13.6,8.9c9.7,0,13.6-8.9,13.6-8.9s-0.2,0.1-0.6,0.3C317.4,354.1,312.3,356.5,306,356.5"/>
		<path class="st14" d="M121.2,377c-0.1-0.9-0.2-1.8-0.3-2.8c-1.9-13.2-4.1-26.3-7.5-26.3c-3.4,0,1.1,13,1.1,16s-2.4,10.5-2.4,16.2
			c0,5.7,2.6,7.3,6.1,7.2c0,0,2.4,0,3-5C121.3,380.9,121.4,379.2,121.2,377"/>
		<path class="st11" d="M312.2,502.7c0.4,10.1,2.2,40.3,9.4,65.5c1.3,5.2,2.5,8.6,3.2,12.6c4.2-8,11.7-20,18.9-20
			c2.9,0,5.7,0.6,7.9,1.2c-0.1-1.3-0.1-2-0.1-2s-5.7-70.2-10.8-78C336.4,496.5,321,501.2,312.2,502.7"/>
		<path class="st12" d="M324.8,580.8c0.3,1.7,0.4,3.6,0.4,5.7c0,7,1.4,34.4,11.7,67.4c8.5,25.8,6.9,34.4,6.9,34.4
			s-3.2,14.8,10.1,16.3c7.7,1.4,7.2,2.7,18.1,1.9c10.8-0.8,16.1-4,10.6-6.1c-5.4-2.1-26.3-6.7-26.3-14.1c0-6.8-4.1-108.8-4.8-124.4
			c-2.2-0.6-5-1.2-7.9-1.2C336.4,560.8,329,572.8,324.8,580.8"/>
		<path class="st11" d="M306,450.2c-6.2,0-11.9-0.5-16.3-1.3c-0.7-0.1-1.4-0.3-2-0.4c-0.1,0.3-0.1,0.6-0.2,0.9
			c-0.6,2.6-1.3,5.1-2.1,7.6c4.7,1.4,12.2,2.3,20.6,2.3c8.4,0,15.9-0.9,20.6-2.3c-0.8-2.4-1.6-5-2.1-7.6c-0.1-0.3-0.1-0.6-0.2-0.9
			c-0.6,0.1-1.3,0.3-2,0.4C317.9,449.7,312.2,450.2,306,450.2"/>
		<path class="st15" d="M490.8,377L380,355.1l-5.2-1c0,0-10.9-2.8-21.1-3.6c-1.9-0.2-3.7-0.2-5.5-0.2c-9.1,0-17.4,1.7-24,2.3
			c-1.6,0.2-3.2,0.3-4.6,0.3c0,0-3.9,8.9-13.6,8.9c-9.7,0-13.6-8.9-13.6-8.9c-1.4,0-3-0.1-4.6-0.3c-6.7-0.7-14.9-2.3-24-2.3
			c-1.8,0-3.6,0.1-5.5,0.2c-10.2,0.9-21.1,3.6-21.1,3.6l-5.2,1L121.2,377c0.2,2.2,0.2,3.9,0,5.2l115.3-3.3l22.8-0.6l12.2-0.3v9.6
			c0,9.6,4.8,15.3,11.6,20.9c5.7,3.4,5.7,9.9,5.7,9.9v16v4.5c0,0.5,0,0.9,0,1.4c-0.1,2.9-0.4,5.7-1,8.4c0.6,0.1,1.3,0.3,2,0.4
			c4.4,0.8,10.1,1.3,16.3,1.3c6.2,0,11.9-0.5,16.3-1.3c0.7-0.1,1.4-0.3,2-0.4c-0.5-2.7-0.9-5.5-1-8.4c0-0.5,0-0.9,0-1.4v-4.5v-16
			c0,0,0-6.5,5.7-9.9c6.8-5.5,11.6-11.3,11.6-20.9V378l12.2,0.3l22.8,0.6l115.3,3.3C490.7,380.9,490.6,379.2,490.8,377 M306,404.3
			c-11.4,0-20.7-9.3-20.7-20.7c0-11.4,9.3-20.7,20.7-20.7c11.4,0,20.7,9.3,20.7,20.7C326.7,395,317.4,404.3,306,404.3"/>
		<path class="st14" d="M497.5,363.8c0-2.9,4.6-16,1.1-16c-3.4,0-5.6,13.1-7.5,26.3c-0.1,1-0.3,2-0.3,2.8c-0.2,2.2-0.2,3.9,0,5.2
			c0.6,5.1,3,5,3,5c3.5,0.1,6.1-1.5,6.1-7.2C499.9,374.4,497.5,366.8,497.5,363.8"/>
		<path class="st13" d="M306,362.9c-11.4,0-20.7,9.3-20.7,20.7c0,11.4,9.3,20.7,20.7,20.7c11.4,0,20.7-9.3,20.7-20.7
			C326.7,372.2,317.4,362.9,306,362.9 M306,400.2c-9.1,0-16.5-7.4-16.5-16.5c0-9.1,7.4-16.5,16.5-16.5c9.1,0,16.5,7.4,16.5,16.5
			C322.5,392.8,315.1,400.2,306,400.2"/>
		<path class="st11" d="M306,367.1c-9.1,0-16.5,7.4-16.5,16.5c0,9.1,7.4,16.5,16.5,16.5c9.1,0,16.5-7.4,16.5-16.5
			C322.5,374.5,315.1,367.1,306,367.1 M306,393.9c-5.7,0-10.2-4.6-10.2-10.2c0-5.7,4.6-10.2,10.2-10.2c5.7,0,10.2,4.6,10.2,10.2
			C316.2,389.3,311.7,393.9,306,393.9"/>
		<path class="st16" d="M309.1,381.4h-1.4v4.3h1.5c1.3,0,2.2-0.9,2.2-2.1C311.4,382.3,310.4,381.4,309.1,381.4"/>
		<path class="st16" d="M306,373.4c-5.7,0-10.2,4.6-10.2,10.2s4.6,10.2,10.2,10.2c5.7,0,10.2-4.6,10.2-10.2S311.7,373.4,306,373.4
			 M301.4,387.2c-1.4,0-2.7-0.5-3.7-1.2l0.8-1.4c0.8,0.6,2.1,1.1,2.9,1.1c0.6,0,1-0.2,1-0.6c0-1.3-4.3-0.5-4.3-3.1
			c0-1.3,1.3-2.2,3.2-2.2c1.2,0,2.4,0.3,3.2,0.8l-0.8,1.4c-0.9-0.4-1.9-0.7-2.6-0.7c-0.5,0-0.9,0.2-0.9,0.5c0,1.2,4.3,0.5,4.3,3.1
			C304.6,386.5,303.2,387.2,301.4,387.2 M309.1,387.1h-3.4V380h3.5c2.5,0,4.3,1.5,4.3,3.6C313.5,385.7,311.7,387.1,309.1,387.1"/>
		<path class="st6" d="M301.2,250.9c0,0-4.3-5.3-13.8-5.3c-9.5,0-16,12.7-16,12.7s9.1-10.5,16.7-10.5
			C295.6,247.8,301.2,250.9,301.2,250.9"/>
		<path class="st6" d="M341.9,258.3c0,0-6.4-12.7-16-12.7c-9.5,0-13.8,5.3-13.8,5.3s5.6-3.1,13.1-3.1
			C332.8,247.8,341.9,258.3,341.9,258.3"/>
		<path class="st17" d="M289.1,282.8c7.6,0,13.8-6.2,13.8-13.8c0-7.6-6.2-13.8-13.8-13.8c-7.6,0-13.8,6.2-13.8,13.8
			C275.3,276.6,281.5,282.8,289.1,282.8 M289.1,260.4c4.8,0,8.7,3.9,8.7,8.7c0,4.8-3.9,8.7-8.7,8.7c-4.8,0-8.7-3.9-8.7-8.7
			C280.5,264.2,284.3,260.4,289.1,260.4"/>
		<path class="st18" d="M293.8,300.7c-5-3-7.6-5.4-7.5-1.4c0.1,4,0.8,15.3,18.6,15.3s20.5-10.5,20.5-12.5c0-2,0.9-5.7-2.7-4
			c-3.6,1.7-8,4.6-16.7,4.6C306,302.5,298.7,303.7,293.8,300.7"/>
		<path class="st19" d="M289.1,277.7c4.8,0,8.7-3.9,8.7-8.7c0-4.8-3.9-8.7-8.7-8.7c-4.8,0-8.7,3.9-8.7,8.7
			C280.5,273.8,284.3,277.7,289.1,277.7 M283.5,266.6c0-1.7,1.4-3.2,3.2-3.2c0.4,0,0.7,0.1,1,0.2c0.5-0.1,0.9-0.2,1.4-0.2
			c3.1,0,5.6,2.5,5.6,5.6c0,3.1-2.5,5.6-5.6,5.6c-3.1,0-5.6-2.5-5.6-5.6c0-0.5,0.1-1,0.2-1.4C283.6,267.3,283.5,266.9,283.5,266.6"
			/>
		<path class="st20" d="M289.1,274.6c3.1,0,5.6-2.5,5.6-5.6c0-3.1-2.5-5.6-5.6-5.6c-0.5,0-1,0.1-1.4,0.2c1.2,0.4,2.1,1.6,2.1,3
			c0,1.7-1.4,3.2-3.2,3.2c-1.4,0-2.5-0.9-3-2.1c-0.1,0.5-0.2,0.9-0.2,1.4C283.5,272.1,286,274.6,289.1,274.6"/>
		<path class="st21" d="M286.7,269.7c1.7,0,3.2-1.4,3.2-3.2c0-1.4-0.9-2.5-2.1-3c-0.3-0.1-0.7-0.2-1-0.2c-1.7,0-3.2,1.4-3.2,3.2
			c0,0.4,0.1,0.7,0.2,1C284.1,268.8,285.3,269.7,286.7,269.7"/>
		<path class="st17" d="M324.3,282.8c7.6,0,13.8-6.2,13.8-13.8c0-7.6-6.2-13.8-13.8-13.8c-7.6,0-13.8,6.2-13.8,13.8
			C310.5,276.6,316.7,282.8,324.3,282.8 M324.3,260.4c4.8,0,8.7,3.9,8.7,8.7c0,4.8-3.9,8.7-8.7,8.7c-4.8,0-8.7-3.9-8.7-8.7
			C315.7,264.2,319.6,260.4,324.3,260.4"/>
		<path class="st19" d="M324.3,277.7c4.8,0,8.7-3.9,8.7-8.7c0-4.8-3.9-8.7-8.7-8.7c-4.8,0-8.7,3.9-8.7,8.7
			C315.7,273.8,319.6,277.7,324.3,277.7 M318.7,266.6c0-1.7,1.4-3.2,3.2-3.2c0.4,0,0.7,0.1,1,0.2c0.5-0.1,0.9-0.2,1.4-0.2
			c3.1,0,5.6,2.5,5.6,5.6c0,3.1-2.5,5.6-5.6,5.6c-3.1,0-5.6-2.5-5.6-5.6c0-0.5,0.1-1,0.2-1.4C318.8,267.3,318.7,266.9,318.7,266.6"
			/>
		<path class="st20" d="M324.3,274.6c3.1,0,5.6-2.5,5.6-5.6c0-3.1-2.5-5.6-5.6-5.6c-0.5,0-1,0.1-1.4,0.2c1.2,0.4,2.1,1.6,2.1,3
			c0,1.7-1.4,3.2-3.2,3.2c-1.4,0-2.5-0.9-3-2.1c-0.1,0.5-0.2,0.9-0.2,1.4C318.7,272.1,321.2,274.6,324.3,274.6"/>
		<path class="st21" d="M321.9,269.7c1.7,0,3.2-1.4,3.2-3.2c0-1.4-0.9-2.5-2.1-3c-0.3-0.1-0.7-0.2-1-0.2c-1.7,0-3.2,1.4-3.2,3.2
			c0,0.4,0.1,0.7,0.2,1C319.3,268.8,320.5,269.7,321.9,269.7"/>
		<path class="st17" d="M300.3,381.9c0-0.3,0.4-0.5,0.9-0.5c0.7,0,1.7,0.3,2.6,0.8l0.8-1.4c-0.8-0.5-2-0.8-3.2-0.8
			c-1.9,0-3.2,0.8-3.2,2.2c0,2.5,4.3,1.8,4.3,3.1c0,0.4-0.4,0.6-1,0.6c-0.8,0-2.1-0.4-2.9-1.1l-0.8,1.4c1,0.7,2.3,1.2,3.7,1.2
			c1.8,0,3.2-0.8,3.2-2.2C304.6,382.4,300.3,383.1,300.3,381.9"/>
		<path class="st17" d="M309.2,380h-3.5v7.2h3.4c2.6,0,4.4-1.5,4.4-3.6C313.5,381.4,311.7,380,309.2,380 M309.2,385.7h-1.5v-4.3h1.4
			c1.3,0,2.2,0.9,2.2,2.1C311.4,384.8,310.5,385.7,309.2,385.7"/>
	</g>
	<g class="st0">
		<text transform="matrix(1.1225 0 0 1 290.7007 227.3984)" class="st22 st23 st24">SD</text>
	</g>
</g>
</svg>
