<?xml version="1.0" encoding="utf-8"?>
<!-- Generator: Adobe Illustrator 23.0.1, SVG Export Plug-In . SVG Version: 6.00 Build 0)  -->
<svg version="1.1" id="Layer_1" xmlns="http://www.w3.org/2000/svg" xmlns:xlink="http://www.w3.org/1999/xlink" x="0px" y="0px"
	 viewBox="0 0 40.4 40.4" style="enable-background:new 0 0 40.4 40.4;" xml:space="preserve">
<style type="text/css">
	.st0{fill:#494D56;}
	.st1{fill:#FFFFFF;}
	.st2{fill-rule:evenodd;clip-rule:evenodd;fill:#FFFFFF;}
</style>
<path class="st0" d="M40.4,20.2c0,11.2-9.1,20.2-20.2,20.2C9,40.4,0,31.4,0,20.2C0,9,9,0,20.2,0C31.4,0,40.4,9,40.4,20.2z"/>
<g>
	<path class="st2" d="M8,28.5c1.9,0.1,3.8-0.2,5.5-1c0.8-0.3,1.5-0.8,2.2-1.3c-0.8,0-1.6-0.2-2.3-0.6c-1.2-0.6-2-1.6-2.5-2.8
		c-0.1-0.3-0.1-0.3,0.2-0.3c0.8,0.1,1.5,0.1,1.9-0.1c-0.5-0.2-0.9-0.2-1.3-0.5c-1.8-1-2.7-2.5-2.9-4.5c0-0.2,0-0.3,0.3-0.2
		c0.6,0.3,1.3,0.5,2.1,0.6c-0.3-0.3-0.6-0.6-0.9-0.8c-1.5-1.6-1.8-4.1-0.8-6c0.1-0.3,0.2-0.3,0.4-0.1c2.5,2.9,5.6,4.6,9.3,5.2
		c0.4,0.1,0.8,0.1,1.2,0.2c0.3,0,0.3-0.1,0.3-0.3c-0.4-2.2,0.7-4.4,2.6-5.6c2-1.2,4.6-0.8,6.3,0.8c0.2,0.2,0.4,0.2,0.6,0.1
		c1-0.2,1.9-0.6,2.8-1.1c0.1,0,0.1-0.1,0.2-0.1c-0.4,1.3-1.1,2.2-2.2,2.9c1-0.1,1.9-0.4,2.9-0.8c0,0.1-0.1,0.2-0.1,0.3
		c-0.6,0.8-1.3,1.6-2.2,2.3c-0.2,0.1-0.2,0.2-0.2,0.4c0.1,3.9-1.2,7.4-3.7,10.4c-2.3,2.8-5.3,4.4-8.9,5c-3.8,0.6-7.3-0.1-10.6-2.1
		C8.1,28.5,8,28.5,8,28.5z"/>
</g>
</svg>
