<?xml version="1.0" encoding="utf-8"?>
<!-- Generator: Adobe Illustrator 23.0.1, SVG Export Plug-In . SVG Version: 6.00 Build 0)  -->
<svg version="1.1" id="Layer_1" xmlns="http://www.w3.org/2000/svg" xmlns:xlink="http://www.w3.org/1999/xlink" x="0px" y="0px"
	 viewBox="0 0 40.4 40.4" style="enable-background:new 0 0 40.4 40.4;" xml:space="preserve">
<style type="text/css">
	.st0{fill:url(#SVGID_1_);}
	.st1{fill-rule:evenodd;clip-rule:evenodd;fill:#FFFFFF;}
</style>
<linearGradient id="SVGID_1_" gradientUnits="userSpaceOnUse" x1="0" y1="20.2" x2="40.4" y2="20.2">
	<stop  offset="0" style="stop-color:#8267F7"/>
	<stop  offset="1" style="stop-color:#00E4D7"/>
</linearGradient>
<path class="st0" d="M40.4,20.2c0,11.2-9.1,20.2-20.2,20.2C9,40.4,0,31.4,0,20.2C0,9.1,9,0,20.2,0S40.4,9.1,40.4,20.2z"/>
<g>
	<path class="st1" d="M32.2,17.3c-1.3-5.6-6.2-9.4-12-9.5c-0.8,0-1.6,0.1-2.4,0.2C9.7,9.7,5.5,18.7,9.4,26c0.1,0.2,0.1,0.4,0.1,0.6
		c-0.6,1.9-1.1,3.8-1.6,5.7c-0.1,0.3-0.1,0.3,0.2,0.2c2-0.5,4-1,6-1.5c0.2,0,0.3,0,0.4,0c2.6,1.3,5.2,1.7,8.1,1.1
		C29.4,30.9,33.8,24,32.2,17.3z M21.9,30.2c-0.6,0.1-1.1,0.2-1.4,0.1c-2.2,0-3.9-0.5-5.5-1.4c-0.2-0.1-0.4-0.2-0.6-0.1
		c-1.1,0.3-2.2,0.6-3.3,0.9c-0.2,0.1-0.2,0-0.2-0.2c0.3-1,0.6-2,0.9-3.1c0.1-0.3,0.1-0.5-0.1-0.7C9.4,22,9.5,17.5,12,14.2
		c2.6-3.5,6.2-4.9,10.4-4c4.2,0.9,6.9,3.6,7.8,7.8C31.5,23.6,27.7,29.3,21.9,30.2z"/>
	<path class="st1" d="M23.4,26c-0.4,0-0.9,0-1.3-0.2c-2.8-0.8-4.9-2.5-6.7-4.9C14.8,20,14.2,19.1,14,18c-0.3-1.3,0.1-2.4,1.1-3.3
		c0.3-0.3,1.3-0.4,1.6-0.2c0.1,0.1,0.2,0.2,0.3,0.3c0.3,0.9,0.7,1.7,1.1,2.5c0.1,0.2,0,0.3-0.1,0.5c-0.2,0.4-0.5,0.7-0.8,1
		C17,19,17,19.2,17.1,19.5c1,1.7,2.4,2.9,4.2,3.6c0.3,0.1,0.5,0.1,0.6-0.1c0.3-0.4,0.6-0.8,0.9-1.1c0.2-0.2,0.4-0.3,0.7-0.2
		c0.6,0.3,1.2,0.6,1.8,0.8c0.2,0.1,0.3,0.1,0.4,0.2c0.6,0.3,0.6,0.3,0.5,1C26.1,25,25.1,25.6,24,26C23.9,26,23.7,26,23.4,26z"/>
</g>
</svg>
